<?xml version="1.0" standalone="no"?>
<!DOCTYPE svg PUBLIC "-//W3C//DTD SVG 20010904//EN"
 "http://www.w3.org/TR/2001/REC-SVG-20010904/DTD/svg10.dtd">
<svg version="1.0" xmlns="http://www.w3.org/2000/svg"
 width="500.000000pt" height="500.000000pt" viewBox="0 0 500.000000 500.000000"
 preserveAspectRatio="xMidYMid meet">
<g transform="translate(0.000000,500.000000) scale(0.100000,-0.100000)"
fill="#000000" stroke="none">
<path d="M466 2513 c1 -742 2 -1353 3 -1358 1 -11 4035 -15 4046 -3 5 5 10
2583 6 2696 -1 9 -413 12 -2029 12 l-2027 0 1 -1347z m3760 1048 c11 -1 16
-2120 5 -2122 -3 -1 -784 -2 -1734 -3 -1143 -1 -1731 2 -1736 9 -6 8 -8 2120
-2 2120 600 0 3459 -3 3467 -4z"/>
<path d="M2682 3299 c-16 -6 -17 -55 -17 -722 -1 -393 2 -714 6 -711 4 2 23
28 43 56 20 29 53 76 74 105 180 252 900 1260 904 1268 7 11 -979 15 -1010 4z"/>
<path d="M1330 3275 c0 -3 7 -13 15 -22 10 -14 626 -883 715 -1010 71 -102
293 -413 295 -413 1 0 2 325 1 723 l-1 722 -512 3 c-282 1 -513 0 -513 -3z"/>
<path d="M3904 3048 c-16 -24 -56 -81 -90 -128 -256 -356 -805 -1132 -809
-1142 -4 -11 84 -13 460 -12 256 0 468 4 472 8 8 8 10 1294 2 1307 -3 6 -19
-9 -35 -33z"/>
<path d="M1079 3054 c-3 -125 0 -1307 4 -1311 9 -8 937 -9 937 0 0 4 -109 162
-243 350 -134 188 -261 367 -282 397 -21 30 -111 156 -199 280 -88 124 -170
241 -183 260 -32 46 -33 46 -34 24z"/>
</g>
</svg>
