<svg xmlns="http://www.w3.org/2000/svg" viewBox="0 0 32.09 39.54"><g id="Layer_2" data-name="Layer 2"><g id="Layer_1-2" data-name="Layer 1"><path d="M31.45,6.16a21.62,21.62,0,0,1-15-6,.62.62,0,0,0-.9,0,21.62,21.62,0,0,1-15,6A.61.61,0,0,0,0,6.8v20c0,.64,3.7,9.25,13.61,12.07.32.09,2.14.64,2.44.64s2.12-.55,2.44-.64c9.76-2.67,13.61-11.34,13.61-12.07V6.8a.61.61,0,0,0-.64-.64ZM18.17,37.68,16,38.26l-2.12-.58A19.47,19.47,0,0,1,5,32.35a11.54,11.54,0,0,1,22.08-.06A19.94,19.94,0,0,1,18.17,37.68Zm12.64-11a20.12,20.12,0,0,1-2.76,4.49,13,13,0,0,0-8.67-7.9A7.06,7.06,0,1,0,9,17.07a7.16,7.16,0,0,0,3.72,6.23A12.72,12.72,0,0,0,4,31.19,18.77,18.77,0,0,1,1.28,26.7V7.45A23,23,0,0,0,16,1.54,23.35,23.35,0,0,0,30.81,7.45ZM16,22.85a5.78,5.78,0,1,1,5.78-5.78A5.75,5.75,0,0,1,16,22.85Z"/></g></g></svg>
