<svg xmlns="http://www.w3.org/2000/svg" viewBox="0 0 41.57 29.72"><g id="Layer_2" data-name="Layer 2"><g id="Layer_1-2" data-name="Layer 1"><path d="M38.3,10.54V1a1.09,1.09,0,0,0-.45-.83.88.88,0,0,0-1,0A110.68,110.68,0,0,1,22.26,6.88,46.38,46.38,0,0,1,9.37,9.45c-1.41.06-5.77,0-5.84,0A3.56,3.56,0,0,0,0,13v3.34a3.56,3.56,0,0,0,3.53,3.53H6.35v7.83a2.11,2.11,0,0,0,1,1.73,2.17,2.17,0,0,0,1.09.32,2.27,2.27,0,0,0,.9-.19l2.05-1a2,2,0,0,0,1.16-1.86V20.8c2.44.58,7.83,1.92,10,2.44a62.72,62.72,0,0,1,14.37,6,.88.88,0,0,0,1,0,.94.94,0,0,0,.45-.83V18.75a4.21,4.21,0,0,0,0-8.21ZM11.74,18.62a1,1,0,0,0-.83.19.91.91,0,0,0-.39.77V26.7c0,.06,0,.06-.06.06l-2.05,1H8.28a.06.06,0,0,1-.06-.06V18.88a1,1,0,0,0-1-1H3.46a1.59,1.59,0,0,1-1.6-1.6V13a1.59,1.59,0,0,1,1.6-1.6c.19,0,4.49.06,6,0A48.29,48.29,0,0,0,22.84,8.68,54,54,0,0,0,29,6.17V23.3a45.12,45.12,0,0,0-6.09-2c-2.76-.64-11.16-2.69-11.16-2.69ZM37.34,17a1,1,0,0,0-1,1V26.7c-1.22-.64-3.14-1.6-5.45-2.57V5.34c2.24-1.09,4.17-2.05,5.45-2.76v8.85a1,1,0,0,0,1,1,2.28,2.28,0,1,1,0,4.55Z"/></g></g></svg>
