<svg xmlns="http://www.w3.org/2000/svg" viewBox="0 0 37.82 33.54"><g id="Layer_2" data-name="Layer 2"><g id="Layer_1-2" data-name="Layer 1"><path d="M36.06,27.09a3.52,3.52,0,0,0-4.48.81l-6.34-3.66h-.06a7.39,7.39,0,0,0,.7-3,7,7,0,0,0-6.4-6.92V6.92a3.49,3.49,0,1,0-1.16,0V14.3a7,7,0,0,0-6.4,6.92,6.37,6.37,0,0,0,.7,3h-.06L6.24,27.85A3.52,3.52,0,0,0,1.76,27,3.46,3.46,0,0,0,.48,31.8a3.48,3.48,0,0,0,6.28-3l6.34-3.66a7.3,7.3,0,0,0,5.87,3,6.93,6.93,0,0,0,5.76-3h0l6.34,3.66a3.48,3.48,0,0,0,6.28,3,3.39,3.39,0,0,0-1.28-4.71Zm-31.28,5A2.34,2.34,0,0,1,2.46,28a2.28,2.28,0,0,1,3.14.87A2.28,2.28,0,0,1,4.78,32.09ZM16.64,3.49A2.33,2.33,0,1,1,19,5.81,2.33,2.33,0,0,1,16.64,3.49ZM19,27a5.81,5.81,0,1,1,5.81-5.81A5.83,5.83,0,0,1,19,27Zm17.38,4.24A2.34,2.34,0,1,1,32.28,29a2.27,2.27,0,0,1,3.14-.87,2.32,2.32,0,0,1,.93,3.2Z"/></g></g></svg>
