<svg xmlns="http://www.w3.org/2000/svg" viewBox="0 0 42.47 42.47"><title>earth</title><g id="Layer_2" data-name="Layer 2"><g id="Layer_1-2" data-name="Layer 1"><path d="M24.84,9.73c0,.16.22.61.11.8s-.77,1.14-.11,1.07,1.39-.35,1.12-.9-.59-1-.7-1.3a1.74,1.74,0,0,1-.1-.59s-.36-.4-.55-.37c0,0-.37.32-.3.61s.5.51.54.67Z"/><path d="M24.15,10.74c.19-.21.5-1.12-.16-.94a4.81,4.81,0,0,0-.69.94C23.31,10.9,24,11,24.15,10.74Z"/><path d="M42.4,19.6A21.2,21.2,0,0,0,35,5l-.51-.42a21.42,21.42,0,0,0-3.32-2.17A21.27,21.27,0,0,0,21.24,0a21.31,21.31,0,0,0-4,.39A21,21,0,0,0,14,1.28c-.58.21-1.15.45-1.7.71S11,2.61,10.45,3l-.17.1q-.53.32-1,.68L8.85,4A21.4,21.4,0,0,0,6.2,6.25a21.17,21.17,0,0,0-6.2,15s0,.08,0,.13a21.24,21.24,0,0,0,42.47-.13C42.47,20.68,42.45,20.14,42.4,19.6Zm-1,0a.28.28,0,0,0-.29.08c-.3.34-1.24,0-1.71-.68s-.42-1.23.26-.81a12.67,12.67,0,0,0,1.72,1.1c0,.1,0,.21,0,.32Zm-1.75-6.75-.06.1s-.22.17-.38.34.13.45.41.66.16.7.46,1a1.08,1.08,0,0,1-.18,1.27c-.23.12-.49-.13-1-.28s-.09-1.24-.11-1.32a5.18,5.18,0,0,0-.52-.78c-.24-.31,0-.34,0-.69s.95-.78.95-.78h.18l.21.45ZM1,22.13a3.77,3.77,0,0,0,1.83.31c.67-.13.45.42,1.09.61s1.15.83,1.92,1.63a1.43,1.43,0,0,0,1.59.43,3,3,0,0,1-.3,1.11c-.21.26-1.36-.51-.34,2.94s2.56,2.94,2.9,3.2,0,3.41-.08,4.91c0,.17,0,.33,0,.49A20.21,20.21,0,0,1,1,22.13ZM21.24,41.45a20.09,20.09,0,0,1-8.92-2.08l.06-.1c.34-.51,1-.47,1.23-.72A8.23,8.23,0,0,1,15,37.09c.68-.52.77-1.91.9-2.43s1.36-.9,1.88-1.19.34-1.88.38-2.39,1-1.28,1.15-2-1-1.11-1.66-1.37a7.85,7.85,0,0,0-2.39-.64c-1.19-.13-.6-1.58-1.71-1.71s-.56-.08-1.11-.6S11.78,24,10.93,24a4.84,4.84,0,0,1-1.71-.31c-.47-.17-1.36.64-1.36.64a2.31,2.31,0,0,1-.37.29A.81.81,0,0,1,7,24.39c-.13-.13-.34.26-.53.19s-.38-.53-.6-.67.1-.64-.11-1.22-.93-.1-1.34-.21.27-1,.46-1.33-.24-.34-.61-.3-.56.82-1.14.75-.75-.29-.72-.75-.46-.58,0-1.73,1.81-.66,2.13-.82a2.24,2.24,0,0,1,1.5.06c.67.19.54.9.58,1.15s.26-.9.19-1.6,1.06-.8,1.57-1.25a7.55,7.55,0,0,0,1.09-1.86c.26-.42.86-.48,1-1s.92-.63,1-.71.26,0,.16.29.22.2.48,0,1.19-.75,1-.9-.27.15-.46.11a.67.67,0,0,1-.44-.42c-.09-.2.13-.28-.05-.51s-.37-.33-.14-.5,1.3.08,1.75,0,.51-.19.49,0a2.91,2.91,0,0,1-.5.89c-.13.16,1.18.32,1.5.32s-.1-.74-.51-1,0-1-.1-1.43S13.72,9,13.64,8.7a9.56,9.56,0,0,0-.36-1.45c-.17-.3-.32.17-.49.38s-.47,0-.58-.08-.11-.15-.15-.77-1.19-1.17-1.62-1.19.11.81,0,1.13-.49.26-.3.94S9.37,9,9,9.19s.17,1.37-.24,1.3-.6-.7-.7-1,.28-.41.24-.58-.17,0-.41-.15a1.64,1.64,0,0,0-.58-.32C7,8.34,7.19,8.15,7,8a1.1,1.1,0,0,0-.75-.19H6.2a20.32,20.32,0,0,1,3.32-3l.19-.14A20.1,20.1,0,0,1,12.46,3a.47.47,0,0,1-.26.42c-.36.13-.17.62-.47.66s-.83.19-.92.47,1,.3,1.15.28.73.94,1,1.24.77-.32.9-.68-.45-1.13-.43-1.34.77.49.77.49.47-.49.6-.66-.36-.49-.64-.79-.28-.13-.32-.66v0a20.08,20.08,0,0,1,3.35-1c.36.31,0,1.46-.3,2.13a1.27,1.27,0,0,0-.08,1.24c.09.26,1.07,3.41,1.68,2.73s1.28-2.92,1.92-3,.73-.62,1.3-.77.92,0,1.51-.38.66-1.4,1-2.16A20,20,0,0,1,30,3a3.61,3.61,0,0,0-.38.41,8.08,8.08,0,0,0-1.13,2c-.32.68-1.21,1.29-1.47,1.69s-.26,1.63.14,1.63,1-.51,1.06-.38.56,1.12.9,1.06,1-1.42.86-2-.06-.77.08-.94.08-.83.58-.86.94-.43.58.24-.5.8-.37,1.09,0,.78.67.66,1.12-.08,1.12,0-1,.29-1.26.86a3.32,3.32,0,0,0-.3,1,.94.94,0,0,1-.43.56l-1.89.3s-.4-.41-.61-.26-.48.22-.77.43a4.43,4.43,0,0,0-1,1,1.39,1.39,0,0,1-1,.65c-.51.13-1,.15-.74.3s.76.37.76.81.15.8-.09.86-1.37-.15-1.58.3a3.69,3.69,0,0,0-.34,1.3c0,.36-.06.7.64.68a3,3,0,0,0,1.41-.3c.24-.15.17-.45.58-.85s.53-.24.55-.58-.06-.7.19-.64.49-.24.77-.11.45-.32.88.15.92.77,1,1,.58.45.43.81.45-.65.42-.94-.61-.7-.68-.82-.46-.76,0-.61a2.24,2.24,0,0,1,1.11,1,4.19,4.19,0,0,0,.59,1.34,1.18,1.18,0,0,0,.64.43s-.18-.77,0-1.1.52-.47.67-.38.17.24.34.13.4-.21.36-.53a2,2,0,0,1,.15-.9c.08-.18.37-.77.53-.52s.33.54.58.56.2-.29.79-.08,1.75.62,1.38.95-.63.6-1,.46a2,2,0,0,0-1.13-.31c-.42.09-1.88.24-1.83.77s.53,1.34,1.37,1.11,1.1-.18,1.19,0,.19,1.37-.76,1.5c0,0-2.9-.47-3.2-.56-.55-.08-.26.64-.26.81s-2.39-.44-2.39-.82.9-1.4-1.58-1-3.16.87-3.8,1.86-2.18,1.34-2.09,3.17-.34,2,.72,3,1.07,1.83,4.1,1,1.19-.07,1.49.35.85,0,.94.42-.6,1.15.09,1.92,1.07,2.69.68,3.2.47,1.62.34,2.73.83,1.24,1,2.07.62,1.58,2.71.51,1-2.07,1.6-2.33.24-1.43,1-1.88,1.66-.68,1.11-2.82.56-2.13,1.45-3,2.26-2.9,1.47-2.71-1.41.71-2.24-.4-3.24-4.8-2.39-4.35,2.88,2.94,2.88,4.29c0,0,.62.21,2.11-.9.46-.34.84-.59,1.16-.8a20.23,20.23,0,0,1-20.2,19.83Z"/></g></g></svg>