<svg xmlns="http://www.w3.org/2000/svg" viewBox="0 0 33.39 33.39"><title>edit</title><g id="Layer_2" data-name="Layer 2"><g id="Layer_1-2" data-name="Layer 1"><path d="M7.4,33.39H26A7.38,7.38,0,0,0,33.39,26h0V20.74a.67.67,0,1,0-1.35,0V26A6,6,0,0,1,26,32H7.41A6,6,0,0,1,1.35,26V7.41A6,6,0,0,1,7.41,1.35h5.25a.64.64,0,0,0,.67-.67A.64.64,0,0,0,12.66,0H7.41A7.38,7.38,0,0,0,0,7.41V26a7.38,7.38,0,0,0,7.41,7.41h0Z"/><path d="M26.05,1.55,12.32,15.28c-.07.07-.14.2-.2.27l-1.89,6.73a.69.69,0,0,0,.47.81h.4l6.73-1.88c.14,0,.2-.07.27-.2L31.84,7.27a4.14,4.14,0,0,0-5.66-6.06.4.4,0,0,1-.13.34h0Zm-14.21,20L13.13,17l3.3,3.3ZM31.71,4.44a2.7,2.7,0,0,1-.81,2l-13.2,13.2L13.8,15.69,27.07,2.49a2.71,2.71,0,0,1,3.9.07,2.65,2.65,0,0,1,.74,1.89h0Z"/></g></g></svg>