<svg xmlns="http://www.w3.org/2000/svg" viewBox="0 0 43.7 23.26"><title>eye</title><g id="Layer_2" data-name="Layer 2"><g id="Layer_1-2" data-name="Layer 1"><path d="M21.85,0C9.78,0,0,11.63,0,11.63S9.78,23.26,21.85,23.26,43.7,11.63,43.7,11.63,33.92,0,21.85,0Zm0,22.11C11,22.11,2.15,11.62,2.15,11.62S11,1.14,21.85,1.14s19.7,10.48,19.7,10.48S32.73,22.11,21.85,22.11Z"/><path d="M21.85.84A10.78,10.78,0,1,0,32.63,11.62,10.78,10.78,0,0,0,21.85.84Zm0,20.37a9.66,9.66,0,1,1,9.66-9.66A9.66,9.66,0,0,1,21.85,21.22Z"/><path d="M25.88,6.08a2.58,2.58,0,1,1-2-1h.08a6.9,6.9,0,1,0,1.95,1Z"/></g></g></svg>