<svg xmlns="http://www.w3.org/2000/svg" viewBox="0 0 37.92 31.6"><title>fabric</title><g id="Layer_2" data-name="Layer 2"><g id="Layer_1-2" data-name="Layer 1"><path d="M18.33,22.91V31.6h1.26V20.86H18.33Z"/><path d="M24.65,27.18h1.26V31.6H24.65Z"/><path d="M22.91,24.65H20.86v1.26H29.7V24.65H22.91Z"/><path d="M29.23,5.69H27.18V7H37.92V5.69H29.23Z"/><path d="M33.5,24.65h4.42v1.26H33.5Z"/><path d="M31,22.91V31.6h1.26V20.86H31Z"/><path d="M29.23,18.33H27.18v1.26H37.92V18.33H29.23Z"/><path d="M33.5,12h4.42v1.26H33.5Z"/><path d="M10.27,24.65H8.22v1.26h8.85V24.65h-6.8Z"/><path d="M32.23,10.27V8.22H31v8.85h1.26v-6.8Z"/><path d="M14.54,5.69V7h8.85V5.69H14.54Z"/><path d="M25.91,3.95V0H24.65V10.74h1.26V3.95Z"/><path d="M5.69,0H7V4.42H5.69Z"/><path d="M21.33,19.59h2.05V18.33H14.54v1.26h6.8Z"/><path d="M31,0h1.26V4.42H31Z"/><path d="M9.43,19.59h1.32V18.33H0v1.26H9.43Z"/><path d="M9.43,7h1.32V5.69H0V7H9.43Z"/><path d="M0,12H4.42v1.26H0Z"/><path d="M18.33,15v2.05h1.26V8.22H18.33V15Z"/><path d="M5.69,15v2.05H7V8.22H5.69V15Z"/><path d="M13.27,3.95V0H12V10.74h1.26V3.95Z"/><path d="M18.33,0h1.26V4.42H18.33Z"/><path d="M0,24.65H4.42v1.26H0Z"/><path d="M5.69,22.91V31.6H7V20.86H5.69Z"/><path d="M24.65,21.33v2.05h1.26V14.54H24.65v6.79Z"/><path d="M29.71,13.27V12H20.86v1.26h8.85Z"/><path d="M12,27.18h1.26V31.6H12Z"/><path d="M12,21.33v2.05h1.26V14.54H12v6.79Z"/><path d="M17.06,13.27V12H8.22v1.26h8.85Z"/></g></g></svg>