<svg xmlns="http://www.w3.org/2000/svg" viewBox="0 0 46 46.66"><title>facebook-messenger</title><g id="Layer_2" data-name="Layer 2"><g id="Layer_1-2" data-name="Layer 1"><g id="surface1"><path d="M23,0C10.35,0,0,9.6,0,21.5A20.84,20.84,0,0,0,8,37.72v8.94l1.47-.78,7.22-3.75A24.31,24.31,0,0,0,23,43c12.65,0,23-9.6,23-21.5S35.65,0,23,0Zm0,2c11.64,0,21,8.76,21,19.5S34.64,41,23,41a22.56,22.56,0,0,1-6.22-.87L16.41,40l-.34.19L10,43.38V36.81l-.37-.28A19,19,0,0,1,2,21.5C2,10.76,11.36,2,23,2ZM20.72,15.72l-12,12.75L19.5,22.41l5.78,6.19L37.16,15.72,26.63,21.63Z"/></g></g></g></svg>