<svg xmlns="http://www.w3.org/2000/svg" viewBox="0 0 35.28 34.5"><title>gears</title><g id="Layer_2" data-name="Layer 2"><g id="Layer_1-2" data-name="Layer 1"><path d="M35.21,13.58h0A2,2,0,0,0,35,12.16L30.71,4.68A1.87,1.87,0,0,0,28.19,4L25,5.83a12.33,12.33,0,0,0-1.33-.73V1.84A1.84,1.84,0,0,0,21.81,0H13.69a1.84,1.84,0,0,0-1.84,1.84V5a8.72,8.72,0,0,0-1.33.73L7.36,3.9a1.87,1.87,0,0,0-2.52.64L.39,12A1.91,1.91,0,0,0,.16,13.4,2.08,2.08,0,0,0,1,14.54l3.07,1.83a5.83,5.83,0,0,0,0,.87V18L.89,19.77a2.33,2.33,0,0,0-.83,1.15,2,2,0,0,0,.18,1.42l4.31,7.48A1.81,1.81,0,0,0,7,30.51l3.3-1.83a10.61,10.61,0,0,0,1.47.83v3.17a1.84,1.84,0,0,0,1.83,1.83h8.17a1.84,1.84,0,0,0,1.83-1.83V29.41a6.23,6.23,0,0,0,1.19-.69L28,30.56a1.85,1.85,0,0,0,2.52-.64l4.4-7.43a1.81,1.81,0,0,0,.18-1.38A2.07,2.07,0,0,0,34.25,20l-3.07-1.83a5.83,5.83,0,0,0,0-.87,3.94,3.94,0,0,0,0-.73l3.12-1.79a1.78,1.78,0,0,0,.92-1.15Zm-1.79-.46L29.8,15.23a.9.9,0,0,0-.46.87,10,10,0,0,1,0,1.15c0,.41,0,.83-.09,1.28a.93.93,0,0,0,.46.92l3.58,2.16L28.92,29,25.3,26.89a.9.9,0,0,0-1,0A9.77,9.77,0,0,1,22.36,28a.91.91,0,0,0-.55.83v3.85H13.65V28.91a.94.94,0,0,0-.6-.87,8.89,8.89,0,0,1-2.11-1.15.88.88,0,0,0-1,0l-3.76,2L1.86,21.38l3.63-2.11a.9.9,0,0,0,.46-.87,10,10,0,0,1,0-1.15c0-.37,0-.78.09-1.28A.93.93,0,0,0,5.53,15L1.95,12.89,6.4,5.46l3.67,2.16a.9.9,0,0,0,1,0,7.35,7.35,0,0,1,2-1.1.9.9,0,0,0,.6-.87V1.79h8.17V5.64a.91.91,0,0,0,.55.83,9.61,9.61,0,0,1,2,1.15.83.83,0,0,0,1,0l3.72-2.11,4.36,7.57h0Z"/><path d="M17.64,10.23a7,7,0,1,0,7,7A7,7,0,0,0,17.64,10.23Zm0,12.21a5.18,5.18,0,1,1,5.18-5.18A5.21,5.21,0,0,1,17.64,22.44Z"/></g></g></svg>