<svg xmlns="http://www.w3.org/2000/svg" viewBox="0 0 45.15 45.15"><title>geoip</title><g id="Layer_2" data-name="Layer 2"><g id="Layer_1-2" data-name="Layer 1"><path d="M38.55,0a6.49,6.49,0,0,1,6.6,6.58,10.82,10.82,0,0,1-.53,3.06L38.57,22.58,32.51,9.64A10.87,10.87,0,0,1,32,6.59,6.47,6.47,0,0,1,38.55,0Zm0,3.76a2.82,2.82,0,1,0,2.82,2.82A2.82,2.82,0,0,0,38.57,3.76Zm-31,16a7.43,7.43,0,0,1,7.51,7.52,11.24,11.24,0,0,1-.6,3.32L7.53,45.15.6,30.6A11.2,11.2,0,0,1,0,27.28a7.46,7.46,0,0,1,7.54-7.52Zm29.1.94.88,1.88H25.4a4.23,4.23,0,0,0,0,8.47h7.06a7.06,7.06,0,1,1,0,14.11H8.57l.9-1.88h23a5.17,5.17,0,0,0,0-10.35H25.4a6.11,6.11,0,1,1,0-12.23ZM7.53,24a3.29,3.29,0,1,0,3.29,3.29A3.29,3.29,0,0,0,7.53,24Z"/></g></g></svg>