<svg xmlns="http://www.w3.org/2000/svg" viewBox="0 0 512 501.34"><title>github</title><g id="Layer_2" data-name="Layer 2"><g id="Capa_1" data-name="Capa 1"><path d="M256,0C114.62,0,0,115.07,0,257A257,257,0,0,0,175.1,500.9c12.8,2.37,17.47-5.57,17.47-12.38,0-6.11-.22-22.27-.35-43.71C121,460.32,106,410.34,106,410.34c-11.62-29.7-28.42-37.6-28.42-37.6C54.3,356.8,79.3,357.12,79.3,357.12c25.7,1.82,39.2,26.5,39.2,26.5C141.34,422.88,178.43,411.55,193,405c2.3-16.61,8.93-27.94,16.26-34.37-56.83-6.5-116.61-28.54-116.61-127,0-28.06,10-51,26.37-69-2.66-6.5-11.42-32.64,2.5-68,0,0,21.5-6.91,70.4,26.34a241.64,241.64,0,0,1,128.19,0c48.86-33.25,70.34-26.34,70.34-26.34,14,35.39,5.18,61.5,2.56,68,16.42,18,26.3,40.93,26.3,69,0,98.72-59.84,120.45-116.86,126.82,9.18,7.94,17.38,23.62,17.38,47.58,0,34.37-.32,62.08-.32,70.5,0,6.88,4.61,14.88,17.6,12.35A257,257,0,0,0,512,257C512,115.07,397.38,0,256,0Z"/></g></g></svg>