<svg xmlns="http://www.w3.org/2000/svg" viewBox="0 0 39.1 34.02"><title>google-drive</title><g id="Layer_2" data-name="Layer 2"><g id="Layer_1-2" data-name="Layer 1"><path d="M12.75,0h-.13l-.07,0H12.5l0,0h0l-.07,0h0l-.06,0h0l-.07,0h0l0,0h0l0,0h0l0,0h0l0,0h0l0,.06h0l0,0h0L.11,21a.85.85,0,0,0,0,.85h0L6.91,33.6a.85.85,0,0,0,.74.42l.2,0H31.31a.85.85,0,0,0,.73-.42h0L39,21.68a.83.83,0,0,0,.08-.2h0v0h0A.86.86,0,0,0,39,21h0v0h0l0-.06h0l0-.06h0l0,0h0L27.11.43A.85.85,0,0,0,26.38,0H12.75Zm1.48,1.7H25.89L36.77,20.4H25.14Zm-1.48.85,5.78,10-4.61,8a.85.85,0,0,0-.33.57h0L7.65,31.47,1.84,21.4,12.75,2.55ZM19.56,14.2l3.61,6.19H16l3.57-6.19ZM15,22.1H36.77L30.83,32.3H9.14Z"/></g></g></svg>