<svg xmlns="http://www.w3.org/2000/svg" viewBox="0 0 42.08 42.08"><title>help</title><g id="Layer_2" data-name="Layer 2"><g id="Layer_1-2" data-name="Layer 1"><path d="M21,0a21,21,0,1,0,21,21A21.07,21.07,0,0,0,21,0Zm7.79,2.23a20.48,20.48,0,0,1,11,11l-7,2.91a12.83,12.83,0,0,0-6.91-6.91Zm-15.58,0,2.91,7a12.84,12.84,0,0,0-6.91,6.91l-7-2.91A20.48,20.48,0,0,1,13.25,2.23Zm0,37.62a20.48,20.48,0,0,1-11-11l7-2.91a12.83,12.83,0,0,0,6.91,6.9ZM9,21A12.08,12.08,0,1,1,21,33.12,12.1,12.1,0,0,1,9,21ZM28.83,39.85l-2.91-7a12.83,12.83,0,0,0,6.9-6.9l7,2.91a20.48,20.48,0,0,1-11,11Z"/></g></g></svg>