<svg xmlns="http://www.w3.org/2000/svg" viewBox="0 0 43.33 33.17"><title>house-address</title><g id="Layer_2" data-name="Layer 2"><g id="Layer_1-2" data-name="Layer 1"><path d="M30.8,33.17a.34.34,0,0,1-.24-.58l2-2a.34.34,0,0,1,.48.48l-2,2a.34.34,0,0,1-.24.1Z"/><path d="M34.53,29.45a.34.34,0,0,1-.24-.58l8.46-8.46a.34.34,0,0,1,.48.48l-8.46,8.46a.34.34,0,0,1-.24.1Z"/><path d="M34.19,33.17a.34.34,0,0,1-.24-.58l8.8-8.8a.34.34,0,0,1,.48.48l-8.8,8.8a.34.34,0,0,1-.24.1Z"/><path d="M34.53,29.45a.34.34,0,0,1-.24-.1L21.76,16.83a.34.34,0,0,1,.48-.48L34.77,28.87a.34.34,0,0,1-.24.58Z"/><path d="M32.83,31.14a.34.34,0,0,1-.24-.1L20.41,18.86a.34.34,0,0,1,.48-.48L33.07,30.56a.34.34,0,0,1-.24.58Z"/><path d="M34.19,24.37a.34.34,0,0,1-.24-.1L24.47,14.8a.34.34,0,0,1,.48-.48l9.48,9.48a.34.34,0,0,1-.24.58Z"/><path d="M34.19,24.37a.34.34,0,0,1-.24-.58l4.74-4.74a.34.34,0,0,1,.48.48l-4.74,4.74a.34.34,0,0,1-.24.1Z"/><path d="M38.93,19.63a.34.34,0,0,1-.24-.1l-9.48-9.48a.34.34,0,0,1,.48-.48l9.48,9.48a.34.34,0,0,1-.24.58Z"/><path d="M24.71,14.89a.34.34,0,0,1-.24-.58l4.74-4.74a.34.34,0,0,1,.48.48L24.95,14.8a.34.34,0,0,1-.24.1Z"/><path d="M41.64,16.93a.34.34,0,0,1-.24-.58L42.75,15a.34.34,0,0,1,.48.48l-1.35,1.35a.34.34,0,0,1-.24.1Z"/><path d="M41.64,16.93a.34.34,0,0,1-.24-.1l-2.71-2.71a.34.34,0,0,1,.48-.48l2.71,2.71a.34.34,0,0,1-.24.58Z"/><path d="M38.93,14.22a.34.34,0,0,1-.24-.58l4.06-4.06a.34.34,0,1,1,.48.48l-4.06,4.06a.34.34,0,0,1-.24.1Z"/><path d="M27.42,30.47a.34.34,0,0,1-.24-.1l-8.8-8.8a.34.34,0,1,1,.48-.48l8.8,8.8a.34.34,0,0,1-.24.58Z"/><path d="M24.71,33.17a.34.34,0,0,1-.24-.58l2.71-2.71a.34.34,0,0,1,.48.48l-2.71,2.71a.34.34,0,0,1-.24.1Z"/><path d="M2.37,19a.34.34,0,0,1-.24-.58l4.06-4.06a.34.34,0,0,1,.48.48L2.61,18.86a.34.34,0,0,1-.24.1Z"/><path d="M11.28,27.86a.34.34,0,0,1-.24-.1L2.13,18.86a.34.34,0,0,1,.48-.48l8.91,8.91a.34.34,0,0,1-.24.58Z"/><path d="M11.28,27.86a.34.34,0,0,1-.24-.58l2.71-2.71a.34.34,0,1,1,.48.48l-2.71,2.71a.34.34,0,0,1-.24.1Z"/><path d="M22,33.17a.34.34,0,0,1-.24-.1l-8-8a.34.34,0,0,1,.48-.48l8,8a.34.34,0,0,1-.24.58Z"/><path d="M15.91,33.17a.34.34,0,0,1-.24-.58l.68-.68a.34.34,0,0,1,.48.48l-.68.68a.34.34,0,0,1-.24.1Z"/><path d="M16.59,32.5a.34.34,0,0,1-.24-.1l-2.71-2.71a.34.34,0,0,1,.48-.48l2.71,2.71a.34.34,0,0,1-.24.58Z"/><path d="M10.49,33.17a.34.34,0,0,1-.24-.58l3.39-3.38a.34.34,0,1,1,.48.48l-3.39,3.38a.34.34,0,0,1-.24.1Z"/><path d="M8.46,30.47a.34.34,0,0,1-.24-.1L.13,22.27a.34.34,0,0,1,.48-.48L8.7,29.89a.34.34,0,0,1-.24.58Z"/><path d="M5.75,33.17a.34.34,0,0,1-.24-.58l2.71-2.71a.34.34,0,1,1,.48.48L6,33.08a.34.34,0,0,1-.24.1Z"/><path d="M5.08,11.5a.34.34,0,0,1-.24-.1L.13,6.69a.34.34,0,0,1,.48-.48l4.71,4.71a.34.34,0,0,1-.24.58Z"/><path d="M.34,16.25a.34.34,0,0,1-.24-.58l4.74-4.74a.34.34,0,0,1,.48.48L.58,16.15a.34.34,0,0,1-.24.1Z"/><path d="M34.19,8.12a.34.34,0,0,1-.24-.58l3.38-3.39a.34.34,0,0,1,.48.48L34.43,8a.34.34,0,0,1-.24.1Z"/><path d="M24.71,8.12a.34.34,0,0,1-.24-.58l3.39-3.39a.34.34,0,0,1,.48.48L24.95,8a.34.34,0,0,1-.24.1Z"/><path d="M38.93,33.17a.34.34,0,0,1-.24-.58l4.06-4.06a.34.34,0,0,1,.48.48l-4.06,4.06a.34.34,0,0,1-.24.1Z"/><path d="M37.57,11.51a.34.34,0,0,1-.24-.1L34,8a.34.34,0,0,1,.48-.48l3.38,3.39a.34.34,0,0,1-.24.58Z"/><path d="M37.57,11.51a.34.34,0,0,1-.24-.58l5.42-5.42a.34.34,0,0,1,.48.48l-5.42,5.42a.34.34,0,0,1-.24.1Z"/><path d="M43,33.17H.37A.34.34,0,0,1,0,32.84V4.4a.34.34,0,0,1,.68,0V32.5H42.65V4.4a.34.34,0,0,1,.68,0V32.84A.34.34,0,0,1,43,33.17Z"/><path d="M14.56,22.34c-2,0-8.46-9.18-8.46-13.88A8.46,8.46,0,0,1,23,8.46C23,13.16,16.55,22.34,14.56,22.34Zm0-21.67A7.79,7.79,0,0,0,6.77,8.46c0,4.54,6.33,13.2,7.79,13.2S22.34,13,22.34,8.46A7.79,7.79,0,0,0,14.56.68Z"/><path d="M5.08,4.74H.37a.34.34,0,1,1,0-.68H5.08a.34.34,0,1,1,0,.68Z"/><path d="M43,4.74H24a.34.34,0,0,1,0-.68H43a.34.34,0,1,1,0,.68Z"/><path d="M9.14,9.48a.34.34,0,0,1-.22-.59l5.42-4.74a.34.34,0,1,1,.45.51L9.36,9.39A.34.34,0,0,1,9.14,9.48Z"/><path d="M20,9.48a.33.33,0,0,1-.22-.08L14.33,4.65a.34.34,0,1,1,.45-.51l5.42,4.74a.34.34,0,0,1-.22.59Z"/><path d="M10.49,13.54a.34.34,0,0,1-.34-.34V9.14a.34.34,0,0,1,.68,0V13.2A.34.34,0,0,1,10.49,13.54Z"/><path d="M18.62,13.54H10.49a.34.34,0,1,1,0-.68h8.12a.34.34,0,1,1,0,.68Z"/><path d="M18.62,13.54a.34.34,0,0,1-.34-.34V9.14a.34.34,0,1,1,.68,0V13.2A.34.34,0,0,1,18.62,13.54Z"/><path d="M15.91,13.54a.34.34,0,0,1-.34-.34V10.49a.34.34,0,1,1,.68,0V13.2A.34.34,0,0,1,15.91,13.54Z"/><path d="M17.26,13.54a.34.34,0,0,1-.34-.34V10.49a.34.34,0,1,1,.68,0V13.2A.34.34,0,0,1,17.26,13.54Z"/><path d="M14.56,11.51H11.85a.34.34,0,0,1-.34-.34v-2a.34.34,0,0,1,.34-.34h2.71a.34.34,0,0,1,.34.34v2A.34.34,0,0,1,14.56,11.51Zm-2.37-.68h2V9.48h-2Z"/><path d="M17.26,10.83H15.91a.34.34,0,1,1,0-.68h1.35a.34.34,0,0,1,0,.68Z"/></g></g></svg>