<svg xmlns="http://www.w3.org/2000/svg" viewBox="0 0 42.02 33.89"><title>mail-bell</title><g id="Layer_2" data-name="Layer 2"><g id="Layer_1-2" data-name="Layer 1"><path d="M35.84,14V3.22A3.23,3.23,0,0,0,32.62,0H3.22A3.23,3.23,0,0,0,0,3.22V23.4a3.23,3.23,0,0,0,3.22,3.22H21.75A10.37,10.37,0,1,0,35.84,14ZM21.48,25.6H3.22A2.2,2.2,0,0,1,1,23.4V3.22A2.2,2.2,0,0,1,3.22,1H32.62a2.2,2.2,0,0,1,2.2,2.2V13.64a10.3,10.3,0,0,0-9.55,1.71l-2-1.88L32,4.95a.51.51,0,0,0-.72-.73L18.18,17,4.54,4.21a.51.51,0,0,0-.7.75l8.73,8.2L3.83,21.68a.51.51,0,0,0,.72.73l8.77-8.56,4.51,4.23a.51.51,0,0,0,.35.14.51.51,0,0,0,.36-.15l4-3.89,2,1.83a10.32,10.32,0,0,0-3.13,6.2,10.49,10.49,0,0,0,.13,3.37Zm10.16,7.27A9.35,9.35,0,1,1,41,23.52,9.36,9.36,0,0,1,31.65,32.87ZM35.54,24c0-.26,0-.52-.06-.77a8.16,8.16,0,0,0-.85-3.83,3.16,3.16,0,0,0-2-1.46,1,1,0,0,0-1.9,0,3.17,3.17,0,0,0-2,1.46,8.18,8.18,0,0,0-.84,3.83c0,.25,0,.5-.06.76a3.3,3.3,0,0,1-1,2,2,2,0,0,0-.56,1.49.51.51,0,0,0,.51.51h3.5v.52a1.41,1.41,0,0,0,2.82,0V28h3.5a.51.51,0,0,0,.51-.51A2,2,0,0,0,36.52,26,3.3,3.3,0,0,1,35.54,24ZM32,28.55a.38.38,0,0,1-.77,0V28H32ZM27.33,27a.57.57,0,0,1,.14-.22,4.33,4.33,0,0,0,1.3-2.72c0-.26,0-.52.06-.77A7.5,7.5,0,0,1,29.51,20a2.24,2.24,0,0,1,2.09-1.1h.07A2.25,2.25,0,0,1,33.78,20a7.47,7.47,0,0,1,.68,3.34c0,.25,0,.51.06.78a4.34,4.34,0,0,0,1.31,2.72A.58.58,0,0,1,36,27H27.33Z"/></g></g></svg>