<svg xmlns="http://www.w3.org/2000/svg" viewBox="0 0 55.8 23.2"><title>measurement</title><g id="Layer_2" data-name="Layer 2"><g id="Layer_1-2" data-name="Layer 1"><path d="M13.65,8.18a11.2,11.2,0,0,0,3.59.53,11.2,11.2,0,0,0,3.59-.53C22.3,7.67,22.6,7,22.6,6.47s-.31-1.2-1.78-1.72a11.2,11.2,0,0,0-3.59-.53,11.2,11.2,0,0,0-3.59.53c-1.47.52-1.78,1.22-1.78,1.72S12.18,7.67,13.65,8.18ZM14,5.79a10.08,10.08,0,0,1,3.22-.46,10.11,10.11,0,0,1,3.22.46c.86.3,1,.61,1,.68s-.18.37-1,.68a10.09,10.09,0,0,1-3.22.46A10.11,10.11,0,0,1,14,7.15c-.86-.3-1-.61-1-.68S13.16,6.1,14,5.79Z"/><path d="M53.52,11.76H49.87c-7.19,0-11-1.5-12.94-2.75a5.94,5.94,0,0,1-2.45-2.63V6.1a.55.55,0,0,0-.06-.25A3.92,3.92,0,0,0,33,3.71a12.24,12.24,0,0,0-3.75-2A37.49,37.49,0,0,0,17.24,0a37.52,37.52,0,0,0-12,1.75,12.24,12.24,0,0,0-3.75,2A3.89,3.89,0,0,0,.05,5.89.55.55,0,0,0,0,6.13V16.59a.56.56,0,0,0,0,.14,3.74,3.74,0,0,0,1.49,2.4,12.24,12.24,0,0,0,3.75,2,37.49,37.49,0,0,0,12,1.75,37.52,37.52,0,0,0,12-1.75,12.24,12.24,0,0,0,3.75-2,5,5,0,0,0,1-1.08,8.16,8.16,0,0,0,2.24,2.13,16,16,0,0,0,5,2.08,36,36,0,0,0,8.69.93l.14,0h3.51A2.28,2.28,0,0,0,55.8,20.9V14a2.28,2.28,0,0,0-2.28-2.28ZM2.21,4.56A11.34,11.34,0,0,1,5.62,2.79,36.37,36.37,0,0,1,17.24,1.1,36.38,36.38,0,0,1,28.86,2.79a11.34,11.34,0,0,1,3.41,1.77,2.54,2.54,0,0,1,1.11,1.86,2.54,2.54,0,0,1-1.11,1.86,11.34,11.34,0,0,1-3.41,1.77,36.37,36.37,0,0,1-11.62,1.69h0A36.38,36.38,0,0,1,5.62,10.05,11.34,11.34,0,0,1,2.21,8.28,2.54,2.54,0,0,1,1.1,6.42,2.54,2.54,0,0,1,2.21,4.56ZM32.26,18.29a11.34,11.34,0,0,1-3.41,1.77,36.37,36.37,0,0,1-11.62,1.69A36.41,36.41,0,0,1,5.62,20.06a11.34,11.34,0,0,1-3.41-1.77A2.54,2.54,0,0,1,1.1,16.42V8.76q.19.19.41.37a11.39,11.39,0,0,0,3.13,1.74v4.55a.55.55,0,0,0,1.1,0V11.26a28.14,28.14,0,0,0,3.2.82v3a.55.55,0,0,0,1.1,0V12.28c1,.16,2,.29,3,.38V17a.55.55,0,0,0,1.1,0V12.75c1,.06,1.93.1,2.92.1v3a.55.55,0,0,0,1.1,0v-3c1,0,2.07-.07,3.06-.16V17a.55.55,0,0,0,1.1,0V12.57c1.08-.12,2.12-.28,3.11-.47v2.65a.55.55,0,0,0,1.1,0V11.86a25.71,25.71,0,0,0,2.68-.77l.74-.28v3.89a.55.55,0,1,0,1.1,0V10.33A9.63,9.63,0,0,0,33,9.13c.15-.12.28-.25.41-.37v7.66h0a2.54,2.54,0,0,1-1.11,1.86Zm4.66,1.06a5.94,5.94,0,0,1-2.45-2.63V8.38A8.91,8.91,0,0,0,36.2,9.85l.46.29a.54.54,0,0,0,0,.13v4.66a.55.55,0,1,0,1.1,0V10.72a16.43,16.43,0,0,0,1.76.72v3.08a.55.55,0,0,0,1.1,0V11.78l.57.15,1.2.27v4.66a.55.55,0,1,0,1.1,0V12.4q1,.16,2.08.26v3.17a.55.55,0,0,0,1.1,0V12.76q1.28.09,2.66.1V22.1C42.49,22,38.82,20.57,36.93,19.34ZM54.7,20.9a1.18,1.18,0,0,1-1.18,1.18h-3.1V12.86h3.1A1.18,1.18,0,0,1,54.7,14V20.9Z"/><path d="M3.57,7.22l2-2L6,7.43a.55.55,0,0,0,.4.43l.14,0a.55.55,0,0,0,.42-.19L8,6.47l.16.76A.55.55,0,0,0,9,7.55l1.55-1.21a.55.55,0,0,0-.68-.87L9,6.13l-.21-1a.55.55,0,0,0-1-.24l-1,1.19L6.42,4a.55.55,0,0,0-.94-.28L2.78,6.45a.55.55,0,1,0,.79.77Z"/><path d="M24,6.38l1.55,1.21a.55.55,0,0,0,.88-.32l.16-.76,1,1.21a.55.55,0,0,0,.42.19l.14,0a.55.55,0,0,0,.4-.43l.44-2.21,2,2a.55.55,0,1,0,.79-.77l-2.7-2.76a.55.55,0,0,0-.93.28l-.42,2.13-1-1.19a.55.55,0,0,0-1,.24l-.21,1-.85-.67a.55.55,0,1,0-.68.87Z"/></g></g></svg>