<svg xmlns="http://www.w3.org/2000/svg" viewBox="0 0 84.2 86.1"><title>newsletter</title><g id="Layer_2" data-name="Layer 2"><g id="Layer_1-2" data-name="Layer 1"><path d="M59.1,25.6h-34a1.5,1.5,0,0,0,0,3h34a1.54,1.54,0,0,0,1.5-1.5A1.42,1.42,0,0,0,59.1,25.6Z"/><path d="M59.1,36.1h-34a1.5,1.5,0,1,0,0,3h34a1.54,1.54,0,0,0,1.5-1.5A1.42,1.42,0,0,0,59.1,36.1Z"/><path d="M84.2,34.1a2,2,0,0,0-.8-1.2L71.1,27.8V1.5A1.54,1.54,0,0,0,69.6,0h-55a1.54,1.54,0,0,0-1.5,1.5V27.8L1,32.8a1.33,1.33,0,0,0-1,1.4V84.6a1.54,1.54,0,0,0,1.5,1.5H82.7a1.54,1.54,0,0,0,1.5-1.5V34.1Zm-79.5.3,8.4-3.5v8.7Zm66.4,5.1V30.8l8.4,3.5Zm-55,1.8V2.9h52V41.2L42.1,57Zm65.1-4.5V83.1H3V36.8L41.4,60a1.08,1.08,0,0,0,.7.2,1.51,1.51,0,0,0,.8-.2Z"/><path d="M50.4,19.1h8.7a1.54,1.54,0,0,0,1.5-1.5V8.9a1.54,1.54,0,0,0-1.5-1.5H50.4a1.54,1.54,0,0,0-1.5,1.5v8.7A1.54,1.54,0,0,0,50.4,19.1Zm1.4-2.9V10.4h5.8v5.8Z"/></g></g></svg>