<svg xmlns="http://www.w3.org/2000/svg" viewBox="0 0 40.93 39.29"><title>parcel-check</title><g id="Layer_2" data-name="Layer 2"><g id="Layer_1-2" data-name="Layer 1"><path d="M32.75,34.32a.9.9,0,0,1-.47-.14l-2.51-2.09L30.66,31l2,1.63L36,28.27l1.12.84L33.27,34a.8.8,0,0,1-.47.28h0Z"/><path d="M24,34.41l-3.53,1.67V18.52l6.51-3v4.88a.64.64,0,0,0,.28.6L29,22a.68.68,0,0,0,.33.09.73.73,0,0,0,.56-.28l2-2.37a.83.83,0,0,0,.19-.42v-5.9l5.58-2.69V23a10.25,10.25,0,0,1,1.39.88V9.41s0-.14,0-.19v0s0-.09,0-.09a0,0,0,0,0,0,0s0,0-.09-.09l0,0,0,0a0,0,0,0,1,0,0h0L19.88.07a.69.69,0,0,0-.6,0l-7.16,3.3h0L8.36,5.13h0L.41,8.76h0a0,0,0,0,0,0,0l0,0,0,0L.14,9l0,0a.16.16,0,0,1,0,.09l0,0V28.51a.79.79,0,0,0,.42.65l18.87,8.69h.09a1.05,1.05,0,0,0,.19,0,.28.28,0,0,0,.19,0h.09l4.6-2.14c-.14-.42-.33-.84-.47-1.3Zm6.69-15.57-1.35,1.72-1-.56V14.89l2.32-1.07v5ZM19.56,1.51l17.19,7.9L31.22,12,14,4.06Zm-7.2,3.3,17.19,7.9-2.09,1L10.26,5.78l2.09-1ZM19,36.08,1.39,28V10.48l17.66,8Zm.51-18.77L2.36,9.41,8.64,6.53l17.19,7.9Z"/><path d="M33.17,23.77a7.76,7.76,0,1,0,7.76,7.76A7.77,7.77,0,0,0,33.17,23.77Zm0,14.13a6.37,6.37,0,1,1,6.37-6.37A6.38,6.38,0,0,1,33.17,37.89Z"/><path d="M6.73,28.92v-3l-1.26-.56v3Z"/><path d="M8.22,29.62v-3l-.93-.47v3Z"/><path d="M4.83,28V25l-.7-.33v3Z"/><path d="M3.52,27.44v-3L2.6,24v3Z"/></g></g></svg>