<svg xmlns="http://www.w3.org/2000/svg" viewBox="0 0 39.28 41.49"><title>parcel-geo</title><g id="Layer_2" data-name="Layer 2"><g id="Layer_1-2" data-name="Layer 1"><path d="M24.1,34.58l-3.55,1.68V18.61l6.54-3v4.9a.64.64,0,0,0,.28.61l1.82,1.07a.67.67,0,0,0,.33.09.73.73,0,0,0,.56-.28l2-2.38a.84.84,0,0,0,.19-.42V13.24l5.6-2.71V23.09a10.2,10.2,0,0,1,1.4.89V9.46s0-.14,0-.19v0s0-.09,0-.09a0,0,0,0,0,0,0s0,0-.09-.09l0,0,0,0a0,0,0,0,1,0,0h0L20,.07a.7.7,0,0,0-.61,0L12.19,3.39h0L8.41,5.16h0L.42,8.8h0a0,0,0,0,0,0,0l0,0,0,0L.14,9l0,0a.16.16,0,0,1,0,.09l0,0V28.65a.79.79,0,0,0,.42.65l19,8.73h.09a1,1,0,0,0,.19,0,.28.28,0,0,0,.19,0h.09l4.62-2.15c-.14-.42-.33-.84-.47-1.31Zm6.73-15.64-1.35,1.73-1-.56V15l2.33-1.07ZM19.67,1.52,36.94,9.46,31.39,12,14.11,4.09ZM12.43,4.84l17.28,7.94-2.1,1L10.33,5.82Zm6.72,31.43L1.41,28.18V10.53l17.75,8.08Zm.51-18.87L2.39,9.46l6.3-2.9L26,14.5Z"/><path d="M32.74,33.41a3.5,3.5,0,1,1,3.5-3.5A3.53,3.53,0,0,1,32.74,33.41Zm0-9.71A6.2,6.2,0,0,0,26.48,30c0,4.67,4.39,9.2,6.21,11.53,1.92-2.38,6.21-7,6.21-11.53A6.21,6.21,0,0,0,32.74,23.7Z"/></g></g></svg>