<svg xmlns="http://www.w3.org/2000/svg" viewBox="0 0 43 28.02"><title>payment</title><g id="Layer_2" data-name="Layer 2"><g id="Layer_1-2" data-name="Layer 1"><path d="M39.74,0H21.2a.65.65,0,1,0,0,1.3H39.74a2,2,0,0,1,2,2h0v1.3H20.08a.65.65,0,1,0,0,1.3h.38V9.77H18.8a.65.65,0,0,0,0,1.3H41.7V22.8a2,2,0,0,1-2,2H24.24a.65.65,0,0,0,0,1.3H39.74A3.26,3.26,0,0,0,43,22.8V3.26A3.26,3.26,0,0,0,39.74,0h0Zm-18,9.77V5.87h1.37V9.78Zm2.67,0V5.87H25.8V9.78Zm2.67,0V5.87h1.37V9.78Zm2.67,0V5.87h1.37V9.78Zm2.67,0V5.87h1.37V9.78Zm2.67,0V5.87h1.37V9.78Zm2.67,0V5.87h1.37V9.78Zm2.67,0V5.87H41.7V9.78Z"/><path d="M32.9,20.91a3.51,3.51,0,0,0,2,.59h0a3.58,3.58,0,1,0,0-7.17h0a3.53,3.53,0,0,0-2,.6h0a3.51,3.51,0,0,0-2-.59h0a3.58,3.58,0,0,0,0,7.17h0a3.53,3.53,0,0,0,2-.6Zm-4.23-3h0a2.27,2.27,0,0,1,3.8-1.67h0a.65.65,0,0,0,.87,0h0a2.28,2.28,0,1,1,0,3.37h0a.65.65,0,0,0-.87,0h0a2.27,2.27,0,0,1-3.8-1.67h0Z"/><path d="M20.2,19.55h-.65V17.27a2.93,2.93,0,1,0-5.86,0h0v2.28H13a2,2,0,0,0-2,2h0v4.56a2,2,0,0,0,2,2H20.2a2,2,0,0,0,2-2h0V21.5a2,2,0,0,0-2-2h0ZM15,17.27a1.63,1.63,0,1,1,3.26,0h0v2.28H15Zm5.86,8.8a.65.65,0,0,1-.65.65H13a.65.65,0,0,1-.65-.65h0V21.5a.65.65,0,0,1,.65-.65H20.2a.65.65,0,0,1,.65.65h0Z"/><path d="M17.59,23.78a1,1,0,1,1-1-1A1,1,0,0,1,17.59,23.78Z"/><path d="M8.47,4.56h7.17a.65.65,0,1,0,0-1.3H8.47a.65.65,0,1,0,0,1.3Z"/><path d="M2.61,4.56h1.3a.65.65,0,1,0,0-1.3H2.61a.65.65,0,1,0,0,1.3h0Z"/><path d="M7.17,16.94H3.91a.65.65,0,1,0,0,1.3H7.17a.65.65,0,1,0,0-1.3Z"/><path d="M9.12,7.82H3.91a.65.65,0,1,0,0,1.3H9.12a.65.65,0,1,0,0-1.3Z"/><path d="M12.43,7.82a.65.65,0,1,0,0,1.3H15a.65.65,0,1,0,0-1.3H12.43Z"/><path d="M8.47,13H.65a.65.65,0,1,0,0,1.3H8.47a.65.65,0,1,0,0-1.3Z"/><path d="M6.52,21.5H.65a.65.65,0,1,0,0,1.3H6.52a.65.65,0,1,0,0-1.3Z"/></g></g></svg>