<svg xmlns="http://www.w3.org/2000/svg" viewBox="0 0 89.54 53"><title>plane</title><g id="Layer_2" data-name="Layer 2"><g id="Layer_1-2" data-name="Layer 1"><rect x="29.54" y="24" width="2" height="2"/><rect x="25.54" y="24" width="2" height="2"/><rect x="21.54" y="24" width="2" height="2"/><rect x="33.54" y="24" width="2" height="2"/><rect x="37.54" y="24" width="2" height="2"/><rect x="41.54" y="24" width="2" height="2"/><rect x="45.54" y="24" width="2" height="2"/><rect x="49.54" y="24" width="2" height="2"/><rect x="53.54" y="24" width="2" height="2"/><rect x="57.54" y="24" width="2" height="2"/><rect x="61.54" y="24" width="2" height="2"/><path d="M89.08,23.78,78.83,17.16a1,1,0,0,0-.54-.16H57.9L42.62.32A1,1,0,0,0,41.88,0H31.52a1,1,0,0,0-.83,1.56L41.24,17H16.77l-5-7.56A1,1,0,0,0,10.9,9H1a1,1,0,0,0-.89,1.45l11.07,22a1,1,0,0,0,.89.55H43.14L30.7,51.44A1,1,0,0,0,31.52,53H41.88a1,1,0,0,0,.74-.33L60.52,33h28a1,1,0,0,0,1-1V24.62A1,1,0,0,0,89.08,23.78ZM78,19l9.29,6H72.54V19ZM33.42,2h8L55.19,17H43.67ZM60.08,31a1,1,0,0,0-.74.33L41.44,51h-8L45.85,32.56A1,1,0,0,0,45,31H12.69L2.62,11h7.74l5,7.56a1,1,0,0,0,.83.44h54.3v7a1,1,0,0,0,1,1h16v4Z"/></g></g></svg>