<svg xmlns="http://www.w3.org/2000/svg" viewBox="0 0 48 60"><title>shopping-bag</title><g id="Layer_2" data-name="Layer 2"><g id="Layer_1-2" data-name="Layer 1"><path d="M18,22a1,1,0,0,0,2,0,4,4,0,0,0-8,0,1,1,0,0,0,2,0,2,2,0,0,1,4,0Z"/><path d="M32,18a4,4,0,0,0-4,4,1,1,0,0,0,2,0,2,2,0,0,1,4,0,1,1,0,0,0,2,0A4,4,0,0,0,32,18Z"/><path d="M47,14V0H1V14H0V60H48V14Zm-2.5,0L39.32,7.09,44.41,2H45V14ZM11,14V7s0-.05,0-.07a.72.72,0,0,0,0-.19.61.61,0,0,0,0-.13l0-.06a.78.78,0,0,0-.1-.15s0-.08-.08-.11L6.41,2H41.58L37.29,6.29s0,.08-.08.11a.65.65,0,0,0-.1.15l0,.06a.5.5,0,0,0,0,.13,1.06,1.06,0,0,0,0,.19S37,7,37,7v7ZM6,14l3-4v4Zm33-4,3,4H39ZM3,2h.59L8.68,7.09,3.5,14H3ZM46,58H2V16H46Z"/><path d="M32,21a1,1,0,0,0-1,1v6a7,7,0,0,1-14,0V22a1,1,0,0,0-2,0v6a9,9,0,0,0,18,0V22A1,1,0,0,0,32,21Z"/></g></g></svg>