<svg xmlns="http://www.w3.org/2000/svg" viewBox="0 0 35.05 31.97"><title>storefront</title><g id="Layer_2" data-name="Layer 2"><g id="Layer_1-2" data-name="Layer 1"><path d="M33.67,0H1.39L0,2.28V7.72a6.24,6.24,0,0,0,2.13,4.7V32H32.92V12.42a6.24,6.24,0,0,0,2.13-4.7V2.28L33.66,0ZM1.17,7.72V4.17H11.27V7.72a6.46,6.46,0,0,0,0,.68A5.09,5.09,0,0,1,1.17,7.72ZM7,13.93a6.27,6.27,0,0,0,4.89-3.49,6.25,6.25,0,0,0,11.26,0A6.27,6.27,0,0,0,28,13.93v9.33H7V13.93ZM22.57,8.4a5.09,5.09,0,0,1-10.08,0,6.19,6.19,0,0,0,0-.68V4.17h10V7.72a6.45,6.45,0,0,0,0,.68Zm9.18,22.4H3.31V13.24A6.23,6.23,0,0,0,5.84,14V24.43H29.22V14a6.2,6.2,0,0,0,2.53-.72V30.8ZM33.89,7.72a5.09,5.09,0,0,1-10.13.68,6.19,6.19,0,0,0,0-.68V4.17H33.89ZM23.79,3H.93L2,1.17H33L34.12,3Z"/></g></g></svg>