<svg xmlns="http://www.w3.org/2000/svg" viewBox="0 0 37.68 32.71"><title>thumbs-down</title><g id="Layer_2" data-name="Layer 2"><g id="Layer_1-2" data-name="Layer 1"><path d="M37,.33H27.68A.7.7,0,0,0,27,1h0V3.35c-1.13.07-3.6,0-4.95-1.56C20.16-.38,13.91-.07,8.89.17c-1,.05-2,.1-2.78.12A2.67,2.67,0,0,0,3.58,2.95s0,.07,0,.1h0a2.85,2.85,0,0,0,.6,1.75h0a3,3,0,0,0-1.4,2.54s0,.06,0,.09h0v0a3.21,3.21,0,0,0,.55,1.8h0a2.94,2.94,0,0,0-1.66,2.65s0,0,0,.07h0a3,3,0,0,0,.51,1.7h0A2.94,2.94,0,0,0,0,16.47H0a3,3,0,0,0,3,2.94H8.52c2,0,2.85.33,3,.52a4.64,4.64,0,0,1,.51,3.67v0a19.79,19.79,0,0,1-.83,2.28l.05-.13a4.86,4.86,0,0,0-.65,2.44,4.93,4.93,0,0,0,.07.81v0c0,.16.08.33.12.51.28,1.24.74,3.27,2.81,3.27h.29c1.87-.16,1.86-1.84,1.85-2.84,0-.09,0-.2,0-.31a3.28,3.28,0,0,1,.17-1v0a12,12,0,0,1,1.36-1.66h0a18.42,18.42,0,0,0,3.5-4.9l0-.11a9.94,9.94,0,0,1,3.51-3.74l0,0H27v1.26a.7.7,0,0,0,.7.7H37a.7.7,0,0,0,.7-.7h0V1h0A.7.7,0,0,0,37,.33h0ZM24.39,16.71c-1,0-4,2.55-4.85,4.64a17.18,17.18,0,0,1-3.29,4.59h0a11.67,11.67,0,0,0-1.52,1.89l0,0a4.14,4.14,0,0,0-.33,1.62c0,.13,0,.25,0,.38v0c0,1.33-.12,1.4-.57,1.44-.93.07-1.23-.5-1.61-2.17l-.13-.54a3.61,3.61,0,0,1,0-.39,3.77,3.77,0,0,1,.55-2v0a19.2,19.2,0,0,0,.8-2.13l0-.15a5.77,5.77,0,0,0,.22-1.6,5.88,5.88,0,0,0-1.09-3.42v0c-.61-.63-2-.94-4-.94H3a1.61,1.61,0,0,1-1.61-1.54h0A1.59,1.59,0,0,1,3,14.93H3l6.21,0h0a.7.7,0,0,0,0-1.4H4.43a1.56,1.56,0,0,1,0-3.09h0l5.08,0h0a.7.7,0,0,0,0-1.4H5.35c-.63,0-1.17-.71-1.17-1.55a1.51,1.51,0,0,1,0-.16A1.41,1.41,0,0,1,5.31,5.89h0l5.09-.08a.7.7,0,0,0,0-1.4H6.18a1.38,1.38,0,0,1,0-2.73h0C7,1.67,7.93,1.62,9,1.57c4.21-.2,10.58-.51,12,1.14,1.72,2,4.61,2.12,6,2v12Zm11.9,2H28.37V1.73h7.91Z"/><path d="M33.68,4.14a1.35,1.35,0,1,1-1.35-1.35A1.35,1.35,0,0,1,33.68,4.14Z"/></g></g></svg>