<svg xmlns="http://www.w3.org/2000/svg" viewBox="0 0 26 26"><title>user-login</title><g id="Layer_2" data-name="Layer 2"><g id="Layer_1-2" data-name="Layer 1"><path d="M13,26A13,13,0,1,0,0,13,13,13,0,0,0,13,26ZM13,1a12,12,0,0,1,8,21c-.86-.42-1.76-.82-2.42-1.11l-1-.44s-3-1.52-1.5-3a5.76,5.76,0,0,0,1.18-2.93c.35,0,.81-.77,1.07-1.8s.2-2-.16-2.13a.23.23,0,0,0-.11,0,3.76,3.76,0,0,0-.19-2.07c-.78-1.11-.84-2.09-2-2.51S16,4,16,4s-5,.14-6.1,1.95C9.28,7,9,7.35,8.2,8.46A3.61,3.61,0,0,0,8,10.53a.26.26,0,0,0-.13,0c-.36.09-.43,1-.16,2.13s.72,1.79,1.07,1.8A5.76,5.76,0,0,0,10,17.38c1.5,1.52-1.5,3-1.5,3l-1,.44c-.66.29-1.55.68-2.42,1.1A12,12,0,0,1,13,1Z"/></g></g></svg>