<svg xmlns="http://www.w3.org/2000/svg" viewBox="0 0 35.39 39.3"><title>user</title><g id="Layer_2" data-name="Layer 2"><g id="Layer_1-2" data-name="Layer 1"><path d="M34.75,32.63c-.62-2.44-4.5-3.64-8.25-4.79-1.24-.38-2.41-.74-3.33-1.11-.53-.21-.94-1.72-1-3.58a7.39,7.39,0,0,0,1.32-1.67l.42-.67a14.08,14.08,0,0,0,1.31-2.42,2.11,2.11,0,0,0,1-.91c.83-1.52,1.31-4,1-4.93a1.35,1.35,0,0,0-.81-.82c0-4.55-2-8-5.43-9.39a25.16,25.16,0,0,0-3.37-1.18A2,2,0,0,1,16.48.57a.68.68,0,0,0-.8-.55c-.61.12-1.15.95-1.36,1.47a2.47,2.47,0,0,0-.17.67,2.91,2.91,0,0,0-2.65,1.9.72.72,0,0,0,0,.38A10.44,10.44,0,0,0,9,11.69a1.35,1.35,0,0,0-.9.85c-.34,1,.14,3.41,1,4.93a2.05,2.05,0,0,0,1.06.93,13.72,13.72,0,0,0,1.29,2.4l.4.64a6.77,6.77,0,0,0,1.47,1.77c-.1,2-.6,3.36-1,3.49l-.68.2c-5.09,1.48-10.37,3.32-11,5.72A19.1,19.1,0,0,0,0,36.05,3.25,3.25,0,0,0,3.24,39.3h28.9a3.25,3.25,0,0,0,3.25-3.25,13.39,13.39,0,0,0-.64-3.42Zm-2.6,5.31H3.25a1.89,1.89,0,0,1-1.89-1.85A18.82,18.82,0,0,1,1.93,33C2.27,31.65,5.65,30,12,28.21l.69-.2c1.71-.51,2-3.73,2-5.09a.68.68,0,0,0-.29-.58A5.06,5.06,0,0,1,13,20.74l-.42-.66a11.71,11.71,0,0,1-1.3-2.48.69.69,0,0,0-.61-.45.67.67,0,0,1-.39-.33A7.53,7.53,0,0,1,9.4,13a.46.46,0,0,1,.3-.07h0a.68.68,0,0,0,.5-.18.62.62,0,0,0,.19-.48c-.15-4.13,1.37-6.36,2.68-7.5A.68.68,0,0,0,13.25,4l0-.08a3.24,3.24,0,0,1,1.64-.41h.07a.67.67,0,0,0,.61-.31.68.68,0,0,0,0-.75.33.33,0,0,1,0-.2,1.68,1.68,0,0,1,.21-.5,4,4,0,0,0,1.48.75,23.48,23.48,0,0,1,3.21,1.12C23.49,4.81,25.16,8,25,12.26a.67.67,0,0,0,.19.49.67.67,0,0,0,.48.21.46.46,0,0,1,.23,0A7.45,7.45,0,0,1,25,16.84a.69.69,0,0,1-.39.33.67.67,0,0,0-.54.43,12.11,12.11,0,0,1-1.31,2.47l-.44.7a5.56,5.56,0,0,1-1.25,1.53.68.68,0,0,0-.26.54c0,1.64.27,4.5,1.84,5.14,1,.4,2.17.76,3.44,1.15,3.07.95,6.9,2.12,7.33,3.83A12.45,12.45,0,0,1,34,36a1.89,1.89,0,0,1-1.89,1.89Z"/></g></g></svg>