<?xml version="1.0" standalone="no"?>
<!DOCTYPE svg PUBLIC "-//W3C//DTD SVG 1.1//EN" "http://www.w3.org/Graphics/SVG/1.1/DTD/svg11.dtd" >
<svg xmlns="http://www.w3.org/2000/svg">
<metadata>
Created by FontPrep 20130207 at Thu Apr 13 14:24:52 2017
 By Brian E Cook
Copyright (c) Olivier Gourvat - Mostardesign Studio, 2012. All rights reserved.
</metadata>
<defs>
<font id="65943740c25c4cb0404f4736aa9282c9" horiz-adv-x='1024' >
  <font-face 
    font-family="SofiaPro-Light"
    font-weight="300"
    font-stretch="normal"
    units-per-em="2048"
    panose-1="2 11 0 0 0 0 0 0 0 0"
    ascent="1548"
    descent="-500"
    x-height="956"
    cap-height="1411"
    bbox="-348 -528 2290 2222"
    underline-thickness="102"
    underline-position="-102"
    unicode-range="U+0020-FB04"
  />
<missing-glyph horiz-adv-x="1300" 
d="M485 268q0 -36 28 -62t66 -26q37 0 65 26t28 62t-28 63q-28 25 -66 25t-65 -26q-28 -26 -28 -62zM379 883h127q0 76 43 123t109 47t115 -42q48 -43 48 -107t-49 -103q-31 -35 -97 -53q-65 -18 -113 -69q-48 -52 -48 -147v-77h127v77q0 43 25 66q25 24 96 44t128 92
q56 74 56 182t-85 186t-203 78t-198 -82t-81 -215zM1137 0h-973v1362h973v-1362z" />
    <glyph glyph-name="f_f" unicode="ff" horiz-adv-x="1386" 
d="M1292 1475h103v-129h-103q-129 0 -168 -95q-29 -68 -28 -184v-111h235v-122h-235v-834h-138v834h-575v-834h-137v834h-187v122h187v111q0 408 334 408h102v-129h-102q-129 0 -168 -95q-29 -68 -29 -184v-111h575v111q0 408 334 408z" />
    <glyph glyph-name="fi" unicode="fi" horiz-adv-x="1222" 
d="M891 1313q0 43 31 71q32 28 74 27q42 0 73 -28q31 -29 31 -71t-31 -70t-73 -28t-74 28q-31 28 -31 71zM926 0v834h-543v-834h-137v834h-187v122h187v111q0 408 334 408h102v-129h-102q-129 0 -168 -95q-29 -68 -29 -184v-111h678v-956h-135z" />
    <glyph glyph-name="fl" unicode="fl" horiz-adv-x="1196" 
d="M580 1475h450v-1475h-135v1346h-315q-129 0 -168 -95q-29 -68 -29 -184v-111h235v-122h-235v-834h-137v834h-187v122h187v111q0 408 334 408z" />
    <glyph glyph-name="f_f_i" unicode="ffi" horiz-adv-x="1935" 
d="M1708 1411q43 0 74 -28q30 -29 30 -71t-30 -71q-31 -27 -74 -27t-74 28t-30 71q0 43 30 71t74 27zM1638 0v834h-542v-834h-138v834h-575v-834h-137v834h-187v122h187v111q0 408 334 408h102v-129h-102q-129 0 -168 -95q-29 -68 -29 -184v-111h575v111q0 408 334 408h103
v-129h-103q-129 0 -168 -95q-29 -68 -28 -184v-111h678v-956h-136z" />
    <glyph glyph-name="f_f_l" unicode="ffl" horiz-adv-x="1908" 
d="M1743 0h-135v1346h-316q-129 0 -168 -95q-29 -68 -28 -184v-111h235v-122h-235v-834h-138v834h-575v-834h-137v834h-187v122h187v111q0 408 334 408h102v-129h-102q-129 0 -168 -95q-29 -68 -29 -184v-111h575v111q0 408 334 408h451v-1475z" />
    <glyph glyph-name="f_f_j" unicode="ffj" horiz-adv-x="1937" 
d="M1708 1411q43 0 74 -28q30 -29 30 -71t-30 -71q-31 -27 -74 -27t-74 28t-30 71q0 43 30 71t74 27zM1442 -463h-103v129h103q129 0 168 94q29 68 28 185v889h-542v-834h-138v834h-575v-834h-137v834h-187v122h187v111q0 408 334 408h102v-129h-102q-129 0 -168 -95
q-29 -68 -29 -184v-111h575v111q0 408 334 408h103v-129h-103q-129 0 -168 -95q-29 -68 -28 -184v-111h680v-1011q0 -408 -334 -408z" />
    <glyph glyph-name="f_j" unicode="fj" horiz-adv-x="1224" 
d="M891 1313q0 43 31 71q32 28 74 27q42 0 73 -28q31 -29 31 -71t-31 -70t-73 -28t-74 28q-31 28 -31 71zM729 -463h-102v129h102q129 0 168 94q29 68 29 185v889h-543v-834h-137v834h-187v122h187v111q0 408 334 408h102v-129h-102q-129 0 -168 -95q-29 -68 -29 -184v-111
h680v-1011q0 -408 -334 -408z" />
    <glyph glyph-name=".notdef" horiz-adv-x="1300" 
d="M485 268q0 -36 28 -62t66 -26q37 0 65 26t28 62t-28 63q-28 25 -66 25t-65 -26q-28 -26 -28 -62zM379 883h127q0 76 43 123t109 47t115 -42q48 -43 48 -107t-49 -103q-31 -35 -97 -53q-65 -18 -113 -69q-48 -52 -48 -147v-77h127v77q0 43 25 66q25 24 96 44t128 92
q56 74 56 182t-85 186t-203 78t-198 -82t-81 -215zM1137 0h-973v1362h973v-1362z" />
    <glyph glyph-name=".null" horiz-adv-x="0" 
 />
    <glyph glyph-name="nonmarkingreturn" horiz-adv-x="681" 
 />
    <glyph glyph-name="space" unicode=" " horiz-adv-x="544" 
 />
    <glyph glyph-name="exclam" unicode="!" horiz-adv-x="532" 
d="M199 1411h135l-12 -1032h-111zM266 193q47 0 80 -31t33 -76t-33 -76t-80 -31t-80 31t-32 76q0 45 32 76q33 31 80 31z" />
    <glyph glyph-name="quotedbl" unicode="&#x22;" horiz-adv-x="667" 
d="M397 856v555h109v-555h-109zM162 856v555h108v-555h-108z" />
    <glyph glyph-name="numbersign" unicode="#" horiz-adv-x="1343" 
d="M877 924h-295l-121 -439h295zM1139 1411l-101 -360h230l-35 -127h-229l-121 -439h229l-35 -127h-229l-98 -358h-127l98 358h-295l-98 -358h-125l98 358h-225l35 127h225l119 439h-224l33 127h225l101 360h127l-101 -360h295l101 360h127z" />
    <glyph glyph-name="dollar" unicode="$" horiz-adv-x="1134" 
d="M625 -250h-103v232q-184 12 -302 138t-118 286h136q0 -113 89 -202t231 -89t236 66q93 67 111 165q18 117 -54 192q-73 75 -214 107l-191 43q-332 74 -331 354q0 156 122 266t285 117v195h103v-197q166 -23 270 -129t104 -270h-135q0 121 -86 195q-86 73 -213 73
t-221 -70t-94 -180q0 -170 225 -223l193 -43q190 -43 293 -155q106 -109 77 -299q-25 -134 -135 -228t-278 -110v-234z" />
    <glyph glyph-name="percent" unicode="%" horiz-adv-x="1339" 
d="M1145 250q0 64 -46 112t-112 48q-67 0 -111 -46t-44 -112t44 -111q46 -45 112 -45t111 45q46 45 46 109zM988 526q114 0 194 -80t80 -195q0 -114 -80 -194q-82 -77 -195 -77t-194 77q-78 82 -78 195t78 194q81 80 195 80zM510 1102q0 64 -46 112t-112 48t-110 -46
t-45 -112q0 -66 45 -111q44 -45 110 -45t112 45t46 109zM352 1378q114 0 195 -80q80 -80 80 -195q0 -114 -80 -194q-82 -78 -195 -78t-194 78q-78 82 -78 195t78 194q80 80 194 80zM956 1378h97l-674 -1378h-96z" />
    <glyph glyph-name="ampersand" unicode="&#x26;" horiz-adv-x="1359" 
d="M901 748h-323q-138 0 -232 -94t-94 -227q0 -132 90 -222t232 -90t231 86q94 86 96 215v332zM582 870h319v181h133v-183h189v-120h-189v-318q0 -164 49 -243t177 -78v-129q-115 0 -199 52t-113 138q-47 -86 -151 -138t-222 -52q-201 0 -329 131t-129 319q0 121 63 225
t174 164q-123 101 -123 253q1 152 103 254t258 101q102 0 187 -47t134 -129l-114 -71q-63 113 -207 112q-98 0 -162 -59t-63 -151t61 -152t154 -60z" />
    <glyph glyph-name="quotesingle" unicode="'" horiz-adv-x="432" 
d="M162 856v555h108v-555h-108z" />
    <glyph glyph-name="parenleft" unicode="(" horiz-adv-x="739" 
d="M655 -342v-135q-248 0 -396 253q-148 252 -148 700t147 700q152 252 397 251v-135q-186 0 -298 -216q-111 -216 -111 -599t110 -602q113 -217 299 -217z" />
    <glyph glyph-name="parenright" unicode=")" horiz-adv-x="739" 
d="M84 -477v135q186 0 298 217t112 602t-113 598q-111 217 -297 217v135q248 -1 396 -251t149 -700q0 -450 -150 -699q-147 -254 -395 -254z" />
    <glyph glyph-name="asterisk" unicode="*" horiz-adv-x="997" 
d="M504 948l-172 -250l-115 86l189 232l-289 82q6 23 24 77t21 60l278 -107l-16 299h149l-18 -299l283 107l43 -137l-289 -78l188 -238l-114 -82z" />
    <glyph glyph-name="plus" unicode="+" horiz-adv-x="1069" 
d="M117 604h352v352h129v-352h354v-129h-354v-354h-129v354h-352v129z" />
    <glyph glyph-name="comma" unicode="," horiz-adv-x="499" 
d="M141 -270l-94 28q135 190 129 432h158q-12 -158 -66 -280t-127 -180z" />
    <glyph glyph-name="hyphen" unicode="-" horiz-adv-x="993" 
d="M147 414v129h699v-129h-699z" />
    <glyph glyph-name="period" unicode="." horiz-adv-x="520" 
d="M147 86q0 45 33 76t80 31t80 -31t33 -76t-33 -76t-80 -31t-80 31t-33 76z" />
    <glyph glyph-name="slash" unicode="/" horiz-adv-x="968" 
d="M756 1411h149l-690 -1411h-149z" />
    <glyph glyph-name="zero" unicode="0" horiz-adv-x="1249" 
d="M274 686q0 -270 77 -421t278 -151t276 167q68 151 68 405t-78 406t-268 152q-189 0 -271 -144t-82 -414zM1108 678q0 -516 -246 -645q-100 -53 -237 -53t-238 53q-137 83 -191 241t-57 404q0 303 97 493q111 207 389 207q483 14 483 -700z" />
    <glyph glyph-name="one" unicode="1" horiz-adv-x="659" 
d="M453 0h-136v1186l-231 -80v123l367 133v-1362z" />
    <glyph glyph-name="two" unicode="2" horiz-adv-x="1075" 
d="M125 0v47l569 690q111 131 111 249t-80 188t-198 70q-117 0 -197 -61q-80 -60 -94 -159l-125 33q25 147 139 234t282 87t288 -110t120 -283q0 -174 -147 -344l-428 -506h577v-135h-817z" />
    <glyph glyph-name="three" unicode="3" horiz-adv-x="1095" 
d="M526 664h-131v129h131q102 -5 175 61t76 162t-58 158t-161 67q-100 6 -175 -28q-74 -34 -109 -93l-108 68q54 94 158 147t225 45q188 -16 284 -126t80 -261q-6 -81 -58 -153t-134 -107q117 -29 187 -143t61 -234q-15 -170 -159 -278t-329 -96q-129 10 -233 78t-152 173
l123 56q31 -70 105 -117t165 -55q131 -7 233 69t109 191q4 115 -86 201t-219 86z" />
    <glyph glyph-name="four" unicode="4" horiz-adv-x="1200" 
d="M772 416v676l-465 -676h465zM1112 291h-205v-291h-135v291h-713l748 1071h100v-946h205v-125z" />
    <glyph glyph-name="five" unicode="5" horiz-adv-x="1148" 
d="M897 429q0 136 -95 213q-96 77 -202 77q-106 -1 -179 -21t-206 -86l-53 72l119 678h667v-137h-551l-82 -451q172 84 275 84q188 0 317 -117q131 -113 131 -315t-131 -326q-133 -121 -352 -120q-141 0 -269 80t-188 206l117 84q41 -100 138 -165t202 -64q158 0 250 86
t92 222z" />
    <glyph glyph-name="six" unicode="6" horiz-adv-x="1138" 
d="M397 641q-94 -84 -96 -211t84 -219t211 -95t211 79t92 213q4 131 -77 221t-206 93t-219 -81zM999 1149l-118 -51q-66 135 -242 145q-184 7 -265 -151t-75 -402q31 82 125 127t199 41q182 -10 302 -143q119 -133 109 -315t-137 -307t-307 -115t-295 132t-131 328
q-14 303 22 533q31 186 156 300t303 107q131 -6 217 -58t137 -171z" />
    <glyph glyph-name="seven" unicode="7" horiz-adv-x="1060" 
d="M121 1362h903l-750 -1362h-159l678 1227h-672v135z" />
    <glyph glyph-name="eight" unicode="8" horiz-adv-x="1157" 
d="M365 1045q0 -83 58 -142t144 -61h19q90 2 150 61t60 142t-62 141t-154 57q-92 0 -154 -57q-61 -58 -61 -141zM254 414q0 -123 92 -213q94 -86 230 -86t233 86q94 88 94 214t-95 215t-230 89h-15q-129 -2 -219 -92t-90 -213zM229 1034q1 150 101 248q100 96 250 96
t249 -98q103 -96 103 -244t-125 -245q107 -57 169 -159t62 -218q0 -182 -132 -308t-328 -126t-328 124q-131 124 -131 310q0 119 61 219t168 158q-119 93 -119 243z" />
    <glyph glyph-name="nine" unicode="9" 
d="M358 1159q-86 -84 -91 -213t76 -219t207 -93t218 79t95 212t-82 221t-210 93t-213 -80zM154 207l118 51q66 -133 254 -145q184 -7 266 151t74 402q-31 -82 -125 -127t-198 -41q-182 10 -301 143t-111 315t135 306q130 122 310 114t294 -130t131 -328q14 -303 -22 -533
q-31 -186 -156 -300t-303 -108q-272 13 -366 230z" />
    <glyph glyph-name="colon" unicode=":" horiz-adv-x="520" 
d="M147 870q0 44 33 76q33 31 80 31t80 -31t33 -76q0 -46 -33 -76t-80 -30t-80 31t-33 75zM147 86q0 45 33 76t80 31t80 -31t33 -76t-33 -76t-80 -31t-80 31t-33 76z" />
    <glyph glyph-name="semicolon" unicode=";" horiz-adv-x="567" 
d="M182 -270l-94 28q135 190 129 432h158q-11 -158 -65 -280t-128 -180zM184 870q0 44 33 76q33 31 80 31t80 -31t33 -76q0 -46 -33 -76t-80 -30t-80 31t-33 75z" />
    <glyph glyph-name="less" unicode="&#x3c;" horiz-adv-x="1288" 
d="M1143 227v-145l-1043 399v148l1043 399v-147l-885 -326z" />
    <glyph glyph-name="equal" unicode="=" horiz-adv-x="1255" 
d="M158 240v129h940v-129h-940zM158 659v129h940v-129h-940z" />
    <glyph glyph-name="greater" unicode="&#x3e;" horiz-adv-x="1288" 
d="M1188 629v-148l-1043 -399v145l885 328l-885 326v147z" />
    <glyph glyph-name="question" unicode="?" horiz-adv-x="997" 
d="M262 86q0 45 33 76t80 31t80 -31t33 -76t-34 -76q-32 -31 -79 -31t-80 31t-33 76zM231 1030h-135q0 176 116 286t285 110t291 -111q123 -106 123 -285q0 -138 -81 -242t-212 -141q-96 -29 -136 -67t-40 -121v-80h-135v80q0 131 67 204t204 113q88 28 143 96t55 170
t-83 176q-83 72 -197 72t-189 -72q-76 -72 -76 -188z" />
    <glyph glyph-name="at" unicode="@" horiz-adv-x="2021" 
d="M1264 256v272q0 117 -83 200t-201 83t-200 -82t-82 -201q0 -118 82 -200t197 -82t201 86v-146q-100 -66 -197 -65q-170 0 -289 119q-119 120 -119 288t120 288t286 120t285 -113t125 -276v-305q0 -152 163 -152q72 0 127 45t82 123q49 141 49 295q0 319 -238 534
t-566 215q-330 0 -552 -228q-222 -230 -222 -558t222 -553t547 -225h37v-125h-37q-375 0 -635 261t-260 640t259 647q260 266 636 266q244 3 461 -111t348 -319t127 -444q0 -205 -84 -381q-94 -202 -317 -202q-117 0 -195 69q-77 70 -77 217z" />
    <glyph glyph-name="A" unicode="A" horiz-adv-x="1306" 
d="M375 498h557l-279 725zM326 371l-142 -371h-145l543 1411h143l543 -1411h-146l-143 371h-653z" />
    <glyph glyph-name="B" unicode="B" horiz-adv-x="1271" 
d="M756 684h-414v-549h422q119 0 188 76q74 76 74 181q0 104 -76 198t-194 94zM342 1278v-467h393q100 0 158 71q57 71 57 176t-66 163q-67 57 -179 57h-363zM1085 1061q0 -246 -172 -309q105 -18 177 -127t71 -230q1 -167 -107 -281t-288 -114h-561v1411h514q170 0 268 -94
t98 -256z" />
    <glyph glyph-name="C" unicode="C" horiz-adv-x="1359" 
d="M794 1292q-238 0 -393 -171t-155 -419t156 -418t394 -169q240 0 408 172l94 -97q-206 -210 -502 -210t-491 208q-195 213 -195 517q0 303 194 513q192 210 490 210t502 -211l-94 -95q-170 170 -408 170z" />
    <glyph glyph-name="D" unicode="D" horiz-adv-x="1478" 
d="M735 1276h-395v-1141h395q238 0 364 157q126 158 126 410t-127 413t-363 161zM735 0h-530v1411h530q291 0 458 -199t167 -510t-168 -505q-166 -197 -457 -197z" />
    <glyph glyph-name="E" unicode="E" horiz-adv-x="1144" 
d="M205 0v1411h805v-135h-670v-516h586v-135h-586v-490h692v-135h-827z" />
    <glyph glyph-name="F" unicode="F" horiz-adv-x="1064" 
d="M205 0v1411h792v-135h-657v-516h522v-135h-522v-625h-135z" />
    <glyph glyph-name="G" unicode="G" horiz-adv-x="1548" 
d="M911 565v127h564q0 -348 -171 -530q-172 -182 -478 -182t-511 210t-205 513q0 302 205 514q205 211 504 210q252 0 451 -163l-96 -97q-152 125 -355 125q-241 0 -407 -172t-166 -417t164 -418q166 -170 400 -170t368 119q133 120 145 331h-412z" />
    <glyph glyph-name="H" unicode="H" horiz-adv-x="1454" 
d="M1114 1411h135v-1411h-135v637h-774v-637h-135v1411h135v-647h774v647z" />
    <glyph glyph-name="I" unicode="I" horiz-adv-x="544" 
d="M205 1411h135v-1411h-135v1411z" />
    <glyph glyph-name="J" unicode="J" horiz-adv-x="544" 
d="M-80 -393q143 0 214 84t71 229v1491h135v-1491q0 -196 -101 -322t-319 -126q-51 0 -127 16l12 133q41 -14 115 -14z" />
    <glyph glyph-name="K" unicode="K" 
d="M340 0h-135v1411h135v-686l532 686h160l-549 -706l668 -705h-182l-629 664v-664z" />
    <glyph glyph-name="L" unicode="L" horiz-adv-x="997" 
d="M205 0v1411h135v-1276h598v-135h-733z" />
    <glyph glyph-name="M" unicode="M" horiz-adv-x="1935" 
d="M432 1411l537 -1100l534 1100h135l172 -1411h-133l-143 1169l-498 -1015h-135l-500 1015l-143 -1169h-133l172 1411h135z" />
    <glyph glyph-name="N" unicode="N" horiz-adv-x="1402" 
d="M1198 1411v-1411h-139l-719 1182v-1182h-135v1411h145l713 -1173v1173h135z" />
    <glyph glyph-name="O" unicode="O" horiz-adv-x="1640" 
d="M820 1292q-242 0 -408 -172t-166 -417t164 -418q166 -170 410 -170t409 171q166 170 166 416t-166 418t-409 172zM111 703q0 302 204 514q205 211 504 211t505 -212t206 -512t-206 -513q-206 -211 -505 -211t-504 210q-204 211 -204 513z" />
    <glyph glyph-name="P" unicode="P" horiz-adv-x="1230" 
d="M760 1276h-418v-590h408q136 0 204 81t68 212t-68 214t-194 83zM205 0v1411h555q201 0 299 -126t98 -306t-98 -304t-299 -124h-418v-551h-137z" />
    <glyph glyph-name="Q" unicode="Q" horiz-adv-x="1640" 
d="M1395 702q0 246 -166 418t-409 172q-242 0 -408 -172t-166 -417t164 -418q166 -170 409 -170q94 0 164 20l-160 258l113 74l172 -277q133 78 210 214t77 298zM1530 702q0 -194 -93 -360t-255 -264l153 -238l-114 -73l-162 253q-119 -41 -240 -40q-299 0 -504 210
t-205 513q0 302 205 514q205 211 504 211t505 -212t206 -514z" />
    <glyph glyph-name="R" unicode="R" horiz-adv-x="1245" 
d="M729 1276h-387v-590h377q133 0 200 81t66 212q0 131 -65 214q-66 83 -191 83zM342 551v-551h-137v1411h524q201 0 296 -126t95 -305t-91 -301t-284 -128l390 -551h-166l-389 551h-238z" />
    <glyph glyph-name="S" unicode="S" horiz-adv-x="1163" 
d="M117 406h135q0 -113 89 -202t231 -89t236 66q93 67 112 165q18 117 -55 192t-214 107l-190 43q-332 74 -332 354q0 166 132 276t316 110q185 0 311 -112t126 -292h-135q0 121 -86 195q-85 73 -213 73t-222 -70t-94 -180q0 -170 225 -223l193 -43q190 -43 293 -155
q106 -109 78 -299q-29 -138 -154 -240t-325 -102t-328 131t-129 295z" />
    <glyph glyph-name="T" unicode="T" horiz-adv-x="1159" 
d="M59 1276v135h1041v-135h-453v-1276h-135v1276h-453z" />
    <glyph glyph-name="U" unicode="U" horiz-adv-x="1380" 
d="M1055 477v934h135v-934q0 -221 -144 -359t-357 -138q-212 0 -355 137t-144 360v934h136v-934q0 -162 105 -262t260 -100t257 100q107 100 107 262z" />
    <glyph glyph-name="V" unicode="V" horiz-adv-x="1128" 
d="M70 1411h139l354 -1190l355 1190h139l-422 -1411h-141z" />
    <glyph glyph-name="W" unicode="W" horiz-adv-x="1859" 
d="M1274 213l395 1198h143l-477 -1411h-129l-276 946l-277 -946h-129l-477 1411h143l396 -1198l293 1012h102z" />
    <glyph glyph-name="X" unicode="X" horiz-adv-x="1210" 
d="M1124 1411l-438 -651l496 -760h-166l-412 645l-411 -645h-164l493 760l-438 651h166l354 -534l357 534h163z" />
    <glyph glyph-name="Y" unicode="Y" horiz-adv-x="1259" 
d="M698 0h-139v655l-530 756h161l439 -608l442 608h164l-537 -756v-655z" />
    <glyph glyph-name="Z" unicode="Z" horiz-adv-x="1146" 
d="M86 0v135l797 1139h-768v137h934v-135l-799 -1139h799v-137h-963z" />
    <glyph glyph-name="bracketleft" unicode="[" horiz-adv-x="612" 
d="M518 -463h-336v1874h336v-137h-199v-1598h199v-139z" />
    <glyph glyph-name="backslash" unicode="\" horiz-adv-x="968" 
d="M903 0h-149l-691 1411h150z" />
    <glyph glyph-name="bracketright" unicode="]" horiz-adv-x="612" 
d="M94 1411h336v-1874h-336v139h199v1598h-199v137z" />
    <glyph glyph-name="underscore" unicode="_" horiz-adv-x="1456" 
d="M147 -250v129h1162v-129h-1162z" />
    <glyph glyph-name="grave" unicode="`" horiz-adv-x="937" 
d="M575 1137h-139l-172 274h168z" />
    <glyph glyph-name="a" unicode="a" horiz-adv-x="1253" 
d="M238 482q0 -161 101 -263t253 -102t255 97t103 265t-110 264q-110 97 -256 97t-246 -98t-100 -260zM950 956h137v-956h-137v164q-49 -86 -148 -135t-212 -49q-207 0 -350 139q-139 139 -140 362q0 223 140 359t350 137q115 0 213 -47t147 -131v157z" />
    <glyph glyph-name="b" unicode="b" horiz-adv-x="1253" 
d="M662 117q150 0 252 104t102 263t-100 257q-100 99 -246 99q-145 0 -256 -96t-111 -265q0 -168 103 -266q106 -96 256 -96zM303 0h-137v1475h137v-676q49 84 147 131t214 47q211 0 348 -137q141 -134 141 -358t-140 -363t-349 -139q-113 0 -212 49t-149 135v-164z" />
    <glyph glyph-name="c" unicode="c" horiz-adv-x="1032" 
d="M599 -20q-208 0 -353 139q-146 139 -146 361t144 360t351 137q208 0 349 -129l-96 -96q-102 90 -252 90t-255 -100t-105 -261q0 -162 104 -264q110 -102 258 -102t250 92l98 -96q-139 -131 -347 -131z" />
    <glyph glyph-name="d" unicode="d" horiz-adv-x="1253" 
d="M238 482q0 -161 101 -263t253 -102t255 97t103 265t-110 264q-110 97 -256 97t-246 -98t-100 -260zM950 1475h137v-1475h-137v164q-49 -86 -148 -135t-212 -49q-207 0 -350 139q-139 139 -140 362q0 223 140 359t350 137q115 0 213 -47t147 -131v676z" />
    <glyph glyph-name="e" unicode="e" horiz-adv-x="1140" 
d="M582 842q-134 0 -228 -81t-114 -216h673q-20 137 -109 217t-222 80zM584 -20q-207 0 -345 138q-139 138 -139 362t138 360t345 137q208 0 339 -134t131 -362q0 -51 -2 -63h-811q18 -137 113 -220t231 -83q96 0 175 44t124 122q29 -8 69 -17l68 -14q-57 -126 -173 -198
t-263 -72z" />
    <glyph glyph-name="f" unicode="f" horiz-adv-x="673" 
d="M580 1475h102v-129h-102q-129 0 -168 -95q-29 -68 -29 -184v-111h235v-122h-235v-834h-137v834h-187v122h187v111q0 408 334 408z" />
    <glyph glyph-name="g" unicode="g" horiz-adv-x="1251" 
d="M575 -342q377 0 375 516q-43 -88 -144 -141t-216 -53q-209 0 -350 135q-140 139 -140 361t140 362q143 139 350 139q113 0 212 -49t148 -135v163h137v-804q0 -629 -512 -629q-127 0 -235 60t-176 177l117 68q102 -170 294 -170zM238 474q0 -161 100 -259t246 -98t257 95
q109 95 109 265t-104 264q-100 99 -254 99t-254 -105q-100 -100 -100 -261z" />
    <glyph glyph-name="h" unicode="h" 
d="M303 522v-522h-137v1475h137v-676q39 84 129 131t189 47q174 0 272 -112t96 -308v-557h-137v557q0 135 -60 210t-180 75t-214 -78t-95 -242z" />
    <glyph glyph-name="i" unicode="i" horiz-adv-x="466" 
d="M131 1313q0 43 31 71t74 27q44 0 74 -28q30 -29 30 -71t-31 -70t-73 -28t-74 28q-31 28 -31 71zM301 0h-135v956h135v-956z" />
    <glyph glyph-name="j" unicode="j" horiz-adv-x="468" 
d="M-31 -463h-102v129h102q129 0 168 94q29 68 29 185v1011h137v-1011q0 -408 -334 -408zM131 1313q0 43 31 71t74 27q44 0 74 -28q30 -29 30 -71t-31 -70t-73 -28t-74 28q-31 28 -31 71z" />
    <glyph glyph-name="k" unicode="k" horiz-adv-x="993" 
d="M301 0h-135v1475h135v-897l379 378h192l-409 -409l518 -547h-186l-494 522v-522z" />
    <glyph glyph-name="l" unicode="l" horiz-adv-x="466" 
d="M166 1475h135v-1475h-135v1475z" />
    <glyph glyph-name="m" unicode="m" horiz-adv-x="1828" 
d="M989 522v-522h-137v557q0 135 -60 210t-180 75t-214 -78t-95 -242v-522h-137v956h137v-157q41 84 140 131t178 47q246 0 331 -209q100 209 355 209q174 0 272 -112t96 -308v-557h-137v557q0 135 -60 210t-179 75t-215 -78t-95 -242z" />
    <glyph glyph-name="n" unicode="n" 
d="M303 522v-522h-137v956h137v-157q39 84 129 131t189 47q174 0 272 -112t96 -308v-557h-137v557q0 135 -60 210t-180 75t-214 -78t-95 -242z" />
    <glyph glyph-name="o" unicode="o" horiz-adv-x="1200" 
d="M600 115q152 0 258 101t106 264t-106 261q-102 101 -257 101t-260 -100t-105 -261q0 -162 104 -264q108 -102 260 -102zM600 -20q-208 0 -354 139t-146 361t144 360t355 137q212 0 356 -138q145 -137 145 -359t-146 -361t-354 -139z" />
    <glyph glyph-name="p" unicode="p" horiz-adv-x="1253" 
d="M1016 470q0 159 -102 264q-102 106 -254 106q-150 0 -253 -98t-103 -267q0 -168 108 -263q110 -95 256 -95t247 97t101 256zM303 -463h-137v1419h137v-165q49 86 149 136t212 50q209 0 349 -140q140 -139 140 -363t-140 -359t-349 -135q-115 0 -213 46t-148 130v-619z
" />
    <glyph glyph-name="q" unicode="q" horiz-adv-x="1253" 
d="M586 117q146 0 256 95q108 95 108 263t-102 266q-102 99 -256 99t-254 -104t-100 -264q0 -161 100 -259q102 -96 248 -96zM950 956h137v-1419h-137v619q-49 -84 -147 -130t-213 -46q-209 0 -350 135q-139 135 -140 358q0 223 140 363t350 141q111 0 211 -50t149 -136v165
z" />
    <glyph glyph-name="r" unicode="r" horiz-adv-x="772" 
d="M578 840q-135 0 -207 -140q-68 -139 -68 -344v-356h-137v956h137v-217q68 238 275 238q45 -1 93 -13t62 -24l-16 -133q-63 33 -139 33z" />
    <glyph glyph-name="s" unicode="s" horiz-adv-x="868" 
d="M639 260q0 115 -137 148l-133 30q-96 23 -174 80q-84 72 -68 232q14 98 103 162t210 65t201 -63t98 -185h-133q-12 53 -58 85t-113 32t-117 -33t-58 -84q-23 -119 141 -160l131 -30q242 -57 242 -279q0 -123 -100 -203q-102 -77 -240 -77t-239 79q-99 84 -105 215h121
q43 -166 225 -165q92 0 148 42q55 42 55 109z" />
    <glyph glyph-name="t" unicode="t" horiz-adv-x="630" 
d="M367 834v-834h-138v834h-172v122h172v359h138v-359h202v-122h-202z" />
    <glyph glyph-name="u" unicode="u" 
d="M842 434v522h137v-956h-137v158q-39 -84 -129 -131t-189 -47q-174 0 -272 112t-96 307v557h137v-557q0 -135 60 -210t179 -75t216 79q94 79 94 241z" />
    <glyph glyph-name="v" unicode="v" horiz-adv-x="1034" 
d="M444 0l-395 956h144l325 -796l324 796h145z" />
    <glyph glyph-name="w" unicode="w" horiz-adv-x="1646" 
d="M1591 956l-358 -956h-115l-297 768l-286 -768h-115l-369 956h146l276 -739l275 739h147l276 -739l275 739h145z" />
    <glyph glyph-name="x" unicode="x" horiz-adv-x="989" 
d="M412 526l-312 430h168l226 -315l227 315h168l-311 -430l380 -526h-165l-299 412l-299 -412h-164z" />
    <glyph glyph-name="y" unicode="y" horiz-adv-x="1034" 
d="M987 956l-594 -1419h-141l190 465l-393 954h144l323 -778l326 778h145z" />
    <glyph glyph-name="z" unicode="z" horiz-adv-x="1013" 
d="M119 956h794v-122l-645 -699h645v-135h-829v125l635 696h-600v135z" />
    <glyph glyph-name="braceleft" unicode="{" horiz-adv-x="808" 
d="M350 281v-349q0 -118 77 -194t187 -76h111v-125h-111q-168 0 -284 110t-115 285v349q0 55 -39 98t-92 43v117q53 0 92 43t39 98v352q-4 176 114 286t285 109h111v-124h-111q-112 0 -188 -77t-76 -194v-352q0 -62 -34 -120t-87 -81q49 -17 85 -77t36 -121z" />
    <glyph glyph-name="bar" unicode="|" horiz-adv-x="466" 
d="M182 1620h103v-1870h-103v1870z" />
    <glyph glyph-name="braceright" unicode="}" horiz-adv-x="808" 
d="M459 -68v349q0 61 36 120t85 78q-53 23 -87 80t-34 121v352q0 117 -77 194t-187 77h-111v124h111q167 1 285 -109t114 -286v-352q0 -55 39 -98t92 -43v-117q-53 0 -92 -43t-39 -98v-349q0 -178 -117 -284q-113 -111 -282 -111h-111v125h111q111 0 187 76t77 194z" />
    <glyph glyph-name="exclamdown" unicode="&#xa1;" horiz-adv-x="479" 
d="M184 557h111l12 -1020h-135zM352 850q0 -45 -33 -76t-79 -31t-80 31q-33 31 -33 76t33 76q34 31 80 31t79 -31t33 -76z" />
    <glyph glyph-name="cent" unicode="&#xa2;" horiz-adv-x="1071" 
d="M524 1194h103v-217q193 -10 323 -129l-96 -96q-102 90 -252 90t-255 -100t-105 -261q0 -162 104 -264q109 -102 258 -102t250 92l98 -96q-135 -123 -325 -131v-230h-103v236q-182 29 -301 161q-117 135 -117 334t117 330q121 131 301 160v223z" />
    <glyph glyph-name="sterling" unicode="&#xa3;" horiz-adv-x="1308" 
d="M135 688h166v354q0 178 123 287t292 109t283 -111q117 -109 117 -285h-135q0 115 -76 188q-75 73 -189 73t-197 -73t-83 -188v-354h332v-117h-332v-436h584q43 0 43 51v121h135v-121q0 -80 -52 -133t-126 -53h-920v135h201v436h-166v117z" />
    <glyph glyph-name="currency" unicode="&#xa4;" horiz-adv-x="1245" 
d="M227 710q0 134 80 236l-149 152l78 78l149 -152q103 80 237 80t238 -80l150 152l77 -78l-149 -152q80 -106 80 -239t-80 -236l149 -149l-77 -78l-150 149q-102 -80 -238 -80t-239 80l-147 -149l-78 78l147 149q-78 105 -78 239zM624 979q-114 0 -193 -79
q-79 -78 -79 -190t78 -194q82 -78 194 -78t190 79t79 193q0 114 -80 189q-75 80 -189 80z" />
    <glyph glyph-name="yen" unicode="&#xa5;" horiz-adv-x="1341" 
d="M598 557h-330v96h330l-530 758h161l439 -608l442 608h164l-537 -758h332v-96h-332v-203h332v-96h-332v-258h-139v258h-330v96h330v203z" />
    <glyph glyph-name="brokenbar" unicode="&#xa6;" horiz-adv-x="475" 
d="M186 520h103v-770h-103v770zM289 848h-103v772h103v-772z" />
    <glyph glyph-name="section" unicode="&#xa7;" horiz-adv-x="1058" 
d="M788 240v272q0 114 -76 186t-191 72q-116 0 -179 -55v151q86 39 182 39q168 0 284 -107t116 -286v-272q0 -176 -116 -286t-284 -110q-129 0 -231 68t-143 184l131 37q67 -153 259 -153q97 0 173 72q75 73 75 188zM778 1139q-66 153 -259 153q-97 0 -173 -72t-76 -188
v-272q0 -115 76 -187q76 -71 191 -71t180 55v-151q-86 -39 -182 -39q-166 0 -285 108q-115 109 -115 285v272q0 176 116 286t284 109q129 1 231 -67t143 -184z" />
    <glyph glyph-name="dieresis" unicode="&#xa8;" horiz-adv-x="1062" 
d="M608 1313q0 43 31 71t74 27q43 0 73 -28q30 -29 31 -71q0 -42 -31 -70q-32 -28 -74 -28t-73 28t-31 71zM350 1411q43 0 74 -28q31 -29 31 -71t-31 -70t-74 -28t-74 28t-30 71q0 43 30 71t74 27z" />
    <glyph glyph-name="copyright" unicode="&#xa9;" horiz-adv-x="1669" 
d="M834 96q250 0 426 176q174 176 174 430t-175 432t-426 177q-251 0 -425 -177q-174 -178 -174 -432t174 -430q176 -176 426 -176zM842 326q-154 0 -260 106q-104 106 -104 259t104 261q106 106 260 106t268 -122l-76 -76q-88 88 -193 88t-179 -75t-74 -181t74 -181
t179 -75t197 92l74 -79q-116 -123 -270 -123zM119 702q0 299 207 512q209 213 508 213q300 0 508 -213t208 -513t-209 -511t-507 -211t-508 211q-207 213 -207 512z" />
    <glyph glyph-name="ordfeminine" unicode="&#xaa;" horiz-adv-x="974" 
d="M805 516h-625v84h625v-84zM254 1046q0 -100 63 -163t157 -63t160 60q64 62 64 163t-66 164q-67 63 -161 63q-93 0 -155 -62t-62 -162zM698 1356h101v-625h-101v90q-84 -104 -222 -104t-232 90q-92 92 -92 237t90 236q94 90 244 90t212 -98v84z" />
    <glyph glyph-name="guillemotleft" unicode="&#xab;" horiz-adv-x="927" 
d="M692 53l-282 424l282 424h127l-282 -424l282 -424h-127zM385 53l-283 424l283 424h127l-283 -424l283 -424h-127z" />
    <glyph glyph-name="logicalnot" unicode="&#xac;" horiz-adv-x="1318" 
d="M158 721h1003v-463h-129v334h-874v129z" />
    <glyph glyph-name="registered" unicode="&#xae;" horiz-adv-x="1669" 
d="M834 96q250 0 426 176q174 176 174 430t-175 432t-426 177q-251 0 -425 -177q-174 -178 -174 -432t174 -430q176 -176 426 -176zM119 702q0 299 207 512q209 213 508 213q300 0 508 -213t208 -513t-209 -511t-507 -211t-508 211q-207 213 -207 512zM721 940v-233h156
q73 -2 103 57q30 58 0 118t-99 58h-160zM721 596v-260h-113v717h273q105 0 165 -66t60 -157t-47 -153t-129 -77l188 -264h-135l-186 260h-76z" />
    <glyph glyph-name="overscore" unicode="&#xaf;" horiz-adv-x="978" 
d="M246 1241v129h487v-129h-487z" />
    <glyph glyph-name="degree" unicode="&#xb0;" horiz-adv-x="749" 
d="M526 1171q0 63 -44 107t-108 45q-64 0 -107 -44q-44 -43 -44 -107t43 -109q44 -43 108 -43t108 44t44 107zM119 1172q0 104 75 180t181 76t181 -76q75 -74 75 -180t-75 -182q-75 -75 -180 -75t-183 74q-74 78 -74 183z" />
    <glyph glyph-name="plusminus" unicode="&#xb1;" horiz-adv-x="1118" 
d="M969 129v-129h-819v129h819zM150 690h344v324h129v-324h346v-129h-346v-325h-129v325h-344v129z" />
    <glyph glyph-name="twosuperior" unicode="&#xb2;" horiz-adv-x="657" 
d="M571 963h-493v49l325 393q59 76 60 133q0 57 -41 93q-40 36 -100 36t-103 -36t-51 -91l-100 25q14 96 84 153q70 58 172 60t174 -69q74 -71 74 -171t-89 -207l-219 -260h307v-108z" />
    <glyph glyph-name="threesuperior" unicode="&#xb3;" horiz-adv-x="665" 
d="M317 1339h-90v105h90q43 0 75 26t39 73q7 46 -23 82q-31 36 -86 42q-90 10 -144 -72l-78 64q34 57 96 90t147 28t149 -71t61 -161q-2 -95 -96 -150q59 -19 97 -83t32 -132q-10 -104 -98 -170t-181 -59q-94 7 -159 53t-95 114l37 23q39 23 53 28q43 -94 156 -108
q68 -4 121 35t55 97t-45 102t-113 44z" />
    <glyph glyph-name="acute" unicode="&#xb4;" horiz-adv-x="937" 
d="M408 1411h167l-172 -274h-139z" />
    <glyph glyph-name="mu" unicode="&#xb5;" horiz-adv-x="1140" 
d="M315 -334h-137v1290h137v-557q1 -135 61 -210t179 -75t215 79q94 80 94 241v522h137v-956h-137v158q-39 -84 -129 -131t-188 -47q-162 0 -232 86v-400z" />
    <glyph glyph-name="paragraph" unicode="&#xb6;" horiz-adv-x="1253" 
d="M766 -121v1532h135q113 0 193 -80t80 -192v-162h-136v162q0 57 -40 97t-97 40v-1364q0 -124 -86 -198q-86 -75 -186 -74h-113v120h113q51 0 94 36t43 83zM516 1411h135v-1532h-135v647q-184 0 -313 129t-129 313t129 313q129 130 313 130z" />
    <glyph glyph-name="middot" unicode="&#xb7;" horiz-adv-x="520" 
d="M147 539q0 45 33 75t80 31q47 0 80 -31q33 -32 33 -76t-33 -75t-80 -31t-80 31t-33 76z" />
    <glyph glyph-name="cedilla" unicode="&#xb8;" horiz-adv-x="1056" 
d="M616 -182l-100 235h115l80 -192q35 -82 4 -157q-31 -76 -110 -108t-151 0t-108 109q-18 47 -18 88l108 -8q2 -20 8 -39q16 -35 52 -51t70 -1q36 15 51 52t-1 72z" />
    <glyph glyph-name="onesuperior" unicode="&#xb9;" horiz-adv-x="413" 
d="M297 963h-109v665l-131 -47v105l240 88v-811z" />
    <glyph glyph-name="ordmasculine" unicode="&#xba;" horiz-adv-x="972" 
d="M801 516h-625v84h625v-84zM713 1050q0 99 -66 162q-66 64 -164 64q-99 0 -163 -62t-64 -163q0 -100 67 -165t161 -65t162 65q67 65 67 164zM156 1051q0 145 95 234t231 89t232 -90t97 -234q0 -144 -96 -236q-95 -92 -233 -93q-138 1 -232 93t-94 237z" />
    <glyph glyph-name="guillemotright" unicode="&#xbb;" horiz-adv-x="927" 
d="M236 901l282 -424l-282 -424h-127l282 424l-282 424h127zM543 901l282 -424l-282 -424h-127l282 424l-282 424h127z" />
    <glyph glyph-name="onequarter" unicode="&#xbc;" horiz-adv-x="1568" 
d="M340 559h-109v666l-131 -47v104l240 88v-811zM1085 1378h136l-918 -1398h-135zM1485 268v-102h-117v-166h-108v166h-418l444 637h82v-535h117zM1260 268v338l-232 -338h232z" />
    <glyph glyph-name="onehalf" unicode="&#xbd;" horiz-adv-x="1572" 
d="M346 559h-108v666l-132 -47v104l240 88v-811zM1063 1378h135l-917 -1398h-136zM1462 0h-493v49l325 393q59 76 60 133q0 57 -41 93t-101 37q-60 0 -102 -36q-43 -36 -51 -91l-101 24q14 96 84 154t172 59q102 2 176 -69t72 -171q0 -100 -88 -206l-219 -260h307v-109z" />
    <glyph glyph-name="threequarters" unicode="&#xbe;" horiz-adv-x="1658" 
d="M453 -20h-136l918 1398h135zM354 936h-90v104h90q43 0 75 27t39 73t-24 82t-86 42q-90 10 -143 -72l-78 63q33 57 95 91t148 28t148 -72q64 -66 62 -160q-2 -95 -96 -151q59 -19 97 -83t32 -132q-9 -104 -97 -170t-182 -58t-159 52q-65 45 -95 115q8 3 90 51
q43 -94 156 -109q68 -4 121 35q53 40 55 98t-45 102t-113 44zM1454 166v-166h-108v166h-418l444 637h82v-535h117v-102h-117zM1346 268v338l-232 -338h232z" />
    <glyph glyph-name="questiondown" unicode="&#xbf;" horiz-adv-x="970" 
d="M723 870q0 -46 -33 -76t-80 -30t-80 31q-32 31 -32 75t32 76q33 31 80 31t80 -31t33 -76zM754 -74h135q0 -176 -117 -284q-113 -111 -283 -111q-171 0 -293 110t-122 285q0 138 81 242t212 141q176 51 176 209v60h135v-60q0 -256 -270 -338q-88 -27 -144 -95
q-55 -69 -55 -171t84 -176q85 -72 197 -72t188 72t76 188z" />
    <glyph glyph-name="Agrave" unicode="&#xc0;" horiz-adv-x="1306" 
d="M723 1546h-139l-172 275h168zM653 1223l-278 -725h557zM39 0l543 1411h143l543 -1411h-146l-143 371h-653l-142 -371h-145z" />
    <glyph glyph-name="Aacute" unicode="&#xc1;" horiz-adv-x="1306" 
d="M721 1821h168l-172 -275h-139zM375 498h557l-279 725zM326 371l-142 -371h-145l543 1411h143l543 -1411h-146l-143 371h-653z" />
    <glyph glyph-name="Acircumflex" unicode="&#xc2;" horiz-adv-x="1306" 
d="M936 1546h-139l-146 176l-143 -176h-139l194 275h178zM375 498h557l-279 725zM326 371l-142 -371h-145l543 1411h143l543 -1411h-146l-143 371h-653z" />
    <glyph glyph-name="Atilde" unicode="&#xc3;" horiz-adv-x="1306" 
d="M559 1692q-27 0 -47 -25t-23 -68h-104q6 109 54 165q49 56 109 56t116 -42q56 -43 82 -43t47 22q20 23 22 64h105q-6 -109 -54 -162t-110 -53q-60 0 -115 43t-82 43zM375 498h557l-279 725zM326 371l-142 -371h-145l543 1411h143l543 -1411h-146l-143 371h-653z" />
    <glyph glyph-name="Adieresis" unicode="&#xc4;" horiz-adv-x="1306" 
d="M938 1722q0 -42 -31 -70t-73 -28t-74 28q-31 28 -31 70t31 71q31 28 74 28q44 0 74 -28t30 -71zM471 1821q43 0 74 -28t31 -71t-31 -71q-31 -27 -74 -27t-74 28t-31 70t32 71q30 28 73 28zM653 1223l-278 -725h557zM39 0l543 1411h143l543 -1411h-146l-143 371h-653
l-142 -371h-145z" />
    <glyph glyph-name="Aring" unicode="&#xc5;" horiz-adv-x="1306" 
d="M605 1824q-48 -24 -46 -72t29 -74q28 -26 66 -26t65 28q27 26 26 65q4 55 -44 79t-96 0zM455 1743q0 85 57 143t140 58q84 0 142 -58t58 -142q0 -83 -58 -140q-58 -58 -142 -58t-140 56q-57 56 -57 141zM653 1223l-278 -725h557zM39 0l543 1411h143l543 -1411h-146
l-143 371h-653l-142 -371h-145z" />
    <glyph glyph-name="AE" unicode="&#xc6;" horiz-adv-x="1929" 
d="M989 498v778l-493 -778h493zM989 371h-573l-236 -371h-160l891 1411h883v-135h-670v-516h586v-135h-586v-490h693v-135h-828v371z" />
    <glyph glyph-name="Ccedilla" unicode="&#xc7;" horiz-adv-x="1361" 
d="M113 716q1 292 193 502t490 210t502 -211l-94 -95q-170 170 -408 170t-394 -171q-154 -171 -154 -419t156 -418t394 -169q238 0 408 172l94 -97q-197 -203 -479 -210l49 -119q35 -82 4 -157q-32 -76 -110 -108t-151 0t-107 109q-18 47 -19 88l109 -8q0 -63 59 -90
q35 -16 71 -1t51 52t-1 72l-71 168q-260 34 -426 236t-166 494z" />
    <glyph glyph-name="Egrave" unicode="&#xc8;" horiz-adv-x="1144" 
d="M702 1546h-139l-172 275h168zM1010 1411v-135h-670v-516h586v-135h-586v-490h692v-135h-827v1411h805z" />
    <glyph glyph-name="Eacute" unicode="&#xc9;" horiz-adv-x="1144" 
d="M631 1821h168l-172 -275h-140zM205 0v1411h805v-135h-670v-516h586v-135h-586v-490h692v-135h-827z" />
    <glyph glyph-name="Ecircumflex" unicode="&#xca;" horiz-adv-x="1144" 
d="M862 1546h-139l-145 176l-144 -176h-139l194 275h179zM205 0v1411h805v-135h-670v-516h586v-135h-586v-490h692v-135h-827z" />
    <glyph glyph-name="Edieresis" unicode="&#xcb;" horiz-adv-x="1144" 
d="M862 1722q0 -42 -31 -70t-73 -28t-74 28q-31 28 -31 70t31 71q31 28 74 28q44 0 74 -28t30 -71zM500 1722q0 -42 -31 -70t-73 -28t-74 28q-31 28 -31 70t31 71q32 28 74 28t73 -28t31 -71zM1010 1411v-135h-670v-516h586v-135h-586v-490h692v-135h-827v1411h805z" />
    <glyph glyph-name="Igrave" unicode="&#xcc;" horiz-adv-x="544" 
d="M340 1546h-139l-172 275h168zM340 0h-135v1411h135v-1411z" />
    <glyph glyph-name="Iacute" unicode="&#xcd;" horiz-adv-x="544" 
d="M205 1411h135v-1411h-135v1411zM346 1821h168l-172 -275h-139z" />
    <glyph glyph-name="Icircumflex" unicode="&#xce;" horiz-adv-x="544" 
d="M205 1411h135v-1411h-135v1411zM557 1546h-139l-146 176l-143 -176h-139l194 275h178z" />
    <glyph glyph-name="Idieresis" unicode="&#xcf;" horiz-adv-x="544" 
d="M559 1722q0 -42 -31 -70q-32 -28 -74 -28t-73 28t-31 70t31 71q31 28 74 28t73 -28t31 -71zM92 1821q43 0 74 -28t31 -71q0 -42 -31 -70t-74 -28t-74 28q-30 28 -30 70t30 71q30 28 74 28zM340 0h-135v1411h135v-1411z" />
    <glyph glyph-name="Eth" unicode="&#xd0;" horiz-adv-x="1488" 
d="M350 1276v-508h352v-125h-352v-508h395q238 0 364 157q126 158 126 410t-126 413t-364 161h-395zM745 0h-530v643h-201v125h201v643h530q291 0 458 -199t167 -510t-168 -505q-166 -197 -457 -197z" />
    <glyph glyph-name="Ntilde" unicode="&#xd1;" horiz-adv-x="1402" 
d="M608 1692q-27 0 -47 -25t-22 -68h-105q6 109 54 165t108 56t116 -42q56 -43 83 -43q27 1 47 23t22 63h105q-7 -109 -55 -162t-108 -53t-116 43t-82 43zM1198 1411v-1411h-139l-719 1182v-1182h-135v1411h145l713 -1173v1173h135z" />
    <glyph glyph-name="Ograve" unicode="&#xd2;" horiz-adv-x="1640" 
d="M903 1546h-139l-172 275h168zM820 1292q-242 0 -408 -172t-166 -417t164 -418q166 -170 410 -170t409 171q166 170 166 416t-166 418t-409 172zM111 703q0 302 204 514q205 211 504 211t505 -212t206 -512t-206 -513q-206 -211 -505 -211t-504 210q-204 211 -204 513z
" />
    <glyph glyph-name="Oacute" unicode="&#xd3;" horiz-adv-x="1640" 
d="M868 1821h168l-172 -275h-139zM820 1292q-242 0 -408 -172t-166 -417t164 -418q166 -170 410 -170t409 171q166 170 166 416t-166 418t-409 172zM111 703q0 302 204 514q205 211 504 211t505 -212t206 -512t-206 -513q-206 -211 -505 -211t-504 210q-204 211 -204 513z
" />
    <glyph glyph-name="Ocircumflex" unicode="&#xd4;" horiz-adv-x="1640" 
d="M1104 1546h-139l-146 176l-143 -176h-139l194 275h178zM820 1292q-242 0 -408 -172t-166 -417t164 -418q166 -170 410 -170t409 171q166 170 166 416t-166 418t-409 172zM111 703q0 302 204 514q205 211 504 211t505 -212t206 -512t-206 -513q-206 -211 -505 -211
t-504 210q-204 211 -204 513z" />
    <glyph glyph-name="Otilde" unicode="&#xd5;" horiz-adv-x="1640" 
d="M727 1692q-27 0 -47 -25t-23 -68h-104q6 109 54 165q49 56 109 56t115 -42q55 -43 82 -43t48 22q20 23 22 64h104q-6 -109 -54 -162q-49 -53 -109 -53t-115 43t-82 43zM820 1292q-242 0 -408 -172t-166 -417t164 -418q166 -170 410 -170t409 171q166 170 166 416
t-166 418t-409 172zM111 703q0 302 204 514q205 211 504 211t505 -212t206 -512t-206 -513q-206 -211 -505 -211t-504 210q-204 211 -204 513z" />
    <glyph glyph-name="Odieresis" unicode="&#xd6;" horiz-adv-x="1640" 
d="M1106 1722q0 -42 -31 -70t-73 -28t-74 28q-31 28 -31 70t31 71q32 28 74 28t73 -28t31 -71zM639 1821q43 0 74 -28t31 -71t-31 -71q-31 -27 -74 -27t-74 28t-31 70t32 71q30 28 73 28zM820 1292q-242 0 -408 -172t-166 -417t164 -418q166 -170 410 -170t409 171
q166 170 166 416t-166 418t-409 172zM111 703q0 302 204 514q205 211 504 211t505 -212t206 -512t-206 -513q-206 -211 -505 -211t-504 210q-204 211 -204 513z" />
    <glyph glyph-name="multiply" unicode="&#xd7;" horiz-adv-x="1001" 
d="M139 293l271 270l-271 271l92 90l269 -269l272 271l90 -92l-270 -271l270 -270l-90 -92l-272 270l-269 -268z" />
    <glyph glyph-name="Oslash" unicode="&#xd8;" horiz-adv-x="1636" 
d="M817 115q244 0 410 171t166 399t-129 392l-811 -833q159 -129 364 -129zM800 1292q-226 0 -390 -172q-166 -172 -166 -404t133 -397l813 834q-164 139 -390 139zM109 714q0 290 204 503q205 211 504 210q266 0 467 -176l178 183l76 -76l-178 -184q168 -205 168 -488
t-206 -495t-505 -211q-264 -1 -459 167l-163 -170l-76 76l164 170q-174 201 -174 491z" />
    <glyph glyph-name="Ugrave" unicode="&#xd9;" horiz-adv-x="1380" 
d="M764 1546h-139l-172 275h168zM1055 477v934h135v-934q0 -221 -144 -359t-357 -138q-212 0 -355 137t-144 360v934h136v-934q0 -162 105 -262t260 -100t257 100q107 100 107 262z" />
    <glyph glyph-name="Uacute" unicode="&#xda;" horiz-adv-x="1380" 
d="M745 1821h168l-172 -275h-139zM1055 477v934h135v-934q0 -221 -144 -359t-357 -138q-212 0 -355 137t-144 360v934h136v-934q0 -162 105 -262t260 -100t257 100q107 100 107 262z" />
    <glyph glyph-name="Ucircumflex" unicode="&#xdb;" horiz-adv-x="1380" 
d="M973 1546h-139l-146 176l-143 -176h-139l194 275h178zM1055 477v934h135v-934q0 -221 -144 -359t-357 -138q-212 0 -355 137t-144 360v934h136v-934q0 -162 105 -262t260 -100t257 100q107 100 107 262z" />
    <glyph glyph-name="Udieresis" unicode="&#xdc;" horiz-adv-x="1380" 
d="M975 1722q0 -42 -31 -70q-32 -28 -74 -28t-73 28t-31 70t31 71q31 28 73 28t74 -28q31 -28 31 -71zM508 1624q-43 0 -74 28t-31 70t31 71q31 28 74 28t74 -28q30 -28 30 -71t-30 -71q-31 -27 -74 -27zM1055 477v934h135v-934q0 -221 -144 -359t-357 -138q-212 0 -355 137
t-144 360v934h136v-934q0 -162 105 -262t260 -100t257 100q107 100 107 262z" />
    <glyph glyph-name="Yacute" unicode="&#xdd;" horiz-adv-x="1259" 
d="M696 1821h168l-172 -275h-139zM698 0h-139v655l-530 756h161l439 -608l442 608h164l-537 -756v-655z" />
    <glyph glyph-name="Thorn" unicode="&#xde;" horiz-adv-x="1171" 
d="M342 1014v-584h332q121 0 203 82q81 82 81 212t-81 210q-82 80 -203 80h-332zM674 295h-332v-295h-137v1411h137v-262h332q178 0 299 -117t121 -307t-120 -310t-300 -120z" />
    <glyph glyph-name="germandbls" unicode="&#xdf;" horiz-adv-x="1161" 
d="M301 0h-135v1030q0 194 110 308t291 114h21q156 0 258 -101t102 -243q0 -86 -42 -157t-115 -107q119 -27 195 -148t77 -252q0 -196 -129 -326t-330 -130q-109 -4 -211 41v129q92 -41 221 -41q130 0 222 95t92 229q0 135 -94 233t-232 98h-70v123h66q94 0 155 60
q60 59 60 151t-63 152t-162 65h-21q-117 0 -191 -80t-75 -213v-1030z" />
    <glyph glyph-name="agrave" unicode="&#xe0;" horiz-adv-x="1253" 
d="M713 1137h-140l-172 274h168zM238 482q0 -161 101 -263t253 -102t255 97t103 265t-110 264q-110 97 -256 97t-246 -98t-100 -260zM950 956h137v-956h-137v164q-49 -86 -148 -135t-212 -49q-207 0 -350 139q-139 139 -140 362q0 223 140 359t350 137q115 0 213 -47
t147 -131v157z" />
    <glyph glyph-name="aacute" unicode="&#xe1;" horiz-adv-x="1253" 
d="M664 1411h167l-172 -274h-139zM238 482q0 -161 101 -263t253 -102t255 97t103 265t-110 264q-110 97 -256 97t-246 -98t-100 -260zM950 956h137v-956h-137v164q-49 -86 -148 -135t-212 -49q-207 0 -350 139q-139 139 -140 362q0 223 140 359t350 137q115 0 213 -47
t147 -131v157z" />
    <glyph glyph-name="acircumflex" unicode="&#xe2;" horiz-adv-x="1253" 
d="M907 1137h-139l-145 176l-144 -176h-139l195 274h178zM238 482q0 -161 101 -263t253 -102t255 97t103 265t-110 264q-110 97 -256 97t-246 -98t-100 -260zM950 956h137v-956h-137v164q-49 -86 -148 -135t-212 -49q-207 0 -350 139q-139 139 -140 362q0 223 140 359
t350 137q115 0 213 -47t147 -131v157z" />
    <glyph glyph-name="atilde" unicode="&#xe3;" horiz-adv-x="1253" 
d="M530 1282q-27 0 -47 -25t-22 -67h-105q6 109 54 165t109 56q59 0 115 -43t83 -43t47 23t22 63h105q-6 -109 -54 -162q-49 -53 -109 -53t-116 43t-82 43zM238 482q0 -161 101 -263t253 -102t255 97t103 265t-110 264q-110 97 -256 97t-246 -98t-100 -260zM950 956h137
v-956h-137v164q-49 -86 -148 -135t-212 -49q-207 0 -350 139q-139 139 -140 362q0 223 140 359t350 137q115 0 213 -47t147 -131v157z" />
    <glyph glyph-name="adieresis" unicode="&#xe4;" horiz-adv-x="1253" 
d="M238 482q0 -161 101 -263t253 -102t255 97t103 265t-110 264q-110 97 -256 97t-246 -98t-100 -260zM950 956h137v-956h-137v164q-49 -86 -148 -135t-212 -49q-207 0 -350 139q-139 139 -140 362q0 223 140 359t350 137q115 0 213 -47t147 -131v157zM700 1313q0 43 31 71
t74 27q43 0 74 -28q31 -29 31 -71t-31 -71q-31 -27 -74 -27t-74 28t-31 71zM338 1313q0 43 31 71t73 27q42 0 74 -28q31 -29 31 -71t-31 -70q-32 -28 -74 -28t-73 28t-31 71z" />
    <glyph glyph-name="aring" unicode="&#xe5;" horiz-adv-x="1253" 
d="M625 1243q39 0 65 27t27 65q4 55 -44 79q-49 24 -97 0t-46 -72t29 -74t66 -25zM624 1534q83 0 141 -58t58 -142t-58 -140q-58 -57 -141 -57t-141 56q-57 56 -57 140t57 143q58 58 141 58zM238 482q0 -161 101 -263t253 -102t255 97t103 265t-110 264q-110 97 -256 97
t-246 -98t-100 -260zM950 956h137v-956h-137v164q-49 -86 -148 -135t-212 -49q-207 0 -350 139q-139 139 -140 362q0 223 140 359t350 137q115 0 213 -47t147 -131v157z" />
    <glyph glyph-name="ae" unicode="&#xe6;" horiz-adv-x="1992" 
d="M1434 842q-134 0 -228 -81t-114 -216h673q-20 137 -109 217t-222 80zM238 482q0 -161 101 -263t253 -102t255 97t103 265t-110 264q-110 97 -256 97t-246 -98t-100 -260zM1087 0h-137v164q-49 -86 -148 -135t-212 -49q-207 0 -350 139q-139 139 -140 362q0 223 140 359
t350 137q115 0 213 -47t147 -131v157h137v-118q133 139 345 139t342 -134q131 -134 131 -362q0 -51 -2 -63h-811q18 -137 113 -220t231 -83q96 0 175 44t124 122q29 -8 69 -17l68 -14q-57 -127 -173 -199t-263 -71q-214 0 -349 141v-121z" />
    <glyph glyph-name="ccedilla" unicode="&#xe7;" horiz-adv-x="1034" 
d="M100 489q0 213 144 351t351 137q208 0 349 -129l-96 -96q-102 90 -252 90t-255 -100t-105 -261q0 -162 104 -264q109 -102 257 -102t251 92l98 -96q-123 -113 -299 -129l51 -121q35 -82 4 -157q-32 -76 -110 -108t-151 0t-107 109q-18 47 -19 88l109 -8q0 -63 59 -90
q35 -16 71 -1t51 52t-1 72l-72 166q-184 20 -308 156t-124 349z" />
    <glyph glyph-name="egrave" unicode="&#xe8;" horiz-adv-x="1140" 
d="M657 1137h-139l-172 274h168zM582 842q-134 0 -228 -81t-114 -216h673q-20 137 -109 217t-222 80zM584 -20q-207 0 -345 138q-139 138 -139 362t138 360t345 137q208 0 339 -134t131 -362q0 -51 -2 -63h-811q18 -137 113 -220t231 -83q96 0 175 44t124 122q29 -8 69 -17
l68 -14q-57 -126 -173 -198t-263 -72z" />
    <glyph glyph-name="eacute" unicode="&#xe9;" horiz-adv-x="1140" 
d="M637 1411h168l-172 -274h-139zM582 842q-134 0 -228 -81t-114 -216h673q-20 137 -109 217t-222 80zM584 -20q-207 0 -345 138q-139 138 -139 362t138 360t345 137q208 0 339 -134t131 -362q0 -51 -2 -63h-811q18 -137 113 -220t231 -83q96 0 175 44t124 122q29 -8 69 -17
l68 -14q-57 -126 -173 -198t-263 -72z" />
    <glyph glyph-name="ecircumflex" unicode="&#xea;" horiz-adv-x="1140" 
d="M860 1137h-139l-146 176l-143 -176h-139l194 274h179zM582 842q-134 0 -228 -81t-114 -216h673q-20 137 -109 217t-222 80zM584 -20q-207 0 -345 138q-139 138 -139 362t138 360t345 137q208 0 339 -134t131 -362q0 -51 -2 -63h-811q18 -137 113 -220t231 -83
q96 0 175 44t124 122q29 -8 69 -17l68 -14q-57 -126 -173 -198t-263 -72z" />
    <glyph glyph-name="edieresis" unicode="&#xeb;" horiz-adv-x="1140" 
d="M653 1313q0 43 31 71t74 27q44 0 74 -28q30 -29 30 -71t-31 -70t-73 -28t-74 28q-31 28 -31 71zM291 1313q0 43 31 71q32 28 74 27q42 0 73 -28q31 -29 31 -71t-31 -70t-73 -28t-74 28q-31 28 -31 71zM582 842q-134 0 -228 -81t-114 -216h673q-20 137 -109 217t-222 80z
M584 -20q-207 0 -345 138q-139 138 -139 362t138 360t345 137q208 0 339 -134t131 -362q0 -51 -2 -63h-811q18 -137 113 -220t231 -83q96 0 175 44t124 122q29 -8 69 -17l68 -14q-57 -126 -173 -198t-263 -72z" />
    <glyph glyph-name="igrave" unicode="&#xec;" horiz-adv-x="466" 
d="M299 1137h-139l-172 274h168zM301 0h-135v956h135v-956z" />
    <glyph glyph-name="iacute" unicode="&#xed;" horiz-adv-x="466" 
d="M166 956h135v-956h-135v956zM307 1411h168l-172 -274h-139z" />
    <glyph glyph-name="icircumflex" unicode="&#xee;" horiz-adv-x="466" 
d="M166 956h135v-956h-135v956zM520 1137h-139l-145 176l-144 -176h-139l194 274h179z" />
    <glyph glyph-name="idieresis" unicode="&#xef;" horiz-adv-x="466" 
d="M313 1313q0 43 31 71t74 27q43 0 74 -28q30 -29 30 -71t-30 -71q-31 -27 -74 -27t-74 28t-31 71zM-49 1313q0 43 31 71q32 28 74 27q42 0 73 -28q31 -29 31 -71t-31 -70t-73 -28t-74 28q-31 28 -31 71zM301 0h-135v956h135v-956z" />
    <glyph glyph-name="eth" unicode="&#xf0;" horiz-adv-x="1202" 
d="M600 115q152 0 258 101t106 264t-106 261q-102 101 -257 101t-260 -100t-105 -261q0 -162 104 -264q108 -102 260 -102zM1100 481q0 -223 -146 -362t-354 -139q-209 0 -354 139q-146 139 -146 360t142 361q143 137 342 137q66 0 114 -21l-202 252l-181 -114l-51 77
l174 111l-164 193h168l107 -123l139 88l62 -72l-142 -88l398 -498q94 -125 94 -301z" />
    <glyph glyph-name="ntilde" unicode="&#xf1;" 
d="M479 1282q-27 0 -47 -25t-22 -67h-105q6 109 54 165q49 56 109 56t116 -43t82 -43q27 0 47 23t22 63h105q-6 -109 -54 -162t-109 -53q-59 0 -115 43t-83 43zM303 522v-522h-137v956h137v-157q39 84 129 131t189 47q174 0 272 -112t96 -308v-557h-137v557q0 135 -60 210
t-180 75t-214 -78t-95 -242z" />
    <glyph glyph-name="ograve" unicode="&#xf2;" horiz-adv-x="1200" 
d="M676 1137h-139l-172 274h167zM236 481q0 -162 104 -264q108 -102 260 -102t258 101t106 264t-106 261q-102 101 -257 101t-260 -100t-105 -261zM599 977q213 -1 357 -139t144 -359t-146 -360t-354 -139q-209 0 -354 139q-146 139 -146 361t144 360t355 137z" />
    <glyph glyph-name="oacute" unicode="&#xf3;" horiz-adv-x="1200" 
d="M659 1411h168l-172 -274h-139zM600 115q152 0 258 101t106 264t-106 261q-102 101 -257 101t-260 -100t-105 -261q0 -162 104 -264q108 -102 260 -102zM600 -20q-208 0 -354 139t-146 361t144 360t355 137q212 0 356 -138q145 -137 145 -359t-146 -361t-354 -139z" />
    <glyph glyph-name="ocircumflex" unicode="&#xf4;" horiz-adv-x="1200" 
d="M883 1137h-140l-145 176l-143 -176h-140l195 274h178zM600 115q152 0 258 101t106 264t-106 261q-102 101 -257 101t-260 -100t-105 -261q0 -162 104 -264q108 -102 260 -102zM600 -20q-208 0 -354 139t-146 361t144 360t355 137q212 0 356 -138q145 -137 145 -359
t-146 -361t-354 -139z" />
    <glyph glyph-name="otilde" unicode="&#xf5;" horiz-adv-x="1200" 
d="M506 1282q-27 0 -47 -25t-23 -67h-104q6 109 54 165t108 56t116 -43q55 -43 82 -43t47 23t23 63h104q-6 -109 -54 -162t-108 -53t-116 43q-55 43 -82 43zM600 115q152 0 258 101t106 264t-106 261q-102 101 -257 101t-260 -100t-105 -261q0 -162 104 -264
q108 -102 260 -102zM600 -20q-208 0 -354 139t-146 361t144 360t355 137q212 0 356 -138q145 -137 145 -359t-146 -361t-354 -139z" />
    <glyph glyph-name="odieresis" unicode="&#xf6;" horiz-adv-x="1200" 
d="M676 1313q0 43 31 71t73 27q42 0 74 -28q31 -29 31 -71t-31 -70q-32 -28 -74 -28t-73 28t-31 71zM313 1313q0 43 31 71t74 27q43 0 74 -28q30 -29 30 -71t-30 -71q-31 -27 -74 -27t-74 28t-31 71zM236 481q0 -162 104 -264q108 -102 260 -102t258 101t106 264t-106 261
q-102 101 -257 101t-260 -100t-105 -261zM599 977q213 -1 357 -139t144 -359t-146 -360t-354 -139q-209 0 -354 139q-146 139 -146 361t144 360t355 137z" />
    <glyph glyph-name="divide" unicode="&#xf7;" horiz-adv-x="1187" 
d="M1030 606v-129h-872v129h872zM481 870q0 44 33 76q33 31 80 31t80 -31t33 -76q0 -46 -33 -76t-80 -30t-80 31t-33 75zM481 213q0 45 33 76t80 31t80 -32q33 -30 33 -75t-33 -76t-80 -31t-80 31t-33 76z" />
    <glyph glyph-name="oslash" unicode="&#xf8;" horiz-adv-x="1196" 
d="M582 842q-138 0 -243 -100t-105 -242q0 -144 67 -240l508 520q-89 62 -227 62zM610 115q140 0 246 101q106 102 106 250t-75 243l-510 -525q93 -69 233 -69zM598 977q176 0 307 -98l103 106l75 -76l-100 -102q115 -137 115 -343t-146 -345t-342 -139t-329 106l-105 -109
l-76 76l105 109q-107 136 -107 338t144 340t356 137z" />
    <glyph glyph-name="ugrave" unicode="&#xf9;" 
d="M653 1137h-139l-172 274h168zM842 434v522h137v-956h-137v158q-39 -84 -129 -131t-189 -47q-174 0 -272 112t-96 307v557h137v-557q0 -135 60 -210t179 -75t216 79q94 79 94 241z" />
    <glyph glyph-name="uacute" unicode="&#xfa;" 
d="M623 1411h168l-173 -274h-139zM842 434v522h137v-956h-137v158q-39 -84 -129 -131t-189 -47q-174 0 -272 112t-96 307v557h137v-557q0 -135 60 -210t179 -75t216 79q94 79 94 241z" />
    <glyph glyph-name="ucircumflex" unicode="&#xfb;" 
d="M870 1137h-139l-145 176l-144 -176h-139l195 274h178zM842 434v522h137v-956h-137v158q-39 -84 -129 -131t-189 -47q-174 0 -272 112t-96 307v557h137v-557q0 -135 60 -210t179 -75t216 79q94 79 94 241z" />
    <glyph glyph-name="udieresis" unicode="&#xfc;" 
d="M768 1411q43 0 74 -28q30 -29 30 -71t-30 -71q-31 -27 -74 -27t-74 28t-30 71q0 43 30 71t74 27zM301 1313q0 43 31 71t74 27q44 0 74 -28q30 -29 30 -71t-31 -70t-73 -28t-74 28q-31 28 -31 71zM842 434v522h137v-956h-137v158q-39 -84 -129 -131t-189 -47
q-174 0 -272 112t-96 307v557h137v-557q0 -135 60 -210t179 -75t216 79q94 79 94 241z" />
    <glyph glyph-name="yacute" unicode="&#xfd;" horiz-adv-x="1034" 
d="M559 1411h168l-172 -274h-139zM987 956l-594 -1419h-141l190 465l-393 954h144l323 -778l326 778h145z" />
    <glyph glyph-name="thorn" unicode="&#xfe;" horiz-adv-x="1253" 
d="M662 119q150 0 252 104t102 263t-100 257q-100 99 -246 99q-145 0 -256 -96t-111 -265q0 -168 103 -266q106 -96 256 -96zM303 -463h-137v1938h137v-674q49 84 147 131t214 47q211 0 348 -137q141 -136 141 -360t-140 -362t-349 -138q-113 0 -212 49t-149 135v-629z" />
    <glyph glyph-name="ydieresis" unicode="&#xff;" horiz-adv-x="1034" 
d="M600 1313q0 43 31 71t74 27q43 0 73 -28q30 -29 31 -71q0 -42 -31 -70q-32 -28 -74 -28t-73 28t-31 71zM342 1411q43 0 74 -28q30 -29 30 -71t-30 -71q-31 -27 -74 -27t-74 28t-30 71q0 43 30 71t74 27zM252 -463l190 465l-393 954h144l323 -778l326 778h145l-594 -1419
h-141z" />
    <glyph glyph-name="Amacron" unicode="&#x100;" horiz-adv-x="1306" 
d="M410 1696v129h487v-129h-487zM375 498h557l-279 725zM326 371l-142 -371h-145l543 1411h143l543 -1411h-146l-143 371h-653z" />
    <glyph glyph-name="amacron" unicode="&#x101;" horiz-adv-x="1253" 
d="M381 1241v129h487v-129h-487zM238 482q0 -161 101 -263t253 -102t255 97t103 265t-110 264q-110 97 -256 97t-246 -98t-100 -260zM950 956h137v-956h-137v164q-49 -86 -148 -135t-212 -49q-207 0 -350 139q-139 139 -140 362q0 223 140 359t350 137q115 0 213 -47
t147 -131v157z" />
    <glyph glyph-name="Abreve" unicode="&#x102;" horiz-adv-x="1306" 
d="M399 1866h107q10 -66 49 -104t101 -38t101 39q38 39 44 103h106q1 -115 -69 -186q-70 -70 -189 -70t-185 72t-65 184zM653 1223l-278 -725h557zM39 0l543 1411h143l543 -1411h-146l-143 371h-653l-142 -371h-145z" />
    <glyph glyph-name="abreve" unicode="&#x103;" horiz-adv-x="1253" 
d="M371 1411h106q10 -65 49 -103t102 -38q62 0 100 39t44 102h107q0 -115 -70 -185q-71 -70 -189 -71t-184 71t-65 185zM238 482q0 -161 101 -263t253 -102t255 97t103 265t-110 264q-110 97 -256 97t-246 -98t-100 -260zM950 956h137v-956h-137v164q-49 -86 -148 -135
t-212 -49q-207 0 -350 139q-139 139 -140 362q0 223 140 359t350 137q115 0 213 -47t147 -131v157z" />
    <glyph glyph-name="Aogonek" unicode="&#x104;" horiz-adv-x="1306" 
d="M1067 -139l55 139l-143 371h-653l-142 -371h-145l543 1411h143l543 -1411h-56l-51 -182q-25 -88 51 -125q35 -14 70 2q59 27 59 90l109 8q0 -43 -18 -88q-35 -77 -108 -109q-74 -32 -152 1t-109 107t4 157zM375 498h557l-279 725z" />
    <glyph glyph-name="aogonek" unicode="&#x105;" horiz-adv-x="1253" 
d="M238 482q0 -161 101 -263t253 -102t255 97t103 265t-110 264q-110 97 -256 97t-246 -98t-100 -260zM950 956h137v-956h-49l-37 -182q-18 -92 52 -125q35 -14 69 2q60 28 60 90l108 8q0 -43 -18 -88q-35 -77 -108 -109q-74 -32 -150 0t-104 104t-3 161l43 139v164
q-49 -86 -148 -135t-212 -49q-207 0 -350 139q-139 139 -140 362q0 223 140 359t350 137q115 0 213 -47t147 -131v157z" />
    <glyph glyph-name="Cacute" unicode="&#x106;" horiz-adv-x="1359" 
d="M793 1866h168l-173 -275h-139zM794 1292q-238 0 -393 -171t-155 -419t156 -418t394 -169q240 0 408 172l94 -97q-206 -210 -502 -210t-491 208q-195 213 -195 517q0 303 194 513q192 210 490 210t502 -211l-94 -95q-170 170 -408 170z" />
    <glyph glyph-name="cacute" unicode="&#x107;" horiz-adv-x="1032" 
d="M569 1411h168l-172 -274h-139zM599 -20q-208 0 -353 139q-146 139 -146 361t144 360t351 137q208 0 349 -129l-96 -96q-102 90 -252 90t-255 -100t-105 -261q0 -162 104 -264q110 -102 258 -102t250 92l98 -96q-139 -131 -347 -131z" />
    <glyph glyph-name="Ccircumflex" unicode="&#x108;" horiz-adv-x="1359" 
d="M1061 1591h-139l-146 176l-143 -176h-139l194 275h178zM794 1292q-238 0 -393 -171t-155 -419t156 -418t394 -169q240 0 408 172l94 -97q-206 -210 -502 -210t-491 208q-195 213 -195 517q0 303 194 513q192 210 490 210t502 -211l-94 -95q-170 170 -408 170z" />
    <glyph glyph-name="ccircumflex" unicode="&#x109;" horiz-adv-x="1032" 
d="M852 1137h-139l-146 176l-143 -176h-139l194 274h178zM599 -20q-208 0 -353 139q-146 139 -146 361t144 360t351 137q208 0 349 -129l-96 -96q-102 90 -252 90t-255 -100t-105 -261q0 -162 104 -264q110 -102 258 -102t250 92l98 -96q-139 -131 -347 -131z" />
    <glyph glyph-name="Cdotaccent" unicode="&#x10a;" horiz-adv-x="1359" 
d="M856 1767q0 -43 -31 -71t-73 -27q-42 0 -74 28q-31 29 -31 71t31 70t74 28q44 0 74 -28t30 -71zM794 1292q-238 0 -393 -171t-155 -419t156 -418t395 -169q240 0 407 172l94 -97q-206 -210 -502 -210t-491 208q-195 213 -195 517q0 303 194 513q192 210 490 210t502 -211
l-94 -95q-170 170 -408 170z" />
    <glyph glyph-name="cdotaccent" unicode="&#x10b;" horiz-adv-x="1032" 
d="M481 1313q0 43 31 71t74 27q44 0 74 -28q30 -29 30 -71t-31 -70t-73 -28t-74 28q-31 28 -31 71zM599 -20q-208 0 -353 139q-146 139 -146 361t144 360t351 137q208 0 349 -129l-96 -96q-102 90 -252 90t-255 -100t-105 -261q0 -162 104 -264q110 -102 258 -102t250 92
l98 -96q-139 -131 -347 -131z" />
    <glyph glyph-name="Ccaron" unicode="&#x10c;" horiz-adv-x="1359" 
d="M477 1866h139l146 -176l143 176h139l-194 -275h-178zM794 1292q-238 0 -393 -171t-155 -419t156 -418t394 -169q240 0 408 172l94 -97q-206 -210 -502 -210t-491 208q-195 213 -195 517q0 303 194 513q192 210 490 210t502 -211l-94 -95q-170 170 -408 170z" />
    <glyph glyph-name="ccaron" unicode="&#x10d;" horiz-adv-x="1032" 
d="M279 1411h139l145 -176l144 176h139l-195 -274h-178zM599 -20q-208 0 -353 139q-146 139 -146 361t144 360t351 137q208 0 349 -129l-96 -96q-102 90 -252 90t-255 -100t-105 -261q0 -162 104 -264q110 -102 258 -102t250 92l98 -96q-139 -131 -347 -131z" />
    <glyph glyph-name="Dcaron" unicode="&#x10e;" horiz-adv-x="1478" 
d="M438 1866h140l145 -176l143 176h140l-195 -275h-178zM735 1276h-395v-1141h395q238 0 364 157q126 158 126 410t-127 413t-363 161zM735 0h-530v1411h530q291 0 458 -199t167 -510t-168 -505q-166 -197 -457 -197z" />
    <glyph glyph-name="dcaron" unicode="&#x10f;" horiz-adv-x="1253" 
d="M1276 1073l-98 27q117 162 88 327h155q5 -233 -145 -354zM238 482q0 -161 101 -263t253 -102t255 97t103 265t-110 264q-110 97 -256 97t-246 -98t-100 -260zM950 1475h137v-1475h-137v164q-49 -86 -148 -135t-212 -49q-207 0 -350 139q-139 139 -140 362q0 223 140 359
t350 137q115 0 213 -47t147 -131v676z" />
    <glyph glyph-name="Dcroat" unicode="&#x110;" horiz-adv-x="1488" 
d="M350 1276v-508h352v-125h-352v-508h395q238 0 364 157q126 158 126 410t-126 413t-364 161h-395zM745 0h-530v643h-201v125h201v643h530q291 0 458 -199t167 -510t-168 -505q-166 -197 -457 -197z" />
    <glyph glyph-name="dslash" unicode="&#x111;" horiz-adv-x="1253" 
d="M950 1178h-323v102h323v195h137v-195h168v-102h-168v-1178h-137v164q-49 -86 -148 -135t-212 -49q-207 0 -350 139q-139 139 -140 362q0 223 140 359t350 137q115 0 213 -47t147 -131v379zM238 482q0 -161 101 -263t253 -102t255 97t103 265t-110 264q-110 97 -256 97
t-246 -98t-100 -260z" />
    <glyph glyph-name="Emacron" unicode="&#x112;" horiz-adv-x="1144" 
d="M334 1696v129h487v-129h-487zM205 0v1411h805v-135h-670v-516h586v-135h-586v-490h692v-135h-827z" />
    <glyph glyph-name="emacron" unicode="&#x113;" horiz-adv-x="1140" 
d="M332 1241v129h487v-129h-487zM582 842q-134 0 -228 -81t-114 -216h673q-20 137 -109 217t-222 80zM584 -20q-207 0 -345 138q-139 138 -139 362t138 360t345 137q208 0 339 -134t131 -362q0 -51 -2 -63h-811q18 -137 113 -220t231 -83q96 0 175 44t124 122q29 -8 69 -17
l68 -14q-57 -126 -173 -198t-263 -72z" />
    <glyph glyph-name="Ebreve" unicode="&#x114;" horiz-adv-x="1144" 
d="M324 1866h106q10 -66 49 -104t102 -38t101 39t43 103h106q1 -115 -69 -186q-70 -70 -188 -70t-185 71q-65 72 -65 185zM1010 1411v-135h-670v-516h586v-135h-586v-490h692v-135h-827v1411h805z" />
    <glyph glyph-name="ebreve" unicode="&#x115;" horiz-adv-x="1140" 
d="M322 1411h106q10 -65 49 -103t101 -38t101 39q38 39 44 102h106q1 -115 -69 -185t-189 -71t-184 71t-65 185zM582 842q-134 0 -228 -81t-114 -216h673q-20 137 -109 217t-222 80zM584 -20q-207 0 -345 138q-139 138 -139 362t138 360t345 137q208 0 339 -134t131 -362
q0 -51 -2 -63h-811q18 -137 113 -220t231 -83q96 0 175 44t124 122q29 -8 69 -17l68 -14q-57 -126 -173 -198t-263 -72z" />
    <glyph glyph-name="Edotaccent" unicode="&#x116;" horiz-adv-x="1144" 
d="M723 1767q0 -43 -31 -71q-32 -28 -74 -27q-42 0 -73 28q-31 29 -31 71t31 70t73 28t74 -28q31 -28 31 -71zM1010 1411v-135h-670v-516h586v-135h-586v-490h692v-135h-827v1411h805z" />
    <glyph glyph-name="edotaccent" unicode="&#x117;" horiz-adv-x="1140" 
d="M471 1313q0 43 31 71q32 28 74 27q42 0 73 -28q31 -29 31 -71t-31 -70t-73 -28t-74 28q-31 28 -31 71zM582 842q-134 0 -228 -81t-114 -216h673q-20 137 -109 217t-222 80zM584 -20q-207 0 -345 138q-139 138 -139 362t138 360t345 137q208 0 339 -134t131 -362
q0 -51 -2 -63h-811q18 -137 113 -220t231 -83q96 0 175 44t124 122q29 -8 69 -17l68 -14q-57 -126 -173 -198t-263 -72z" />
    <glyph glyph-name="Eogonek" unicode="&#x118;" horiz-adv-x="1144" 
d="M205 0v1411h805v-135h-670v-516h586v-135h-586v-490h692v-135l-78 -182q-16 -35 -1 -72t51 -52t72 1q57 26 59 90l108 8q0 -43 -18 -88q-35 -77 -108 -109t-153 1t-112 109q-33 76 8 155l78 139h-733z" />
    <glyph glyph-name="eogonek" unicode="&#x119;" 
d="M582 842q-134 0 -228 -81t-114 -216h673q-20 137 -109 217t-222 80zM864 -215h109q0 -35 -19 -80q-36 -77 -108 -109t-152 2t-114 110t10 153l84 131q-29 -12 -90 -12q-207 0 -345 138q-139 138 -139 362t138 360t345 137q208 0 339 -134t131 -362q0 -51 -2 -63h-811
q18 -137 113 -220t231 -83q96 0 175 44t124 122q29 -8 69 -17l68 -14q-18 -37 -44 -64t-84 -84t-77 -77q-90 -103 -131 -207q-14 -35 0 -72t50 -52t71 1q59 27 59 90z" />
    <glyph glyph-name="Ecaron" unicode="&#x11a;" horiz-adv-x="1144" 
d="M328 1866h139l145 -176l144 176h139l-195 -275h-178zM205 0v1411h805v-135h-670v-516h586v-135h-586v-490h692v-135h-827z" />
    <glyph glyph-name="ecaron" unicode="&#x11b;" horiz-adv-x="1140" 
d="M293 1411h139l146 -176l143 176h139l-194 -274h-179zM582 842q-134 0 -228 -81t-114 -216h673q-20 137 -109 217t-222 80zM584 -20q-207 0 -345 138q-139 138 -139 362t138 360t345 137q208 0 339 -134t131 -362q0 -51 -2 -63h-811q18 -137 113 -220t231 -83q96 0 175 44
t124 122q29 -8 69 -17l68 -14q-57 -126 -173 -198t-263 -72z" />
    <glyph glyph-name="Gcircumflex" unicode="&#x11c;" horiz-adv-x="1548" 
d="M1067 1591h-139l-146 176l-143 -176h-139l194 275h178zM911 565v127h564q0 -348 -171 -530q-172 -182 -478 -182t-511 210t-205 513q0 302 205 514q205 211 504 210q252 0 451 -163l-96 -97q-152 125 -355 125q-241 0 -407 -172t-166 -417t164 -418q166 -170 400 -170
t368 119q133 120 145 331h-412z" />
    <glyph glyph-name="gcircumflex" unicode="&#x11d;" horiz-adv-x="1251" 
d="M907 1137h-139l-145 176l-144 -176h-139l195 274h178zM575 -342q377 0 377 494l-2 22q-43 -88 -144 -141t-216 -53q-209 0 -350 135q-140 139 -140 361t140 362q143 139 350 139q113 0 212 -49t148 -135v163h137v-804q0 -629 -512 -629q-127 0 -235 60t-176 177l117 68
q102 -170 294 -170zM238 474q0 -161 100 -259t246 -98t257 95q109 95 109 265t-104 264q-100 99 -254 99t-254 -105q-100 -100 -100 -261z" />
    <glyph glyph-name="Gbreve" unicode="&#x11e;" horiz-adv-x="1548" 
d="M530 1866h107q10 -66 49 -104q40 -38 102 -38t100 39t44 103h106q0 -115 -70 -186q-70 -70 -188 -70t-184 72t-66 184zM1475 692q0 -348 -171 -530q-172 -182 -478 -182t-511 210t-205 513q0 302 205 514q205 211 504 210q252 0 451 -163l-96 -97q-152 125 -355 125
q-241 0 -407 -172t-166 -417t164 -418q166 -170 400 -170t368 119q133 120 145 331h-412v127h564z" />
    <glyph glyph-name="gbreve" unicode="&#x11f;" horiz-adv-x="1251" 
d="M371 1411h106q10 -65 49 -103t102 -38q62 0 100 39t44 102h107q0 -115 -70 -185q-71 -70 -189 -71t-184 71t-65 185zM575 -342q377 0 375 516q-43 -88 -144 -141t-216 -53q-209 0 -350 135q-140 139 -140 361t140 362q143 139 350 139q113 0 212 -49t148 -135v163h137
v-804q0 -629 -512 -629q-127 0 -235 60t-176 177l117 68q102 -170 294 -170zM238 474q0 -161 100 -259t246 -98t257 95q109 95 109 265t-104 264q-100 99 -254 99t-254 -105q-100 -100 -100 -261z" />
    <glyph glyph-name="Gdotaccent" unicode="&#x120;" horiz-adv-x="1548" 
d="M889 1767q0 -43 -31 -71q-32 -28 -74 -27q-42 0 -73 28q-31 29 -31 71t31 70t73 28t74 -28q31 -28 31 -71zM1475 692q0 -348 -171 -530q-172 -182 -478 -182t-511 210t-205 513q0 302 205 514q205 211 504 210q252 0 451 -163l-96 -97q-152 125 -355 125
q-241 0 -407 -172t-166 -417t164 -418q166 -170 400 -170t368 119q133 120 145 331h-412v127h564z" />
    <glyph glyph-name="gdotaccent" unicode="&#x121;" horiz-adv-x="1251" 
d="M520 1313q0 43 31 71t74 27q43 0 73 -28q30 -29 31 -71q0 -42 -31 -70q-32 -28 -74 -28t-73 28t-31 71zM575 -342q377 0 375 516q-43 -88 -144 -141t-216 -53q-209 0 -350 135q-140 139 -140 361t140 362q143 139 350 139q113 0 212 -49t148 -135v163h137v-804
q0 -629 -512 -629q-127 0 -235 60t-176 177l117 68q102 -170 294 -170zM238 474q0 -161 100 -259t246 -98t257 95q109 95 109 265t-104 264q-100 99 -254 99t-254 -105q-100 -100 -100 -261z" />
    <glyph glyph-name="Gcommaaccent" unicode="&#x122;" horiz-adv-x="1548" 
d="M760 -506l-98 27q119 166 88 348h155q2 -254 -145 -375zM911 565v127h564q0 -348 -171 -530q-172 -182 -478 -182t-511 210t-205 513q0 302 205 514q205 211 504 210q252 0 451 -163l-96 -97q-152 125 -355 125q-241 0 -407 -172t-166 -417t164 -418q166 -170 400 -170
t368 119q133 120 145 331h-412z" />
    <glyph glyph-name="gcommaaccent" unicode="&#x123;" horiz-adv-x="1251" 
d="M623 1470l98 -26q-119 -166 -88 -348h-156q-1 253 146 374zM575 -342q377 0 375 516q-43 -88 -144 -141t-216 -53q-209 0 -350 135q-140 139 -140 361t140 362q143 139 350 139q113 0 212 -49t148 -135v163h137v-804q0 -629 -512 -629q-127 0 -235 60t-176 177l117 68
q102 -170 294 -170zM238 474q0 -161 100 -259t246 -98t257 95q109 95 109 265t-104 264q-100 99 -254 99t-254 -105q-100 -100 -100 -261z" />
    <glyph glyph-name="Hcircumflex" unicode="&#x124;" horiz-adv-x="1454" 
d="M1010 1591h-140l-145 176l-143 -176h-140l195 275h178zM1114 1411h135v-1411h-135v637h-774v-637h-135v1411h135v-647h774v647z" />
    <glyph glyph-name="hcircumflex" unicode="&#x125;" 
d="M516 1550h-139l-146 176l-143 -176h-139l194 275h179zM303 522v-522h-137v1475h137v-676q39 84 129 131t189 47q174 0 272 -112t96 -308v-557h-137v557q0 135 -60 210t-180 75t-214 -78t-95 -242z" />
    <glyph glyph-name="Hbar" unicode="&#x126;" horiz-adv-x="1478" 
d="M352 1051v-287h774v287h-774zM1262 1411v-250h149v-110h-149v-1051h-136v637h-774v-637h-135v1051h-147v110h147v250h135v-250h774v250h136z" />
    <glyph glyph-name="hbar" unicode="&#x127;" 
d="M627 1180h-324v-381q39 84 129 131t189 47q174 0 272 -112t96 -308v-557h-137v557q0 135 -60 210t-180 75t-214 -78t-95 -242v-522h-137v1180h-168v100h168v195h137v-195h324v-100z" />
    <glyph glyph-name="Itilde" unicode="&#x128;" horiz-adv-x="544" 
d="M205 1411h135v-1411h-135v1411zM180 1737q-27 0 -47 -25t-22 -67h-105q6 109 54 165t108 56t116 -43t83 -43t47 22t22 64h105q-7 -109 -55 -162t-108 -53t-116 43t-82 43z" />
    <glyph glyph-name="itilde" unicode="&#x129;" horiz-adv-x="466" 
d="M166 956h135v-956h-135v956zM143 1282q-27 0 -47 -25t-22 -67h-105q7 109 55 165t108 56t116 -43t82 -43q27 0 47 23t22 63h105q-6 -109 -54 -162t-108 -53t-116 43t-83 43z" />
    <glyph glyph-name="Imacron" unicode="&#x12a;" horiz-adv-x="544" 
d="M29 1696v129h487v-129h-487zM205 1411h135v-1411h-135v1411z" />
    <glyph glyph-name="imacron" unicode="&#x12b;" horiz-adv-x="466" 
d="M-8 1241v129h487v-129h-487zM166 956h135v-956h-135v956z" />
    <glyph glyph-name="Ibreve" unicode="&#x12c;" horiz-adv-x="544" 
d="M18 1866h107q10 -66 49 -104q40 -38 102 -38t100 39t44 103h106q0 -115 -70 -186q-70 -70 -188 -70t-184 72t-66 184zM340 0h-135v1411h135v-1411z" />
    <glyph glyph-name="ibreve" unicode="&#x12d;" horiz-adv-x="466" 
d="M-18 1411h106q10 -65 49 -103t102 -38t101 39t43 102h106q1 -115 -69 -185t-188 -71t-184 71t-66 185zM301 0h-135v956h135v-956z" />
    <glyph glyph-name="Iogonek" unicode="&#x12e;" horiz-adv-x="544" 
d="M236 1411h135v-1411h-66l-33 -182q-18 -92 52 -125q36 -14 70 2q57 26 59 90l108 8q0 -43 -18 -88q-35 -77 -108 -109t-151 1t-110 107q-31 74 4 157l58 139v1411z" />
    <glyph glyph-name="iogonek" unicode="&#x12f;" horiz-adv-x="466" 
d="M162 1313q0 43 31 71t73 27q42 0 74 -28q31 -29 31 -71t-31 -70q-32 -28 -74 -28t-73 28t-31 71zM197 956h135v-956h-62l-37 -182q-18 -92 52 -125q35 -14 69 2q60 28 60 90l108 8q0 -43 -18 -88q-35 -77 -108 -109q-74 -32 -152 1t-109 107t4 157l58 139v956z" />
    <glyph glyph-name="Idot" unicode="&#x130;" horiz-adv-x="544" 
d="M377 1767q0 -43 -31 -71q-32 -28 -74 -27q-42 0 -73 28q-31 29 -31 71t31 70t73 28t74 -28q31 -28 31 -71zM340 0h-135v1411h135v-1411z" />
    <glyph glyph-name="dotlessi" unicode="&#x131;" horiz-adv-x="466" 
d="M166 956h135v-956h-135v956z" />
    <glyph glyph-name="IJ" unicode="&#x132;" horiz-adv-x="1089" 
d="M205 1411h135v-1411h-135v1411zM465 -393q143 0 214 84t71 229v1491h135v-1491q1 -196 -101 -322t-319 -126q-51 0 -127 16l12 133q41 -14 115 -14z" />
    <glyph glyph-name="ij" unicode="&#x133;" horiz-adv-x="935" 
d="M131 1313q0 43 31 71t74 27q44 0 74 -28q30 -29 30 -71t-31 -70t-73 -28t-74 28q-31 28 -31 71zM301 0h-135v956h135v-956zM436 -463h-102v129h102q129 0 168 94q29 68 29 185v1011h137v-1011q0 -408 -334 -408zM598 1313q0 43 31 71t73 27q42 0 74 -28q31 -29 31 -71
t-31 -70q-32 -28 -74 -28t-73 28t-31 71z" />
    <glyph glyph-name="Jcircumflex" unicode="&#x134;" horiz-adv-x="544" 
d="M535 1591h-140l-145 176l-144 -176h-139l195 275h178zM-80 -393q143 0 214 84t71 229v1491h135v-1491q0 -196 -101 -322t-319 -126q-51 0 -127 16l12 133q41 -14 115 -14z" />
    <glyph glyph-name="jcircumflex" unicode="&#x135;" horiz-adv-x="468" 
d="M520 1137h-139l-145 176l-144 -176h-139l194 274h179zM-31 -463h-102v129h102q129 0 168 94q29 68 29 185v1011h137v-1011q0 -408 -334 -408z" />
    <glyph glyph-name="Kcommaaccent" unicode="&#x136;" 
d="M596 -506l-98 27q119 166 88 348h155q2 -254 -145 -375zM340 0h-135v1411h135v-686l532 686h160l-549 -706l668 -705h-182l-629 664v-664z" />
    <glyph glyph-name="kcommaaccent" unicode="&#x137;" horiz-adv-x="993" 
d="M475 -506l-98 27q119 166 88 348h156q1 -254 -146 -375zM301 0h-135v1475h135v-897l379 378h192l-409 -409l518 -547h-186l-494 522v-522z" />
    <glyph glyph-name="kgreenlandic" unicode="&#x138;" horiz-adv-x="980" 
d="M301 0h-135v956h135v-450l430 450h178l-446 -473l487 -483h-188l-461 449v-449z" />
    <glyph glyph-name="Lacute" unicode="&#x139;" horiz-adv-x="997" 
d="M205 0v1411h135v-1276h598v-135h-733zM348 1866h168l-172 -275h-139z" />
    <glyph glyph-name="lacute" unicode="&#x13a;" horiz-adv-x="466" 
d="M166 1475h135v-1475h-135v1475zM313 1866h168l-172 -275h-139z" />
    <glyph glyph-name="Lcommaaccent" unicode="&#x13b;" horiz-adv-x="997" 
d="M485 -506l-98 27q119 166 88 348h156q1 -254 -146 -375zM205 0v1411h135v-1276h598v-135h-733z" />
    <glyph glyph-name="lcommaaccent" unicode="&#x13c;" horiz-adv-x="466" 
d="M166 1475h135v-1475h-135v1475zM170 -506l-98 27q119 166 88 348h155q2 -254 -145 -375z" />
    <glyph glyph-name="Lcaron" unicode="&#x13d;" horiz-adv-x="997" 
d="M604 975l-98 26q121 172 119 410h155q-12 -145 -62 -264t-114 -172zM205 0v1411h135v-1276h598v-135h-733z" />
    <glyph glyph-name="lcaron" unicode="&#x13e;" horiz-adv-x="466" 
d="M489 991l-98 27q121 172 119 409h156q-12 -145 -63 -264t-114 -172zM166 1475h135v-1475h-135v1475z" />
    <glyph glyph-name="Ldot" unicode="&#x13f;" horiz-adv-x="997" 
d="M532 539q0 45 33 75t80 31q47 0 80 -31q33 -32 33 -76t-33 -75t-80 -31t-80 31t-33 76zM205 0v1411h135v-1276h598v-135h-733z" />
    <glyph glyph-name="ldot" unicode="&#x140;" horiz-adv-x="643" 
d="M166 1475h135v-1475h-135v1475zM416 539q0 45 33 75t79 31q46 0 80 -31q33 -32 33 -76t-33 -75q-34 -31 -80 -31t-79 31t-33 76z" />
    <glyph glyph-name="Lslash" unicode="&#x141;" horiz-adv-x="1009" 
d="M352 1411v-516l221 139v-121l-221 -139v-639h598v-135h-733v688l-139 -86v121l139 86v602h135z" />
    <glyph glyph-name="lslash" unicode="&#x142;" horiz-adv-x="493" 
d="M319 1475v-588l168 108v-121l-168 -108v-766h-135v680l-147 -94v121l147 94v674h135z" />
    <glyph glyph-name="Nacute" unicode="&#x143;" horiz-adv-x="1402" 
d="M776 1866h168l-172 -275h-139zM1198 1411v-1411h-139l-719 1182v-1182h-135v1411h145l713 -1173v1173h135z" />
    <glyph glyph-name="nacute" unicode="&#x144;" 
d="M621 1411h167l-172 -274h-139zM303 522v-522h-137v956h137v-157q39 84 129 131t189 47q174 0 272 -112t96 -308v-557h-137v557q0 135 -60 210t-180 75t-214 -78t-95 -242z" />
    <glyph glyph-name="Ncommaaccent" unicode="&#x145;" horiz-adv-x="1402" 
d="M639 -506l-98 27q119 166 88 348h155q2 -254 -145 -375zM1198 1411v-1411h-139l-719 1182v-1182h-135v1411h145l713 -1173v1173h135z" />
    <glyph glyph-name="ncommaaccent" unicode="&#x146;" 
d="M510 -506l-98 27q119 166 88 348h155q2 -254 -145 -375zM303 522v-522h-137v956h137v-157q39 84 129 131t189 47q174 0 272 -112t96 -308v-557h-137v557q0 135 -60 210t-180 75t-214 -78t-95 -242z" />
    <glyph glyph-name="Ncaron" unicode="&#x147;" horiz-adv-x="1402" 
d="M418 1866h139l145 -176l144 176h139l-194 -275h-179zM1198 1411v-1411h-139l-719 1182v-1182h-135v1411h145l713 -1173v1173h135z" />
    <glyph glyph-name="ncaron" unicode="&#x148;" 
d="M289 1411h139l145 -176l144 176h139l-194 -274h-179zM303 522v-522h-137v956h137v-157q39 84 129 131t189 47q174 0 272 -112t96 -308v-557h-137v557q0 135 -60 210t-180 75t-214 -78t-95 -242z" />
    <glyph glyph-name="napostrophe" unicode="&#x149;" 
d="M43 993l-98 27q117 162 88 328h155q5 -234 -145 -355zM303 522v-522h-137v956h137v-157q39 84 129 131t189 47q174 0 272 -112t96 -308v-557h-137v557q0 135 -60 210t-180 75t-214 -78t-95 -242z" />
    <glyph glyph-name="Eng" unicode="&#x14a;" horiz-adv-x="1402" 
d="M1063 -80v80l-723 1182v-1182h-135v1411h145l713 -1184v1184h135v-1491q0 -196 -101 -322t-319 -126q-51 0 -127 16l13 133q41 -14 114 -14q143 0 214 84t71 229z" />
    <glyph glyph-name="eng" unicode="&#x14b;" 
d="M852 -29v586q0 135 -60 210t-180 75t-214 -78t-95 -242v-522h-137v956h137v-157q39 84 129 131t189 47q174 0 272 -112t96 -308v-586q0 -197 -101 -323t-319 -125q-51 0 -127 16l13 133q41 -14 114 -14q143 0 213 84t70 229z" />
    <glyph glyph-name="Omacron" unicode="&#x14c;" horiz-adv-x="1640" 
d="M575 1696v129h488v-129h-488zM820 1292q-242 0 -408 -172t-166 -417t164 -418q166 -170 410 -170t409 171q166 170 166 416t-166 418t-409 172zM111 703q0 302 204 514q205 211 504 211t505 -212t206 -512t-206 -513q-206 -211 -505 -211t-504 210q-204 211 -204 513z
" />
    <glyph glyph-name="omacron" unicode="&#x14d;" horiz-adv-x="1200" 
d="M356 1241v129h488v-129h-488zM600 115q152 0 258 101t106 264t-106 261q-102 101 -257 101t-260 -100t-105 -261q0 -162 104 -264q108 -102 260 -102zM600 -20q-208 0 -354 139t-146 361t144 360t355 137q212 0 356 -138q145 -137 145 -359t-146 -361t-354 -139z" />
    <glyph glyph-name="Obreve" unicode="&#x14e;" horiz-adv-x="1640" 
d="M565 1866h107q10 -66 49 -104t101 -38t101 39q38 39 44 103h106q1 -115 -69 -186q-70 -70 -189 -70t-185 72t-65 184zM820 1292q-242 0 -408 -172t-166 -417t164 -418q166 -170 410 -170t409 171q166 170 166 416t-166 418t-409 172zM111 703q0 302 204 514
q205 211 504 211t505 -212t206 -512t-206 -513q-206 -211 -505 -211t-504 210q-204 211 -204 513z" />
    <glyph glyph-name="obreve" unicode="&#x14f;" horiz-adv-x="1200" 
d="M346 1411h107q10 -65 49 -103q40 -38 102 -38t100 39t44 102h106q0 -115 -70 -185t-188 -71t-184 71t-66 185zM236 481q0 -162 104 -264q108 -102 260 -102t258 101t106 264t-106 261q-102 101 -257 101t-260 -100t-105 -261zM599 977q213 -1 357 -139t144 -359
t-146 -360t-354 -139q-209 0 -354 139q-146 139 -146 361t144 360t355 137z" />
    <glyph glyph-name="Ohungarumlaut" unicode="&#x150;" horiz-adv-x="1640" 
d="M820 1292q-242 0 -408 -172t-166 -417t164 -418q166 -170 410 -170t409 171q166 170 166 416t-166 418t-409 172zM111 703q0 302 204 514q205 211 504 211t505 -212t206 -512t-206 -513q-206 -211 -505 -211t-504 210q-204 211 -204 513zM741 1866h152l-143 -275h-148z
M991 1866h168l-172 -275h-139z" />
    <glyph glyph-name="ohungarumlaut" unicode="&#x151;" horiz-adv-x="1200" 
d="M600 115q152 0 258 101t106 264t-106 261q-102 101 -257 101t-260 -100t-105 -261q0 -162 104 -264q108 -102 260 -102zM600 -20q-208 0 -354 139t-146 361t144 360t355 137q212 0 356 -138q145 -137 145 -359t-146 -361t-354 -139zM510 1411h152l-144 -274h-147z
M760 1411h168l-172 -274h-140z" />
    <glyph glyph-name="OE" unicode="&#x152;" horiz-adv-x="2334" 
d="M817 115q242 -1 405 163t173 400v49q-10 237 -175 401t-404 164q-238 0 -404 -172t-166 -417t164 -418q165 -170 407 -170zM1395 1411h805v-135h-670v-516h586v-135h-586v-490h692v-135h-827v274q-100 -139 -251 -217t-325 -77q-299 0 -504 210t-205 513q0 302 205 514
q205 211 504 210q174 1 325 -77t251 -217v278z" />
    <glyph glyph-name="oe" unicode="&#x153;" horiz-adv-x="2004" 
d="M1446 842q-134 0 -228 -81t-114 -216h674q-20 137 -110 217t-222 80zM236 481q0 -162 106 -264t254 -102t256 96q106 98 113 254v16q0 162 -107 260q-102 101 -257 101t-260 -100t-105 -261zM1453 -20q-142 0 -252 62t-171 173q-66 -111 -180 -173t-250 -62
q-209 0 -354 139q-146 139 -146 361t144 360t356 137q135 1 250 -61t180 -171q61 109 171 170t247 62q207 0 338 -134t131 -362q0 -51 -2 -63h-811q18 -137 114 -220t230 -83q96 0 175 44t124 122q29 -8 70 -17l67 -14q-57 -126 -173 -198t-258 -72z" />
    <glyph glyph-name="Racute" unicode="&#x154;" horiz-adv-x="1245" 
d="M612 1866h168l-172 -275h-139zM729 1276h-387v-590h377q133 0 200 81t66 212q0 131 -65 214q-66 83 -191 83zM342 551v-551h-137v1411h524q201 0 296 -126t95 -305t-91 -301t-284 -128l390 -551h-166l-389 551h-238z" />
    <glyph glyph-name="racute" unicode="&#x155;" horiz-adv-x="772" 
d="M322 1411h167l-172 -274h-139zM578 840q-135 0 -207 -140q-68 -139 -68 -344v-356h-137v956h137v-217q68 238 275 238q45 -1 93 -13t62 -24l-16 -133q-63 33 -139 33z" />
    <glyph glyph-name="Rcommaaccent" unicode="&#x156;" horiz-adv-x="1245" 
d="M600 -506l-98 27q119 166 88 348h155q2 -254 -145 -375zM729 1276h-387v-590h377q133 0 200 81t66 212q0 131 -65 214q-66 83 -191 83zM342 551v-551h-137v1411h524q201 0 296 -126t95 -305t-91 -301t-284 -128l390 -551h-166l-389 551h-238z" />
    <glyph glyph-name="rcommaaccent" unicode="&#x157;" horiz-adv-x="772" 
d="M172 -506l-98 27q119 166 88 348h155q2 -254 -145 -375zM578 840q-135 0 -207 -140q-68 -139 -68 -344v-356h-137v956h137v-217q68 238 275 238q45 -1 93 -13t62 -24l-16 -133q-63 33 -139 33z" />
    <glyph glyph-name="Rcaron" unicode="&#x158;" horiz-adv-x="1245" 
d="M340 1866h139l146 -176l143 176h139l-194 -275h-178zM729 1276h-387v-590h377q133 0 200 81t66 212q0 131 -65 214q-66 83 -191 83zM342 551v-551h-137v1411h524q201 0 296 -126t95 -305t-91 -301t-284 -128l390 -551h-166l-389 551h-238z" />
    <glyph glyph-name="rcaron" unicode="&#x159;" horiz-adv-x="772" 
d="M123 1411h139l146 -176l143 176h139l-194 -274h-179zM578 840q-135 0 -207 -140q-68 -139 -68 -344v-356h-137v956h137v-217q68 238 275 238q45 -1 93 -13t62 -24l-16 -133q-63 33 -139 33z" />
    <glyph glyph-name="Sacute" unicode="&#x15a;" horiz-adv-x="1163" 
d="M623 1866h168l-173 -275h-139zM117 406h135q0 -113 89 -202t231 -89t236 66q93 67 112 165q18 117 -55 192t-214 107l-190 43q-332 74 -332 354q0 166 132 276t316 110q185 0 311 -112t126 -292h-135q0 121 -86 195q-85 73 -213 73t-222 -70t-94 -180q0 -170 225 -223
l193 -43q190 -43 293 -155q106 -109 78 -299q-29 -138 -154 -240t-325 -102t-328 131t-129 295z" />
    <glyph glyph-name="sacute" unicode="&#x15b;" horiz-adv-x="868" 
d="M473 1411h168l-172 -274h-139zM639 260q0 115 -137 148l-133 30q-96 23 -174 80q-84 72 -68 232q14 98 103 162t210 65t201 -63t98 -185h-133q-12 53 -58 85t-113 32t-117 -33t-58 -84q-23 -119 141 -160l131 -30q242 -57 242 -279q0 -123 -100 -203q-102 -77 -240 -77
t-239 79q-99 84 -105 215h121q43 -166 225 -165q92 0 148 42q55 42 55 109z" />
    <glyph glyph-name="Scircumflex" unicode="&#x15c;" horiz-adv-x="1163" 
d="M870 1591h-139l-145 176l-144 -176h-139l195 275h178zM117 406h135q0 -113 89 -202t231 -89t236 66q93 67 112 165q18 117 -55 192t-214 107l-190 43q-332 74 -332 354q0 166 132 276t316 110q185 0 311 -112t126 -292h-135q0 121 -86 195q-85 73 -213 73t-222 -70
t-94 -180q0 -170 225 -223l193 -43q190 -43 293 -155q106 -109 78 -299q-29 -138 -154 -240t-325 -102t-328 131t-129 295z" />
    <glyph glyph-name="scircumflex" unicode="&#x15d;" horiz-adv-x="868" 
d="M719 1137h-139l-146 176l-143 -176h-139l194 274h178zM639 260q0 115 -137 148l-133 30q-96 23 -174 80q-84 72 -68 232q14 98 103 162t210 65t201 -63t98 -185h-133q-12 53 -58 85t-113 32t-117 -33t-58 -84q-23 -119 141 -160l131 -30q242 -57 242 -279
q0 -123 -100 -203q-102 -77 -240 -77t-239 79q-99 84 -105 215h121q43 -166 225 -165q92 0 148 42q55 42 55 109z" />
    <glyph glyph-name="Scedilla" unicode="&#x15e;" horiz-adv-x="1165" 
d="M117 406h135q0 -113 89 -202t231 -89t236 66q93 67 112 165q18 117 -55 192t-214 107l-190 43q-332 74 -332 354q0 166 132 276t316 110q185 0 311 -112t126 -292h-135q0 121 -86 195q-85 73 -213 73t-222 -70t-94 -180q0 -170 225 -223l193 -43q190 -43 293 -155
q106 -109 78 -299q-25 -119 -119 -210t-238 -120l60 -131q35 -82 4 -157q-31 -76 -110 -108q-80 -32 -152 0t-107 109q-18 47 -18 88l108 -8q0 -63 60 -90q35 -16 71 -1t51 52t-1 72l-62 162h-27q-199 0 -327 131t-129 295z" />
    <glyph glyph-name="scedilla" unicode="&#x15f;" horiz-adv-x="870" 
d="M426 -20q-127 0 -229 79q-98 84 -105 215h121q43 -166 225 -165q92 0 148 42q55 42 55 109q0 115 -137 148l-133 30q-96 23 -174 80q-84 72 -68 232q14 98 103 162t210 65t201 -63t98 -185h-133q-12 53 -58 85t-113 32t-117 -33t-58 -84q-20 -119 141 -160l132 -30
q242 -57 241 -279q0 -96 -64 -168t-169 -98l63 -133q37 -80 6 -156q-30 -77 -110 -109t-153 0t-107 109q-18 45 -19 88l109 -8q0 -63 59 -90q35 -16 71 -1t49 51t1 73l-55 164q-6 -2 -31 -2z" />
    <glyph glyph-name="Scaron" unicode="&#x160;" horiz-adv-x="1163" 
d="M303 1866h139l146 -176l143 176h139l-194 -275h-178zM117 406h135q0 -113 89 -202t231 -89t236 66q93 67 112 165q18 117 -55 192t-214 107l-190 43q-332 74 -332 354q0 166 132 276t316 110q185 0 311 -112t126 -292h-135q0 121 -86 195q-85 73 -213 73t-222 -70
t-94 -180q0 -170 225 -223l193 -43q190 -43 293 -155q106 -109 78 -299q-29 -138 -154 -240t-325 -102t-328 131t-129 295z" />
    <glyph glyph-name="scaron" unicode="&#x161;" horiz-adv-x="868" 
d="M152 1411h139l145 -176l144 176h139l-195 -274h-178zM639 260q0 115 -137 148l-133 30q-96 23 -174 80q-84 72 -68 232q14 98 103 162t210 65t201 -63t98 -185h-133q-12 53 -58 85t-113 32t-117 -33t-58 -84q-23 -119 141 -160l131 -30q242 -57 242 -279
q0 -123 -100 -203q-102 -77 -240 -77t-239 79q-99 84 -105 215h121q43 -166 225 -165q92 0 148 42q55 42 55 109z" />
    <glyph glyph-name="Tcommaaccent" unicode="&#x162;" horiz-adv-x="1159" 
d="M518 -506l-98 27q119 166 88 348h156q1 -254 -146 -375zM59 1276v135h1041v-135h-453v-1276h-135v1276h-453z" />
    <glyph glyph-name="tcommaaccent" unicode="&#x163;" horiz-adv-x="630" 
d="M236 -506l-99 27q119 166 88 348h156q2 -254 -145 -375zM367 834v-834h-138v834h-172v122h172v359h138v-359h202v-122h-202z" />
    <glyph glyph-name="Tcaron" unicode="&#x164;" horiz-adv-x="1159" 
d="M295 1866h139l146 -176l143 176h139l-194 -275h-179zM59 1276v135h1041v-135h-453v-1276h-135v1276h-453z" />
    <glyph glyph-name="tcaron" unicode="&#x165;" horiz-adv-x="630" 
d="M535 1073l-99 27q117 162 88 327h156q5 -233 -145 -354zM229 0v834h-172v122h172v359h138v-359h202v-122h-202v-834h-138z" />
    <glyph glyph-name="Tbar" unicode="&#x166;" horiz-adv-x="1159" 
d="M647 1276v-451h285v-108h-285v-717h-135v717h-283v108h283v451h-453v135h1041v-135h-453z" />
    <glyph glyph-name="tbar" unicode="&#x167;" horiz-adv-x="638" 
d="M371 834v-256h166v-95h-166v-483h-138v483h-149v95h149v256h-172v122h172v359h138v-359h202v-122h-202z" />
    <glyph glyph-name="Utilde" unicode="&#x168;" horiz-adv-x="1380" 
d="M1055 477v934h135v-934q0 -221 -144 -359t-357 -138q-212 0 -355 137t-144 360v934h136v-934q0 -162 105 -262t260 -100t257 100q107 100 107 262zM596 1737q-27 0 -47 -25t-23 -67h-104q6 109 54 165t108 56t116 -43q55 -43 82 -43t47 22t23 64h104q-6 -109 -54 -162
t-108 -53t-116 43q-55 43 -82 43z" />
    <glyph glyph-name="utilde" unicode="&#x169;" 
d="M494 1282q-28 0 -48 -25t-22 -67h-105q7 109 55 165t108 56t116 -43q55 -43 82 -43t47 23t23 63h104q-6 -109 -54 -162t-108 -53t-116 43q-55 43 -82 43zM842 434v522h137v-956h-137v158q-39 -84 -129 -131t-189 -47q-174 0 -272 112t-96 307v557h137v-557
q0 -135 60 -210t179 -75t216 79q94 79 94 241z" />
    <glyph glyph-name="Umacron" unicode="&#x16a;" horiz-adv-x="1380" 
d="M446 1696v129h488v-129h-488zM1055 477v934h135v-934q0 -221 -144 -359t-357 -138q-212 0 -355 137t-144 360v934h136v-934q0 -162 105 -262t260 -100t257 100q107 100 107 262z" />
    <glyph glyph-name="umacron" unicode="&#x16b;" 
d="M342 1241v129h487v-129h-487zM842 434v522h137v-956h-137v158q-39 -84 -129 -131t-189 -47q-174 0 -272 112t-96 307v557h137v-557q0 -135 60 -210t179 -75t216 79q94 79 94 241z" />
    <glyph glyph-name="Ubreve" unicode="&#x16c;" horiz-adv-x="1380" 
d="M436 1866h107q10 -66 49 -104q40 -38 102 -38t100 39t44 103h106q0 -115 -70 -186q-70 -70 -188 -70t-184 72t-66 184zM1055 477v934h135v-934q0 -221 -144 -359t-357 -138q-212 0 -355 137t-144 360v934h136v-934q0 -162 105 -262t260 -100t257 100q107 100 107 262z
" />
    <glyph glyph-name="ubreve" unicode="&#x16d;" 
d="M332 1411h106q10 -65 49 -103t102 -38t101 39t43 102h107q0 -115 -70 -185t-188 -71t-184 71t-66 185zM842 434v522h137v-956h-137v158q-39 -84 -129 -131t-189 -47q-174 0 -272 112t-96 307v557h137v-557q0 -135 60 -210t179 -75t216 79q94 79 94 241z" />
    <glyph glyph-name="Uring" unicode="&#x16e;" horiz-adv-x="1380" 
d="M1055 477v934h135v-934q0 -221 -144 -359t-357 -138q-212 0 -355 137t-144 360v934h136v-934q0 -162 105 -262t260 -100t257 100q107 100 107 262zM642 1869q-48 -24 -46 -72t29 -74q27 -25 65 -25t66 26q27 26 26 66q4 55 -44 79t-96 0zM492 1788q0 84 57 142t140 59
q83 -1 141 -59t58 -141t-58 -140t-141 -57t-140 56t-57 140z" />
    <glyph glyph-name="uring" unicode="&#x16f;" 
d="M842 434v522h137v-956h-137v158q-39 -84 -129 -131t-189 -47q-174 0 -272 112t-96 307v557h137v-557q0 -135 60 -210t179 -75t216 79q94 79 94 241zM586 1243q40 0 66 27t26 65q4 55 -44 79t-96 0t-46 -72t28 -74t66 -25zM585 1534q83 0 141 -58t58 -142t-58 -140
q-58 -57 -141 -57t-141 56q-57 56 -57 140t57 143q58 58 141 58z" />
    <glyph glyph-name="Uhungarumlaut" unicode="&#x170;" horiz-adv-x="1380" 
d="M1055 477v934h135v-934q0 -221 -144 -359t-357 -138q-212 0 -355 137t-144 360v934h136v-934q0 -162 105 -262t260 -100t257 100q107 100 107 262zM596 1866h152l-144 -275h-147zM846 1866h168l-172 -275h-140z" />
    <glyph glyph-name="uhungarumlaut" unicode="&#x171;" 
d="M842 434v522h137v-956h-137v158q-39 -84 -129 -131t-189 -47q-174 0 -272 112t-96 307v557h137v-557q0 -135 60 -210t179 -75t216 79q94 79 94 241zM446 1411h152l-143 -274h-148zM696 1411h168l-172 -274h-139z" />
    <glyph glyph-name="Uogonek" unicode="&#x172;" horiz-adv-x="1380" 
d="M1055 477v934h135v-934q0 -201 -121 -334t-303 -157l-66 -168q-16 -35 -1 -72t51 -52t72 1q35 16 55 62q4 14 4 28l108 8q0 -43 -18 -88q-35 -77 -108 -109t-153 1t-110 109q-31 76 6 155l60 119q-201 8 -340 145q-135 137 -136 352v934h136v-934q0 -162 105 -262
t260 -100t257 100q107 100 107 262z" />
    <glyph glyph-name="uogonek" unicode="&#x173;" 
d="M842 434v522h137v-956h-43l-64 -182q-16 -35 -1 -72t51 -52t72 1q57 26 59 90l108 8q0 -43 -18 -88q-35 -77 -108 -109t-151 1t-110 107q-31 74 4 157l64 139v158q-39 -84 -129 -131t-189 -47q-174 0 -272 112t-96 307v557h137v-557q0 -135 60 -210t179 -75t216 79
q94 79 94 241z" />
    <glyph glyph-name="Wcircumflex" unicode="&#x174;" horiz-adv-x="1859" 
d="M1212 1591h-139l-145 176l-144 -176h-139l195 275h178zM1274 213l395 1198h143l-477 -1411h-129l-276 946l-277 -946h-129l-477 1411h143l396 -1198l293 1012h102z" />
    <glyph glyph-name="wcircumflex" unicode="&#x175;" horiz-adv-x="1646" 
d="M1104 1137h-139l-146 176l-143 -176h-139l194 274h178zM1591 956l-358 -956h-115l-297 768l-286 -768h-115l-369 956h146l276 -739l275 739h147l276 -739l275 739h145z" />
    <glyph glyph-name="Ycircumflex" unicode="&#x176;" horiz-adv-x="1259" 
d="M915 1591h-139l-145 176l-144 -176h-139l195 275h178zM698 0h-139v655l-530 756h161l439 -608l442 608h164l-537 -756v-655z" />
    <glyph glyph-name="ycircumflex" unicode="&#x177;" horiz-adv-x="1034" 
d="M807 1137h-139l-146 176l-143 -176h-139l194 274h178zM987 956l-594 -1419h-141l190 465l-393 954h144l323 -778l326 778h145z" />
    <glyph glyph-name="Ydieresis" unicode="&#x178;" horiz-adv-x="1259" 
d="M813 1821q43 0 74 -28t31 -71q0 -42 -31 -70t-74 -28t-74 28t-31 70t32 71q30 28 73 28zM555 1722q0 -42 -31 -70q-32 -28 -74 -28t-73 28t-31 70t31 71q31 28 74 28t73 -28t31 -71zM698 0h-139v655l-530 756h161l439 -608l442 608h164l-537 -756v-655z" />
    <glyph glyph-name="Zacute" unicode="&#x179;" horiz-adv-x="1146" 
d="M596 1866h168l-172 -275h-139zM86 0v135l797 1139h-768v137h934v-135l-799 -1139h799v-137h-963z" />
    <glyph glyph-name="zacute" unicode="&#x17a;" horiz-adv-x="1013" 
d="M524 1411h168l-172 -274h-139zM119 956h794v-122l-645 -699h645v-135h-829v125l635 696h-600v135z" />
    <glyph glyph-name="Zdotaccent" unicode="&#x17b;" horiz-adv-x="1146" 
d="M672 1767q0 -43 -31 -71t-73 -27q-42 0 -74 28q-31 29 -31 71t31 70q32 28 74 28t73 -28t31 -71zM86 0v135l797 1139h-768v137h934v-135l-799 -1139h799v-137h-963z" />
    <glyph glyph-name="zdotaccent" unicode="&#x17c;" horiz-adv-x="1013" 
d="M395 1313q0 43 31 71t74 27q44 0 74 -28q30 -29 30 -71t-31 -70t-73 -28t-74 28q-31 28 -31 71zM913 135v-135h-829v125l635 696h-600v135h794v-122l-645 -699h645z" />
    <glyph glyph-name="Zcaron" unicode="&#x17d;" horiz-adv-x="1146" 
d="M283 1821h139l145 -176l144 176h139l-195 -275h-178zM86 0v135l797 1139h-768v137h934v-135l-799 -1139h799v-137h-963z" />
    <glyph glyph-name="zcaron" unicode="&#x17e;" horiz-adv-x="1013" 
d="M215 1411h139l146 -176l143 176h139l-194 -274h-178zM119 956h794v-122l-645 -699h645v-135h-829v125l635 696h-600v135z" />
    <glyph glyph-name="longs" unicode="&#x17f;" horiz-adv-x="589" 
d="M580 1475h102v-129h-102q-129 0 -168 -95q-29 -68 -29 -184v-1067h-137v834h-187v122h187v111q0 408 334 408z" />
    <glyph glyph-name="florin" unicode="&#x192;" horiz-adv-x="1269" 
d="M1104 1475h102l-28 -129h-103q-127 0 -181 -86t-75 -193l-24 -111h235l-26 -122h-236l-182 -834q-88 -408 -422 -408h-103l29 129h103q125 0 186 95q45 67 70 184l182 834h-187l27 122h186l25 111q88 408 422 408z" />
    <glyph glyph-name="Aringacute" unicode="&#x1fa;" horiz-adv-x="1306" 
d="M561 1788q0 -38 27 -66q28 -26 66 -26t65 26t26 66t-27 66t-64 26t-66 -27q-27 -27 -27 -65zM852 1776q0 -72 -58 -129t-142 -57t-140 56q-57 58 -57 132t35 125q36 51 96 71l129 248h168l-158 -250q57 -23 92 -74q35 -50 35 -122zM375 498h557l-279 725zM326 371
l-142 -371h-145l543 1411h143l543 -1411h-146l-143 371h-653z" />
    <glyph glyph-name="aringacute" unicode="&#x1fb;" horiz-adv-x="1253" 
d="M238 482q0 -161 101 -263t253 -102t255 97t103 265t-110 264q-110 97 -256 97t-246 -98t-100 -260zM950 956h137v-956h-137v164q-49 -86 -148 -135t-212 -49q-207 0 -350 139q-139 139 -140 362q0 223 140 359t350 137q115 0 213 -47t147 -131v157zM625 1243q39 0 65 27
t27 65q4 55 -44 79q-49 24 -97 0t-46 -72t29 -74t66 -25zM823 1323q0 -72 -58 -129t-141 -57t-141 56q-57 56 -57 131t36 126t95 72l129 247h168l-158 -249q57 -23 92 -74t35 -123z" />
    <glyph glyph-name="AEacute" unicode="&#x1fc;" horiz-adv-x="1929" 
d="M1061 1866h168l-172 -275h-139zM989 498v778l-493 -778h493zM989 371h-573l-236 -371h-160l891 1411h883v-135h-670v-516h586v-135h-586v-490h693v-135h-828v371z" />
    <glyph glyph-name="aeacute" unicode="&#x1fd;" horiz-adv-x="1992" 
d="M1063 1411h168l-172 -274h-139zM1434 842q-134 0 -228 -81t-114 -216h673q-20 137 -109 217t-222 80zM238 482q0 -161 101 -263t253 -102t255 97t103 265t-110 264q-110 97 -256 97t-246 -98t-100 -260zM1087 0h-137v164q-49 -86 -148 -135t-212 -49q-207 0 -350 139
q-139 139 -140 362q0 223 140 359t350 137q115 0 213 -47t147 -131v157h137v-118q133 139 345 139t342 -134q131 -134 131 -362q0 -51 -2 -63h-811q18 -137 113 -220t231 -83q96 0 175 44t124 122q29 -8 69 -17l68 -14q-57 -127 -173 -199t-263 -71q-214 0 -349 141v-121z
" />
    <glyph glyph-name="Oslashacute" unicode="&#x1fe;" horiz-adv-x="1636" 
d="M860 1866h168l-172 -275h-139zM817 115q244 0 410 171t166 399t-129 392l-811 -833q159 -129 364 -129zM800 1292q-226 0 -390 -172q-166 -172 -166 -404t133 -397l813 834q-164 139 -390 139zM109 714q0 290 204 503q205 211 504 210q266 0 467 -176l178 183l76 -76
l-178 -184q168 -205 168 -488t-206 -495t-505 -211q-264 -1 -459 167l-163 -170l-76 76l164 170q-174 201 -174 491z" />
    <glyph glyph-name="oslashacute" unicode="&#x1ff;" horiz-adv-x="1196" 
d="M641 1411h168l-172 -274h-139zM582 842q-138 0 -243 -100t-105 -242q0 -144 67 -240l508 520q-89 62 -227 62zM610 115q140 0 246 101q106 102 106 250t-75 243l-510 -525q93 -69 233 -69zM598 977q176 0 307 -98l103 106l75 -76l-100 -102q115 -137 115 -343t-146 -345
t-342 -139t-329 106l-105 -109l-76 76l105 109q-107 136 -107 338t144 340t356 137z" />
    <glyph glyph-name="Scommaaccent" unicode="&#x218;" horiz-adv-x="1163" 
d="M496 -506l-99 27q119 166 88 348h156q2 -254 -145 -375zM117 406h135q0 -113 89 -202t231 -89t236 66q93 67 112 165q18 117 -55 192t-214 107l-190 43q-332 74 -332 354q0 166 132 276t316 110q185 0 311 -112t126 -292h-135q0 121 -86 195q-85 73 -213 73t-222 -70
t-94 -180q0 -170 225 -223l193 -43q190 -43 293 -155q106 -109 78 -299q-29 -138 -154 -240t-325 -102t-328 131t-129 295z" />
    <glyph glyph-name="scommaaccent" unicode="&#x219;" horiz-adv-x="868" 
d="M383 -506l-98 27q119 166 88 348h155q2 -254 -145 -375zM639 260q0 115 -137 148l-133 30q-96 23 -174 80q-84 72 -68 232q14 98 103 162t210 65t201 -63t98 -185h-133q-12 53 -58 85t-113 32t-117 -33t-58 -84q-23 -119 141 -160l131 -30q242 -57 242 -279
q0 -123 -100 -203q-102 -77 -240 -77t-239 79q-99 84 -105 215h121q43 -166 225 -165q92 0 148 42q55 42 55 109z" />
    <glyph glyph-name="circumflex" unicode="&#x2c6;" horiz-adv-x="997" 
d="M782 1137h-139l-145 176l-144 -176h-139l195 274h178z" />
    <glyph glyph-name="caron" unicode="&#x2c7;" horiz-adv-x="1017" 
d="M225 1411h140l145 -176l143 176h140l-195 -274h-178z" />
    <glyph glyph-name="breve" unicode="&#x2d8;" horiz-adv-x="958" 
d="M225 1411h107q10 -65 49 -103t101 -38t101 39q38 39 44 102h106q1 -115 -69 -185t-189 -71t-185 71t-65 185z" />
    <glyph glyph-name="dotaccent" unicode="&#x2d9;" horiz-adv-x="1028" 
d="M514 1411q43 0 74 -28q30 -29 30 -71t-30 -71q-31 -27 -74 -27t-74 28t-30 71q0 43 30 71t74 27z" />
    <glyph glyph-name="ring" unicode="&#x2da;" horiz-adv-x="1052" 
d="M526 1243q38 0 66 27q27 27 26 65q4 55 -44 79t-96 0t-46 -72t29 -74t65 -25zM328 1333q0 85 57 143t140 58t141 -58t59 -142q0 -84 -58 -140q-57 -57 -141 -57t-141 56t-57 140z" />
    <glyph glyph-name="ogonek" unicode="&#x2db;" horiz-adv-x="1056" 
d="M457 53h114l-100 -235q-16 -35 -1 -72t51 -52t71 1t51 51q6 18 8 39l109 8q0 -43 -19 -88q-35 -77 -107 -109t-152 1t-110 107t5 157z" />
    <glyph glyph-name="tilde" unicode="&#x2dc;" horiz-adv-x="862" 
d="M338 1282q-27 0 -47 -25t-23 -67h-104q6 109 54 165t108 56t116 -43q55 -43 82 -43t47 23t23 63h104q-6 -109 -54 -162t-108 -53t-116 43q-55 43 -82 43z" />
    <glyph glyph-name="hungarumlaut" unicode="&#x2dd;" horiz-adv-x="884" 
d="M303 1411h152l-144 -274h-147zM553 1411h168l-172 -274h-139z" />
    <glyph glyph-name="Wgrave" unicode="&#x1e80;" horiz-adv-x="1859" 
d="M983 1591h-139l-172 275h168zM1812 1411l-477 -1411h-129l-276 946l-277 -946h-129l-477 1411h143l396 -1198l293 1012h102l293 -1012l395 1198h143z" />
    <glyph glyph-name="wgrave" unicode="&#x1e81;" horiz-adv-x="1646" 
d="M901 1137h-139l-172 274h168zM1118 0l-297 768l-286 -768h-115l-369 956h146l276 -739l275 739h147l276 -739l275 739h145l-358 -956h-115z" />
    <glyph glyph-name="Wacute" unicode="&#x1e82;" horiz-adv-x="1859" 
d="M1026 1866h168l-172 -275h-139zM1274 213l395 1198h143l-477 -1411h-129l-276 946l-277 -946h-129l-477 1411h143l396 -1198l293 1012h102z" />
    <glyph glyph-name="wacute" unicode="&#x1e83;" horiz-adv-x="1646" 
d="M889 1411h168l-172 -274h-140zM1591 956l-358 -956h-115l-297 768l-286 -768h-115l-369 956h146l276 -739l275 739h147l276 -739l275 739h145z" />
    <glyph glyph-name="Wdieresis" unicode="&#x1e84;" horiz-adv-x="1859" 
d="M1110 1866q43 0 74 -28q30 -28 30 -71t-30 -71q-31 -27 -74 -27t-74 28q-30 29 -30 71t30 70t74 28zM852 1767q0 -43 -31 -71t-73 -27q-42 0 -74 28q-31 29 -31 71t31 70t74 28q44 0 74 -28t30 -71zM1812 1411l-477 -1411h-129l-276 946l-277 -946h-129l-477 1411h143
l396 -1198l293 1012h102l293 -1012l395 1198h143z" />
    <glyph glyph-name="wdieresis" unicode="&#x1e85;" horiz-adv-x="1646" 
d="M897 1313q0 43 31 71q32 28 74 27q42 0 73 -28q31 -29 31 -71t-31 -70t-73 -28t-74 28q-31 28 -31 71zM639 1411q43 0 74 -28q31 -29 31 -71t-31 -71q-31 -27 -74 -27t-74 28t-30 71t31 71t73 27zM1118 0l-297 768l-286 -768h-115l-369 956h146l276 -739l275 739h147
l276 -739l275 739h145l-358 -956h-115z" />
    <glyph glyph-name="Ygrave" unicode="&#x1ef2;" horiz-adv-x="1259" 
d="M725 1591h-139l-172 275h168zM698 0h-139v655l-530 756h161l439 -608l442 608h164l-537 -756v-655z" />
    <glyph glyph-name="ygrave" unicode="&#x1ef3;" horiz-adv-x="1034" 
d="M608 1137h-139l-172 274h168zM252 -463l190 465l-393 954h144l323 -778l326 778h145l-594 -1419h-141z" />
    <glyph glyph-name="thinspace" unicode="&#x2009;" horiz-adv-x="28" 
 />
    <glyph glyph-name="endash" unicode="&#x2013;" horiz-adv-x="1222" 
d="M150 414v121h923v-121h-923z" />
    <glyph glyph-name="emdash" unicode="&#x2014;" horiz-adv-x="1665" 
d="M150 414v121h1366v-121h-1366z" />
    <glyph glyph-name="quoteleft" unicode="&#x2018;" horiz-adv-x="485" 
d="M311 1427l78 -26q-121 -172 -119 -410h-135q12 145 63 264q50 119 113 172z" />
    <glyph glyph-name="quoteright" unicode="&#x2019;" horiz-adv-x="481" 
d="M195 991l-78 27q121 172 119 409h135q-13 -145 -63 -264t-113 -172z" />
    <glyph glyph-name="quotesinglbase" unicode="&#x201a;" horiz-adv-x="477" 
d="M147 -137l-77 26q121 172 118 410h136q-12 -145 -63 -264t-114 -172z" />
    <glyph glyph-name="quotedblleft" unicode="&#x201c;" horiz-adv-x="722" 
d="M311 1427l78 -26q-121 -172 -119 -410h-135q12 145 63 264q50 119 113 172zM549 1427l78 -26q-121 -172 -119 -410h-135q12 145 62 264q51 119 114 172z" />
    <glyph glyph-name="quotedblright" unicode="&#x201d;" horiz-adv-x="718" 
d="M432 991l-78 27q121 172 119 409h135q-12 -145 -62 -264t-114 -172zM195 991l-78 27q121 172 119 409h135q-13 -145 -63 -264t-113 -172z" />
    <glyph glyph-name="quotedblbase" unicode="&#x201e;" horiz-adv-x="714" 
d="M385 -137l-78 26q121 172 119 410h135q-13 -145 -63 -264t-113 -172zM147 -137l-77 26q121 172 118 410h136q-12 -145 -63 -264t-114 -172z" />
    <glyph glyph-name="dagger" unicode="&#x2020;" horiz-adv-x="841" 
d="M487 1411v-389h263v-135h-263v-1149h-135v1149h-260v135h260v389h135z" />
    <glyph glyph-name="daggerdbl" unicode="&#x2021;" horiz-adv-x="903" 
d="M518 1411v-389h262v-135h-262v-572h262v-135h-262v-442h-135v442h-260v135h260v572h-260v135h260v389h135z" />
    <glyph glyph-name="bullet" unicode="&#x2022;" horiz-adv-x="937" 
d="M174 490q0 120 86 200t209 80t209 -80t86 -201t-86 -201t-209 -79q-123 0 -209 80q-86 81 -86 201z" />
    <glyph glyph-name="ellipsis" unicode="&#x2026;" horiz-adv-x="1503" 
d="M1130 86q0 45 33 76t80 31t80 -31t33 -76t-33 -76t-80 -31t-80 31t-33 76zM639 86q0 45 33 76t80 31q48 0 80 -31t32 -76t-33 -76t-79 -31t-80 31q-33 31 -33 76zM147 86q0 45 33 76t80 31t80 -31t33 -76t-33 -76t-80 -31t-80 31t-33 76z" />
    <glyph glyph-name="perthousand" unicode="&#x2030;" horiz-adv-x="1980" 
d="M1790 252q0 63 -47 110t-111 48q-100 6 -142 -98t32 -171q66 -73 170 -31t98 142zM1631 526q114 0 195 -81t81 -195t-80 -193q-82 -77 -195 -77t-194 77q-78 82 -78 195t78 194q79 80 193 80zM1149 250q0 64 -46 112t-112 48q-67 0 -111 -46t-44 -112t45 -111t111 -45
t111 45q46 45 46 109zM992 526q114 0 194 -80t80 -195q0 -114 -80 -194q-82 -77 -195 -77t-194 77q-78 82 -78 195t78 194q81 80 195 80zM514 1102q0 64 -46 112t-112 48t-110 -46t-45 -112q0 -66 45 -111q44 -45 110 -45t112 45t46 109zM356 1378q114 0 195 -80
q80 -80 80 -195q0 -114 -80 -194q-82 -78 -195 -78t-194 78q-78 82 -78 195t78 194q80 80 194 80zM961 1378h96l-674 -1378h-96z" />
    <glyph glyph-name="guilsinglleft" unicode="&#x2039;" horiz-adv-x="620" 
d="M385 51l-283 424l283 424h127l-283 -424l283 -424h-127z" />
    <glyph glyph-name="guilsinglright" unicode="&#x203a;" horiz-adv-x="620" 
d="M236 899l282 -424l-282 -424h-127l282 424l-282 424h127z" />
    <glyph glyph-name="fraction" unicode="&#x2044;" horiz-adv-x="368" 
d="M569 1378h136l-918 -1398h-135z" />
    <glyph glyph-name="zerosuperior" unicode="&#x2070;" horiz-adv-x="745" 
d="M86 1364q0 408 287 408q155 0 221 -104t66 -305q0 -200 -68 -303q-66 -103 -219 -104q-287 0 -287 408zM186 1363q0 -308 186 -308t187 308q-1 308 -187 308t-186 -308z" />
    <glyph glyph-name="foursuperior" unicode="&#x2074;" horiz-adv-x="741" 
d="M682 1231v-103h-117v-165h-108v165h-418l444 637h82v-534h117zM457 1231v338l-232 -338h232z" />
    <glyph glyph-name="fivesuperior" unicode="&#x2075;" horiz-adv-x="698" 
d="M343 1059q71 0 125 46t54 114q0 67 -48 107t-114 40t-116 -16t-131 -58l-23 25l80 448h408v-104h-318l-41 -219q68 33 141 33q119 0 194 -68q75 -69 75 -189t-83 -194t-218 -74q-80 0 -152 50t-115 133l89 63q22 -59 72 -98t121 -39z" />
    <glyph glyph-name="sixsuperior" unicode="&#x2076;" horiz-adv-x="692" 
d="M478 1327q-42 47 -106 50t-113 -41q-48 -44 -49 -109q-1 -66 43 -112t107 -49t108 40q44 42 48 108t-38 113zM385 1677q-90 0 -141 -85t-35 -210q31 102 166 103q106 0 179 -83t70 -192q-3 -110 -81 -184q-79 -74 -187 -70t-178 78t-80 197q-21 170 28 354q22 82 88 138
q67 56 173 57q163 -9 229 -154l-96 -41q-45 92 -135 92z" />
    <glyph glyph-name="sevensuperior" unicode="&#x2077;" horiz-adv-x="659" 
d="M80 1657v108h553l-440 -802h-127l383 694h-369z" />
    <glyph glyph-name="eightsuperior" unicode="&#x2078;" horiz-adv-x="708" 
d="M141 1570q1 87 61 146q60 60 151 60t153 -60t63 -145q0 -86 -61 -141q123 -78 123 -218q0 -106 -79 -183t-197 -77q-117 0 -197 75t-80 185q0 139 123 218q-60 53 -60 140zM354 1370q-72 0 -120 -47t-48 -111t48 -108q48 -45 120 -45t120 45t48 108q0 62 -48 110t-120 48
zM248 1580q0 -54 31 -86t77 -30q66 -2 96 68t-22 106q-49 45 -116 21q-66 -25 -66 -79z" />
    <glyph glyph-name="ninesuperior" unicode="&#x2079;" horiz-adv-x="692" 
d="M496 1503q0 66 -44 112t-108 49t-107 -40q-45 -42 -49 -108t38 -113t107 -50t113 41t50 109zM320 1053q90 0 141 85t35 210q-31 -102 -166 -103q-106 0 -180 82q-72 84 -68 193q2 110 80 184t186 70t178 -78t80 -197q20 -164 -27 -354q-22 -84 -89 -139t-173 -56
q-163 9 -229 154l96 41q46 -92 136 -92z" />
    <glyph glyph-name="zeroinferior" unicode="&#x2080;" horiz-adv-x="747" 
d="M86 84q0 408 287 408q155 0 221 -104t66 -305q0 -200 -68 -303q-66 -103 -219 -104q-287 0 -287 408zM186 83q0 -308 186 -308t187 308q-1 308 -187 308t-186 -308z" />
    <glyph glyph-name="oneinferior" unicode="&#x2081;" horiz-adv-x="411" 
d="M295 -317h-109v665l-131 -47v105l240 88v-811z" />
    <glyph glyph-name="twoinferior" unicode="&#x2082;" horiz-adv-x="665" 
d="M575 -317h-493v49l326 393q59 76 59 133t-41 93t-100 36q-58 0 -102 -36t-52 -91l-100 25q14 96 84 153q70 58 172 60t175 -69t73 -171t-89 -207l-219 -260h307v-108z" />
    <glyph glyph-name="threeinferior" unicode="&#x2083;" horiz-adv-x="667" 
d="M319 59h-90v105h90q43 0 75 26t39 73q7 46 -23 82q-31 36 -86 42q-90 10 -144 -72l-78 64q34 57 96 90t147 28t149 -71t61 -161q-2 -95 -96 -150q59 -19 97 -83t32 -132q-10 -104 -97 -170t-181 -59t-160 53q-64 46 -95 114q56 37 90 51q43 -94 156 -108q68 -4 121 35
t55 97t-45 102t-113 44z" />
    <glyph glyph-name="fourinferior" unicode="&#x2084;" horiz-adv-x="741" 
d="M682 -49v-103h-117v-165h-108v165h-418l444 637h82v-534h117zM457 -49v338l-232 -338h232z" />
    <glyph glyph-name="fiveinferior" unicode="&#x2085;" horiz-adv-x="696" 
d="M343 -221q71 0 125 46t54 114q0 67 -48 107t-114 40t-116 -16t-131 -58l-23 25l80 448h408v-104h-318l-41 -219q68 33 141 33q119 0 194 -68q75 -69 75 -189t-83 -194t-218 -74q-80 0 -152 50t-115 133l89 63q22 -59 72 -98t121 -39z" />
    <glyph glyph-name="sixinferior" unicode="&#x2086;" horiz-adv-x="692" 
d="M478 47q-42 47 -106 50t-113 -41q-48 -44 -49 -109q-1 -66 43 -112t107 -49t108 40q44 42 48 108t-38 113zM385 397q-90 0 -141 -85t-35 -210q31 102 166 103q106 0 179 -83t70 -192q-3 -110 -81 -184q-79 -74 -187 -70t-178 78t-80 197q-21 167 28 354q22 84 88 139
q67 55 173 56q163 -9 229 -154l-96 -41q-45 92 -135 92z" />
    <glyph glyph-name="seveninferior" unicode="&#x2087;" horiz-adv-x="653" 
d="M82 377v108h553l-440 -802h-127l383 694h-369z" />
    <glyph glyph-name="eightinferior" unicode="&#x2088;" horiz-adv-x="704" 
d="M139 290q1 87 61 146q60 60 151 60t153 -58t63 -146q0 -87 -61 -142q123 -76 123 -218q0 -108 -79 -184t-198 -76t-196 76q-80 74 -80 184q0 141 123 218q-60 53 -60 140zM352 90q-72 0 -120 -47t-48 -111t48 -108q48 -45 120 -45t120 45t48 108q0 62 -48 110t-120 48z
M246 300q0 -54 30 -86t78 -30q66 -2 96 68t-22 106q-49 45 -116 21q-66 -25 -66 -79z" />
    <glyph glyph-name="nineinferior" unicode="&#x2089;" horiz-adv-x="692" 
d="M496 223q0 66 -44 112t-108 49t-107 -40q-45 -42 -49 -108t38 -113t107 -50t113 41t50 109zM320 -227q90 0 141 85t35 210q-31 -102 -166 -103q-106 0 -180 82q-72 84 -68 193q2 110 80 184t186 70t178 -78t80 -197q21 -167 -27 -354q-22 -82 -89 -138t-173 -57
q-163 9 -229 154l96 41q46 -92 136 -92z" />
    <glyph glyph-name="colonmonetary" unicode="&#x20a1;" horiz-adv-x="1392" 
d="M242 705q0 -216 112 -371l338 948q-198 -33 -324 -197t-126 -380zM805 1292l-373 -1044q68 -59 154 -94l393 1106q-84 30 -174 32zM106 694q0 301 180 507t457 224l80 224l97 -35l-68 -189q84 -8 172 -39l68 187l96 -33l-70 -194q94 -49 174 -129l-94 -95q-47 47 -125 95
l-391 -1092q66 -10 109 -10q242 0 409 172l94 -97q-205 -211 -503 -210q-72 0 -154 16l-78 -219l-96 35l76 213q-84 35 -156 88l-92 -260l-96 32l106 301q-195 207 -195 508z" />
    <glyph glyph-name="lira" unicode="&#x20a4;" horiz-adv-x="1316" 
d="M309 135v271h-166v116h166v140h-166v116h166v264q0 178 123 287t292 109t285 -110t115 -286h-135q0 115 -76 188q-75 73 -189 73t-197 -73t-83 -188v-264h332v-116h-332v-140h332v-116h-332v-271h584q43 0 43 51v121h135v-121q0 -80 -52 -133t-126 -53h-919v135h200z" />
    <glyph glyph-name="uni20A6" unicode="&#x20a6;" horiz-adv-x="1482" 
d="M1106 512h-166l166 -274v274zM383 905h168l-168 277v-277zM1106 803h-344l115 -189h229v189zM383 803v-189h344l-115 189h-229zM248 614v189h-123v102h123v506h145l307 -506h406v506h135v-506h117v-102h-117v-189h117v-102h-117v-512h-139l-311 512h-408v-512h-135v512
h-123v102h123z" />
    <glyph glyph-name="peseta" unicode="&#x20a7;" horiz-adv-x="1445" 
d="M412 807v-121h407q160 0 232 121h-639zM1092 962q0 18 -5 68h-675v-121h673q7 35 7 53zM829 1276h-417v-143h649q-64 143 -232 143zM1350 909v-102h-150q-84 -256 -371 -256h-417v-551h-138v807h-157v102h157v121h-157v103h157v278h555q150 0 245 -75t132 -203h144v-103
h-125l2 -51q0 -8 -4 -70h127z" />
    <glyph glyph-name="rupee" unicode="&#x20a8;" horiz-adv-x="1415" 
d="M150 551v135h444q133 0 200 81t66 212q0 31 -2 39h-708v94h690q-59 164 -236 164h-454v135h1165v-94h-445q80 -74 111 -205h334v-94h-322q2 -10 2 -39q0 -178 -91 -300t-283 -128l389 -551h-166l-389 551h-305z" />
    <glyph glyph-name="uni20A9" unicode="&#x20a9;" horiz-adv-x="2013" 
d="M1022 897h-29l-55 -188h139zM776 606h-241l129 -393zM1481 606h-244l115 -393zM860 897h-422l62 -188h307zM1577 897h-424l55 -188h308zM1888 999v-102h-172l-63 -188h235v-103h-270l-205 -606h-129l-178 606h-199l-176 -606h-129l-205 606h-274v103h239l-63 188h-176
v102h141l-139 412h143l135 -412h488l65 226h103l65 -226h488l135 412h143l-139 -412h137z" />
    <glyph glyph-name="afii57636" unicode="&#x20aa;" horiz-adv-x="1499" 
d="M508 420v332h135v-332q0 -121 82 -203t213 -82h219v977h135v-1112h-354q-190 0 -310 120t-120 300zM991 692v-332h-135v332q0 121 -82 203t-213 82h-219v-977h-135v1112h354q188 0 309 -121t121 -299z" />
    <glyph glyph-name="Euro" unicode="&#x20ac;" horiz-adv-x="1632" 
d="M111 535v96h956v-96h-600q45 -185 188 -303t340 -117q242 0 410 172l94 -97q-205 -211 -504 -210q-254 0 -434 156t-233 399h-217zM1067 862v-96h-956v96h215q51 248 233 407t436 158q297 0 502 -210l-94 -95q-170 170 -408 170q-197 0 -340 -120t-190 -310h602z" />
    <glyph glyph-name="uni2113" unicode="&#x2113;" horiz-adv-x="790" 
d="M293 1112v-567h133q127 0 127 182v385q0 182 -127 182q-133 0 -133 -182zM426 115h205v-135h-205q-268 0 -268 317v815q0 317 268 318q262 0 262 -318v-385q0 -317 -262 -317h-133v-113q0 -182 133 -182z" />
    <glyph glyph-name="afii61352" unicode="&#x2116;" horiz-adv-x="1941" 
d="M1825 743h-492v74h492v-74zM1579 1323q-64 0 -108 -44q-44 -43 -44 -107t43 -109q44 -43 108 -43t108 44t45 107q0 63 -44 107t-108 45zM1323 1172q0 104 75 180t181 76t181 -76q75 -74 75 -180t-75 -182q-75 -75 -180 -75t-183 74q-74 78 -74 183zM342 0h-135v1411h145
l713 -1173v1173h135v-1411h-139l-719 1182v-1182z" />
    <glyph glyph-name="trademark" unicode="&#x2122;" horiz-adv-x="1677" 
d="M477 1307v-656h-104v656h-234v104h672l262 -571l262 571h99l90 -760h-103l-69 572l-232 -506h-92l-235 502l-68 -568h-104l79 656h-223z" />
    <glyph glyph-name="estimated" unicode="&#x212e;" horiz-adv-x="1361" 
d="M379 639h633v334q-139 127 -325 127t-308 -127v-334zM1257 571h-878v-395q135 -129 297 -129q162 -1 260 63t184 197l64 -39q-96 -147 -210 -218t-284 -70q-244 0 -400 173t-155 423q0 250 154 421q153 170 409 170t406 -174q153 -172 153 -422z" />
    <glyph glyph-name="minus" unicode="&#x2212;" horiz-adv-x="1187" 
d="M158 475v129h872v-129h-872z" />
    <glyph glyph-name="notequal" unicode="&#x2260;" horiz-adv-x="1234" 
d="M1087 369v-129h-542l-117 -240h-106l116 240h-291v129h355l141 290h-496v129h560l116 240h107l-117 -240h274v-129h-337l-142 -290h479z" />
    <glyph glyph-name="lessequal" unicode="&#x2264;" horiz-adv-x="1374" 
d="M166 0v129h1022v-129h-1022zM1196 518v-145l-1042 399v148l1042 399v-148l-885 -325z" />
    <glyph glyph-name="greaterequal" unicode="&#x2265;" horiz-adv-x="1374" 
d="M1208 129v-129h-1022v129h1022zM1221 920v-148l-1043 -399v145l885 328l-885 325v148z" />
    <glyph glyph-name="commaaccent" unicode="&#xf6c3;" horiz-adv-x="532" 
d="M242 -506l-99 27q119 166 88 348h156q2 -254 -145 -375z" />
    <glyph glyph-name="rupiah" unicode="&#xf6dd;" horiz-adv-x="2363" 
d="M2152 470q0 159 -101 264q-101 106 -253 106t-255 -98t-103 -267q0 -168 108 -264q110 -94 256 -94t248 96q100 98 100 257zM1440 -463h-137v1419h135l2 -165q49 86 149 136t211 50q211 0 348 -141q142 -138 142 -362t-142 -359q-137 -135 -348 -135q-115 0 -213 46
t-147 130v-619zM680 1276h-387v-590h377q134 0 200 81t66 212t-66 214t-190 83zM293 551v-551h-137v1411h524q201 0 296 -126t95 -305t-91 -301t-284 -128l389 -551h-165l-390 551h-237z" />
    <glyph glyph-name="apple" unicode="&#xf8ff;" horiz-adv-x="1734" 
d="M1329 270v-108h17v67l45 -67h26v108h-26v-67l-45 67h-17zM1317 162v59h-45v-18h24q-8 -21 -22 -21t-24 10t-11 23q0 11 9 23q10 12 26 12t16 -21h27q-10 41 -45 41q-23 0 -37 -16t-14 -38t14 -38q15 -16 35 -16t26 14l9 -14h12zM1206 162v108h-14v-108h14zM1112 203h-18
q0 -41 45 -41t45 35q0 23 -33 29t-33 12q0 12 20 12t19 -12h21q0 32 -33 32t-44 -14q-20 -26 32 -49q25 0 24 -10q-1 -14 -23 -14t-22 20zM1087 250v20h-75v-108h82v20h-58v25h51v18h-51v25h51zM954 182h-16v68h8q35 0 35 -35q-1 -13 -9 -23t-18 -10zM954 270h-41v-108h41
q51 0 51 54t-51 54zM860 221h-26v29h26q18 0 19 -12q-1 -17 -19 -17zM872 270h-57v-108l-43 108h-18l-45 -108h24l8 26h45l7 -26h41v45h26q18 0 19 -19v-26h26q-6 6 -6 25t-14 28q14 6 14 23q0 32 -27 32zM760 244h6l14 -37h-32zM645 270v-20h35v-88h16v88h31v20h-82z
M582 203h-27q0 -41 45 -41t45 35q0 23 -32 29t-31 12q0 12 19 12t20 -12h18q0 32 -39 32t-39 -32q0 -16 33 -31q27 0 27 -12t-21 -13q-18 1 -18 21zM508 182q-12 0 -24 12t-11 22q0 10 10 22t25 12q25 0 25 -34t-25 -34zM555 215q0 55 -49 55t-49 -54t51 -54q23 0 35 16
t12 37zM336 270v-108h18v76l27 -76h20l23 76v-76h18v108h-28l-19 -73l-28 73h-31zM336 446h166l-152 154v365l522 -519l525 519v-365l-152 -154h172v773l-545 -539l-536 539v-773zM1571 1407v-1407h-1407v1407h1407z" />
    <glyph glyph-name="NULL" horiz-adv-x="0" 
 />
    <glyph glyph-name="CR" horiz-adv-x="681" 
 />
    <glyph glyph-name="published" horiz-adv-x="1669" 
d="M834 96q250 0 426 176q174 176 174 430t-175 432t-426 177q-251 0 -425 -177q-174 -178 -174 -432t174 -430q176 -176 426 -176zM119 702q0 299 207 512q209 213 508 213q300 0 508 -213t208 -513t-209 -511t-507 -211t-508 211q-207 213 -207 512zM756 938v-233h155
q74 -2 104 57q30 58 0 118t-100 58h-159zM915 594h-159v-260h-113v717h272q105 0 165 -66t60 -158q0 -93 -58 -163t-167 -70z" />
    <glyph glyph-name="frenchfranc" horiz-adv-x="1486" 
d="M1251 713q-135 0 -205 -155t-69 -370v-188h-137v694h-498v-694h-135v1411h792v-135h-657v-447h635v-217q68 238 274 238q45 0 93 -12t63 -25l-16 -133q-63 33 -140 33z" />
    <glyph glyph-name="parenleft.case" horiz-adv-x="739" 
d="M655 -127v-135q-248 0 -396 253t-148 701t147 699q152 252 397 251v-135q-186 0 -298 -216q-111 -216 -111 -600t112 -601t297 -217z" />
    <glyph glyph-name="parenright.case" horiz-adv-x="739" 
d="M84 -262v135q186 0 298 217t112 602t-113 598q-111 217 -297 217v135q248 0 396 -250t149 -701q0 -450 -150 -699q-147 -254 -395 -254z" />
    <glyph glyph-name="hyphen.case" horiz-adv-x="993" 
d="M147 629v129h699v-129h-699z" />
    <glyph glyph-name="at.case" horiz-adv-x="2021" 
d="M1264 471v272q0 117 -83 200t-201 83t-200 -82t-82 -201t82 -201t197 -81q115 0 201 86v-146q-100 -66 -197 -65q-170 0 -289 119t-119 289t119 288q119 119 286 119t286 -113t125 -276v-305q0 -152 163 -152q72 0 127 45t82 123q49 141 49 295q0 318 -238 534t-566 216
q-330 0 -552 -230t-222 -556q0 -327 221 -554q225 -225 548 -225h37v-125h-37q-375 0 -636 262q-258 262 -259 641q0 379 259 645q260 266 636 266q244 4 461 -110t348 -320q131 -205 127 -444q0 -205 -84 -381q-94 -203 -317 -203q-117 0 -195 70q-77 70 -77 217z" />
    <glyph glyph-name="bracketleft.case" horiz-adv-x="612" 
d="M518 -248h-336v1874h336v-137h-199v-1598h199v-139z" />
    <glyph glyph-name="bracketright.case" horiz-adv-x="612" 
d="M94 1626h336v-1874h-336v139h199v1598h-199v137z" />
    <glyph glyph-name="braceleft.case" horiz-adv-x="811" 
d="M352 496v-349q0 -117 77 -193t187 -77h111v-125h-111q-168 0 -284 110t-115 285v349q0 55 -39 98t-92 43v117q53 0 92 43t39 98v352q-4 176 114 286t285 109h111v-124h-111q-112 0 -188 -77t-76 -194v-352q0 -63 -34 -121t-87 -80q49 -18 85 -78t36 -120z" />
    <glyph glyph-name="braceright.case" horiz-adv-x="811" 
d="M459 147v349q0 61 36 120t85 78q-53 23 -87 80t-34 121v352q0 117 -77 194t-187 77h-111v124h111q167 0 285 -110t114 -285v-352q0 -55 39 -98t92 -43v-117q-53 0 -92 -43t-39 -98v-349q0 -176 -117 -284q-113 -111 -282 -111h-111v125h111q111 1 187 77t77 193z" />
    <glyph glyph-name="exclamdown.case" horiz-adv-x="524" 
d="M207 1020h110l13 -1020h-135zM375 1313q0 -45 -33 -76t-80 -31t-80 31t-32 76q0 45 32 76q33 31 80 31t80 -31t33 -76z" />
    <glyph glyph-name="guillemotleft.case" horiz-adv-x="980" 
d="M713 266l-283 424l283 424h127l-283 -424l283 -424h-127zM406 266l-283 424l283 424h126l-282 -424l282 -424h-126z" />
    <glyph glyph-name="periodcentered.case" horiz-adv-x="520" 
d="M147 754q0 46 33 76t80 30t80 -31t33 -75t-33 -76q-33 -31 -80 -31t-80 31t-33 76z" />
    <glyph glyph-name="guillemotright.case" horiz-adv-x="980" 
d="M268 1114l283 -424l-283 -424h-127l283 424l-283 424h127zM575 1114l283 -424l-283 -424h-126l282 424l-282 424h126z" />
    <glyph glyph-name="questiondown.case" horiz-adv-x="997" 
d="M735 1321q0 -45 -33 -76q-34 -31 -80 -31t-79 31t-33 76t33 76t79 31t80 -31q33 -31 33 -76zM766 377h135q0 -176 -116 -286q-115 -109 -283 -109t-293 108q-123 111 -123 287q0 139 81 243t212 140q176 51 176 209v59h135v-59q0 -256 -270 -338q-88 -27 -144 -95
q-55 -70 -55 -172t84 -175t197 -73q112 0 188 74q76 72 76 187z" />
    <glyph glyph-name="endash.case" horiz-adv-x="1222" 
d="M150 629v121h923v-121h-923z" />
    <glyph glyph-name="emdash.case" horiz-adv-x="1665" 
d="M150 629v121h1366v-121h-1366z" />
    <glyph glyph-name="bullet.case" horiz-adv-x="937" 
d="M174 705q0 121 86 201t209 79q123 0 209 -80q86 -81 86 -201t-86 -200t-209 -80t-209 80t-86 201z" />
    <glyph glyph-name="guilsinglleft.case" horiz-adv-x="673" 
d="M406 266l-283 424l283 424h126l-282 -424l282 -424h-126z" />
    <glyph glyph-name="guilsinglright.case" horiz-adv-x="673" 
d="M268 1114l283 -424l-283 -424h-127l283 424l-283 424h127z" />
    <glyph glyph-name="cent.case" horiz-adv-x="1071" 
d="M522 1421h103v-217q193 -10 323 -129l-96 -96q-102 90 -252 90t-255 -99t-105 -262q0 -162 106 -264t255 -102q148 0 251 92l98 -96q-135 -123 -325 -131v-230h-103v236q-182 29 -301 162q-117 135 -117 333t118 330t300 160v223z" />
    <glyph glyph-name="zero.tnum" horiz-adv-x="1187" 
d="M246 686q0 -270 77 -421t277 -151t273 159q71 159 71 413t-78 406t-268 152t-271 -144t-81 -414zM983 186q-107 -206 -387 -206q-138 0 -238 53q-137 83 -190 241t-57 404q0 303 96 493q111 207 389 207q202 6 316 -112t145 -314q23 -125 22 -274q0 -313 -96 -492z" />
    <glyph glyph-name="one.tnum" horiz-adv-x="1187" 
d="M717 0h-135v1186l-232 -80v123l367 133v-1362z" />
    <glyph glyph-name="two.tnum" horiz-adv-x="1187" 
d="M180 0v47l570 690q110 131 110 249t-80 188t-198 70t-197 -61q-80 -60 -94 -159l-125 33q24 147 138 234t282 87t288 -110t121 -283q0 -174 -147 -344l-428 -506h577v-135h-817z" />
    <glyph glyph-name="three.tnum" horiz-adv-x="1187" 
d="M573 664h-131v129h131q101 -5 175 61t76 162t-58 158q-62 62 -162 67q-100 6 -174 -28t-108 -93l-109 68q55 94 159 147t224 45q188 -16 284 -126t81 -261q-7 -81 -59 -153t-134 -107q118 -29 188 -143t60 -234q-16 -170 -160 -278t-328 -96q-129 10 -233 78t-152 173
l123 56q32 -70 106 -117t165 -55q131 -7 232 69t110 191q4 115 -86 201t-220 86z" />
    <glyph glyph-name="four.tnum" horiz-adv-x="1187" 
d="M766 416v676l-465 -676h465zM1106 291h-205v-291h-135v291h-713l748 1071h100v-946h205v-125z" />
    <glyph glyph-name="five.tnum" horiz-adv-x="1187" 
d="M915 429q0 136 -95 213q-96 77 -202 77q-106 -1 -179 -21t-206 -86l-53 72l119 678h668v-137h-551l-82 -451q172 84 274 84q188 0 318 -117q131 -113 131 -315t-131 -326q-133 -121 -353 -120q-141 0 -268 80t-188 206l116 84q41 -100 139 -165t201 -64q158 0 250 86
t92 222z" />
    <glyph glyph-name="six.tnum" horiz-adv-x="1187" 
d="M422 641q-94 -84 -96 -211t84 -219t210 -95t211 79q86 82 93 213q4 131 -77 221t-206 93t-219 -81zM1024 1149l-119 -51q-66 135 -241 145q-184 7 -266 -151t-74 -402q31 82 125 127t198 41q182 -10 302 -143t110 -315t-137 -307q-128 -125 -308 -115t-295 132t-131 328
q-14 303 23 533q31 186 156 300t303 107q131 -6 217 -58t137 -171z" />
    <glyph glyph-name="seven.tnum" horiz-adv-x="1187" 
d="M182 1227v135h903l-55 -105l-694 -1257h-160l678 1227h-672z" />
    <glyph glyph-name="eight.tnum" horiz-adv-x="1187" 
d="M379 1045q0 -83 58 -142t145 -61h18q90 2 151 61q60 59 60 142t-62 141q-63 58 -155 57q-92 0 -154 -57q-61 -58 -61 -141zM268 414q0 -123 92 -213q96 -86 232 -86t231 87t95 213t-96 215t-230 89h-14q-130 -2 -220 -92t-90 -213zM244 1034q0 150 100 248q100 96 249 96
t251 -97t102 -245t-125 -245q107 -57 169 -159t63 -218q0 -182 -132 -308t-329 -126t-328 124t-131 310q-1 119 61 219t168 158q-118 93 -118 243z" />
    <glyph glyph-name="nine.tnum" horiz-adv-x="1187" 
d="M788 713q95 82 98 212t-82 221t-210 93t-213 -80q-86 -84 -91 -213t76 -219q80 -90 206 -93t216 79zM176 207l119 51q66 -133 254 -145q184 -7 265 151t75 402q-31 -82 -125 -127t-199 -41q-180 10 -301 141q-120 135 -110 317t135 306q131 122 310 114t294 -130
t131 -328q14 -303 -23 -533q-31 -186 -155 -300t-303 -108q-273 13 -367 230z" />
    <glyph glyph-name="zero.taboldstyle" horiz-adv-x="1187" 
d="M592 115q150 -1 257 109t107 288t-108 286t-256 108q-150 0 -258 -109q-104 -109 -104 -286t106 -287t256 -109zM593 -20q-206 0 -353 147q-146 151 -146 387t146 381t353 145q208 0 353 -145q146 -145 146 -381t-146 -384q-146 -150 -353 -150z" />
    <glyph glyph-name="one.taboldstyle" horiz-adv-x="1187" 
d="M770 0h-135v846l-318 -121v133l453 191v-1049z" />
    <glyph glyph-name="two.taboldstyle" horiz-adv-x="1187" 
d="M211 0v47l504 545q86 84 86 160q-1 76 -59 122t-148 46t-148 -41t-63 -113q-125 27 -131 27q12 117 110 191t242 73q144 0 242 -84t98 -221t-125 -256l-346 -361h473v-135h-735z" />
    <glyph glyph-name="six.taboldstyle" horiz-adv-x="1187" 
d="M422 641q-94 -84 -96 -211t84 -219t210 -95t211 79q86 82 93 213q4 131 -77 221t-206 93t-219 -81zM1024 1149l-119 -51q-66 135 -241 145q-184 7 -266 -151t-74 -402q31 82 125 127t198 41q182 -10 302 -143t110 -315t-137 -307q-128 -125 -308 -115t-295 132t-131 328
q-14 303 23 533q31 186 156 300t303 107q131 -6 217 -58t137 -171z" />
    <glyph glyph-name="eight.taboldstyle" horiz-adv-x="1187" 
d="M379 1045q0 -83 58 -142t145 -61h18q90 2 151 61q60 59 60 142t-62 141q-63 58 -155 57q-92 0 -154 -57q-61 -58 -61 -141zM268 414q0 -123 92 -213q96 -86 232 -86t231 87t95 213t-96 215t-230 89h-14q-130 -2 -220 -92t-90 -213zM244 1034q0 150 100 248q100 96 249 96
t251 -97t102 -245t-125 -245q107 -57 169 -159t63 -218q0 -182 -132 -308t-329 -126t-328 124t-131 310q-1 119 61 219t168 158q-118 93 -118 243z" />
    <glyph glyph-name="three.taboldstyle" horiz-adv-x="1187" 
d="M578 252h-132v129h132q102 -5 175 61t75 162t-58 158q-62 62 -162 67q-100 7 -174 -27t-108 -93l-109 67q55 94 159 148t224 45q188 -16 284 -126t81 -261q-7 -82 -59 -154t-134 -106q118 -29 188 -143t60 -234q-16 -170 -158 -277q-143 -111 -330 -98q-129 10 -233 79
t-152 173l123 55q32 -70 106 -117t165 -55q131 -8 232 69t110 191q4 115 -87 201t-218 86z" />
    <glyph glyph-name="four.taboldstyle" horiz-adv-x="1187" 
d="M766 6v676l-465 -676h465zM1106 -119h-205v-291h-135v291h-713l748 1071h100v-946h205v-125z" />
    <glyph glyph-name="five.taboldstyle" horiz-adv-x="1187" 
d="M573 -285q158 0 250 86q92 87 92 223t-95 213q-96 77 -202 77t-179 -21q-73 -20 -206 -86l-53 72l119 677h668v-137h-551l-82 -450q172 84 274 84q188 0 318 -117q131 -112 131 -316t-131 -325t-353 -121q-141 0 -268 80t-188 207l116 84q41 -100 139 -165t201 -65z" />
    <glyph glyph-name="seven.taboldstyle" horiz-adv-x="1187" 
d="M182 952h903l-749 -1362h-160l678 1227h-672v135z" />
    <glyph glyph-name="nine.taboldstyle" horiz-adv-x="1187" 
d="M387 750q-86 -84 -91 -213t76 -219q80 -90 206 -94q126 -3 218 79t96 212q3 130 -82 221t-210 93t-213 -79zM182 -203l119 51q66 -133 254 -145q184 -6 264 154q82 156 76 399q-31 -82 -125 -127t-199 -41q-182 10 -301 143q-118 133 -110 315t135 306q131 123 310 115
t294 -130t131 -329q14 -303 -22 -533q-31 -186 -156 -300t-303 -107q-273 12 -367 229z" />
    <glyph glyph-name="zero.oldstyle" horiz-adv-x="1226" 
d="M612 115q150 -1 257 109t108 288q0 178 -108 286q-107 108 -257 108t-258 -109q-104 -109 -104 -286t106 -287t256 -109zM613 1040q207 0 353 -145t146 -381t-146 -384q-146 -150 -353 -150q-206 0 -353 147q-145 151 -145 387t145 381t353 145z" />
    <glyph glyph-name="one.oldstyle" horiz-adv-x="724" 
d="M539 0h-136v846l-317 -121v133l453 191v-1049z" />
    <glyph glyph-name="two.oldstyle" horiz-adv-x="962" 
d="M98 0v47l504 545q86 84 86 160t-58 122t-148 46t-148 -41q-57 -41 -64 -113q-125 27 -131 27q13 117 111 191t241 73q143 0 241 -84t99 -221q0 -137 -124 -256l-347 -361h474v-135h-736z" />
    <glyph glyph-name="three.oldstyle" horiz-adv-x="1054" 
d="M512 252h-131v129h131q102 -5 175 61t76 162t-58 158t-162 67q-101 7 -175 -27t-108 -93l-108 67q55 94 158 148t225 45q188 -16 284 -126t80 -261q-6 -82 -58 -154t-134 -106q117 -29 187 -143t60 -234q-16 -170 -158 -279t-329 -96q-129 10 -234 79q-104 69 -151 173
l123 55q31 -70 105 -117t165 -55q131 -8 233 69q102 78 107 192q6 114 -85 200t-218 86z" />
    <glyph glyph-name="four.oldstyle" horiz-adv-x="1177" 
d="M762 6v676l-465 -676h465zM1102 -119h-205v-291h-135v291h-713l748 1071h100v-946h205v-125z" />
    <glyph glyph-name="five.oldstyle" horiz-adv-x="1116" 
d="M539 -285q157 0 249 86q92 87 92 223t-94 213q-96 77 -202 77t-180 -21q-73 -20 -205 -86l-54 72l119 677h668v-137h-551l-82 -450q172 84 274 84q188 0 318 -117q131 -112 131 -316t-131 -325t-352 -121q-141 0 -269 80q-127 80 -188 207l117 84q41 -100 138 -165
t202 -65z" />
    <glyph glyph-name="six.oldstyle" horiz-adv-x="1138" 
d="M397 641q-94 -84 -96 -211t84 -219t211 -95t211 79t92 213q4 131 -77 221t-206 93t-219 -81zM999 1149l-118 -51q-66 135 -242 145q-184 7 -265 -151t-75 -402q31 82 125 127t199 41q182 -10 302 -143q119 -133 109 -315t-137 -307t-307 -115t-295 132t-131 328
q-14 303 22 533q31 186 156 300t303 107q131 -6 217 -58t137 -171z" />
    <glyph glyph-name="seven.oldstyle" horiz-adv-x="1021" 
d="M100 952h904l-750 -1362h-160l678 1227h-672v135z" />
    <glyph glyph-name="eight.oldstyle" horiz-adv-x="1157" 
d="M365 1045q0 -83 58 -142t144 -61h19q90 2 150 61t60 142t-62 141t-154 57q-92 0 -154 -57q-61 -58 -61 -141zM254 414q0 -123 92 -213q94 -86 230 -86t233 86q94 88 94 214t-95 215t-230 89h-15q-129 -2 -219 -92t-90 -213zM229 1034q1 150 101 248q100 96 250 96
t249 -98q103 -96 103 -244t-125 -245q107 -57 169 -159t62 -218q0 -182 -132 -308t-328 -126t-328 124q-131 124 -131 310q0 119 61 219t168 158q-119 93 -119 243z" />
    <glyph glyph-name="nine.oldstyle" horiz-adv-x="1095" 
d="M342 750q-86 -84 -91 -213t76 -219t207 -94q126 -3 218 79t95 212t-82 221t-210 93t-213 -79zM137 -203l119 51q66 -133 254 -145q184 -6 264 154q82 156 76 399q-31 -82 -125 -127t-199 -41q-182 10 -301 143t-111 315t136 306q131 123 310 115t294 -130t131 -329
q14 -303 -22 -533q-31 -186 -156 -300t-303 -107q-273 12 -367 229z" />
    <glyph glyph-name="Lslash.sc" horiz-adv-x="888" 
d="M203 1200h123v-434l186 117v-105l-186 -119v-536h505v-123h-628v582l-117 -72v104l117 74v512z" />
    <glyph glyph-name="Zcaron.sc" horiz-adv-x="1019" 
d="M258 1561h123l123 -152l125 152h123l-170 -240h-154zM94 0v119l670 958h-645v123h796v-121l-671 -956h671v-123h-821z" />
    <glyph glyph-name="exclam.sc" horiz-adv-x="520" 
d="M311 157q51 -24 50 -72t-29 -75q-28 -26 -71 -26q-42 0 -71 26t-28 68q-4 55 47 79t102 0zM211 322l-12 878h123l-13 -878h-98z" />
    <glyph glyph-name="ampersand.sc" horiz-adv-x="1198" 
d="M784 631h-270q-114 0 -192 -79q-78 -78 -78 -188t77 -185t193 -75t191 72t79 178v277zM518 739h266v154h119v-156h158v-106h-158v-264q0 -137 42 -203t149 -66v-114q-98 0 -170 43t-97 112q-41 -71 -128 -113t-185 -42q-170 0 -283 108q-109 113 -108 275q0 102 53 189
t146 138q-102 84 -102 216t88 216q89 84 218 84q184 0 277 -153l-103 -64q-59 96 -174 97q-82 0 -134 -50t-52 -124t50 -126t128 -51z" />
    <glyph glyph-name="question.sc" horiz-adv-x="882" 
d="M337 170q42 0 71 -27q30 -27 30 -75t-51 -71q-51 -24 -102 0t-47 79q0 42 28 68t71 26zM221 870h-123q0 154 98 248t242 94q146 0 250 -94t104 -226t-70 -222q-71 -88 -165 -117t-127 -61t-33 -97v-73h-121v73q0 111 56 172t152 90q94 29 140 86t46 141t-68 144t-163 62
q-95 0 -157 -62t-61 -158z" />
    <glyph glyph-name="A.sc" horiz-adv-x="1161" 
d="M854 313h-547l-121 -313h-131l461 1200h131l459 -1200h-131zM582 1030l-232 -602h461z" />
    <glyph glyph-name="B.sc" horiz-adv-x="1124" 
d="M664 578h-347v-457h353q96 0 156 62q60 61 60 151t-64 167t-158 77zM317 1079v-387h326q84 0 132 58t48 146q0 87 -55 135t-150 48h-301zM946 899q0 -205 -147 -260q90 -18 149 -109q62 -88 62 -212t-91 -220q-91 -98 -247 -98h-479v1200h440q145 0 229 -81t84 -220z" />
    <glyph glyph-name="C.sc" horiz-adv-x="1200" 
d="M700 -18q-254 0 -421 178q-166 180 -166 438t166 436q169 178 423 178t426 -182l-86 -84q-145 146 -345 146q-201 0 -331 -144t-130 -351q0 -208 131 -351q133 -141 333 -141t344 147l86 -86q-176 -184 -430 -184z" />
    <glyph glyph-name="D.sc" horiz-adv-x="1294" 
d="M643 0h-450v1200h450q248 0 390 -169q143 -169 143 -432t-142 -431t-391 -168zM643 1077h-328v-954h328q195 0 303 129t107 345q1 216 -107 348t-303 132z" />
    <glyph glyph-name="E.sc" horiz-adv-x="1015" 
d="M899 0h-706v1200h688v-121h-566v-430h496v-121h-496v-407h584v-121z" />
    <glyph glyph-name="F.sc" horiz-adv-x="946" 
d="M315 0h-122v1200h677v-121h-555v-430h441v-121h-441v-528z" />
    <glyph glyph-name="G.sc" horiz-adv-x="1355" 
d="M788 477v113h486q0 -297 -146 -453q-146 -155 -407 -155q-260 0 -434 180t-174 437t174 435t428 178q219 0 387 -141l-88 -86q-126 107 -314 107t-326 -144t-138 -351q0 -206 137 -349q137 -144 333 -144t309 100q112 100 122 273h-349z" />
    <glyph glyph-name="H.sc" horiz-adv-x="1275" 
d="M961 653v547h122v-1200h-122v539h-646v-539h-122v1200h122v-547h646z" />
    <glyph glyph-name="I.sc" horiz-adv-x="507" 
d="M193 0v1200h122v-1200h-122z" />
    <glyph glyph-name="J.sc" horiz-adv-x="507" 
d="M193 1200h122v-1263q0 -179 -90 -281t-268 -102q-64 0 -113 14l13 121q37 -14 100 -15q117 0 176 71t60 192v1263z" />
    <glyph glyph-name="K.sc" horiz-adv-x="1017" 
d="M315 0h-122v1200h122v-573l443 573h145l-465 -600l568 -600h-166l-525 555v-555z" />
    <glyph glyph-name="L.sc" horiz-adv-x="878" 
d="M821 0h-628v1200h122v-1079h506v-121z" />
    <glyph glyph-name="M.sc" horiz-adv-x="1679" 
d="M389 1200l451 -926l448 926h121l147 -1200h-120l-121 979l-414 -848h-121l-415 848l-121 -979h-121l145 1200h121z" />
    <glyph glyph-name="N.sc" horiz-adv-x="1232" 
d="M918 1200h122v-1200h-125l-600 987v-987h-122v1200h129l596 -981v981z" />
    <glyph glyph-name="O.sc" horiz-adv-x="1433" 
d="M113 599q0 257 174 435t429 178t430 -180t175 -434t-175 -435t-430 -181t-429 180t-174 437zM236 597q0 -206 137 -349q137 -144 343 -144t344 144t138 349q0 204 -139 349q-139 146 -343 146t-342 -144t-138 -351z" />
    <glyph glyph-name="P.sc" horiz-adv-x="1089" 
d="M317 0h-124v1200h473q172 0 256 -108t84 -262q0 -153 -84 -259t-256 -106h-349v-465zM666 1079h-349v-493h340q111 0 168 68t57 176q0 110 -56 180t-160 69z" />
    <glyph glyph-name="Q.sc" horiz-adv-x="1433" 
d="M1198 598q0 203 -139 348q-139 146 -343 146t-342 -144t-138 -350q0 -205 135 -348q137 -141 340 -144q82 0 137 15l-133 217l100 65l146 -233q111 68 174 182t63 246zM113 599q0 257 174 435t429 178t430 -180t175 -434q0 -164 -79 -304t-216 -226l129 -201l-100 -66
l-137 215q-100 -35 -203 -34q-254 0 -428 180t-174 437z" />
    <glyph glyph-name="R.sc" horiz-adv-x="1101" 
d="M317 465v-465h-124v1200h448q172 0 254 -106t82 -264t-81 -258q-81 -99 -237 -107l330 -465h-151l-328 465h-193zM639 1079h-322v-493h314q111 0 167 68t56 178t-54 179q-55 68 -161 68z" />
    <glyph glyph-name="S.sc" horiz-adv-x="1032" 
d="M119 344h123q0 -96 76 -172t193 -76q118 0 195 58t91 143q29 190 -224 248l-159 37q-285 63 -285 303q0 143 113 235q114 92 272 92t264 -94t107 -250h-123q0 98 -72 160t-178 64q-106 0 -183 -58t-77 -149q0 -145 188 -187l164 -36q168 -40 253 -136t61 -250
q-20 -117 -130 -206q-102 -88 -273 -88t-286 110q-110 113 -110 252z" />
    <glyph glyph-name="T.sc" horiz-adv-x="999" 
d="M438 1077h-381v123h885v-123h-381v-1077h-123v1077z" />
    <glyph glyph-name="U.sc" horiz-adv-x="1214" 
d="M911 408v792h123v-792q0 -188 -123 -308t-303 -118q-180 0 -305 118q-123 121 -123 308v792h123v-792q0 -136 89 -220t215 -84t215 84t89 220z" />
    <glyph glyph-name="V.sc" horiz-adv-x="1001" 
d="M438 0l-360 1200h127l297 -997l295 997h127l-359 -1200h-127z" />
    <glyph glyph-name="W.sc" horiz-adv-x="1626" 
d="M860 1040l244 -845l330 1005h131l-406 -1200h-115l-231 795l-231 -795h-115l-406 1200h132l329 -1005l244 845h94z" />
    <glyph glyph-name="X.sc" horiz-adv-x="1077" 
d="M838 1200h147l-373 -555l422 -645h-149l-346 543l-346 -543h-148l420 645l-373 555h150l297 -450z" />
    <glyph glyph-name="Y.sc" horiz-adv-x="1118" 
d="M623 0h-127v557l-451 643h148l366 -512l373 512h147l-456 -643v-557z" />
    <glyph glyph-name="Z.sc" horiz-adv-x="1019" 
d="M94 0v119l670 958h-645v123h796v-121l-671 -956h671v-123h-821z" />
    <glyph glyph-name="Scaron.sc" horiz-adv-x="1032" 
d="M242 344q0 -96 76 -172t193 -76q118 0 195 58t91 143q29 190 -224 248l-159 37q-285 63 -285 303q0 143 113 235q114 92 272 92t264 -94t107 -250h-123q0 98 -72 160t-178 64q-106 0 -183 -58t-77 -149q0 -145 188 -187l164 -36q168 -40 253 -136t61 -250
q-20 -117 -130 -206q-102 -88 -273 -88t-286 110q-111 113 -110 252h123zM272 1591h123l123 -149l125 149h121l-168 -239h-154z" />
    <glyph glyph-name="OE.sc" horiz-adv-x="2019" 
d="M1196 1200h688v-123h-565v-428h493v-123h-493v-403h584v-123h-707v225q-86 -115 -211 -179t-270 -64q-254 0 -428 180t-174 437t174 435t428 178q145 0 270 -63t211 -178v229zM236 598q0 -204 137 -348t339 -144t338 134t146 335v43q-10 199 -146 335q-136 137 -338 137
t-339 -144t-137 -348z" />
    <glyph glyph-name="Ydieresis.sc" horiz-adv-x="1118" 
d="M716 1554q38 0 64 -24t27 -63q0 -39 -27 -63q-26 -24 -64 -24t-66 25t-28 61t28 63q28 25 66 25zM410 1380q-38 0 -66 24q-27 24 -27 62q-4 53 44 76q49 23 97 0t44 -76q0 -38 -27 -62t-65 -24zM623 0h-127v557l-451 643h148l366 -512l373 512h147l-456 -643v-557z" />
    <glyph glyph-name="exclamdown.sc" horiz-adv-x="518" 
d="M259 1217q43 0 71 -27t29 -75t-50 -72t-102 0t-47 79q0 41 28 68q29 27 71 27zM307 879l12 -879h-122l12 879h98z" />
    <glyph glyph-name="questiondown.sc" horiz-adv-x="870" 
d="M564 643q-42 0 -70 27t-29 67q-4 55 47 79q50 24 102 0t51 -72t-30 -74t-71 -27zM680 -59h123q0 -150 -97 -245q-98 -95 -244 -95t-250 93q-104 94 -103 228t69 220t180 120q145 43 146 170v60h121v-60q0 -215 -230 -285q-72 -20 -119 -78t-47 -141q0 -82 69 -144
t164 -62q94 0 156 61q62 62 62 158z" />
    <glyph glyph-name="Agrave.sc" horiz-adv-x="1161" 
d="M854 313h-547l-121 -313h-131l461 1200h131l459 -1200h-131zM582 1030l-232 -602h461zM514 1561l131 -240h-125l-155 240h149z" />
    <glyph glyph-name="Aacute.sc" horiz-adv-x="1161" 
d="M186 0h-131l461 1200h131l459 -1200h-131l-121 313h-547zM811 428l-229 602l-232 -602h461zM643 1561h150l-156 -240h-125z" />
    <glyph glyph-name="Acircumflex.sc" horiz-adv-x="1161" 
d="M854 313h-547l-121 -313h-131l461 1200h131l459 -1200h-131zM582 1030l-232 -602h461zM657 1561l170 -240h-122l-125 149l-123 -149h-123l170 240h153z" />
    <glyph glyph-name="Atilde.sc" horiz-adv-x="1161" 
d="M854 313h-547l-121 -313h-131l461 1200h131l459 -1200h-131zM582 1030l-232 -602h461zM659 1479q52 0 58 73h92q-6 -94 -47 -140q-40 -46 -94 -46t-99 37t-67 37t-40 -20q-16 -20 -18 -58h-92q6 94 47 142t93 48t98 -36q45 -36 69 -37z" />
    <glyph glyph-name="Adieresis.sc" horiz-adv-x="1161" 
d="M186 0h-131l461 1200h131l459 -1200h-131l-121 313h-547zM811 428l-229 602l-232 -602h461zM732 1554q38 0 65 -24t27 -63t-28 -63q-26 -24 -64 -24t-66 25t-27 61q-1 36 27 62t66 26zM426 1380q-40 0 -66 24t-26 62q-4 53 44 76t96 0t44 -76q0 -38 -26 -62t-66 -24z" />
    <glyph glyph-name="Aring.sc" horiz-adv-x="1161" 
d="M186 0h-131l461 1200h131l459 -1200h-131l-121 313h-547zM811 428l-229 602l-232 -602h461zM580 1569q-54 0 -74 -51t18 -88q38 -38 86 -16q49 22 49 65q1 43 -23 67t-56 23zM579 1659q73 0 123 -50t50 -122t-50 -121t-124 -49q-72 0 -121 49t-49 121t49 122t122 50z" />
    <glyph glyph-name="AE.sc" horiz-adv-x="1685" 
d="M862 0v313h-477l-199 -313h-145l758 1200h751v-123h-565v-428h494v-123h-494v-403h584v-123h-707zM862 428v637l-405 -637h405z" />
    <glyph glyph-name="Ccedilla.sc" horiz-adv-x="1204" 
d="M115 608q0 248 166 426q169 178 423 178t426 -182l-86 -84q-145 146 -345 146q-201 0 -331 -144t-130 -351q0 -208 131 -350t332 -142t346 147l86 -86q-166 -176 -410 -182l43 -101q18 -41 13 -99t-60 -102t-123 -37t-113 59t-45 124l97 -8q-3 -43 33 -69t73 -9
q31 12 42 44t-1 60l-59 142q-223 27 -367 198q-141 174 -141 422z" />
    <glyph glyph-name="Egrave.sc" horiz-adv-x="1015" 
d="M899 0h-706v1200h688v-121h-566v-430h496v-121h-496v-407h584v-121zM492 1561l129 -240h-125l-156 240h152z" />
    <glyph glyph-name="Eacute.sc" horiz-adv-x="1015" 
d="M193 1200h688v-121h-566v-430h496v-121h-496v-407h584v-121h-706v1200zM557 1561h150l-156 -240h-125z" />
    <glyph glyph-name="Ecircumflex.sc" horiz-adv-x="1015" 
d="M899 0h-706v1200h688v-121h-566v-430h496v-121h-496v-407h584v-121zM588 1561l170 -240h-123l-123 149l-125 -149h-121l170 240h152z" />
    <glyph glyph-name="Edieresis.sc" horiz-adv-x="1015" 
d="M193 1200h688v-121h-566v-430h496v-121h-496v-407h584v-121h-706v1200zM664 1380q-38 0 -66 24q-27 24 -27 62q-4 53 44 76q49 23 97 0t44 -76q0 -38 -27 -62t-65 -24zM451 1466q0 -38 -28 -62t-66 -24q-39 0 -65 24t-26 63q0 38 27 63q27 24 65 24t65 -26q28 -26 28 -62
z" />
    <glyph glyph-name="Igrave.sc" horiz-adv-x="507" 
d="M193 0v1200h122v-1200h-122zM186 1561l129 -240h-125l-155 240h151z" />
    <glyph glyph-name="Iacute.sc" horiz-adv-x="507" 
d="M315 1200v-1200h-122v1200h122zM319 1561h152l-156 -240h-125z" />
    <glyph glyph-name="Icircumflex.sc" horiz-adv-x="507" 
d="M193 0v1200h122v-1200h-122zM332 1561l170 -240h-123l-125 149l-123 -149h-123l170 240h154z" />
    <glyph glyph-name="Idieresis.sc" horiz-adv-x="507" 
d="M315 1200v-1200h-122v1200h122zM315 1466q0 36 28 62t66 26q39 0 65 -24t26 -63t-27 -63t-65 -24t-65 25q-28 25 -28 61zM195 1466q0 -38 -28 -62t-66 -24q-39 0 -65 24t-26 63q0 38 27 63q27 24 65 24t65 -26q28 -26 28 -62z" />
    <glyph glyph-name="Eth.sc" horiz-adv-x="1302" 
d="M651 0h-450v545h-170v108h170v547h450q248 0 390 -169q143 -169 143 -432t-142 -431t-391 -168zM651 1077h-327v-424h297v-108h-297v-422h327q195 0 303 129t107 345q1 216 -107 348t-303 132z" />
    <glyph glyph-name="Ntilde.sc" horiz-adv-x="1232" 
d="M918 1200h122v-1200h-125l-600 987v-987h-122v1200h129l596 -981v981zM537 1440q-19 0 -37 -22t-21 -56h-90q6 94 47 142q42 48 92 48t97 -36t69 -37q22 0 40 19q17 19 18 54h92q-6 -94 -47 -140t-93 -46t-100 37q-47 37 -67 37z" />
    <glyph glyph-name="Ograve.sc" horiz-adv-x="1433" 
d="M113 599q0 257 174 435t429 178t430 -180t175 -434t-175 -435t-430 -181t-429 180t-174 437zM236 597q0 -206 137 -349q137 -144 343 -144t344 144t138 349q0 204 -139 349q-139 146 -343 146t-342 -144t-138 -351zM662 1561l129 -240h-123l-158 240h152z" />
    <glyph glyph-name="Oacute.sc" horiz-adv-x="1433" 
d="M1321 598q0 -254 -175 -435t-430 -181t-429 180t-174 437t174 435t429 178t430 -180t175 -434zM236 597q0 -206 137 -349q137 -144 343 -144t344 144t138 349q0 204 -139 349q-139 146 -343 146t-342 -144t-138 -351zM762 1561h149l-155 -240h-125z" />
    <glyph glyph-name="Ocircumflex.sc" horiz-adv-x="1433" 
d="M113 599q0 257 174 435t429 178t430 -180t175 -434t-175 -435t-430 -181t-429 180t-174 437zM236 597q0 -206 137 -349q137 -144 343 -144t344 144t138 349q0 204 -139 349q-139 146 -343 146t-342 -144t-138 -351zM793 1561l170 -240h-123l-125 149l-123 -149h-123
l170 240h154z" />
    <glyph glyph-name="Otilde.sc" horiz-adv-x="1433" 
d="M113 599q0 257 174 435t429 178t430 -180t175 -434t-175 -435t-430 -181t-429 180t-174 437zM236 597q0 -206 137 -349q137 -144 343 -144t344 144t138 349q0 204 -139 349q-139 146 -343 146t-342 -144t-138 -351zM638 1440q-22 0 -38 -22q-18 -22 -20 -56h-91
q5 94 47 142t92 48t97 -36t70 -37q23 0 40 19t17 54h92q-6 -94 -47 -140t-94 -46t-98 37t-67 37z" />
    <glyph glyph-name="Odieresis.sc" horiz-adv-x="1433" 
d="M1321 598q0 -254 -175 -435t-430 -181t-429 180t-174 437t174 435t429 178t430 -180t175 -434zM236 597q0 -206 137 -349q137 -144 343 -144t344 144t138 349q0 204 -139 349q-139 146 -343 146t-342 -144t-138 -351zM870 1380q-40 0 -66 24t-26 62q-4 53 44 76t96 0
t45 -76q0 -38 -27 -62t-66 -24zM564 1380q-38 0 -64 24t-27 63q0 38 27 63q26 24 64 24t66 -26t28 -62q0 -38 -28 -62t-66 -24z" />
    <glyph glyph-name="Oslash.sc" horiz-adv-x="1431" 
d="M111 611q0 245 174 423q173 178 415 178t410 -147l147 154l68 -68l-149 -156q143 -167 143 -409t-175 -423t-431 -181q-217 0 -387 141l-140 -143l-67 67l139 143q-147 176 -147 421zM698 1092q-188 0 -326 -144t-139 -338q0 -192 111 -331l680 698q-138 115 -326 115z
M730 104q190 0 328 144t138 336t-106 325l-678 -698q128 -107 318 -107z" />
    <glyph glyph-name="Ugrave.sc" horiz-adv-x="1214" 
d="M707 1321h-123l-158 240h152zM911 408v792h123v-792q0 -188 -123 -308t-303 -118q-180 0 -305 118q-123 121 -123 308v792h123v-792q0 -136 89 -220t215 -84t215 84t89 220z" />
    <glyph glyph-name="Uacute.sc" horiz-adv-x="1214" 
d="M653 1561h152l-158 -240h-123zM911 408v792h123v-792q0 -188 -123 -308t-303 -118q-180 0 -305 118q-123 121 -123 308v792h123v-792q0 -136 89 -220t215 -84t215 84t89 220z" />
    <glyph glyph-name="Ucircumflex.sc" horiz-adv-x="1214" 
d="M688 1561l170 -240h-123l-125 149l-123 -149h-122l170 240h153zM911 408v792h123v-792q0 -188 -123 -308t-303 -118q-180 0 -305 118q-123 121 -123 308v792h123v-792q0 -136 89 -220t215 -84t215 84t89 220z" />
    <glyph glyph-name="Udieresis.sc" horiz-adv-x="1214" 
d="M852 1466q0 -38 -28 -62t-66 -24t-64 24t-26 63q0 38 26 63q27 24 65 24q37 0 65 -26t28 -62zM362 1466q0 36 27 62t65 26t64 -24t27 -63q0 -39 -27 -63q-26 -24 -64 -24t-65 25t-27 61zM911 408v792h123v-792q0 -188 -123 -308t-303 -118q-180 0 -305 118
q-123 121 -123 308v792h123v-792q0 -136 89 -220t215 -84t215 84t89 220z" />
    <glyph glyph-name="Yacute.sc" horiz-adv-x="1118" 
d="M618 1561h150l-156 -240h-125zM623 0h-127v557l-451 643h148l366 -512l373 512h147l-456 -643v-557z" />
    <glyph glyph-name="Thorn.sc" horiz-adv-x="1036" 
d="M592 250h-275v-250h-124v1200h124v-221h275q156 0 257 -101q101 -102 101 -264t-101 -263t-257 -101zM317 856v-485h275q100 1 168 69t68 175t-68 175q-68 67 -170 66h-273z" />
    <glyph glyph-name="Amacron.sc" horiz-adv-x="1161" 
d="M854 313h-547l-121 -313h-131l461 1200h131l459 -1200h-131zM582 1030l-232 -602h461zM791 1434h-420v114h420v-114z" />
    <glyph glyph-name="Abreve.sc" horiz-adv-x="1161" 
d="M186 0h-131l461 1200h131l459 -1200h-131l-121 313h-547zM811 428l-229 602l-232 -602h461zM362 1583h97q6 -51 39 -84t84 -33t83 33t35 84h97q1 -97 -59 -157t-161 -60t-158 60t-57 157z" />
    <glyph glyph-name="Cacute.sc" horiz-adv-x="1200" 
d="M700 -18q-254 0 -421 178q-166 180 -166 438t166 436q169 178 423 178t426 -182l-86 -84q-145 146 -345 146q-201 0 -331 -144t-130 -351q0 -208 131 -351q133 -141 333 -141t344 147l86 -86q-176 -184 -430 -184zM707 1591h151l-158 -239h-122z" />
    <glyph glyph-name="Ccircumflex.sc" horiz-adv-x="1200" 
d="M700 -18q-254 0 -421 178q-166 180 -166 438t166 436q169 178 423 178t426 -182l-86 -84q-145 146 -345 146q-201 0 -331 -144t-130 -351q0 -208 131 -351q133 -141 333 -141t344 147l86 -86q-176 -184 -430 -184zM762 1591l170 -239h-123l-125 151l-123 -151h-121
l168 239h154z" />
    <glyph glyph-name="Cdotaccent.sc" horiz-adv-x="1200" 
d="M700 -18q-254 0 -421 178q-166 180 -166 438t166 436q169 178 423 178t426 -182l-86 -84q-145 146 -345 146q-201 0 -331 -144t-130 -351q0 -208 131 -351q133 -141 333 -141t344 147l86 -86q-176 -184 -430 -184zM571 1502q0 36 28 62t66 25q39 -1 65 -25t26 -62
t-27 -62t-65 -25q-38 0 -65 25q-28 26 -28 62z" />
    <glyph glyph-name="Ccaron.sc" horiz-adv-x="1200" 
d="M700 -18q-254 0 -421 178q-166 180 -166 438t166 436q169 178 423 178t426 -182l-86 -84q-145 146 -345 146q-201 0 -331 -144t-130 -351q0 -208 131 -351q133 -141 333 -141t344 147l86 -86q-176 -184 -430 -184zM424 1591h123l125 -149l123 149h123l-170 -239h-154z
" />
    <glyph glyph-name="Dcaron.sc" horiz-adv-x="1294" 
d="M643 0h-450v1200h450q248 0 390 -169q143 -169 143 -432t-142 -431t-391 -168zM315 123h328q195 0 303 129t107 345q0 216 -108 348t-302 132h-328v-954zM373 1591h123l125 -149l122 149h123l-170 -239h-153z" />
    <glyph glyph-name="Aogonek.sc" horiz-adv-x="1161" 
d="M946 -289q-53 79 -26 151t55 138l-121 313h-547l-121 -313h-131l461 1200h131l459 -1200h-51l-45 -154q-10 -32 1 -62t44 -44t69 12t33 68l96 8q0 -72 -44 -125t-107 -59q-102 -10 -156 67zM350 428h461l-229 602z" />
    <glyph glyph-name="Emacron.sc" horiz-adv-x="1015" 
d="M899 0h-706v1200h688v-121h-566v-430h496v-121h-496v-407h584v-121zM725 1434h-418v114h418v-114z" />
    <glyph glyph-name="Ebreve.sc" horiz-adv-x="1015" 
d="M193 1200h688v-121h-566v-430h496v-121h-496v-407h584v-121h-706v1200zM293 1583h96q6 -51 39 -84t84 -33t83 33t36 84h98q0 -97 -60 -157q-59 -60 -161 -60t-159 60q-56 61 -56 157z" />
    <glyph glyph-name="Edotaccent.sc" horiz-adv-x="1015" 
d="M193 1200h688v-121h-566v-430h496v-121h-496v-407h584v-121h-706v1200zM546 1589q38 1 66 -25t27 -63q0 -37 -28 -61q-27 -24 -65 -25q-38 0 -66 25q-28 26 -28 62t28 62q28 25 66 25z" />
    <glyph glyph-name="Ecaron.sc" horiz-adv-x="1015" 
d="M193 1200h688v-121h-566v-430h496v-121h-496v-407h584v-121h-706v1200zM289 1591h121l125 -149l122 149h123l-170 -239h-153z" />
    <glyph glyph-name="Gcircumflex.sc" horiz-adv-x="1355" 
d="M788 477v113h486q0 -297 -146 -453q-146 -155 -407 -155q-260 0 -434 180t-174 437t174 435t428 178q219 0 387 -141l-88 -86q-126 107 -314 107t-326 -144t-138 -351q0 -206 137 -349q137 -144 333 -144t309 100q112 100 122 273h-349zM762 1591l170 -239h-123l-125 151
l-123 -151h-123l170 239h154z" />
    <glyph glyph-name="Gbreve.sc" horiz-adv-x="1355" 
d="M788 590h486q0 -297 -146 -453q-146 -155 -407 -155q-260 0 -434 180t-174 437t174 435t428 178q219 0 387 -141l-88 -86q-126 107 -314 107t-326 -144t-138 -351q0 -206 137 -349q137 -144 333 -144t309 100q112 100 122 273h-349v113zM469 1583h98q6 -51 39 -84t84 -33
t82 33t35 84h98q0 -97 -59 -157q-58 -60 -160 -60t-160 61q-57 62 -57 156z" />
    <glyph glyph-name="Eogonek.sc" horiz-adv-x="1015" 
d="M193 0v1200h688v-121h-566v-430h496v-121h-496v-407h584v-121l-63 -152q-12 -30 0 -60t46 -44t68 10t35 70l94 6q0 -72 -45 -124q-46 -52 -112 -60t-125 43q-57 45 -63 102t18 96l63 113h-622z" />
    <glyph glyph-name="Dcroat.sc" horiz-adv-x="1302" 
d="M651 0h-450v545h-170v108h170v547h450q248 0 390 -169q143 -169 143 -432t-142 -431t-391 -168zM651 1077h-327v-424h297v-108h-297v-422h327q195 0 303 129t107 345q1 216 -107 348t-303 132z" />
    <glyph glyph-name="Gdotaccent.sc" horiz-adv-x="1355" 
d="M788 590h486q0 -297 -146 -453q-146 -155 -407 -155q-260 0 -434 180t-174 437t174 435t428 178q219 0 387 -141l-88 -86q-126 107 -314 107t-326 -144t-138 -351q0 -206 137 -349q137 -144 333 -144t309 100q112 100 122 273h-349v113zM691 1589q38 1 66 -25
q27 -26 27 -63t-28 -61t-65 -25q-37 0 -65 25q-28 26 -28 62t28 62t65 25z" />
    <glyph glyph-name="Hcircumflex.sc" horiz-adv-x="1275" 
d="M961 653v547h122v-1200h-122v539h-646v-539h-122v1200h122v-547h646zM713 1591l170 -239h-121l-125 151l-123 -151h-123l170 239h152z" />
    <glyph glyph-name="Hbar.sc" horiz-adv-x="1294" 
d="M969 1200h123v-213h127v-86h-127v-901h-123v537h-643v-537h-123v901h-125v86h125v213h123v-213h643v213zM969 901h-643v-248h643v248z" />
    <glyph glyph-name="Itilde.sc" horiz-adv-x="507" 
d="M193 0v1200h122v-1200h-122zM166 1583q51 0 98 -36t70 -36q23 1 39 19t18 53h92q-6 -92 -48 -138t-93 -46t-98 36q-47 35 -69 35t-38 -20t-18 -57h-92q6 94 47 142t92 48z" />
    <glyph glyph-name="Imacron.sc" horiz-adv-x="507" 
d="M193 0v1200h122v-1200h-122zM463 1434h-418v114h418v-114z" />
    <glyph glyph-name="Iogonek.sc" horiz-adv-x="507" 
d="M221 1200h123v-1200h-57l-33 -154q-16 -84 43 -104q37 -16 72 10t34 68l95 8q0 -72 -44 -125t-108 -59q-104 -10 -156 64t-26 151q25 76 57 141v1200z" />
    <glyph glyph-name="IJ.sc" horiz-adv-x="1015" 
d="M193 0v1200h122v-1200h-122zM700 -63v1263h123v-1263q0 -179 -90 -281t-268 -102q-64 0 -113 14l13 121q37 -14 100 -15q117 0 176 71t59 192z" />
    <glyph glyph-name="Jcircumflex.sc" horiz-adv-x="507" 
d="M328 1591l170 -239h-121l-125 151l-123 -151h-123l170 239h152zM193 1200h122v-1263q0 -179 -90 -281t-268 -102q-64 0 -113 14l13 121q37 -14 100 -15q117 0 176 71t60 192v1263z" />
    <glyph glyph-name="Lacute.sc" horiz-adv-x="878" 
d="M193 1200h122v-1079h506v-121h-628v1200zM324 1589h151l-156 -239h-124z" />
    <glyph glyph-name="Lcaron.sc" horiz-adv-x="878" 
d="M539 829l-76 23q102 147 100 348h125q-20 -275 -149 -371zM821 0h-628v1200h122v-1079h506v-121z" />
    <glyph glyph-name="Ldot.sc" horiz-adv-x="878" 
d="M469 497q0 39 27 63q26 24 64 24t66 -26t28 -62t-28 -62q-28 -24 -66 -24t-64 24t-27 63zM821 0h-628v1200h122v-1079h506v-121z" />
    <glyph glyph-name="Nacute.sc" horiz-adv-x="1232" 
d="M1040 0h-125l-600 987v-987h-122v1200h129l596 -981v981h122v-1200zM676 1591h149l-155 -239h-125z" />
    <glyph glyph-name="Ncaron.sc" horiz-adv-x="1232" 
d="M1040 0h-125l-600 987v-987h-122v1200h129l596 -981v981h122v-1200zM369 1591h123l124 -149l123 149h123l-170 -239h-153z" />
    <glyph glyph-name="Omacron.sc" horiz-adv-x="1433" 
d="M113 599q0 257 174 435t429 178t430 -180t175 -434t-175 -435t-430 -181t-429 180t-174 437zM236 597q0 -206 137 -349q137 -144 343 -144t344 144t138 349q0 204 -139 349q-139 146 -343 146t-342 -144t-138 -351zM926 1434h-420v114h420v-114z" />
    <glyph glyph-name="Obreve.sc" horiz-adv-x="1433" 
d="M1321 598q0 -254 -175 -435t-430 -181t-429 180t-174 437t174 435t429 178t430 -180t175 -434zM236 597q0 -206 137 -349q137 -144 343 -144t344 144t138 349q0 204 -139 349q-139 146 -343 146t-342 -144t-138 -351zM500 1583h96q6 -51 39 -84t84 -33t83 33t36 84h96
q0 -97 -60 -157t-160 -60q-101 0 -158 60q-56 61 -56 157z" />
    <glyph glyph-name="Ohungarumlaut.sc" horiz-adv-x="1433" 
d="M1321 598q0 -254 -175 -435t-430 -181t-429 180t-174 437t174 435t429 178t430 -180t175 -434zM236 597q0 -206 137 -349q137 -144 343 -144t344 144t138 349q0 204 -139 349q-139 146 -343 146t-342 -144t-138 -351zM651 1591h133l-127 -239h-129zM870 1591h146
l-152 -239h-123z" />
    <glyph glyph-name="Racute.sc" horiz-adv-x="1101" 
d="M317 465v-465h-124v1200h448q172 0 254 -106t82 -264t-81 -258q-81 -99 -237 -107l330 -465h-151l-328 465h-193zM639 1079h-322v-493h314q111 0 167 68t56 178t-54 179q-55 68 -161 68zM543 1591h149l-155 -239h-125z" />
    <glyph glyph-name="Rcaron.sc" horiz-adv-x="1101" 
d="M317 465v-465h-124v1200h448q172 0 254 -106t82 -264t-81 -258q-81 -99 -237 -107l330 -465h-151l-328 465h-193zM639 1079h-322v-493h314q111 0 167 68t56 178t-54 179q-55 68 -161 68zM305 1591h123l125 -149l123 149h123l-170 -239h-154z" />
    <glyph glyph-name="Sacute.sc" horiz-adv-x="1032" 
d="M242 344q0 -92 76 -166t194 -74q119 0 195 56t90 137q29 190 -224 248l-159 37q-285 63 -285 303q0 143 113 235q114 92 272 92t264 -94t107 -250h-123q0 98 -72 160t-178 64q-106 0 -183 -58t-77 -149q0 -145 188 -187l164 -36q168 -40 253 -136t61 -250
q-20 -117 -130 -206q-102 -88 -273 -88t-286 110q-111 113 -110 252h123zM549 1591h151l-157 -239h-123z" />
    <glyph glyph-name="Scircumflex.sc" horiz-adv-x="1032" 
d="M119 344h123q0 -92 76 -166t194 -74q119 0 195 56t90 137q29 190 -224 248l-159 37q-285 63 -285 303q0 143 113 235q114 92 272 92t264 -94t107 -250h-123q0 98 -72 160t-178 64q-106 0 -183 -58t-77 -149q0 -145 188 -187l164 -36q168 -40 253 -136t61 -250
q-20 -117 -130 -206q-102 -88 -273 -88t-286 110q-110 113 -110 252zM594 1591l170 -239h-123l-125 151l-123 -151h-123l170 239h154z" />
    <glyph glyph-name="Scedilla.sc" horiz-adv-x="1036" 
d="M121 344h123q0 -92 76 -166t195 -74q118 0 194 56t90 137q29 190 -224 248l-161 37q-283 66 -283 303q0 143 113 235q114 92 272 92t264 -94t107 -250h-123q0 98 -72 160t-178 64q-106 0 -183 -58t-77 -149q0 -145 188 -187l164 -36q168 -40 253 -136t61 -250
q-18 -104 -98 -182t-204 -100l52 -111q2 -2 2 -12q23 -68 -7 -131t-106 -88t-147 26q-70 51 -70 150l94 -8q0 -43 35 -69t72 -9q31 12 42 43t1 61l-51 136h-13q-174 0 -289 108q-112 111 -112 254z" />
    <glyph glyph-name="Utilde.sc" horiz-adv-x="1214" 
d="M514 1552q51 0 98 -36t70 -37q23 0 39 18t18 55h92q-6 -94 -47 -140t-93 -46t-99 37t-69 37t-38 -20t-18 -58h-92q6 94 47 142t92 48zM911 408v792h123v-792q0 -188 -123 -308t-303 -118q-180 0 -305 118q-123 121 -123 308v792h123v-792q0 -136 89 -220t215 -84t215 84
t89 220z" />
    <glyph glyph-name="Umacron.sc" horiz-adv-x="1214" 
d="M825 1434h-419v114h419v-114zM911 408v792h123v-792q0 -188 -123 -308t-303 -118q-180 0 -305 118q-123 121 -123 308v792h123v-792q0 -136 89 -220t215 -84t215 84t89 220z" />
    <glyph glyph-name="Ubreve.sc" horiz-adv-x="1214" 
d="M389 1583h98q6 -51 38 -84t83 -33t83 33t36 84h98q0 -97 -59 -157q-60 -60 -162 -60t-159 60q-56 61 -56 157zM911 408v792h123v-792q0 -188 -123 -308t-303 -118q-180 0 -305 118q-123 121 -123 308v792h123v-792q0 -136 89 -220t215 -84t215 84t89 220z" />
    <glyph glyph-name="Uring.sc" horiz-adv-x="1214" 
d="M607 1438q51 0 71 41t0 82t-72 38q-49 1 -68 -39t0 -81t69 -41zM436 1519q0 73 49 123t121 50t122 -50t50 -124q0 -72 -50 -121t-122 -49t-121 49t-49 122zM911 408v792h123v-792q0 -188 -123 -308t-303 -118q-180 0 -305 118q-123 121 -123 308v792h123v-792
q0 -136 89 -220t215 -84t215 84t89 220z" />
    <glyph glyph-name="Uhungarumlaut.sc" horiz-adv-x="1214" 
d="M526 1591h133l-127 -239h-129zM743 1591h148l-152 -239h-123zM911 408v792h123v-792q0 -188 -123 -308t-303 -118q-180 0 -305 118q-123 121 -123 308v792h123v-792q0 -136 89 -220t215 -84t215 84t89 220z" />
    <glyph glyph-name="Uogonek.sc" horiz-adv-x="1214" 
d="M911 408v792h123v-792q0 -172 -100 -285t-262 -135l-56 -142q-12 -28 -1 -60t46 -46t65 10t38 70l96 8q0 -72 -44 -124t-112 -59t-124 39t-62 104t14 95l52 101q-174 10 -289 127t-115 297v792h123v-792q0 -136 89 -220t215 -84t215 84t89 220z" />
    <glyph glyph-name="Wcircumflex.sc" horiz-adv-x="1626" 
d="M860 1040l244 -845l330 1005h131l-406 -1200h-115l-231 795l-231 -795h-115l-406 1200h132l329 -1005l244 845h94zM889 1591l170 -239h-123l-125 151l-123 -151h-123l170 239h154z" />
    <glyph glyph-name="Ycircumflex.sc" horiz-adv-x="1118" 
d="M637 1591l170 -239h-123l-125 151l-123 -151h-123l170 239h154zM623 0h-127v557l-451 643h148l366 -512l373 512h147l-456 -643v-557z" />
    <glyph glyph-name="Tcaron.sc" horiz-adv-x="1001" 
d="M561 0h-123v1077h-381v123h887v-123h-383v-1077zM252 1591h123l125 -149l123 149h122l-170 -239h-153z" />
    <glyph glyph-name="Tbar.sc" horiz-adv-x="999" 
d="M944 1077h-383v-372h232v-84h-232v-621h-123v621h-227v84h227v372h-381v123h887v-123z" />
    <glyph glyph-name="Zacute.sc" horiz-adv-x="1019" 
d="M535 1591h151l-158 -239h-122zM94 0v119l670 958h-645v123h796v-121l-671 -956h671v-123h-821z" />
    <glyph glyph-name="Zdotaccent.sc" horiz-adv-x="1019" 
d="M598 1501q0 -37 -28 -61t-66 -25q-38 1 -64 25t-26 62t26 63q27 25 65 25q37 0 65 -26t28 -63zM94 0v119l670 958h-645v123h796v-121l-671 -956h671v-123h-821z" />
    <glyph glyph-name="Wgrave.sc" horiz-adv-x="1626" 
d="M860 1040l244 -845l330 1005h131l-406 -1200h-115l-231 795l-231 -795h-115l-406 1200h132l329 -1005l244 845h94zM735 1591l129 -239h-125l-155 239h151z" />
    <glyph glyph-name="Wacute.sc" horiz-adv-x="1626" 
d="M1434 1200h131l-406 -1200h-115l-231 795l-231 -795h-115l-406 1200h132l329 -1005l244 845h94l244 -845zM895 1591h152l-158 -239h-123z" />
    <glyph glyph-name="Wdieresis.sc" horiz-adv-x="1626" 
d="M1434 1200h131l-406 -1200h-115l-231 795l-231 -795h-115l-406 1200h132l329 -1005l244 845h94l244 -845zM872 1500q0 36 27 61t66 25t65 -26q26 -24 27 -61q0 -37 -27 -61q-28 -24 -66 -25q-38 0 -65 25q-27 26 -27 62zM750 1499q0 -37 -27 -61t-64 -25q-55 -4 -79 41
t0 90t79 41q37 -1 64 -25t27 -61z" />
    <glyph glyph-name="Aringacute.sc" horiz-adv-x="1161" 
d="M186 0h-131l461 1200h131l459 -1200h-131l-121 313h-547zM811 428l-229 602l-232 -602h461zM636 1576q-23 23 -64 24t-62 -40q-20 -42 0 -84t62 -40t66 24q22 22 21 58q0 35 -23 58zM576 1348q-70 0 -119 49t-49 113t31 108q32 45 83 61l115 211h149l-141 -215
q106 -49 100 -176q-4 -67 -52 -109q-47 -42 -117 -42z" />
    <glyph glyph-name="AEacute.sc" horiz-adv-x="1685" 
d="M1550 1200v-123h-565v-428h494v-123h-494v-403h584v-123h-707v313h-477l-199 -313h-145l758 1200h751zM862 428v637l-405 -637h405zM979 1591h149l-155 -239h-125z" />
    <glyph glyph-name="Oslashacute.sc" horiz-adv-x="1431" 
d="M111 611q0 245 174 423q173 178 415 178t410 -147l147 154l68 -68l-149 -156q143 -167 143 -409t-175 -423t-431 -181q-217 0 -387 141l-140 -143l-67 67l139 143q-147 176 -147 421zM698 1092q-188 0 -326 -144t-139 -338q0 -192 111 -331l680 698q-138 115 -326 115z
M730 104q190 0 328 144t138 336t-106 325l-678 -698q128 -107 318 -107zM758 1591h151l-155 -239h-125z" />
    <glyph glyph-name="Ibreve.sc" horiz-adv-x="507" 
d="M315 1200v-1200h-122v1200h122zM37 1583h96q8 -51 40 -84t83 -33t83 33t36 84h98q0 -97 -59 -157q-60 -60 -162 -60t-159 60q-56 61 -56 157z" />
    <glyph glyph-name="Eng.sc" horiz-adv-x="1232" 
d="M918 -63v65l-603 983v-985h-122v1200h129l596 -989v989h122v-1198q0 -193 -65 -309q-76 -139 -295 -139q-45 0 -111 16l11 121q35 -12 98 -13q120 -2 180 68t60 191z" />
    <glyph glyph-name="Ygrave.sc" horiz-adv-x="1118" 
d="M657 1321h-125l-155 240h149zM623 0h-127v557l-451 643h148l366 -512l373 512h147l-456 -643v-557z" />
    <glyph glyph-name="Gcommaaccent.sc" horiz-adv-x="1355" 
d="M643 -430l-88 24q100 133 76 297h137q2 -215 -125 -321zM788 477v113h486q0 -297 -146 -453q-146 -155 -407 -155q-260 0 -434 180t-174 437t174 435t428 178q219 0 387 -141l-88 -86q-126 107 -314 107t-326 -144t-138 -351q0 -206 137 -349q137 -144 333 -144t309 100
q112 100 122 273h-349z" />
    <glyph glyph-name="Kcommaaccent.sc" horiz-adv-x="1017" 
d="M530 -430l-88 24q100 133 76 297h137q2 -215 -125 -321zM315 0h-122v1200h122v-573l443 573h145l-465 -600l568 -600h-166l-525 555v-555z" />
    <glyph glyph-name="Lcommaaccent.sc" horiz-adv-x="878" 
d="M446 -430l-88 24q100 133 76 297h137q2 -215 -125 -321zM821 0h-628v1200h122v-1079h506v-121z" />
    <glyph glyph-name="Ncommaaccent.sc" horiz-adv-x="1232" 
d="M580 -430l-88 24q100 133 75 297h138q2 -215 -125 -321zM918 1200h122v-1200h-125l-600 987v-987h-122v1200h129l596 -981v981z" />
    <glyph glyph-name="Rcommaaccent.sc" horiz-adv-x="1101" 
d="M512 -430l-88 24q100 133 76 297h137q2 -215 -125 -321zM317 465v-465h-124v1200h448q172 0 254 -106t82 -264t-81 -258q-81 -99 -237 -107l330 -465h-151l-328 465h-193zM639 1079h-322v-493h314q111 0 167 68t56 178t-54 179q-55 68 -161 68z" />
    <glyph glyph-name="Tcommaaccent.sc" horiz-adv-x="999" 
d="M455 -430l-88 24q100 133 75 297h138q2 -215 -125 -321zM438 1077h-381v123h885v-123h-381v-1077h-123v1077z" />
    <glyph glyph-name="Scommaaccent.sc" horiz-adv-x="1032" 
d="M469 -430l-88 24q100 133 76 297h137q2 -215 -125 -321zM119 344h123q0 -96 76 -172t193 -76q118 0 195 58t91 143q29 190 -224 248l-159 37q-285 63 -285 303q0 143 113 235q114 92 272 92t264 -94t107 -250h-123q0 98 -72 160t-178 64q-106 0 -183 -58t-77 -149
q0 -145 188 -187l164 -36q168 -40 253 -136t61 -250q-20 -117 -130 -206q-102 -88 -273 -88t-286 110q-110 113 -110 252z" />
    <glyph glyph-name="Idotaccent.sc" horiz-adv-x="507" 
d="M315 1200v-1200h-122v1200h122zM254 1415q-38 1 -66 25q-26 24 -26 61q-4 53 44 76t96 0t44 -76q0 -37 -27 -61t-65 -25z" />
    <glyph glyph-name="zero.numr" horiz-adv-x="747" 
d="M86 960q0 408 287 408q155 0 221 -104t66 -304t-68 -304q-66 -103 -219 -103q-287 -1 -287 407zM186 959q0 -308 186 -308t187 308q0 308 -186 309q-187 -1 -187 -309z" />
    <glyph glyph-name="one.numr" horiz-adv-x="411" 
d="M295 559h-109v666l-131 -47v104l240 88v-811z" />
    <glyph glyph-name="two.numr" horiz-adv-x="661" 
d="M573 559h-493v49l326 393q59 75 59 133t-41 94t-100 36q-58 0 -102 -36t-52 -91l-100 24q14 95 84 153t172 60t175 -68t73 -171q0 -100 -89 -207l-219 -260h307v-109z" />
    <glyph glyph-name="three.numr" horiz-adv-x="667" 
d="M319 936h-90v104h90q43 0 75 27t39 73t-23 82q-31 36 -86 42q-90 10 -144 -72l-78 63q34 57 96 91t147 28t149 -71q63 -66 61 -161t-96 -151q59 -19 97 -83t32 -132q-10 -104 -97 -170t-181 -58t-160 52q-64 45 -95 115q33 11 90 51q43 -94 156 -109q68 -4 121 35
q53 40 55 98t-45 102t-113 44z" />
    <glyph glyph-name="four.numr" horiz-adv-x="741" 
d="M682 827v-102h-117v-166h-108v166h-418l444 637h82v-535h117zM457 827v338l-232 -338h232z" />
    <glyph glyph-name="five.numr" horiz-adv-x="696" 
d="M343 655q71 0 125 46t54 114t-48 108t-114 40q-66 -1 -116 -17t-131 -57l-23 24l80 449h408v-105h-318l-41 -219q68 33 141 33q119 1 194 -67t75 -189t-83 -195t-218 -73q-80 0 -152 50t-115 132l89 64q23 -59 72 -99q50 -39 121 -39z" />
    <glyph glyph-name="six.numr" horiz-adv-x="692" 
d="M259 933q-48 -44 -49 -110q-1 -65 43 -111t107 -49t108 39q44 43 48 109t-38 113t-106 50t-113 -41zM385 1274q-90 0 -141 -85t-35 -210q31 102 166 102q106 0 179 -83q73 -84 70 -192t-81 -182q-79 -74 -187 -71q-108 4 -178 78t-80 196q-21 166 28 355q22 84 88 139
q67 55 173 55q163 -8 229 -153l-96 -41q-45 92 -135 92z" />
    <glyph glyph-name="seven.numr" horiz-adv-x="651" 
d="M80 1253v109h553l-440 -803h-127l383 694h-369z" />
    <glyph glyph-name="eight.numr" horiz-adv-x="704" 
d="M139 1166q1 86 61 146t151 60t153 -59t63 -145q0 -86 -61 -142q123 -78 123 -217q0 -109 -79 -185t-197 -75q-117 0 -197 76t-80 184q0 141 123 217q-60 53 -60 140zM352 967q-72 0 -120 -47q-48 -46 -48 -110t47 -110q49 -45 121 -45t120 45q48 44 48 108t-48 112
t-120 47zM246 1176q0 -54 30 -86t78 -29q66 -3 96 67t-22 107q-50 45 -116 20t-66 -79z" />
    <glyph glyph-name="nine.numr" horiz-adv-x="692" 
d="M496 1100q0 66 -44 112t-108 48q-64 4 -107 -39q-45 -43 -49 -109t38 -113t107 -50t113 41t50 110zM320 649q90 0 141 85t35 210q-31 -102 -166 -102q-106 0 -180 82q-72 84 -69 192t81 184q78 74 186 70t178 -78t80 -196q21 -166 -27 -355q-22 -82 -89 -138t-173 -56
q-163 8 -229 153l96 41q46 -92 136 -92z" />
    <glyph glyph-name="zero.dnom" horiz-adv-x="745" 
d="M86 401q0 408 287 408q155 0 221 -104q66 -105 66 -305t-68 -303q-66 -103 -219 -103q-287 -1 -287 407zM186 400q0 -308 186 -308t187 308q0 308 -186 309q-187 -1 -187 -309z" />
    <glyph glyph-name="one.dnom" horiz-adv-x="413" 
d="M297 0h-109v666l-131 -48v105l240 88v-811z" />
    <glyph glyph-name="two.dnom" horiz-adv-x="659" 
d="M573 0h-493v49l326 393q59 76 59 133t-41 93t-100 37q-58 0 -102 -36t-52 -91l-100 24q14 96 84 154t172 59q102 2 175 -69t73 -171t-89 -206l-219 -260h307v-109z" />
    <glyph glyph-name="three.dnom" horiz-adv-x="667" 
d="M319 377h-90v104h90q43 0 75 27q32 26 39 72t-23 83q-31 36 -86 42q-90 10 -144 -72l-78 63q34 57 96 90t147 28t149 -71q64 -67 61 -161q-2 -94 -96 -150q59 -20 97 -84t32 -131q-10 -104 -97 -170q-87 -67 -181 -59t-160 53q-64 45 -95 115q9 4 27 14t38 21t25 16
q43 -94 156 -109q68 -4 121 35t55 97t-45 102t-113 45z" />
    <glyph glyph-name="four.dnom" horiz-adv-x="731" 
d="M674 268v-102h-117v-166h-108v166h-418l444 637h82v-535h117zM449 268v338l-232 -338h232z" />
    <glyph glyph-name="five.dnom" horiz-adv-x="698" 
d="M343 96q71 0 125 46t54 114t-48 108t-114 40t-116 -17q-50 -16 -131 -57l-23 24l80 449h408v-105h-318l-41 -219q68 33 141 33q119 0 194 -68t75 -188t-83 -195q-83 -74 -218 -73q-80 0 -152 50t-115 132l89 63q22 -59 72 -98t121 -39z" />
    <glyph glyph-name="six.dnom" horiz-adv-x="692" 
d="M259 374q-48 -44 -49 -110t43 -112t107 -48q63 -4 108 39q44 43 48 109t-38 113t-106 50t-113 -41zM385 715q-90 0 -141 -85t-35 -210q31 102 166 102q106 0 179 -83t70 -191t-81 -184q-79 -74 -187 -70t-178 78t-80 196q-21 169 28 355q22 82 88 138q67 56 173 56
q163 -8 229 -153l-96 -41q-45 92 -135 92z" />
    <glyph glyph-name="seven.dnom" horiz-adv-x="655" 
d="M78 694v109h553l-441 -803h-127l383 694h-368z" />
    <glyph glyph-name="eight.dnom" horiz-adv-x="704" 
d="M139 607q1 87 61 147t151 59q91 0 153 -58q62 -57 63 -145q0 -88 -61 -143q123 -78 123 -217q0 -106 -79 -183t-197 -77q-117 0 -197 74t-80 186q0 139 123 217q-60 53 -60 140zM184 250q0 -63 47 -109q49 -45 121 -45t120 45t48 109t-48 110q-48 47 -120 47t-120 -47
t-48 -110zM246 617q0 -54 30 -86t78 -29q66 -2 96 68t-22 106q-50 45 -116 20t-66 -79z" />
    <glyph glyph-name="nine.dnom" horiz-adv-x="692" 
d="M496 541q0 65 -44 111t-108 49t-107 -39q-45 -42 -49 -109q-4 -66 38 -113t107 -50t113 41t50 110zM320 90q90 0 141 85t35 210q-31 -102 -166 -102q-106 0 -180 82q-72 85 -69 193t81 182t186 71q108 -4 178 -78t80 -196q21 -165 -27 -355q-22 -84 -89 -139t-173 -55
q-163 8 -229 153l96 41q46 -92 136 -92z" />
    <glyph glyph-name="l.alt1" horiz-adv-x="550" 
d="M487 129h82v-129h-82q-334 0 -333 408v1067h137v-1067q0 -117 28 -187q39 -92 168 -92z" />
    <glyph glyph-name="a.alt1" horiz-adv-x="1105" 
d="M815 580q0 122 -79 192q-80 70 -232 70t-268 -123l-93 94q127 164 387 164q205 0 314 -101t108 -296v-580h-137v133q-63 -74 -172 -114t-201 -39q-162 0 -258 76t-96 212q0 135 101 214t305 79q125 0 321 -63v82zM441 113q97 0 208 47t164 133v82q-174 59 -319 59
q-264 0 -265 -166q-1 -70 57 -112t155 -43z" />
    <glyph glyph-name="y.alt1" horiz-adv-x="1040" 
d="M141 -475q-47 0 -92 12v121q72 -10 88 -10q99 0 153 54t109 183l45 115l-397 956h146l325 -786l328 786h145l-465 -1122q-76 -168 -160 -238t-225 -71z" />
    <glyph glyph-name="lslash.alt1" horiz-adv-x="569" 
d="M504 129h82v-129h-82q-334 0 -334 408v268l-141 -90v121l141 90v678h137v-590l172 110v-121l-172 -110v-356q0 -117 29 -187q39 -92 168 -92z" />
    <glyph glyph-name="lacute.alt1" horiz-adv-x="550" 
d="M487 129h82v-129h-82q-334 0 -333 408v1067h137v-1067q0 -117 28 -187q39 -92 168 -92zM301 1866h168l-172 -275h-139z" />
    <glyph glyph-name="lcommaaccent.alt1" horiz-adv-x="550" 
d="M379 -506l-98 27q119 166 88 348h155q2 -254 -145 -375zM487 129h82v-129h-82q-334 0 -333 408v1067h137v-1067q0 -117 28 -187q39 -92 168 -92z" />
    <glyph glyph-name="lcaron.alt1" horiz-adv-x="550" 
d="M487 129h82v-129h-82q-334 0 -333 408v1067h137v-1067q0 -117 28 -187q39 -92 168 -92zM483 991l-98 27q121 172 119 409h155q-13 -145 -63 -264t-113 -172z" />
    <glyph glyph-name="aacute.alt1" horiz-adv-x="1105" 
d="M618 1411h168l-172 -274h-139zM815 580q0 122 -79 192q-80 70 -232 70t-268 -123l-93 94q127 164 387 164q205 0 314 -101t108 -296v-580h-137v133q-63 -74 -172 -114t-201 -39q-162 0 -258 76t-96 212q0 135 101 214t305 79q125 0 321 -63v82zM441 113q97 0 208 47
t164 133v82q-174 59 -319 59q-264 0 -265 -166q-1 -70 57 -112t155 -43z" />
    <glyph glyph-name="agrave.alt1" horiz-adv-x="1105" 
d="M623 1137h-140l-172 274h168zM815 580q0 122 -79 192q-80 70 -232 70t-268 -123l-93 94q127 164 387 164q205 0 314 -101t108 -296v-580h-137v133q-63 -74 -172 -114t-201 -39q-162 0 -258 76t-96 212q0 135 101 214t305 79q125 0 321 -63v82zM441 113q97 0 208 47
t164 133v82q-174 59 -319 59q-264 0 -265 -166q-1 -70 57 -112t155 -43z" />
    <glyph glyph-name="acircumflex.alt1" horiz-adv-x="1105" 
d="M821 1137h-139l-145 176l-144 -176h-139l195 274h178zM815 580q0 122 -79 192q-80 70 -232 70t-268 -123l-93 94q127 164 387 164q205 0 314 -101t108 -296v-580h-137v133q-63 -74 -172 -114t-201 -39q-162 0 -258 76t-96 212q0 135 101 214t305 79q125 0 321 -63v82z
M441 113q97 0 208 47t164 133v82q-174 59 -319 59q-264 0 -265 -166q-1 -70 57 -112t155 -43z" />
    <glyph glyph-name="adieresis.alt1" horiz-adv-x="1105" 
d="M815 580q0 122 -79 192q-80 70 -232 70t-268 -123l-93 94q127 164 387 164q205 0 314 -101t108 -296v-580h-137v133q-63 -74 -172 -114t-201 -39q-162 0 -258 76t-96 212q0 135 101 214t305 79q125 0 321 -63v82zM441 113q97 0 208 47t164 133v82q-174 59 -319 59
q-264 0 -265 -166q-1 -70 57 -112t155 -43zM610 1313q0 43 31 71t74 27q43 0 73 -28q30 -29 31 -71q0 -42 -31 -70q-32 -28 -74 -28t-73 28t-31 71zM248 1313q0 43 31 71t73 27q42 0 74 -28q31 -29 31 -71t-31 -70q-32 -28 -74 -28t-73 28t-31 71z" />
    <glyph glyph-name="atilde.alt1" horiz-adv-x="1103" 
d="M461 1282q-27 0 -47 -25t-23 -67h-104q6 109 54 165q49 56 109 56t115 -43t82 -43t47 23t23 63h104q-6 -109 -54 -162q-49 -53 -109 -53t-115 43t-82 43zM813 580q0 122 -79 192q-80 70 -232 70t-269 -123l-92 94q127 164 387 164q205 0 314 -101t108 -296v-580h-137v133
q-63 -74 -172 -114t-201 -39q-162 0 -258 76t-96 212q0 135 101 214t305 79q125 0 321 -63v82zM439 113q97 0 208 47t164 133v82q-174 59 -319 59q-264 0 -265 -166q-1 -70 57 -112t155 -43z" />
    <glyph glyph-name="aring.alt1" horiz-adv-x="1105" 
d="M539 1243q39 0 65 27t27 65q4 55 -44 79q-49 24 -97 0t-46 -72t29 -74t66 -25zM538 1534q83 0 141 -58t58 -142t-58 -140q-58 -57 -141 -57t-141 56q-57 56 -57 140t57 143q58 58 141 58zM815 580q0 122 -79 192q-80 70 -232 70t-268 -123l-93 94q127 164 387 164
q205 0 314 -101t108 -296v-580h-137v133q-63 -74 -172 -114t-201 -39q-162 0 -258 76t-96 212q0 135 101 214t305 79q125 0 321 -63v82zM441 113q97 0 208 47t164 133v82q-174 59 -319 59q-264 0 -265 -166q-1 -70 57 -112t155 -43z" />
    <glyph glyph-name="amacron.alt1" horiz-adv-x="1103" 
d="M291 1241v129h487v-129h-487zM813 580q0 122 -79 192q-80 70 -232 70t-269 -123l-92 94q127 164 387 164q205 0 314 -101t108 -296v-580h-137v133q-63 -74 -172 -114t-201 -39q-162 0 -258 76t-96 212q0 135 101 214t305 79q125 0 321 -63v82zM439 113q97 0 208 47
t164 133v82q-174 59 -319 59q-264 0 -265 -166q-1 -70 57 -112t155 -43z" />
    <glyph glyph-name="abreve.alt1" horiz-adv-x="1105" 
d="M289 1411h106q10 -65 49 -103t102 -38q62 0 100 39t44 102h107q0 -115 -70 -185q-71 -70 -189 -71t-184 71t-65 185zM815 580q0 122 -79 192q-80 70 -232 70t-268 -123l-93 94q127 164 387 164q205 0 314 -101t108 -296v-580h-137v133q-63 -74 -172 -114t-201 -39
q-162 0 -258 76t-96 212q0 135 101 214t305 79q125 0 321 -63v82zM441 113q97 0 208 47t164 133v82q-174 59 -319 59q-264 0 -265 -166q-1 -70 57 -112t155 -43z" />
    <glyph glyph-name="aogonek.alt1" horiz-adv-x="1103" 
d="M439 113q97 0 208 47t164 133v82q-174 59 -319 59q-264 0 -265 -166q-1 -70 57 -112t155 -43zM813 580q0 122 -79 192q-80 70 -232 70t-269 -123l-92 94q127 164 387 164q205 0 314 -101t108 -296v-580h-47l-37 -182q-18 -92 52 -125q36 -14 70 2q57 26 59 90l108 8
q0 -43 -18 -88q-35 -77 -108 -109t-149 0t-105 104q-28 72 -3 161l41 139v133q-63 -74 -172 -114t-201 -39q-162 0 -258 76t-96 212q0 135 101 214t305 79q125 0 321 -63v82z" />
    <glyph glyph-name="yacute.alt1" horiz-adv-x="1040" 
d="M608 1411h168l-172 -274h-139zM141 -475q-47 0 -92 12v121q72 -10 88 -10q99 0 153 54t109 183l45 115l-397 956h146l325 -786l328 786h145l-465 -1122q-76 -168 -160 -238t-225 -71z" />
    <glyph glyph-name="ydieresis.alt1" horiz-adv-x="1040" 
d="M141 -475q-47 0 -92 12v121q72 -10 88 -10q99 0 153 54t109 183l45 115l-397 956h146l325 -786l328 786h145l-465 -1122q-76 -168 -160 -238t-225 -71zM610 1313q0 43 31 71t74 27q43 0 73 -28q30 -29 31 -71q0 -42 -31 -70q-32 -28 -74 -28t-73 28t-31 71zM248 1313
q0 43 31 71t73 27q42 0 74 -28q31 -29 31 -71t-31 -70q-32 -28 -74 -28t-73 28t-31 71z" />
    <glyph glyph-name="ae.alt1" horiz-adv-x="1855" 
d="M1767 481q0 -51 -2 -63h-811q18 -137 114 -220t230 -83q96 0 176 44t123 122q29 -8 70 -17l68 -14q-57 -127 -173 -199t-264 -71q-213 0 -346 139v-119h-137v133q-63 -74 -172 -114t-201 -39q-162 0 -258 76t-96 212q0 135 101 214t305 79q125 0 321 -63v82
q0 122 -79 192q-80 70 -232 70t-268 -123l-93 94q127 163 399 163t365 -188q139 188 391 189q205 0 337 -134t132 -362zM441 113q97 0 208 47t164 133v82q-174 59 -319 59q-264 0 -265 -166q-1 -70 57 -112t155 -43zM1296 842q-134 0 -228 -81t-114 -216h674
q-20 137 -109 217t-223 80z" />
    <glyph glyph-name="aeacute.alt1" horiz-adv-x="1853" 
d="M993 1411h168l-172 -274h-139zM1765 481q0 -51 -2 -63h-811q18 -137 114 -220t230 -83q96 0 175 44t124 122q29 -8 70 -17l68 -14q-57 -127 -173 -199t-264 -71q-213 0 -346 139v-119h-137v133q-63 -74 -172 -114t-201 -39q-162 0 -258 76t-96 212q0 135 101 214t305 79
q125 0 321 -63v82q0 122 -79 192q-80 70 -232 70t-269 -123l-92 94q127 163 399 163t365 -188q139 188 391 189q207 0 338 -134t131 -362zM439 113q97 0 208 47t164 133v82q-174 59 -319 59q-264 0 -265 -166q-1 -70 57 -112t155 -43zM1294 842q-134 0 -228 -81t-114 -216
h674q-20 137 -109 217t-223 80z" />
    <glyph glyph-name="ycircumflex.alt1" horiz-adv-x="1040" 
d="M807 1137h-139l-146 176l-143 -176h-139l194 274h178zM141 -475q-47 0 -92 12v121q72 -10 88 -10q99 0 153 54t109 183l45 115l-397 956h146l325 -786l328 786h145l-465 -1122q-76 -168 -160 -238t-225 -71z" />
    <glyph glyph-name="ldot.alt1" horiz-adv-x="608" 
d="M403 539q0 45 33 75t80 31q47 0 80 -31q33 -32 33 -76t-33 -75t-80 -31t-80 31t-33 76zM487 129h82v-129h-82q-334 0 -333 408v1067h137v-1067q0 -117 28 -187q39 -92 168 -92z" />
    <glyph glyph-name="t.alt1" horiz-adv-x="673" 
d="M571 129h41v-129h-41q-180 0 -257 84t-76 266v484h-172v122h172v256l137 39v-295h203v-122h-203v-484q-1 -111 35 -166t161 -55z" />
    <glyph glyph-name="tcaron.alt1" horiz-adv-x="673" 
d="M612 0h-41q-180 0 -257 84t-76 266v484h-172v122h172v256l137 39v-295h203v-122h-203v-484q-2 -111 35 -166t161 -55h41v-129zM543 1073l-99 27q117 162 88 327h156q5 -233 -145 -354z" />
    <glyph glyph-name="tbar.alt1" horiz-adv-x="677" 
d="M575 129h41v-129h-41q-180 0 -257 84t-76 266v133h-150v95h150v256h-172v122h172v256l137 39v-295h203v-122h-203v-256h166v-95h-166v-133q-1 -111 35 -166t161 -55z" />
    <glyph glyph-name="tcommaaccent.alt1" horiz-adv-x="673" 
d="M444 -506l-98 27q119 166 88 348h156q1 -254 -146 -375zM571 129h41v-129h-41q-180 0 -257 84t-76 266v484h-172v122h172v256l137 39v-295h203v-122h-203v-484q-1 -111 35 -166t161 -55z" />
    <glyph glyph-name="T.sc.alt1" horiz-adv-x="999" 
d="M438 1077h-381v123h885v-123h-381v-1077h-123v1077z" />
    <glyph glyph-name="Tcaron.sc.alt1" horiz-adv-x="1001" 
d="M561 0h-123v1077h-381v123h887v-123h-383v-1077zM252 1591h123l125 -149l123 149h122l-170 -239h-153z" />
    <glyph glyph-name="Tbar.sc.alt1" horiz-adv-x="999" 
d="M944 1077h-383v-372h232v-84h-232v-621h-123v621h-227v84h227v372h-381v123h887v-123z" />
    <glyph glyph-name="Tcommaaccent.sc.alt1" horiz-adv-x="999" 
d="M455 -430l-88 24q100 133 75 297h138q2 -215 -125 -321zM438 1077h-381v123h885v-123h-381v-1077h-123v1077z" />
    <glyph glyph-name="aringacute.alt1" horiz-adv-x="1105" 
d="M815 580q0 122 -79 192q-80 70 -232 70t-268 -123l-93 94q127 164 387 164q205 0 314 -101t108 -296v-580h-137v133q-63 -74 -172 -114t-201 -39q-162 0 -258 76t-96 212q0 135 101 214t305 79q125 0 321 -63v82zM441 113q97 0 208 47t164 133v82q-174 59 -319 59
q-264 0 -265 -166q-1 -70 57 -112t155 -43zM551 1243q39 0 65 27t27 65q4 55 -44 79t-96 0t-46 -72q3 -48 29 -74t65 -25zM750 1323q0 -72 -58 -129t-142 -57q-83 0 -140 56q-58 56 -58 131t36 126t95 72l129 247h168l-157 -249q57 -23 92 -74t35 -123z" />
    </font>
</defs>
</svg>
