<?xml version="1.0" standalone="no"?>
<!DOCTYPE svg PUBLIC "-//W3C//DTD SVG 1.1//EN" "http://www.w3.org/Graphics/SVG/1.1/DTD/svg11.dtd" >
<svg xmlns="http://www.w3.org/2000/svg">
<metadata>
Created by FontPrep 20130207 at Thu Apr 13 14:24:26 2017
 By Brian E Cook
Copyright (c) Olivier Gourvat - Mostardesign Studio, 2012. All rights reserved.
</metadata>
<defs>
<font id="d350c16c6f83e0b2b3af0db7c1d51141" horiz-adv-x='1024' >
  <font-face 
    font-family="SofiaPro-BlackItalic"
    font-weight="400"
    font-style="italic"
    font-stretch="normal"
    units-per-em="2048"
    panose-1="2 11 0 0 0 0 0 0 0 0"
    ascent="1536"
    descent="-512"
    x-height="954"
    cap-height="1411"
    bbox="-381 -618 2563.94 2331"
    underline-thickness="102"
    underline-position="-102"
    slope="-12"
    unicode-range="U+0020-FB04"
  />
<missing-glyph horiz-adv-x="1300" 
d="M618 180q48 0 84 56q37 56 -2 94q-38 43 -98 20t-72 -82q-8 -36 16 -62t72 -26zM845 1053q67 0 107 -42q40 -43 28 -105q-10 -62 -60 -101t-82 -47q-100 -27 -156 -79t-74 -147l-14 -77h127l12 77q10 76 121 103q94 27 163 99t89 182q20 108 -50 186q-71 78 -191 78
t-214 -82t-119 -215h127q15 76 67 123t119 47zM1137 0h-973l239 1362h973z" />
    <glyph glyph-name="f_f" unicode="ff" horiz-adv-x="1632" 
d="M1786 1456h123l-56 -309h-122q-61 0 -105 -41t-57 -117l-6 -35h200l-43 -239h-200l-125 -715h-326l125 715h-524l-125 -715h-326l125 715h-178l43 239h178l6 35q41 225 183 346t360 121h123l-55 -309h-123q-61 0 -105 -41t-57 -117l-6 -35h524l6 35q41 225 183 346
q143 121 360 121z" />
    <glyph glyph-name="fi" unicode="fi" horiz-adv-x="1490" 
d="M1233 1272q6 57 51 103q94 96 218 79q58 -8 89 -51q41 -39 37 -95t-33 -106t-84 -86q-55 -35 -114 -31q-80 -1 -129 55t-35 132zM936 1456h123l-55 -309h-123q-61 0 -105 -41t-57 -117l-6 -35h825l-168 -954h-326l125 715h-499l-125 -715h-326l125 715h-178l43 239h178
l6 35q41 225 183 346t360 121z" />
    <glyph glyph-name="fl" unicode="fl" horiz-adv-x="1458" 
d="M881 1147q-61 0 -105 -41t-57 -117l-6 -35h200l-43 -239h-200l-125 -715h-326l125 715h-178l43 239h178l6 35q41 225 183 346t360 121h657l-258 -1456h-325l202 1147h-331z" />
    <glyph glyph-name="f_f_i" unicode="ffi" horiz-adv-x="2340" 
d="M2083 1272q6 57 51 103q94 96 218 79q58 -8 89 -51q41 -39 37 -95t-33 -106t-84 -86q-55 -35 -114 -31q-80 -1 -129 55t-35 132zM936 1456h123l-55 -309h-123q-61 0 -105 -41t-57 -117l-6 -35h524l6 35q41 225 183 346t360 121h123l-56 -309h-122q-61 0 -105 -41
t-57 -117l-6 -35h825l-168 -954h-326l125 715h-499l-125 -715h-326l125 715h-524l-125 -715h-326l125 715h-178l43 239h178l6 35q41 225 183 346t360 121z" />
    <glyph glyph-name="f_f_l" unicode="ffl" horiz-adv-x="2308" 
d="M1731 1147q-61 0 -105 -41t-57 -117l-6 -35h200l-43 -239h-200l-125 -715h-326l125 715h-524l-125 -715h-326l125 715h-178l43 239h178l6 35q41 225 183 346t360 121h123l-55 -309h-123q-61 0 -105 -41t-57 -117l-6 -35h524l6 35q41 225 183 346t360 121h657l-258 -1456
h-325l202 1147h-331z" />
    <glyph glyph-name="f_f_j" unicode="ffj" horiz-adv-x="2295" 
d="M2040 1272q6 57 51 103q94 96 218 79q58 -8 89 -51q41 -39 37 -95t-33 -106t-84 -86q-55 -35 -114 -31q-80 -1 -129 55t-35 132zM1628 -485h-123l56 309h122q127 0 162 158l129 733h-454l-125 -715h-326l125 715h-524l-125 -715h-326l125 715h-178l43 239h178l6 35
q41 225 183 346t360 121h123l-55 -309h-123q-61 0 -105 -41t-57 -117l-6 -35h524l6 35q41 225 183 346t360 121h123l-56 -309h-122q-61 0 -105 -41t-57 -117l-6 -35h780l-172 -972q-41 -225 -183 -347q-143 -120 -360 -120z" />
    <glyph glyph-name="f_j" unicode="fj" horiz-adv-x="1445" 
d="M1190 1272q6 57 51 103q94 96 218 79q58 -8 89 -51q41 -39 37 -95t-33 -106t-84 -86q-55 -35 -114 -31q-80 -1 -129 55t-35 132zM778 -485h-123l56 309h123q127 0 161 158l129 733h-454l-125 -715h-326l125 715h-178l43 239h178l6 35q41 225 183 346t360 121h123
l-55 -309h-123q-61 0 -105 -41t-57 -117l-6 -35h780l-172 -972q-41 -225 -183 -347q-143 -120 -360 -120z" />
    <glyph glyph-name=".notdef" horiz-adv-x="1300" 
d="M618 180q48 0 84 56q37 56 -2 94q-38 43 -98 20t-72 -82q-8 -36 16 -62t72 -26zM845 1053q67 0 107 -42q40 -43 28 -105q-10 -62 -60 -101t-82 -47q-100 -27 -156 -79t-74 -147l-14 -77h127l12 77q10 76 121 103q94 27 163 99t89 182q20 108 -50 186q-71 78 -191 78
t-214 -82t-119 -215h127q15 76 67 123t119 47zM1137 0h-973l239 1362h973z" />
    <glyph glyph-name=".null" horiz-adv-x="0" 
 />
    <glyph glyph-name="nonmarkingreturn" horiz-adv-x="681" 
 />
    <glyph glyph-name="space" unicode=" " horiz-adv-x="487" 
 />
    <glyph glyph-name="exclam" unicode="!" horiz-adv-x="604" 
d="M374 358q81 0 129 -53t34 -133t-81 -135t-147 -55t-128 55t-34 135t80 133t147 53zM530 473h-268l129 938h342z" />
    <glyph glyph-name="quotedbl" unicode="&#x22;" horiz-adv-x="847" 
d="M983 1411l-149 -616h-183l68 616h264zM625 1411l-150 -616h-182l67 616h265z" />
    <glyph glyph-name="numbersign" unicode="#" horiz-adv-x="1538" 
d="M1341 1411h244l-174 -356h244l-92 -195h-244l-168 -338h244l-92 -194h-242l-168 -328h-242l164 328h-205l-166 -328h-241l168 328h-242l88 194h240l166 338h-238l94 195h240l170 356h248l-172 -356h202zM903 522l170 338h-205l-168 -338h203z" />
    <glyph glyph-name="dollar" unicode="$" horiz-adv-x="1196" 
d="M815 1120q-68 0 -114 -30t-56 -82q-12 -74 111 -115l153 -51q369 -125 314 -430q-33 -190 -181 -298t-335 -126l-43 -246h-158l43 244q-203 20 -301 136t-66 298h346q-6 -62 31 -100t116 -38t134 34t65 94v29q0 15 -30 40q-31 25 -90 47l-156 56q-346 98 -295 415
q31 172 170 291q138 114 328 137l41 224h157l-41 -226q178 -25 267 -139q88 -115 55 -295h-342q20 131 -123 131z" />
    <glyph glyph-name="percent" unicode="%" horiz-adv-x="1431" 
d="M1229 324q-25 28 -65 28t-72 -28t-40 -70q-8 -41 16 -69q24 -27 65 -27t73 28t41 68q6 41 -18 70zM1198 528q114 0 180 -80t44 -196q-22 -115 -114 -193q-92 -77 -207 -77q-113 0 -179 80t-44 194q22 115 111 193q96 79 209 79zM573 1194q-41 0 -73 -29t-39 -69
q-9 -40 15 -69q24 -28 65 -28t73 28t41 68q7 39 -17 69t-65 30zM607 1370q117 0 181 -82t42 -196t-113 -191q-96 -78 -210 -78q-113 0 -179 79t-43 194q23 114 115 194t207 80zM1210 1343h195l-913 -1343h-193z" />
    <glyph glyph-name="ampersand" unicode="&#x26;" horiz-adv-x="1452" 
d="M788 582q-127 0 -182 -93q-49 -80 -5 -136t136 -56q54 0 108 33q108 66 132 217l6 35h-195zM573 -20q-201 0 -301 112t-67 295q25 131 107 222q83 91 196 122q-84 17 -128 105t-24 206q29 156 166 265t330 120q270 18 401 -174l-284 -196q-31 55 -97 55t-110 -37t-53 -82
q-10 -13 6 -78q6 -25 41 -44t90 -19h184l27 145h301l-29 -155h176l-43 -240h-176l-29 -170q-27 -150 11 -186t178 26l-43 -241q-193 -70 -311 -35t-127 168q-63 -82 -179 -133t-213 -51z" />
    <glyph glyph-name="quotesingle" unicode="'" horiz-adv-x="489" 
d="M625 1411l-150 -616h-182l67 616h265z" />
    <glyph glyph-name="parenleft" unicode="(" horiz-adv-x="815" 
d="M225 463q70 403 320 684t534 280l-43 -237q-143 0 -321 -237t-223 -490q-31 -160 4 -328q36 -168 114 -272t172 -105l-41 -235q-287 -1 -439 269t-77 671z" />
    <glyph glyph-name="parenright" unicode=")" horiz-adv-x="815" 
d="M313 1427q283 0 433 -279q150 -278 81 -682q-71 -404 -317 -674t-530 -269l36 235q94 0 209 104t210 268q191 331 122 669q-33 172 -115 280q-80 111 -172 111z" />
    <glyph glyph-name="asterisk" unicode="*" horiz-adv-x="966" 
d="M649 922l-194 -226l-136 119l207 207l-247 74l98 190l229 -98l33 268h205l-68 -266l271 96l24 -190l-266 -70l131 -213l-180 -113z" />
    <glyph glyph-name="plus" unicode="+" horiz-adv-x="1030" 
d="M1038 592l-39 -221h-311l-53 -312h-221l53 312h-309l39 221h309l55 309h221l-55 -309h311z" />
    <glyph glyph-name="comma" unicode="," horiz-adv-x="563" 
d="M115 -252l-150 82q105 121 159 219t85 275h289q-64 -340 -383 -576z" />
    <glyph glyph-name="hyphen" unicode="-" horiz-adv-x="964" 
d="M956 635l-49 -277h-727l49 277h727z" />
    <glyph glyph-name="period" unicode="." horiz-adv-x="589" 
d="M368 358q81 0 129 -53q47 -53 33 -133t-80 -135t-147 -55q-80 0 -128 55t-34 135t80 133t147 53z" />
    <glyph glyph-name="slash" unicode="/" horiz-adv-x="1026" 
d="M297 0h-238l918 1411h237z" />
    <glyph glyph-name="zero" unicode="0" horiz-adv-x="1236" 
d="M985 1364q141 0 233 -53t128 -147q76 -205 16 -494q-50 -301 -194 -495t-427 -193q-512 0 -391 691t635 691zM795 297q176 0 240 375t-105 375q-90 1 -154 -101t-96 -276q-66 -373 115 -373z" />
    <glyph glyph-name="one" unicode="1" horiz-adv-x="811" 
d="M215 807l49 280l621 287l-242 -1374h-334l160 913z" />
    <glyph glyph-name="two" unicode="2" horiz-adv-x="1163" 
d="M754 1059q-74 0 -120 -45t-77 -137l-287 45q68 210 218 326t340 116q192 0 302 -117t76 -300q-33 -183 -196 -333l-355 -319h437l-50 -295h-944l33 184l666 643q133 129 61 201q-30 31 -104 31z" />
    <glyph glyph-name="three" unicode="3" horiz-adv-x="1124" 
d="M598 569h-137l45 252h137q94 1 129 61t38 93t-24 75t-94 42q-102 0 -198 -84l-164 157q80 99 206 153t259 46q178 -10 274 -121t68 -258q-15 -79 -75 -147t-149 -113q103 -41 151 -127t28 -197q-33 -193 -204 -305t-388 -112q-147 0 -252 65q-104 66 -137 182l239 185
q16 -60 66 -104t138 -44q87 0 145 43q59 43 71 109t-33 107q-45 42 -139 42z" />
    <glyph glyph-name="four" unicode="4" horiz-adv-x="1290" 
d="M803 580l78 448l-318 -448h240zM1135 580h159l-49 -269h-160l-53 -311h-332l54 311h-662l762 1032h414z" />
    <glyph glyph-name="five" unicode="5" horiz-adv-x="1236" 
d="M715 678q-190 0 -359 -143l-127 79l238 729h815l-53 -284h-557l-60 -182q123 74 260 73q182 0 286 -127t66 -342t-218 -358t-443 -143q-137 0 -258 70t-184 186l287 184q82 -131 199 -131t201 64t96 143q13 78 -39 130t-150 52z" />
    <glyph glyph-name="six" unicode="6" horiz-adv-x="1224" 
d="M686 272q74 0 133 47t69 111t-30 112q-41 48 -114 48t-130 -48t-67 -112q-11 -66 27 -112t112 -46zM870 862q123 0 244 -90q61 -45 89 -134t9 -198q-37 -203 -194 -331q-158 -127 -400 -127q-194 0 -306 127t-103 342q13 281 110 502q55 124 135 215q80 92 200 146
q122 54 272 49t242 -65t137 -196l-289 -127q-29 104 -163 104t-208 -123t-98 -243q29 57 115 103t208 46z" />
    <glyph glyph-name="seven" unicode="7" horiz-adv-x="1124" 
d="M797 1047h-531l53 296h1016l-774 -1343h-368z" />
    <glyph glyph-name="eight" unicode="8" horiz-adv-x="1251" 
d="M814 862q60 0 104 34q43 34 52 85t-22 87t-82 36h-12q-54 0 -100 -35t-55 -86t23 -86t92 -35zM903 1364q182 0 287 -104q109 -102 80 -263q-12 -77 -58 -147t-104 -94q84 -27 131 -130t27 -208q-33 -190 -210 -314q-178 -124 -398 -122q-220 0 -353 120q-131 123 -98 316
q20 117 93 210t175 128q-47 35 -68 102q-22 67 -12 139q29 159 177 263t331 104zM766 623q-82 0 -146 -50t-76 -124q-13 -74 34 -124q47 -51 133 -51t148 50q61 50 75 124t-30 124t-122 51h-16z" />
    <glyph glyph-name="nine" unicode="9" horiz-adv-x="1224" 
d="M780 1073q-74 0 -131 -47q-57 -48 -69 -112t28 -111t114 -47t130 47t68 113t-27 111q-39 46 -113 46zM596 483q-123 0 -244 90q-61 45 -89 135t-7 197q37 205 194 332t400 127q196 0 306 -127t101 -342q-14 -285 -110 -504q-188 -420 -604 -409q-152 6 -246 65t-135 197
l289 127q29 -105 157 -105t205 116q78 116 105 251q-23 -55 -111 -103t-211 -47z" />
    <glyph glyph-name="colon" unicode=":" horiz-adv-x="632" 
d="M501 977q81 0 127 -54q46 -53 32 -135t-80 -135t-147 -53t-127 53t-32 133t80 136t147 55zM390 358q80 0 126 -53q47 -53 33 -134t-79 -135q-64 -54 -144 -54t-128 55t-34 135t80 133t146 53z" />
    <glyph glyph-name="semicolon" unicode=";" horiz-adv-x="614" 
d="M141 -252l-149 82q106 121 160 219t84 275h288q-64 -340 -383 -576zM488 977q80 0 126 -54q47 -53 33 -135t-81 -135q-66 -53 -146 -53t-126 53t-32 133t80 136t146 55z" />
    <glyph glyph-name="less" unicode="&#x3c;" horiz-adv-x="1261" 
d="M1174 360l-44 -237l-952 393l45 250l1096 391l-43 -235l-774 -283z" />
    <glyph glyph-name="equal" unicode="=" horiz-adv-x="1212" 
d="M305 965h942l-39 -209h-942zM1137 338h-942l34 209h942z" />
    <glyph glyph-name="greater" unicode="&#x3e;" horiz-adv-x="1261" 
d="M1309 766l-45 -250l-1096 -393l43 237l774 279l-674 283l43 235z" />
    <glyph glyph-name="question" unicode="?" horiz-adv-x="1015" 
d="M490 358q80 0 130 -53q48 -53 34 -133t-82 -135q-66 -55 -146 -55t-128 55t-34 135t80 133t146 53zM757 1432q196 0 298 -109t67 -291q-24 -143 -112 -242t-219 -145q-63 -23 -93 -58q-29 -36 -45 -114h-293l5 25q27 133 69 215q57 102 211 164l82 32q76 27 87 91t-20 94
q-32 28 -90 28t-104 -38q-45 -38 -55 -93h-295q41 213 176 327t331 114z" />
    <glyph glyph-name="at" unicode="@" horiz-adv-x="1972" 
d="M1164 793q-94 0 -173 -67q-80 -67 -96 -160q-16 -92 40 -160t146 -68t150 33l-35 -201q-55 -27 -152 -27q-174 0 -276 121q-100 123 -70 299q35 180 178 302q144 122 320 122t276 -118t80 -285l-53 -287q-12 -57 17 -91t75 -34q121 0 195 154q59 127 86 264
q49 287 -131 475q-178 193 -471 193q-292 0 -528 -206q-236 -204 -288 -496t111 -495q164 -201 453 -200h125l-39 -199h-125q-373 0 -582 258t-141 634t371 638t671 262q242 6 437 -108t287 -318q92 -203 48 -427q-43 -224 -159 -404q-61 -97 -155 -155t-195 -58
q-141 0 -214 80t-44 243l47 256q16 96 -38 163t-148 67z" />
    <glyph glyph-name="A" unicode="A" horiz-adv-x="1366" 
d="M928 618l-56 465l-208 -465h264zM1389 0h-363l-63 324h-445l-174 -324h-367l768 1411h373z" />
    <glyph glyph-name="B" unicode="B" horiz-adv-x="1318" 
d="M821 586h-217l-51 -287h219q74 0 124 42t61 102t-24 102q-36 41 -112 41zM838 866q55 0 93 32t46 85q23 129 -90 129h-189l-45 -246h185zM776 0h-618l248 1411h577q197 -1 297 -105t70 -274q-16 -84 -78 -164q-61 -84 -170 -114q129 -23 181 -124t32 -212
q-31 -174 -165 -296t-374 -122z" />
    <glyph glyph-name="C" unicode="C" horiz-adv-x="1447" 
d="M846 -18q-297 0 -471 211t-122 511t302 513t545 213q184 0 327 -88t218 -236l-318 -199q-37 82 -114 130t-175 48q-158 1 -284 -111t-155 -270q-28 -158 61 -269q89 -110 245 -109q207 0 350 176l246 -197q-125 -151 -298 -237t-357 -86z" />
    <glyph glyph-name="D" unicode="D" horiz-adv-x="1443" 
d="M717 0h-559l248 1411h559q299 0 435 -200t81 -508q-55 -307 -262 -505t-502 -198zM911 1106h-215l-143 -801h215q139 0 242 115q100 118 129 286t-29 281q-58 119 -199 119z" />
    <glyph glyph-name="E" unicode="E" horiz-adv-x="1189" 
d="M1143 299l-51 -299h-934l248 1411h915l-51 -299h-574l-49 -270h504l-53 -293h-504l-43 -250h592z" />
    <glyph glyph-name="F" unicode="F" horiz-adv-x="1116" 
d="M598 547l-94 -547h-346l248 1411h907l-51 -299h-562l-49 -270h445l-54 -295h-444z" />
    <glyph glyph-name="G" unicode="G" horiz-adv-x="1548" 
d="M1063 1112q-170 0 -301 -119t-161 -289t59 -290q89 -121 247 -121q283 0 357 188h-396l50 275h768q-68 -389 -289 -582q-221 -192 -535 -192t-487 211q-174 211 -121 512q51 301 300 513t554 212q166 0 300 -66t208 -184l-293 -215q-90 147 -260 147z" />
    <glyph glyph-name="H" unicode="H" horiz-adv-x="1435" 
d="M649 854h430l99 557h348l-248 -1411h-348l94 549h-430l-94 -549h-342l248 1411h342z" />
    <glyph glyph-name="I" unicode="I" horiz-adv-x="657" 
d="M500 0h-342l248 1411h342z" />
    <glyph glyph-name="J" unicode="J" horiz-adv-x="661" 
d="M2 -150q125 0 156 164l248 1397h346l-246 -1397q-39 -223 -181 -354t-376 -131q-117 0 -221 39l86 307q63 -25 188 -25z" />
    <glyph glyph-name="K" unicode="K" horiz-adv-x="1296" 
d="M1456 1411l-653 -696l534 -715h-469l-295 430l-73 -430h-342l248 1411h342l-72 -403l352 403h428z" />
    <glyph glyph-name="L" unicode="L" horiz-adv-x="1060" 
d="M1063 299l-51 -299h-854l248 1411h346l-197 -1112h508z" />
    <glyph glyph-name="M" unicode="M" horiz-adv-x="1869" 
d="M786 1411l246 -858l543 858h289l-76 -1411h-352l47 760l-389 -596h-258l-183 596l-221 -760h-352l422 1411h284z" />
    <glyph glyph-name="N" unicode="N" horiz-adv-x="1388" 
d="M1001 651l136 760h342l-248 -1411h-299l-299 770l-133 -770h-342l248 1411h309z" />
    <glyph glyph-name="O" unicode="O" horiz-adv-x="1595" 
d="M1286 973q-88 113 -247 113t-285 -112q-126 -111 -155 -270q-28 -159 61 -269q89 -109 245 -109t286 110t159 269q29 158 -64 268zM1103 1430q298 0 470 -213q174 -209 121 -511t-299 -513t-546 -211t-474 211t-122 511t302 513t548 213z" />
    <glyph glyph-name="P" unicode="P" horiz-adv-x="1265" 
d="M922 1112h-226l-63 -346h225q104 -6 158 98t18 187q-30 65 -112 61zM989 1411q233 0 333 -138t66 -333q-32 -195 -183 -332t-384 -137h-241l-80 -471h-342l248 1411h583z" />
    <glyph glyph-name="Q" unicode="Q" horiz-adv-x="1609" 
d="M1052 1108q-159 0 -290 -117t-162 -286q-26 -133 30 -235q77 -143 275 -165l-69 170l260 139l90 -204q147 119 178 291q31 171 -61 289t-251 118zM854 -18q-305 0 -479 211t-121 512q51 301 300 513t554 212t479 -211t123 -514q-31 -170 -137 -324t-264 -260l90 -221
l-260 -142l-105 244q-84 -20 -180 -20z" />
    <glyph glyph-name="R" unicode="R" horiz-adv-x="1314" 
d="M922 1112h-226l-63 -346h225q104 -6 158 98t18 187q-30 65 -112 61zM989 1411q231 0 333 -137t67 -334q-27 -158 -135 -285t-283 -168l260 -487h-397l-224 471h-30l-80 -471h-342l248 1411h583z" />
    <glyph glyph-name="S" unicode="S" horiz-adv-x="1200" 
d="M885 439q0 15 -31 40t-90 47l-154 56q-102 31 -174 82t-96 108q-53 133 -27 225q33 193 195 313t377 120t327 -119q115 -117 78 -322h-342q20 131 -123 131q-67 0 -113 -30t-57 -82q-12 -76 111 -115l152 -51q373 -121 315 -430q-29 -150 -129 -250q-180 -180 -469 -180
q-239 0 -359 120t-83 318h346q-8 -63 29 -101q38 -37 117 -37t134 34t66 94v29z" />
    <glyph glyph-name="T" unicode="T" horiz-adv-x="1181" 
d="M420 0l196 1112h-364l51 299h1071l-51 -299h-365l-196 -1112h-342z" />
    <glyph glyph-name="U" unicode="U" horiz-adv-x="1396" 
d="M733 -18q-229 0 -366 147t-97 385l158 897h344l-158 -897q-16 -90 37 -150t137 -60t160 57q76 58 92 153l158 897h344l-158 -897q-42 -238 -232 -385t-419 -147z" />
    <glyph glyph-name="V" unicode="V" horiz-adv-x="1212" 
d="M756 0h-301l-183 1411h357l73 -860l373 860h361z" />
    <glyph glyph-name="W" unicode="W" horiz-adv-x="1808" 
d="M975 1208h285l51 -600l387 803h373l-728 -1411h-264l-57 686l-293 -686h-266l-227 1411h370l103 -803z" />
    <glyph glyph-name="X" unicode="X" horiz-adv-x="1386" 
d="M872 1020l310 391h409l-563 -661l356 -750h-403l-205 477l-370 -477h-402l617 750l-330 661h414z" />
    <glyph glyph-name="Y" unicode="Y" horiz-adv-x="1357" 
d="M961 629l-111 -629h-344l110 635l-413 776h407l224 -512l409 512h406z" />
    <glyph glyph-name="Z" unicode="Z" horiz-adv-x="1232" 
d="M84 0l43 252l758 862h-578l51 297h1026l-43 -252l-766 -860h613l-51 -299h-1053z" />
    <glyph glyph-name="bracketleft" unicode="[" horiz-adv-x="700" 
d="M553 -471h-498l332 1882h498l-39 -221h-234l-254 -1434h234z" />
    <glyph glyph-name="backslash" unicode="\" horiz-adv-x="1026" 
d="M307 1411h238l422 -1411h-238z" />
    <glyph glyph-name="bracketright" unicode="]" horiz-adv-x="700" 
d="M272 1190l39 221h498l-332 -1882h-493l34 227h234l254 1434h-234z" />
    <glyph glyph-name="underscore" unicode="_" horiz-adv-x="1560" 
d="M1427 -70l-36 -219h-1328l37 219h1327z" />
    <glyph glyph-name="grave" unicode="`" horiz-adv-x="1120" 
d="M743 1124l-219 357h303l127 -357h-211z" />
    <glyph glyph-name="a" unicode="a" horiz-adv-x="1245" 
d="M684 279q82 0 151 58t85 140q14 82 -33 140q-47 59 -129 59t-151 -58t-84 -141q-15 -82 32 -140t129 -58zM561 -18q-178 0 -295 137q-115 141 -76 361t203 360t350 139q79 0 145 -34t97 -93l19 102h325l-168 -954h-325l20 109q-117 -127 -295 -127z" />
    <glyph glyph-name="b" unicode="b" horiz-adv-x="1247" 
d="M693 279q81 0 150 58t85 140q14 82 -33 140q-47 59 -129 59t-151 -58t-84 -141q-15 -82 33 -140t129 -58zM895 979q174 0 289 -139q115 -138 76 -360t-202 -360t-349 -138q-92 0 -162 40t-94 115l-23 -137h-307l258 1456h326l-107 -590q121 113 295 113z" />
    <glyph glyph-name="c" unicode="c" horiz-adv-x="1077" 
d="M807 979q262 0 379 -236l-293 -159q-43 94 -152 94q-83 0 -151 -58t-83 -140t33 -141q48 -58 130 -58q42 1 98 27t68 22l260 -113q-199 -236 -463 -235q-221 0 -353 138t-92 360t220 360t399 139z" />
    <glyph glyph-name="d" unicode="d" horiz-adv-x="1245" 
d="M684 279q82 0 151 58t85 140q14 82 -33 140q-47 59 -129 59t-151 -58t-84 -141q-15 -82 32 -140t129 -58zM569 -18q-186 0 -303 137q-115 141 -76 361t203 360t338 139q174 0 256 -113l107 590h325l-258 -1456h-307l23 137q-51 -75 -135 -115t-173 -40z" />
    <glyph glyph-name="e" unicode="e" horiz-adv-x="1126" 
d="M520 569h381q-6 74 -55 108t-115 34q-51 4 -115 -30t-96 -112zM694 242q100 0 183 80l194 -162q-170 -178 -461 -178q-209 0 -336 140t-86 360t213 358t383 139q211 0 331 -134t79 -353q0 -10 -11 -54t-14 -51h-684q-3 -65 53 -105t156 -40z" />
    <glyph glyph-name="f" unicode="f" horiz-adv-x="782" 
d="M936 1456h123l-55 -309h-123q-131 0 -162 -158l-6 -35h200l-43 -239h-200l-125 -715h-326l125 715h-178l43 239h178l6 35q39 225 182 346q144 121 361 121z" />
    <glyph glyph-name="g" unicode="g" horiz-adv-x="1245" 
d="M544 -18q-202 0 -319 137q-115 141 -75 361t202 360q168 139 353 139q79 0 145 -34t96 -93l19 102h323l-147 -833q-51 -295 -220 -451t-436 -155q-165 0 -281 86t-149 227l295 111q12 -57 64 -93t125 -34q250 0 305 307q-98 -137 -300 -137zM644 279q81 0 150 58t85 140
q14 82 -33 140q-47 59 -129 59t-151 -58t-84 -141q-15 -82 33 -140t129 -58z" />
    <glyph glyph-name="h" unicode="h" horiz-adv-x="1208" 
d="M889 979q188 0 263 -121t34 -350l-88 -508h-326l86 498q12 74 -27 120t-105 46t-121 -42q-56 -42 -68 -120l-88 -502h-326l258 1456h326l-117 -651q35 80 131 127t168 47z" />
    <glyph glyph-name="i" unicode="i" horiz-adv-x="571" 
d="M311 1272q6 57 51 103q94 96 219 79q58 -8 89 -51q41 -39 37 -95t-33 -106t-84 -86q-55 -35 -115 -31q-80 -1 -129 55t-35 132zM291 954h325l-167 -954h-326z" />
    <glyph glyph-name="j" unicode="j" horiz-adv-x="571" 
d="M544 1456q81 0 128 -53t33 -131t-80 -132t-147 -54t-130 54q-49 56 -35 133t82 130t149 53zM-94 -485h-123l53 309h123q59 0 102 41t56 117l174 972h325l-167 -938l-5 -34q-31 -223 -175 -345t-363 -122z" />
    <glyph glyph-name="k" unicode="k" horiz-adv-x="1101" 
d="M1110 0h-389l-213 344l-59 -344h-326l258 1456h326l-132 -733l228 231h399l-428 -424z" />
    <glyph glyph-name="l" unicode="l" horiz-adv-x="571" 
d="M449 0h-326l258 1456h326z" />
    <glyph glyph-name="m" unicode="m" horiz-adv-x="1810" 
d="M707 664q-143 0 -170 -162l-88 -502h-326l168 954h325l-26 -149q37 80 116 127t158 47q266 0 305 -203q66 98 154 150t168 53q203 0 271 -115t26 -356l-88 -508h-326l86 498q12 82 -24 124q-37 42 -103 42q-143 0 -170 -162l-88 -502h-327l86 498q12 82 -25 124t-102 42z
" />
    <glyph glyph-name="n" unicode="n" horiz-adv-x="1208" 
d="M889 979q186 0 261 -121t36 -350l-88 -508h-326l86 498q12 82 -24 124q-37 42 -106 42t-124 -41t-67 -121l-88 -502h-326l168 954h325l-26 -149q35 80 131 127t168 47z" />
    <glyph glyph-name="o" unicode="o" horiz-adv-x="1153" 
d="M731 678q-83 0 -151 -58t-83 -141q-15 -82 33 -140t128 -58q81 0 150 58t85 140q14 83 -33 141t-129 58zM609 -18q-208 0 -335 139t-86 359t213 360q176 139 384 139t335 -139q127 -140 86 -362t-215 -359t-382 -137z" />
    <glyph glyph-name="p" unicode="p" horiz-adv-x="1247" 
d="M768 682q-80 0 -152 -61t-86 -143t35 -137q49 -56 130 -56t150 58t85 140q14 83 -34 141t-128 58zM885 979q186 0 300 -138q114 -139 75 -361t-202 -360t-341 -138t-254 106l-98 -559h-326l252 1425h307l-25 -137q51 78 137 120t175 42z" />
    <glyph glyph-name="q" unicode="q" horiz-adv-x="1245" 
d="M686 285q82 0 151 56t84 137q15 80 -33 142t-130 62t-151 -58t-84 -141q-15 -82 33 -140t130 -58zM558 -18q-175 0 -292 137q-115 139 -76 361t202 360t351 139q90 0 161 -42t95 -120l23 137h307l-252 -1425h-325l100 559q-119 -106 -294 -106z" />
    <glyph glyph-name="r" unicode="r" horiz-adv-x="878" 
d="M895 979q94 0 145 -27l-133 -307q-63 25 -154 25t-153 -80t-98 -277l-53 -313h-326l168 954h309l-43 -235q55 125 149 193t189 67z" />
    <glyph glyph-name="s" unicode="s" horiz-adv-x="985" 
d="M680 979q168 0 276 -81t74 -249h-305q16 86 -80 86q-80 0 -90 -53q-6 -39 59 -61l164 -48q82 -25 133 -65t65 -81q35 -103 15 -142q-29 -150 -172 -227q-143 -76 -308 -76t-278 90q-109 94 -81 247h305q-7 -39 17 -69t75 -29q96 0 110 64q4 21 -10 31t-65 24l-115 33
q-143 41 -211 125q-50 76 -30 191q20 114 152 202t300 88z" />
    <glyph glyph-name="t" unicode="t" horiz-adv-x="774" 
d="M442 1296h322l-59 -342h200l-43 -239h-200l-125 -715h-322l125 715h-174l43 239h174z" />
    <glyph glyph-name="u" unicode="u" horiz-adv-x="1208" 
d="M528 -18q-188 0 -263 120t-34 351l88 501h328l-88 -491q-12 -82 24 -124q35 -42 105 -42t124 38t67 118l90 501h325l-168 -954h-325l24 150q-37 -82 -128 -125t-169 -43z" />
    <glyph glyph-name="v" unicode="v" horiz-adv-x="1083" 
d="M1255 954l-575 -954h-279l-237 954h350l100 -542l289 542h352z" />
    <glyph glyph-name="w" unicode="w" horiz-adv-x="1554" 
d="M1122 428l238 526h348l-496 -954h-276l-59 571l-252 -571h-277l-170 954h348l49 -526l240 526h256z" />
    <glyph glyph-name="x" unicode="x" horiz-adv-x="1114" 
d="M379 0h-375l467 516l-240 438h375l90 -180l150 180h373l-394 -438l283 -516h-373l-133 262z" />
    <glyph glyph-name="y" unicode="y" horiz-adv-x="1060" 
d="M621 492l260 462h346l-842 -1425h-342l344 598l-227 827h356z" />
    <glyph glyph-name="z" unicode="z" horiz-adv-x="1048" 
d="M600 659h-377l53 295h844l-43 -237l-485 -422h409l-49 -295h-870l41 233z" />
    <glyph glyph-name="braceleft" unicode="{" horiz-adv-x="847" 
d="M846 1411h190l-39 -221h-163q-90 0 -146 -56t-70 -151l-51 -278q-18 -99 -90 -161t-137 -75q70 -11 115 -75t28 -158l-47 -279q-18 -95 18 -151t126 -56h163l-38 -221h-191q-178 0 -280 114t-64 300l53 315q12 57 -19 91q-32 34 -83 34l33 174q51 0 93 34t54 91l55 315
q31 186 173 300t317 114z" />
    <glyph glyph-name="bar" unicode="|" horiz-adv-x="436" 
d="M250 -258h-158l338 1907h158z" />
    <glyph glyph-name="braceright" unicode="}" horiz-adv-x="847" 
d="M166 -471h-186l34 221h164q90 0 146 56q55 56 69 151l49 279q18 98 90 161t140 72q-66 11 -115 73t-31 163l49 278q18 94 -17 151q-36 56 -126 56h-164l39 221h191q174 0 276 -116t70 -298l-58 -315q-12 -57 20 -91t83 -34l-31 -174q-51 0 -94 -34t-53 -91l-56 -315
q-31 -186 -173 -300t-316 -114z" />
    <glyph glyph-name="exclamdown" unicode="&#xa1;" horiz-adv-x="571" 
d="M456 979q81 0 128 -54q46 -53 32 -135t-80 -135t-148 -53q-81 0 -128 53t-33 133t81 136t148 55zM371 -469h-342l204 938h269z" />
    <glyph glyph-name="cent" unicode="&#xa2;" horiz-adv-x="1105" 
d="M745 678q-83 0 -151 -58t-83 -140t33 -141q48 -58 141 -58t169 88l246 -152q-180 -211 -410 -231l-43 -244h-158l46 250q-180 31 -279 162q-98 131 -64 322q34 190 180 324t335 169l45 256h157l-43 -250q219 -23 324 -232l-293 -159q-43 94 -152 94z" />
    <glyph glyph-name="sterling" unicode="&#xa3;" horiz-adv-x="1437" 
d="M1024 272q33 0 48 20t24 64l18 103h322l-33 -176q-19 -117 -119 -200t-213 -83h-993l47 272h229l58 334h-160l24 131h160l43 242q37 205 180 328q145 123 342 123q489 0 404 -494h-324q29 166 -116 166q-61 0 -107 -44t-57 -112l-37 -209h205l-25 -131h-205l-57 -334h342
z" />
    <glyph glyph-name="currency" unicode="&#xa4;" horiz-adv-x="1261" 
d="M828 1116q116 0 208 -61l170 147l117 -141l-174 -150q45 -109 25 -225t-101 -209l121 -147l-168 -142l-119 148q-111 -61 -231 -61t-207 61l-172 -148l-115 142l170 147q-38 92 -18 216t98 220l-121 148l166 141l123 -147q112 61 228 61zM724 537q66 0 121 46
q54 47 66 113t-25 112q-38 46 -105 46t-121 -46t-66 -113t26 -113t104 -45z" />
    <glyph glyph-name="yen" unicode="&#xa5;" horiz-adv-x="1568" 
d="M1350 1411h405l-651 -741h268l-24 -144h-297l-37 -202h297l-27 -142h-297l-29 -182h-348l29 182h-297l27 142h297l36 202h-296l24 144h270l-391 741h408l223 -512z" />
    <glyph glyph-name="brokenbar" unicode="&#xa6;" horiz-adv-x="444" 
d="M434 1649h158l-139 -777h-158zM96 -258l137 782h158l-137 -782h-158z" />
    <glyph glyph-name="section" unicode="&#xa7;" horiz-adv-x="1138" 
d="M522 -426q-174 0 -288 92t-107 271l281 79q12 -160 153 -159q68 0 123 46t68 113l77 418q14 78 -29 119q-44 41 -128 41q-39 0 -80 -4l51 278q51 10 100 11q190 0 298 -123t71 -322l-76 -418q-36 -198 -188 -320t-326 -122zM582 125q-188 0 -294 122t-73 322l74 418
q33 195 185 319t327 124q174 0 289 -92t108 -271l-280 -80q-6 82 -48 121t-106 39t-121 -46t-70 -114l-71 -418q-14 -79 28 -119t123 -40q39 0 80 4l-49 -279q-55 -10 -102 -10z" />
    <glyph glyph-name="dieresis" unicode="&#xa8;" 
d="M1006 1163q-64 -1 -104 43t-30 106t66 105t120 43t100 -43t26 -105t-62 -106t-116 -43zM620 1163q-64 -1 -104 43q-39 44 -29 106q11 62 65 105t118 43t102 -43q37 -43 27 -105q-11 -62 -63 -106t-116 -43z" />
    <glyph glyph-name="copyright" unicode="&#xa9;" horiz-adv-x="1622" 
d="M1088 1266q-232 0 -423 -165t-233 -400t91 -397q131 -162 361 -163q230 0 425 164q192 166 233 398q41 231 -91 397q-131 166 -363 166zM1115 1427q298 0 470 -212t120 -512t-299 -512q-247 -211 -548 -211t-469 210t-117 510q51 299 297 514q248 213 546 213zM920 334
q-150 0 -236 106q-82 106 -54 257t146 256t271 106q91 0 163 -44t109 -118l-152 -94q-61 94 -144 94t-143 -57q-60 -58 -76 -142t24 -141t127 -57t175 94l121 -92q-63 -76 -152 -122t-179 -46z" />
    <glyph glyph-name="ordfeminine" unicode="&#xaa;" horiz-adv-x="968" 
d="M893 406h-686l24 139h687zM668 1171q-76 0 -136 -50t-73 -129q-15 -79 27 -131t119 -52t139 51t76 131q15 80 -30 130q-46 50 -122 50zM547 633q-129 0 -213 98q-82 100 -55 260t145 258q121 99 250 99t196 -78l11 63h176l-121 -686h-176l10 68q-94 -82 -223 -82z" />
    <glyph glyph-name="guillemotleft" unicode="&#xab;" horiz-adv-x="1081" 
d="M764 53l-209 424l358 424h244l-358 -424l209 -424h-244zM365 53l-209 424l358 424h244l-359 -424l209 -424h-243z" />
    <glyph glyph-name="logicalnot" unicode="&#xac;" horiz-adv-x="1269" 
d="M936 502h-717l49 274h994l-103 -575h-276z" />
    <glyph glyph-name="registered" unicode="&#xae;" horiz-adv-x="1622" 
d="M1088 1266q-232 0 -423 -165t-233 -400t91 -397q131 -162 361 -163q230 0 425 164q192 166 233 398q41 231 -91 397q-131 166 -363 166zM1115 1427q298 0 470 -212t120 -512t-299 -512q-247 -211 -548 -211t-469 210t-117 510q51 299 297 514q248 213 546 213zM1092 1051
q110 0 162 -67t36 -157t-70 -152t-133 -87l130 -232h-207l-107 224h-14l-43 -224h-172l127 695h291zM1020 731q30 0 58 27q56 55 24 113q-14 26 -43 26h-115l-33 -166h109z" />
    <glyph glyph-name="overscore" unicode="&#xaf;" horiz-adv-x="1081" 
d="M1075 1364l-31 -178h-589l30 178h590z" />
    <glyph glyph-name="degree" unicode="&#xb0;" horiz-adv-x="753" 
d="M564 954q54 0 98 37q43 37 53 91t-21 92t-84 36q-53 0 -96 -37t-53 -91q-11 -54 19 -91t84 -37zM640 1378q124 0 195 -87t49 -209t-124 -209q-104 -87 -226 -87t-192 86q-70 88 -48 210t122 209t224 87z" />
    <glyph glyph-name="plusminus" unicode="&#xb1;" horiz-adv-x="1114" 
d="M1126 831l-39 -221h-313l-51 -291h-221l51 291h-313l39 221h313l51 287h221l-51 -287h313zM172 223h848l-41 -225h-848z" />
    <glyph glyph-name="twosuperior" unicode="&#xb2;" horiz-adv-x="702" 
d="M629 1606q-72 0 -99 -82l-196 28q88 258 346 258q110 0 178 -72t46 -184t-116 -194l-206 -180h260l-31 -187h-575l22 125l408 383q32 39 20 72t-57 33z" />
    <glyph glyph-name="threesuperior" unicode="&#xb3;" horiz-adv-x="690" 
d="M530 1335h-86l29 152h86q92 0 105 76q4 27 -16 45t-78 18q-60 0 -117 -51l-93 117q106 119 293 118q111 0 175 -68t47 -164q-18 -95 -142 -151q137 -51 119 -179t-124 -196t-223 -69q-233 0 -276 139l129 111q39 -76 156 -76t133 96q8 37 -26 60q-36 22 -91 22z" />
    <glyph glyph-name="acute" unicode="&#xb4;" horiz-adv-x="1120" 
d="M461 1124l254 357h303l-346 -357h-211z" />
    <glyph glyph-name="mu" unicode="&#xb5;" horiz-adv-x="1224" 
d="M673 291q69 0 123 41t70 121l88 501h328l-168 -954h-326l23 150q-37 -84 -128 -130t-153 -45q-62 0 -114 11l-68 -375h-280l239 1343h326l-88 -497q-13 -82 23 -124t105 -42z" />
    <glyph glyph-name="paragraph" unicode="&#xb6;" horiz-adv-x="1529" 
d="M1405 1190h-82l-240 -1348q-18 -112 -114 -196t-215 -84h-314l37 198h291q39 0 67 27t33 68l277 1556h313q119 0 187 -85t47 -196l-31 -176h-203l27 150q7 38 -17 62t-63 24zM793 1411h206l-266 -1505h-227l110 616q-174 8 -276 140t-70 310q32 179 184 309
q151 130 339 130z" />
    <glyph glyph-name="middot" unicode="&#xb7;" horiz-adv-x="587" 
d="M478 979q80 0 128 -53q49 -53 35 -133q-14 -81 -81 -135q-66 -54 -148 -54t-127 54t-31 134q14 81 79 134t145 53z" />
    <glyph glyph-name="cedilla" unicode="&#xb8;" horiz-adv-x="1093" 
d="M494 -442q-92 0 -145 69q-52 70 -27 195l141 -8q-23 -86 29 -104t86 24q30 33 20 90l-70 223h138l79 -170q14 -31 5 -104q-16 -91 -90 -153t-166 -62z" />
    <glyph glyph-name="onesuperior" unicode="&#xb9;" horiz-adv-x="497" 
d="M299 1458l31 178l395 187l-147 -830h-218l95 531z" />
    <glyph glyph-name="ordmasculine" unicode="&#xba;" horiz-adv-x="942" 
d="M885 406h-686l24 139h686zM611 809q77 0 140 52q62 52 76 132t-28 129q-43 49 -123 49t-139 -49t-73 -130t28 -132t119 -51zM580 633q-150 0 -236 100q-82 100 -54 259t146 257q121 99 271 99q151 0 239 -98t60 -256q-28 -159 -151 -260q-125 -101 -275 -101z" />
    <glyph glyph-name="guillemotright" unicode="&#xbb;" horiz-adv-x="1081" 
d="M485 901l205 -424l-356 -424h-244l356 424l-204 424h243zM885 901l205 -424l-357 -424h-244l357 424l-205 424h244z" />
    <glyph glyph-name="onequarter" unicode="&#xbc;" horiz-adv-x="1699" 
d="M1581 1366l-1167 -1384h-193l1170 1384h190zM252 1001l33 179l393 186l-148 -829h-217l95 530zM1688 369l-33 -179h-92l-31 -190h-215l31 190h-404l440 617h289l-78 -438h93zM1425 618l-172 -249h127z" />
    <glyph glyph-name="onehalf" unicode="&#xbd;" horiz-adv-x="1710" 
d="M1491 817q111 0 179 -72q68 -73 44 -185q-23 -112 -117 -193l-206 -181h262l-31 -186h-575l18 125l410 383q35 41 21 73t-58 31q-72 0 -99 -82l-194 29q84 258 346 258zM1579 1366l-1167 -1384h-193l1170 1384h190zM250 1001l33 179l393 186l-148 -829h-217l95 530z" />
    <glyph glyph-name="threequarters" unicode="&#xbe;" horiz-adv-x="1888" 
d="M492 879h-86l26 151h86q92 0 105 76q3 27 -15 45t-61 18q-82 0 -133 -51l-92 117q106 119 292 119q111 0 174 -70q66 -68 48 -162t-144 -151q139 -53 121 -180q-19 -127 -125 -196t-224 -69q-231 0 -274 140l129 110q39 -76 150 -76q59 0 96 27t44 67t-27 62t-90 23z
M410 -18l1169 1384h190l-1167 -1384h-192zM1862 807l-78 -438h92l-33 -179h-92l-31 -190h-215l31 190h-403l440 617h289zM1442 369h127l43 249z" />
    <glyph glyph-name="questiondown" unicode="&#xbf;" horiz-adv-x="997" 
d="M714 602q-80 0 -128 53q-47 53 -33 133t81 136q68 56 148 55t127 -55t33 -135t-81 -134t-147 -53zM502 -172q57 0 102 37t55 94h295q-37 -211 -173 -326t-333 -115q-196 0 -298 110q-102 108 -68 290q25 142 113 242t219 145q66 23 94 61t41 111h293l-4 -24
q-14 -97 -37 -157t-85 -122t-159 -100l-80 -33q-76 -31 -86 -93t22 -91t89 -29z" />
    <glyph glyph-name="Agrave" unicode="&#xc0;" horiz-adv-x="1366" 
d="M895 1534l-219 356h303l127 -356h-211zM928 618l-56 465l-208 -465h264zM1389 0h-363l-63 324h-445l-174 -324h-367l768 1411h373z" />
    <glyph glyph-name="Aacute" unicode="&#xc1;" horiz-adv-x="1366" 
d="M768 1534l254 356h303l-346 -356h-211zM664 618h264l-56 465zM963 324h-445l-174 -324h-367l768 1411h373l271 -1411h-363z" />
    <glyph glyph-name="Acircumflex" unicode="&#xc2;" horiz-adv-x="1366" 
d="M791 1550h-220l287 355h320l161 -355h-221l-131 183zM928 618l-56 465l-208 -465h264zM1389 0h-363l-63 324h-445l-174 -324h-367l768 1411h373z" />
    <glyph glyph-name="Atilde" unicode="&#xc3;" horiz-adv-x="1366" 
d="M1044 1548q-43 0 -93 42t-67 42t-39 -24t-32 -64h-154q31 129 102 198t152 68q49 0 95 -43q51 -41 69 -41t40 23t28 61h153q-28 -126 -100 -194t-154 -68zM928 618l-56 465l-208 -465h264zM1389 0h-363l-63 324h-445l-174 -324h-367l768 1411h373z" />
    <glyph glyph-name="Adieresis" unicode="&#xc4;" horiz-adv-x="1366" 
d="M1156 1573q-66 0 -104 43t-28 105q10 61 66 105t119 44q65 0 101 -43t26 -105t-63 -106q-52 -43 -117 -43zM770 1573q-66 0 -104 43t-27 105q10 61 64 105q55 44 119 44t102 -43t26 -105q-10 -62 -62 -106q-52 -43 -118 -43zM664 618h264l-56 465zM963 324h-445
l-174 -324h-367l768 1411h373l271 -1411h-363z" />
    <glyph glyph-name="Aring" unicode="&#xc5;" horiz-adv-x="1366" 
d="M972 1655q56 0 103 38t58 95q10 57 -22 98t-88 41t-102 -41q-47 -41 -57 -98t21 -95t87 -38zM952 1528q-110 0 -172 76t-43 185q17 111 107 187t200 76t170 -77q61 -77 43 -185t-107 -185q-88 -77 -198 -77zM664 618h264l-56 465zM963 324h-445l-174 -324h-367l768 1411
h373l271 -1411h-363z" />
    <glyph glyph-name="AE" unicode="&#xc6;" horiz-adv-x="1916" 
d="M356 0h-413l1138 1411h967l-51 -299h-576l-49 -270h504l-51 -289h-504l-45 -254h592l-51 -299h-936l-2 2l53 309h-328zM786 606h197l70 385z" />
    <glyph glyph-name="Ccedilla" unicode="&#xc7;" horiz-adv-x="1449" 
d="M1032 1085q-156 1 -284 -111t-157 -270q-28 -158 61 -269q89 -110 245 -109q97 0 191 47t161 129l244 -197q-119 -143 -288 -230t-345 -93l51 -105q12 -37 -1 -115t-86 -142q-74 -62 -166 -62t-144 69q-51 70 -27 195l142 -8q-25 -86 27 -104t84 21q32 38 22 93l-51 170
q-248 47 -380 247t-85 464q45 293 302 513t546 212q182 0 326 -88t218 -236l-319 -199q-37 82 -113 130t-174 48z" />
    <glyph glyph-name="Egrave" unicode="&#xc8;" horiz-adv-x="1189" 
d="M821 1534l-219 356h303l127 -356h-211zM1143 299l-51 -299h-934l248 1411h915l-51 -299h-574l-49 -270h504l-53 -293h-504l-43 -250h592z" />
    <glyph glyph-name="Eacute" unicode="&#xc9;" horiz-adv-x="1189" 
d="M698 1534l254 356h303l-346 -356h-211zM158 0l248 1411h915l-51 -299h-574l-49 -270h504l-53 -293h-504l-43 -250h592l-51 -299h-934z" />
    <glyph glyph-name="Ecircumflex" unicode="&#xca;" horiz-adv-x="1189" 
d="M692 1550h-219l287 355h319l162 -355h-221l-131 183zM1143 299l-51 -299h-934l248 1411h915l-51 -299h-574l-49 -270h504l-53 -293h-504l-43 -250h592z" />
    <glyph glyph-name="Edieresis" unicode="&#xcb;" horiz-adv-x="1189" 
d="M1110 1870q64 0 101 -43q36 -43 26 -105t-62 -106q-52 -43 -117 -43t-104 43q-38 43 -28 105q10 61 65 105t119 44zM724 1870q64 0 101 -43t27 -105t-62 -106q-52 -43 -118 -43t-104 43q-37 43 -27 105q10 61 64 105q55 44 119 44zM158 0l248 1411h915l-51 -299h-574
l-49 -270h504l-53 -293h-504l-43 -250h592l-51 -299h-934z" />
    <glyph glyph-name="Igrave" unicode="&#xcc;" horiz-adv-x="657" 
d="M561 1534l-219 356h303l127 -356h-211zM500 0h-342l248 1411h342z" />
    <glyph glyph-name="Iacute" unicode="&#xcd;" horiz-adv-x="657" 
d="M426 1534l254 356h303l-346 -356h-211zM406 1411h342l-248 -1411h-342z" />
    <glyph glyph-name="Icircumflex" unicode="&#xce;" horiz-adv-x="657" 
d="M436 1550h-219l287 355h319l162 -355h-221l-131 183zM500 0h-342l248 1411h342z" />
    <glyph glyph-name="Idieresis" unicode="&#xcf;" horiz-adv-x="657" 
d="M856 1870q64 0 101 -43q36 -43 26 -105t-62 -106q-52 -43 -117 -43t-104 43q-38 43 -28 105q10 61 65 105t119 44zM470 1870q64 0 101 -43t27 -105t-62 -106q-52 -43 -118 -43t-104 43q-37 43 -27 105q10 61 64 105q55 44 119 44zM406 1411h342l-248 -1411h-342z" />
    <glyph glyph-name="Eth" unicode="&#xd0;" horiz-adv-x="1478" 
d="M999 1411q299 0 435 -200t82 -508q-56 -307 -262 -505t-502 -198h-559l100 578h-193l37 206h193l110 627h559zM803 305q139 0 241 116q102 117 130 283t-30 284t-200 118h-215l-55 -322h217l-37 -206h-217l-49 -273h215z" />
    <glyph glyph-name="Ntilde" unicode="&#xd1;" horiz-adv-x="1388" 
d="M1055 1548q-41 0 -91 42t-70 42q-19 0 -40 -23q-20 -24 -31 -65h-153q31 129 101 198q71 69 153 68q47 0 94 -43q51 -41 69 -41t40 23t28 61h154q-27 -126 -100 -194t-154 -68zM1001 651l136 760h342l-248 -1411h-299l-299 770l-133 -770h-342l248 1411h309z" />
    <glyph glyph-name="Ograve" unicode="&#xd2;" horiz-adv-x="1595" 
d="M981 1534l-219 356h303l127 -356h-211zM1286 973q-88 113 -247 113t-285 -112q-126 -111 -155 -270q-28 -159 61 -269q89 -109 245 -109t286 110t159 269q29 158 -64 268zM1103 1430q298 0 470 -213q174 -209 121 -511t-299 -513t-546 -211t-474 211t-122 511t302 513
t548 213z" />
    <glyph glyph-name="Oacute" unicode="&#xd3;" horiz-adv-x="1595" 
d="M1026 1534l254 356h303l-346 -356h-211zM1286 973q-88 113 -247 113t-285 -112q-126 -111 -155 -270q-28 -159 61 -269q89 -109 245 -109t286 110t159 269q29 158 -64 268zM1103 1430q298 0 470 -213q174 -209 121 -511t-299 -513t-546 -211t-474 211t-122 511t302 513
t548 213z" />
    <glyph glyph-name="Ocircumflex" unicode="&#xd4;" horiz-adv-x="1595" 
d="M956 1550h-219l287 355h319l162 -355h-221l-129 183zM1286 973q-88 113 -247 113t-285 -112q-126 -111 -155 -270q-28 -159 61 -269q89 -109 245 -109t286 110t159 269q29 158 -64 268zM1103 1430q298 0 470 -213q174 -209 121 -511t-299 -513t-546 -211t-474 211
t-122 511t302 513t548 213z" />
    <glyph glyph-name="Otilde" unicode="&#xd5;" horiz-adv-x="1595" 
d="M1210 1548q-41 0 -91 42t-67 42t-40 -24t-33 -64h-154q31 129 102 198t152 68q47 0 97 -42t70 -42q19 0 39 23q19 23 26 61h153q-28 -126 -100 -194t-154 -68zM1286 973q-88 113 -247 113t-285 -112q-126 -111 -155 -270q-28 -159 61 -269q89 -109 245 -109t286 110
t159 269q29 158 -64 268zM1103 1430q298 0 470 -213q174 -209 121 -511t-299 -513t-546 -211t-474 211t-122 511t302 513t548 213z" />
    <glyph glyph-name="Odieresis" unicode="&#xd6;" horiz-adv-x="1595" 
d="M1322 1573q-66 0 -104 43t-28 105q10 61 66 105t120 44t100 -43t26 -105t-63 -106q-52 -43 -117 -43zM936 1573q-66 0 -104 43t-27 105q10 61 65 105q56 44 120 44t100 -43t26 -105t-62 -106q-52 -43 -118 -43zM1286 973q-88 113 -247 113t-285 -112q-126 -111 -155 -270
q-28 -159 61 -269q89 -109 245 -109t286 110t159 269q29 158 -64 268zM1103 1430q298 0 470 -213q174 -209 121 -511t-299 -513t-546 -211t-474 211t-122 511t302 513t548 213z" />
    <glyph glyph-name="multiply" unicode="&#xd7;" horiz-adv-x="995" 
d="M889 909l127 -155l-277 -236l193 -229l-184 -158l-193 231l-268 -225l-127 158l266 223l-188 232l186 157l190 -231z" />
    <glyph glyph-name="Oslash" unicode="&#xd8;" horiz-adv-x="1593" 
d="M545 705q-20 -119 24 -224l621 535q-84 72 -207 71q-159 0 -285 -112t-153 -270zM850 324q156 0 286 112t158 269q20 106 -28 213l-615 -531q84 -63 199 -63zM1028 1430q278 0 447 -166l188 166l80 -95l-191 -168q131 -205 86 -462q-53 -301 -301 -512t-546 -211
q-252 0 -422 157l-195 -170l-80 97l197 167q-141 203 -92 472q51 299 301 512t528 213z" />
    <glyph glyph-name="Ugrave" unicode="&#xd9;" horiz-adv-x="1396" 
d="M944 1534l-221 356h303l129 -356h-211zM733 -18q-229 0 -366 147t-97 385l158 897h344l-158 -897q-16 -90 37 -150t137 -60t160 57q76 58 92 153l158 897h344l-158 -897q-42 -238 -232 -385t-419 -147z" />
    <glyph glyph-name="Uacute" unicode="&#xda;" horiz-adv-x="1396" 
d="M877 1534l251 356h304l-345 -356h-210zM733 -18q-229 0 -366 147t-97 385l158 897h344l-158 -897q-16 -90 37 -150t137 -60t160 57q76 58 92 153l158 897h344l-158 -897q-42 -238 -232 -385t-419 -147z" />
    <glyph glyph-name="Ucircumflex" unicode="&#xdb;" horiz-adv-x="1396" 
d="M844 1550h-219l286 355h320l162 -355h-222l-129 183zM733 -18q-229 0 -366 147t-97 385l158 897h344l-158 -897q-16 -90 37 -150t137 -60t160 57q76 58 92 153l158 897h344l-158 -897q-42 -238 -232 -385t-419 -147z" />
    <glyph glyph-name="Udieresis" unicode="&#xdc;" horiz-adv-x="1396" 
d="M1211 1573q-65 0 -103 43t-29 105q11 61 67 105t120 44t100 -43q35 -43 25 -105q-11 -62 -63 -106q-52 -43 -117 -43zM825 1573q-65 0 -103 43t-28 105q10 61 66 105t120 44t100 -43t26 -105t-62 -106q-52 -43 -119 -43zM733 -18q-229 0 -366 147t-97 385l158 897h344
l-158 -897q-16 -90 37 -150t137 -60t160 57q76 58 92 153l158 897h344l-158 -897q-42 -238 -232 -385t-419 -147z" />
    <glyph glyph-name="Yacute" unicode="&#xdd;" horiz-adv-x="1357" 
d="M807 1534l254 356h303l-346 -356h-211zM961 629l-111 -629h-344l110 635l-413 776h407l224 -512l409 512h406z" />
    <glyph glyph-name="Thorn" unicode="&#xde;" horiz-adv-x="1177" 
d="M791 901h-134l-65 -377h133q73 0 127 50t68 138q14 87 -21 138t-108 51zM705 242h-164l-41 -242h-342l248 1411h342l-41 -227h163q199 0 310 -129q114 -125 76 -337t-194 -344t-357 -132z" />
    <glyph glyph-name="germandbls" unicode="&#xdf;" horiz-adv-x="1210" 
d="M723 285q68 0 125 51t70 119q16 27 -13 103q-10 30 -47 52t-94 23h-76l49 276h43q49 0 81 31t39 78t-20 79q-28 32 -96 31q-135 0 -172 -196l-163 -932h-326l164 932q86 496 540 495q201 0 306 -110q104 -111 79 -250q-39 -221 -186 -274q109 -27 163 -124t32 -223
q-37 -207 -179 -335q-137 -129 -374 -129q-93 0 -154 20l129 289q49 -6 80 -6z" />
    <glyph glyph-name="agrave" unicode="&#xe0;" horiz-adv-x="1245" 
d="M829 1124l-219 357h303l127 -357h-211zM684 279q82 0 151 58t85 140q14 82 -33 140q-47 59 -129 59t-151 -58t-84 -141q-15 -82 32 -140t129 -58zM561 -18q-178 0 -295 137q-115 141 -76 361t203 360t350 139q79 0 145 -34t97 -93l19 102h325l-168 -954h-325l20 109
q-117 -127 -295 -127z" />
    <glyph glyph-name="aacute" unicode="&#xe1;" horiz-adv-x="1245" 
d="M702 1124l254 357h304l-347 -357h-211zM684 279q82 0 151 58t85 140q14 82 -33 140q-47 59 -129 59t-151 -58t-84 -141q-15 -82 32 -140t129 -58zM561 -18q-178 0 -295 137q-115 141 -76 361t203 360t350 139q78 0 145 -34t97 -93l19 102h325l-168 -954h-325l20 109
q-117 -127 -295 -127z" />
    <glyph glyph-name="acircumflex" unicode="&#xe2;" horiz-adv-x="1245" 
d="M702 1141h-219l287 354h320l161 -354h-221l-133 182zM684 279q82 0 151 58t85 140q14 82 -33 140q-47 59 -129 59t-151 -58t-84 -141q-15 -82 32 -140t129 -58zM561 -18q-178 0 -295 137q-115 141 -76 361t203 360t350 139q79 0 145 -34t97 -93l19 102h325l-168 -954
h-325l20 109q-117 -127 -295 -127z" />
    <glyph glyph-name="atilde" unicode="&#xe3;" horiz-adv-x="1245" 
d="M790 1223q-17 0 -39 -24t-28 -64h-154q29 129 101 197t155 69q47 0 93 -42t66 -42q19 1 41 23t32 61h153q-30 -129 -102 -196t-152 -66q-43 0 -96 42t-70 42zM684 279q82 0 151 58t85 140q14 82 -33 140q-47 59 -129 59t-151 -58t-84 -141q-15 -82 32 -140t129 -58z
M561 -18q-178 0 -295 137q-115 141 -76 361t203 360t350 139q79 0 145 -34t97 -93l19 102h325l-168 -954h-325l20 109q-117 -127 -295 -127z" />
    <glyph glyph-name="adieresis" unicode="&#xe4;" horiz-adv-x="1245" 
d="M1116 1460q64 0 102 -43q36 -43 26 -105t-62 -106q-51 -44 -116 -43q-64 -1 -104 43t-30 106t65 105t119 43zM730 1460q64 0 101 -43t27 -105t-62 -106t-117 -43q-65 0 -104 43q-38 44 -28 106t64 105q55 43 119 43zM684 279q82 0 151 58t85 140q14 82 -33 140
q-47 59 -129 59t-151 -58t-84 -141q-15 -82 32 -140t129 -58zM561 -18q-178 0 -295 137q-115 141 -76 361t203 360t350 139q78 0 145 -34t97 -93l19 102h325l-168 -954h-325l20 109q-117 -127 -295 -127z" />
    <glyph glyph-name="aring" unicode="&#xe5;" horiz-adv-x="1245" 
d="M884 1245q56 0 102 38t56 95t-21 99q-32 41 -88 41q-57 0 -103 -41t-56 -99t22 -95q32 -38 88 -38zM861 1118q-110 0 -173 76q-62 78 -40 186t110 186q88 76 196 76t171 -76t41 -188t-108 -186t-197 -74zM684 279q82 0 151 58t85 140q14 82 -33 140q-47 59 -129 59
t-151 -58t-84 -141q-15 -82 32 -140t129 -58zM561 -18q-178 0 -295 137q-115 141 -76 361t203 360t350 139q78 0 145 -34t97 -93l19 102h325l-168 -954h-325l20 109q-117 -127 -295 -127z" />
    <glyph glyph-name="ae" unicode="&#xe6;" horiz-adv-x="2015" 
d="M1411 569h381q-6 74 -55 108t-115 34q-50 4 -114 -30t-97 -112zM684 279q82 0 151 58t85 140q14 82 -33 140q-47 59 -129 59t-151 -58t-84 -141q-15 -82 32 -140t129 -58zM1584 242q100 0 183 80l195 -162q-168 -178 -461 -178q-205 0 -321 122l-19 -104h-325l20 109
q-117 -127 -295 -127t-295 137q-115 141 -76 361t203 360t350 139q78 0 145 -34t97 -93l19 102h325l-16 -96q163 121 367 121t325 -134t80 -353q0 -30 -25 -105h-684q-2 -65 54 -105q54 -40 154 -40z" />
    <glyph glyph-name="ccedilla" unicode="&#xe7;" horiz-adv-x="1077" 
d="M458 -442q-93 0 -146 69q-52 70 -27 195l141 -8q-22 -86 30 -104t85 24q31 33 20 90l-55 172q-172 37 -264 166q-90 131 -58 317q40 223 222 361t399 139q260 0 379 -236l-316 -172q-29 86 -143 86q-72 0 -133 -53q-62 -53 -76 -125t30 -125t116 -53q113 0 167 78
l263 -162q-187 -221 -437 -233l56 -107q12 -35 -1 -115t-86 -142t-166 -62z" />
    <glyph glyph-name="egrave" unicode="&#xe8;" horiz-adv-x="1126" 
d="M727 1124l-219 357h303l127 -357h-211zM520 569h381q-6 74 -55 108t-115 34q-51 4 -115 -30t-96 -112zM694 242q100 0 183 80l194 -162q-170 -178 -461 -178q-209 0 -336 140t-86 360t213 358t383 139q211 0 331 -134t79 -353q0 -10 -11 -54t-14 -51h-684q-3 -65 53 -105
t156 -40z" />
    <glyph glyph-name="eacute" unicode="&#xe9;" horiz-adv-x="1126" 
d="M520 569h381q-4 51 -37 88q-32 37 -64 45t-84 8t-110 -33q-59 -34 -86 -108zM694 242q100 0 183 80l194 -162q-170 -178 -461 -178q-209 0 -336 140t-86 360t213 358t383 139q211 0 331 -134t79 -353q0 -10 -11 -54t-14 -51h-684q-3 -65 53 -105t156 -40zM690 1124
l254 357h303l-346 -357h-211z" />
    <glyph glyph-name="ecircumflex" unicode="&#xea;" horiz-adv-x="1126" 
d="M645 1141h-219l287 354h319l162 -354h-221l-133 182zM520 569h381q-6 74 -55 108t-115 34q-51 4 -115 -30t-96 -112zM694 242q100 0 183 80l194 -162q-170 -178 -461 -178q-209 0 -336 140t-86 360t213 358t383 139q211 0 331 -134t79 -353q0 -10 -11 -54t-14 -51h-684
q-3 -65 53 -105t156 -40z" />
    <glyph glyph-name="edieresis" unicode="&#xeb;" horiz-adv-x="1126" 
d="M520 569h381q-4 51 -37 88q-32 37 -64 45t-84 8t-110 -33q-59 -34 -86 -108zM694 242q100 0 183 80l194 -162q-170 -178 -461 -178q-209 0 -336 140t-86 360t213 358t383 139q211 0 331 -134t79 -353q0 -10 -11 -54t-14 -51h-684q-3 -65 53 -105t156 -40zM1008 1163
q-64 -1 -104 43t-30 106t66 105t120 43t100 -43t26 -105t-62 -106t-116 -43zM622 1163q-64 -1 -104 43q-39 44 -29 106q11 62 65 105t118 43t102 -43q37 -43 27 -105q-11 -62 -63 -106t-116 -43z" />
    <glyph glyph-name="igrave" unicode="&#xec;" horiz-adv-x="567" 
d="M430 1124l-219 357h303l127 -357h-211zM123 0l168 956h321l-168 -956h-321z" />
    <glyph glyph-name="iacute" unicode="&#xed;" horiz-adv-x="567" 
d="M322 1124l253 357h304l-347 -357h-210zM612 956l-168 -956h-321l168 956h321z" />
    <glyph glyph-name="icircumflex" unicode="&#xee;" horiz-adv-x="567" 
d="M317 1141h-219l287 354h320l161 -354h-221l-133 182zM123 0l168 956h321l-168 -956h-321z" />
    <glyph glyph-name="idieresis" unicode="&#xef;" horiz-adv-x="567" 
d="M736 1460q64 0 100 -43t26 -105t-62 -106t-117 -43q-65 -1 -103 43t-29 106q10 62 65 105q56 43 120 43zM348 1460q64 0 102 -43t28 -105t-63 -106q-52 -44 -118 -43q-65 -1 -103 43t-28 106t64 105t118 43zM612 956l-168 -956h-321l168 956h321z" />
    <glyph glyph-name="eth" unicode="&#xf0;" horiz-adv-x="1130" 
d="M597 -18q-210 0 -329 137t-82 358q31 172 153 300q159 167 417 175l-80 146l-184 -68l-37 100l174 64l-113 217h297l68 -127l170 70l53 -94l-180 -70l215 -416q68 -127 39 -297q-41 -221 -206 -358t-375 -137zM652 301q75 0 132 49q58 49 72 125t-28 124t-116 48
t-130 -48q-58 -48 -72 -124t26 -125t116 -49z" />
    <glyph glyph-name="ntilde" unicode="&#xf1;" horiz-adv-x="1208" 
d="M732 1223q-17 0 -39 -25t-31 -63h-154q30 129 102 197t154 69q47 0 94 -42q46 -42 66 -42t41 21q20 22 30 63h154q-29 -127 -101 -195t-153 -67q-41 0 -93 42t-70 42zM889 979q186 0 261 -121t36 -350l-88 -508h-326l86 498q12 82 -24 124q-37 42 -106 42t-124 -41
t-67 -121l-88 -502h-326l168 954h325l-26 -149q35 80 131 127t168 47z" />
    <glyph glyph-name="ograve" unicode="&#xf2;" horiz-adv-x="1153" 
d="M692 1124l-219 357h303l127 -357h-211zM731 678q-83 0 -151 -58t-83 -141q-15 -82 33 -140t128 -58q81 0 150 58t85 140q14 83 -33 141t-129 58zM609 -18q-208 0 -335 139t-86 359t213 360q176 139 384 139t335 -139q127 -140 86 -362t-215 -359t-382 -137z" />
    <glyph glyph-name="oacute" unicode="&#xf3;" horiz-adv-x="1153" 
d="M682 1124l254 357h303l-346 -357h-211zM731 678q-83 0 -151 -58t-83 -141q-15 -82 33 -140t128 -58q81 0 150 58t85 140q14 83 -33 141t-129 58zM609 -18q-208 0 -335 139t-86 359t213 360q176 139 384 139t335 -139q127 -140 86 -362t-215 -359t-382 -137z" />
    <glyph glyph-name="ocircumflex" unicode="&#xf4;" horiz-adv-x="1153" 
d="M651 1141h-219l287 354h319l162 -354h-221l-133 182zM731 678q-83 0 -151 -58t-83 -141q-15 -82 33 -140t128 -58q81 0 150 58t85 140q14 83 -33 141t-129 58zM609 -18q-208 0 -335 139t-86 359t213 360q176 139 384 139t335 -139q127 -140 86 -362t-215 -359t-382 -137z
" />
    <glyph glyph-name="otilde" unicode="&#xf5;" horiz-adv-x="1153" 
d="M739 1223q-18 0 -40 -24t-27 -64h-154q28 129 100 197t156 69q45 0 92 -42q46 -42 66 -42q20 1 42 23t32 61h153q-31 -129 -103 -196t-151 -66q-41 0 -95 42t-71 42zM731 678q-83 0 -151 -58t-83 -141q-15 -82 33 -140t128 -58q81 0 150 58t85 140q14 83 -33 141t-129 58
zM609 -18q-208 0 -335 139t-86 359t213 360q176 139 384 139t335 -139q127 -140 86 -362t-215 -359t-382 -137z" />
    <glyph glyph-name="odieresis" unicode="&#xf6;" horiz-adv-x="1153" 
d="M1068 1460q64 0 100 -43t26 -105t-61 -106t-116 -43q-65 0 -105 43q-39 44 -29 106t65 105q56 43 120 43zM680 1460q64 0 102 -43q37 -43 27 -105q-11 -62 -63 -106t-116 -43q-64 0 -104 43q-38 44 -28 106t64 105t118 43zM731 678q-83 0 -151 -58t-83 -141
q-15 -82 33 -140t128 -58q81 0 150 58t85 140q14 83 -33 141t-129 58zM609 -18q-208 0 -335 139t-86 359t213 360q176 139 384 139t335 -139q127 -140 86 -362t-215 -359t-382 -137z" />
    <glyph glyph-name="divide" unicode="&#xf7;" horiz-adv-x="1271" 
d="M1284 655l-37 -209h-1067l37 209h1067zM825 1106q72 0 114 -47t29 -119q-14 -72 -70 -118t-130 -46t-115 46q-40 46 -27 118t70 119t129 47zM686 313q72 0 114 -46q42 -45 30 -117t-71 -120q-58 -48 -130 -48t-113 48t-29 120q11 72 69 118t130 45z" />
    <glyph glyph-name="oslash" unicode="&#xf8;" horiz-adv-x="1153" 
d="M638 281q64 0 134 58q68 58 84 140q8 43 -4 90l-311 -270q33 -18 97 -18zM694 678q-82 0 -150 -58t-82 -130q-13 -70 5 -109l315 272q-43 25 -88 25zM728 979q190 0 314 -100l123 106l70 -82l-121 -104q86 -137 53 -320q-41 -223 -214 -360t-365 -137t-305 94l-133 -115
l-70 84l129 111q-92 130 -54 338t207 346q176 139 366 139z" />
    <glyph glyph-name="ugrave" unicode="&#xf9;" horiz-adv-x="1208" 
d="M778 1124l-219 357h303l127 -357h-211zM528 -18q-188 0 -263 120t-34 351l88 501h328l-88 -491q-12 -82 24 -124q35 -42 105 -42t124 38t67 118l90 501h325l-168 -954h-325l24 150q-37 -82 -128 -125t-169 -43z" />
    <glyph glyph-name="uacute" unicode="&#xfa;" horiz-adv-x="1208" 
d="M713 1124l254 357h303l-346 -357h-211zM528 -18q-188 0 -263 120t-34 351l88 501h328l-88 -491q-12 -82 24 -124q35 -42 105 -42t124 38t67 118l90 501h325l-168 -954h-325l24 150q-37 -82 -128 -125t-169 -43z" />
    <glyph glyph-name="ucircumflex" unicode="&#xfb;" horiz-adv-x="1208" 
d="M672 1141h-219l286 354h320l162 -354h-222l-133 182zM528 -18q-188 0 -263 120t-34 351l88 501h328l-88 -491q-12 -82 24 -124q35 -42 105 -42t124 38t67 118l90 501h325l-168 -954h-325l24 150q-37 -82 -128 -125t-169 -43z" />
    <glyph glyph-name="udieresis" unicode="&#xfc;" horiz-adv-x="1208" 
d="M528 -18q-188 0 -263 120t-34 351l88 501h328l-88 -491q-12 -82 24 -124q35 -42 105 -42t124 38t67 118l90 501h325l-168 -954h-325l24 150q-37 -82 -128 -125t-169 -43zM1112 1460q64 0 101 -43q36 -43 26 -105t-62 -106t-117 -43q-65 0 -104 43q-38 44 -28 106t65 105
t119 43zM726 1460q64 0 101 -43t27 -105t-62 -106t-118 -43q-66 0 -104 43q-37 44 -27 106t64 105q55 43 119 43z" />
    <glyph glyph-name="yacute" unicode="&#xfd;" horiz-adv-x="1060" 
d="M571 1124l254 357h303l-346 -357h-211zM1227 954l-842 -1425h-342l344 598l-227 827h356l105 -462l260 462h346z" />
    <glyph glyph-name="thorn" unicode="&#xfe;" horiz-adv-x="1247" 
d="M693 279q81 0 150 58t85 140q14 82 -33 140q-47 59 -129 59t-151 -58t-84 -141q-15 -82 33 -140t129 -58zM895 979q174 0 289 -139q115 -138 76 -360t-202 -360t-349 -138q-92 0 -162 40t-94 115l-107 -608h-307l342 1927h326l-107 -590q121 113 295 113z" />
    <glyph glyph-name="ydieresis" unicode="&#xff;" horiz-adv-x="1060" 
d="M984 1460q64 0 100 -43t26 -105t-62 -106t-117 -43q-65 0 -104 43q-38 44 -28 106t65 105q56 43 120 43zM596 1460q64 0 102 -43q37 -43 27 -105t-62 -106t-118 -43q-66 0 -104 43q-37 44 -27 106t64 105t118 43zM1227 954l-842 -1425h-342l344 598l-227 827h356
l105 -462l260 462h346z" />
    <glyph glyph-name="Amacron" unicode="&#x100;" horiz-adv-x="1366" 
d="M1290 1774l-33 -179h-589l32 179h590zM928 618l-56 465l-208 -465h264zM1389 0h-363l-63 324h-445l-174 -324h-367l768 1411h373z" />
    <glyph glyph-name="amacron" unicode="&#x101;" horiz-adv-x="1245" 
d="M1200 1364l-33 -178h-589l32 178h590zM684 279q82 0 151 58t85 140q14 82 -33 140q-47 59 -129 59t-151 -58t-84 -141q-15 -82 32 -140t129 -58zM561 -18q-178 0 -295 137q-115 141 -76 361t203 360t350 139q79 0 145 -34t97 -93l19 102h325l-168 -954h-325l20 109
q-117 -127 -295 -127z" />
    <glyph glyph-name="Abreve" unicode="&#x102;" horiz-adv-x="1366" 
d="M727 1835h182q-10 -55 7 -79t71 -23q92 0 111 102h186q-20 -121 -112 -196t-217 -75q-126 0 -186 78t-42 193zM664 618h264l-56 465zM963 324h-445l-174 -324h-367l768 1411h373l271 -1411h-363z" />
    <glyph glyph-name="abreve" unicode="&#x103;" horiz-adv-x="1245" 
d="M897 1323q92 0 109 102h186q-18 -121 -110 -195t-217 -75q-126 -1 -187 77t-43 193h182q-8 -55 9 -79t71 -23zM684 279q82 0 151 58t85 140q14 82 -33 140q-47 59 -129 59t-151 -58t-84 -141q-15 -82 32 -140t129 -58zM561 -18q-178 0 -295 137q-115 141 -76 361t203 360
t350 139q78 0 145 -34t97 -93l19 102h325l-168 -954h-325l20 109q-117 -127 -295 -127z" />
    <glyph glyph-name="Aogonek" unicode="&#x104;" horiz-adv-x="1366" 
d="M1118 1411l271 -1411l-123 -176q-45 -80 6 -111q39 -29 81 9t44 92l145 8q-18 -123 -95 -194q-77 -70 -170 -70t-145 62t-39 139t46 118l104 123h-217l-63 324h-445l-174 -324h-367l768 1411h373zM928 618l-56 465l-208 -465h264z" />
    <glyph glyph-name="aogonek" unicode="&#x105;" horiz-adv-x="1245" 
d="M684 279q82 0 151 58t85 140q14 82 -33 140q-47 59 -129 59t-151 -58t-84 -141q-15 -82 32 -140t129 -58zM561 -18q-178 0 -295 137q-115 141 -76 361t203 360t350 139q78 0 145 -34t97 -93l19 102h325l-168 -954l-123 -176q-47 -80 6 -111q41 -29 82 9t43 92l146 8
q-14 -129 -95 -197q-82 -67 -172 -67t-142 62t-39 139t46 118l103 123h-180l20 109q-117 -127 -295 -127z" />
    <glyph glyph-name="Cacute" unicode="&#x106;" horiz-adv-x="1447" 
d="M999 1581l254 356h303l-346 -356h-211zM846 -18q-297 0 -471 211t-122 511t302 513t545 213q184 0 327 -88t218 -236l-318 -199q-37 82 -114 130t-175 48q-158 1 -284 -111t-155 -270q-28 -158 61 -269q89 -110 245 -109q207 0 350 176l246 -197q-125 -151 -298 -237
t-357 -86z" />
    <glyph glyph-name="cacute" unicode="&#x107;" horiz-adv-x="1077" 
d="M698 1124l254 357h303l-346 -357h-211zM666 301q113 0 165 78l265 -162q-199 -236 -463 -235q-221 0 -353 138t-92 360t220 360t399 139q262 0 379 -236l-314 -172q-35 86 -143 86q-72 0 -133 -53q-62 -53 -76 -125t30 -125t116 -53z" />
    <glyph glyph-name="Ccircumflex" unicode="&#x108;" horiz-adv-x="1447" 
d="M963 1597h-220l287 355h320l161 -355h-221l-133 183zM846 -18q-297 0 -471 211t-122 511t302 513t545 213q184 0 327 -88t218 -236l-318 -199q-37 82 -114 130t-175 48q-158 1 -284 -111t-155 -270q-28 -158 61 -269q89 -110 245 -109q207 0 350 176l246 -197
q-125 -151 -298 -237t-357 -86z" />
    <glyph glyph-name="ccircumflex" unicode="&#x109;" horiz-adv-x="1077" 
d="M655 1141h-219l287 354h319l162 -354h-221l-133 182zM666 301q113 0 165 78l265 -162q-199 -236 -463 -235q-221 0 -353 138t-92 360t220 360t399 139q262 0 379 -236l-314 -172q-35 86 -143 86q-72 0 -133 -53q-62 -53 -76 -125t30 -125t116 -53z" />
    <glyph glyph-name="Cdotaccent" unicode="&#x10a;" horiz-adv-x="1447" 
d="M1135 1946q71 0 113 -48t28 -118q-14 -72 -70 -118t-129 -46q-75 0 -115 46t-26 119t70 119t129 46zM846 -18q-297 0 -471 211t-122 511t302 513t545 213q184 0 327 -88t218 -236l-318 -199q-37 82 -114 130t-175 48q-158 1 -284 -111t-155 -270q-28 -158 61 -269
q89 -110 245 -109q207 0 350 176l246 -197q-125 -151 -298 -237t-357 -86z" />
    <glyph glyph-name="cdotaccent" unicode="&#x10b;" horiz-adv-x="1077" 
d="M874 1489q72 0 112 -47t28 -119t-68 -118t-129 -46q-74 0 -115 46q-40 46 -28 118t70 119t130 47zM666 301q113 0 165 78l265 -162q-199 -236 -463 -235q-221 0 -353 138t-92 360t220 360t399 139q262 0 379 -236l-314 -172q-35 86 -143 86q-72 0 -133 -53
q-62 -53 -76 -125t30 -125t116 -53z" />
    <glyph glyph-name="Ccaron" unicode="&#x10c;" horiz-adv-x="1447" 
d="M1581 1937l-289 -354h-319l-160 354h219l131 -184l197 184h221zM846 -18q-297 0 -471 211t-122 511t302 513t545 213q184 0 327 -88t218 -236l-318 -199q-37 82 -114 130t-175 48q-158 1 -284 -111t-155 -270q-28 -158 61 -269q89 -110 245 -109q207 0 350 176l246 -197
q-125 -151 -298 -237t-357 -86z" />
    <glyph glyph-name="ccaron" unicode="&#x10d;" horiz-adv-x="1077" 
d="M1245 1481l-289 -355h-319l-160 355h219l129 -185l199 185h221zM666 301q113 0 165 78l265 -162q-199 -236 -463 -235q-221 0 -353 138t-92 360t220 360t399 139q262 0 379 -236l-314 -172q-35 86 -143 86q-72 0 -133 -53q-62 -53 -76 -125t30 -125t116 -53z" />
    <glyph glyph-name="Dcaron" unicode="&#x10e;" horiz-adv-x="1443" 
d="M1460 1890l-289 -354h-319l-160 354h219l131 -184l197 184h221zM965 1411q299 0 435 -200t81 -508q-55 -307 -262 -505t-502 -198h-559l248 1411h559zM768 305q139 0 242 115q100 118 129 286t-29 281q-57 119 -199 119h-215l-143 -801h215z" />
    <glyph glyph-name="dcaron" unicode="&#x10f;" horiz-adv-x="1245" 
d="M684 279q82 0 151 58t85 140q14 82 -33 140q-47 59 -129 59t-151 -58t-84 -141q-15 -82 32 -140t129 -58zM569 -18q-186 0 -303 137q-115 141 -76 361t203 360t338 139q174 0 256 -113l107 590h325l-258 -1456h-307l23 137q-51 -75 -135 -115t-173 -40zM1530 952l-129 84
q82 94 128 182t75 238h262q-94 -334 -336 -504z" />
    <glyph glyph-name="Dcroat" unicode="&#x110;" horiz-adv-x="1478" 
d="M999 1411q299 0 435 -200t82 -508q-56 -307 -262 -505t-502 -198h-559l100 578h-193l37 206h193l110 627h559zM803 305q139 0 241 116q102 117 130 283t-30 284t-200 118h-215l-55 -322h217l-37 -206h-217l-49 -273h215z" />
    <glyph glyph-name="dslash" unicode="&#x111;" horiz-adv-x="1245" 
d="M684 279q82 0 151 58t85 140q14 82 -33 140q-47 59 -129 59t-151 -58t-84 -141q-15 -82 32 -140t129 -58zM569 -18q-186 0 -303 137q-115 141 -76 361t203 360t338 139q174 0 256 -113l45 246h-270l31 164h270l31 180h325l-30 -180h135l-31 -164h-135l-197 -1112h-307
l23 137q-51 -75 -135 -115t-173 -40z" />
    <glyph glyph-name="Emacron" unicode="&#x112;" horiz-adv-x="1189" 
d="M1192 1774l-33 -179h-590l33 179h590zM1143 299l-51 -299h-934l248 1411h915l-51 -299h-574l-49 -270h504l-53 -293h-504l-43 -250h592z" />
    <glyph glyph-name="emacron" unicode="&#x113;" horiz-adv-x="1126" 
d="M520 569h381q-6 74 -55 108t-115 34q-51 4 -115 -30t-96 -112zM694 242q100 0 183 80l194 -162q-170 -178 -461 -178q-209 0 -336 140t-86 360t213 358t383 139q211 0 331 -134t79 -353q0 -10 -11 -54t-14 -51h-684q-3 -65 53 -105t156 -40zM1143 1364l-33 -178h-590
l33 178h590z" />
    <glyph glyph-name="Ebreve" unicode="&#x114;" horiz-adv-x="1189" 
d="M629 1835h182q-10 -55 7 -79t71 -23q92 0 110 102h187q-20 -121 -112 -196t-217 -75q-126 0 -186 78t-42 193zM158 0l248 1411h915l-51 -299h-574l-49 -270h504l-53 -293h-504l-43 -250h592l-51 -299h-934z" />
    <glyph glyph-name="ebreve" unicode="&#x115;" horiz-adv-x="1126" 
d="M520 569h381q-4 51 -37 88q-32 37 -64 45t-84 8t-110 -33q-59 -34 -86 -108zM694 242q100 0 183 80l194 -162q-170 -178 -461 -178q-209 0 -336 140t-86 360t213 358t383 139q211 0 331 -134t79 -353q0 -10 -11 -54t-14 -51h-684q-3 -65 53 -105t156 -40zM840 1323
q92 0 108 102h187q-17 -121 -109 -195t-218 -75q-126 1 -187 77t-43 193h182q-8 -55 9 -79t71 -23z" />
    <glyph glyph-name="Edotaccent" unicode="&#x116;" horiz-adv-x="1189" 
d="M920 1898q72 0 112 -47t29 -117t-69 -118q-58 -47 -131 -47t-113 46t-27 118q11 73 69 119t130 46zM158 0l248 1411h915l-51 -299h-574l-49 -270h504l-53 -293h-504l-43 -250h592l-51 -299h-934z" />
    <glyph glyph-name="edotaccent" unicode="&#x117;" horiz-adv-x="1126" 
d="M520 569h381q-4 51 -37 88q-32 37 -64 45t-84 8t-110 -33q-59 -34 -86 -108zM694 242q100 0 183 80l194 -162q-170 -178 -461 -178q-209 0 -336 140t-86 360t213 358t383 139q211 0 331 -134t79 -353q0 -10 -11 -54t-14 -51h-684q-3 -65 53 -105t156 -40zM870 1489
q72 0 112 -47t28 -119t-68 -118t-129 -46q-74 0 -115 46q-40 46 -28 118t70 119t130 47z" />
    <glyph glyph-name="Eogonek" unicode="&#x118;" horiz-adv-x="1189" 
d="M551 299h592l-51 -299l-123 -176q-47 -80 6 -111q41 -29 82 9t43 92l145 8q-18 -123 -95 -194q-77 -70 -170 -70t-145 62t-36 153q8 63 43 104l104 123h-788l248 1411h915l-51 -299h-574l-49 -270h504l-53 -293h-504z" />
    <glyph glyph-name="eogonek" unicode="&#x119;" horiz-adv-x="1128" 
d="M520 569h381q-6 74 -55 108t-115 34q-51 4 -115 -30t-96 -112zM614 -18q-213 0 -339 142t-86 360t212 356t383 139q211 0 331 -134t79 -353q0 -10 -11 -54t-14 -51h-684q-3 -65 53 -105t156 -40t183 80l194 -162q-14 -18 -76 -68q-143 -125 -229 -268q-45 -80 6 -111
q43 -29 83 9t42 92l145 8q-14 -129 -95 -197q-81 -67 -171 -67t-142 62t-36 153q8 63 43 104l94 115q-78 -10 -121 -10z" />
    <glyph glyph-name="Ecaron" unicode="&#x11a;" horiz-adv-x="1189" 
d="M1303 1890l-289 -354h-320l-159 354h219l131 -184l196 184h222zM158 0l248 1411h915l-51 -299h-574l-49 -270h504l-53 -293h-504l-43 -250h592l-51 -299h-934z" />
    <glyph glyph-name="ecaron" unicode="&#x11b;" horiz-adv-x="1126" 
d="M520 569h381q-4 51 -37 88q-32 37 -64 45t-84 8t-110 -33q-59 -34 -86 -108zM694 242q100 0 183 80l194 -162q-170 -178 -461 -178q-209 0 -336 140t-86 360t213 358t383 139q211 0 331 -134t79 -353q0 -10 -11 -54t-14 -51h-684q-3 -65 53 -105t156 -40zM1253 1481
l-288 -355h-320l-160 355h220l131 -185l196 185h221z" />
    <glyph glyph-name="Gcircumflex" unicode="&#x11c;" horiz-adv-x="1548" 
d="M1063 1112q-170 0 -301 -119t-161 -289t59 -290q89 -121 247 -121q283 0 357 188h-396l50 275h768q-68 -389 -289 -582q-221 -192 -535 -192t-487 211q-174 211 -121 512q51 301 300 513t554 212q166 0 300 -66t208 -184l-293 -215q-90 147 -260 147zM940 1550h-219
l287 355h319l162 -355h-221l-129 183z" />
    <glyph glyph-name="gcircumflex" unicode="&#x11d;" horiz-adv-x="1245" 
d="M662 1141h-220l287 354h320l161 -354h-221l-131 182zM544 -18q-202 0 -319 137q-115 141 -75 361t202 360q168 139 353 139q79 0 145 -34t96 -93l19 102h323l-147 -833q-51 -295 -220 -451t-436 -155q-165 0 -281 86t-149 227l295 111q12 -57 64 -93t125 -34
q250 0 305 307q-98 -137 -300 -137zM644 279q81 0 150 58t85 140q14 82 -33 140q-47 59 -129 59t-151 -58t-84 -141q-15 -82 33 -140t129 -58z" />
    <glyph glyph-name="Gbreve" unicode="&#x11e;" horiz-adv-x="1548" 
d="M1063 1112q-170 0 -301 -119t-161 -289t59 -290q89 -121 247 -121q283 0 357 188h-396l50 275h768q-68 -389 -289 -582q-221 -192 -535 -192t-487 211q-174 211 -121 512q51 301 300 513t554 212q166 0 300 -66t208 -184l-293 -215q-90 147 -260 147zM899 1835h182
q-11 -55 7 -79t71 -23q88 0 111 102h186q-23 -121 -114 -196t-217 -75t-186 78t-40 193z" />
    <glyph glyph-name="gbreve" unicode="&#x11f;" horiz-adv-x="1245" 
d="M858 1323q90 0 109 102h186q-19 -121 -111 -195t-218 -75t-186 77t-42 193h182q-10 -53 8 -77t72 -25zM544 -18q-202 0 -319 137q-115 141 -75 361t202 360q168 139 353 139q79 0 145 -34t96 -93l19 102h323l-147 -833q-51 -295 -220 -451t-436 -155q-165 0 -281 86
t-149 227l295 111q12 -57 64 -93t125 -34q250 0 305 307q-98 -137 -300 -137zM644 279q81 0 150 58t85 140q14 82 -33 140q-47 59 -129 59t-151 -58t-84 -141q-15 -82 33 -140t129 -58z" />
    <glyph glyph-name="Gdotaccent" unicode="&#x120;" horiz-adv-x="1548" 
d="M1063 1112q-170 0 -301 -119t-161 -289t59 -290q89 -121 247 -121q283 0 357 188h-396l50 275h768q-68 -389 -289 -582q-221 -192 -535 -192t-487 211q-174 211 -121 512q51 301 300 513t554 212q166 0 300 -66t208 -184l-293 -215q-90 147 -260 147zM1167 1898
q72 0 114 -47t30 -117q-13 -70 -71 -118q-58 -47 -131 -47t-112 46q-38 46 -26 118q12 73 68 119t128 46z" />
    <glyph glyph-name="gdotaccent" unicode="&#x121;" horiz-adv-x="1245" 
d="M887 1489q73 0 113 -47t28 -118t-70 -118t-130 -47t-112 46t-28 118t70 119t129 47zM544 -18q-202 0 -319 137q-115 141 -75 361t202 360q168 139 353 139q79 0 145 -34t96 -93l19 102h323l-147 -833q-51 -295 -220 -451t-436 -155q-165 0 -281 86t-149 227l295 111
q12 -57 64 -93t125 -34q250 0 305 307q-98 -137 -300 -137zM644 279q81 0 150 58t85 140q14 82 -33 140q-47 59 -129 59t-151 -58t-84 -141q-15 -82 33 -140t129 -58z" />
    <glyph glyph-name="Gcommaaccent" unicode="&#x122;" horiz-adv-x="1548" 
d="M1063 1112q-170 0 -301 -119t-161 -289t59 -290q89 -121 247 -121q283 0 357 188h-396l50 275h768q-68 -389 -289 -582q-221 -192 -535 -192t-487 211q-174 211 -121 512q51 301 300 513t554 212q166 0 300 -66t208 -184l-293 -215q-90 147 -260 147zM635 -618l-133 86
q84 94 130 184t75 233h262q-96 -329 -334 -503z" />
    <glyph glyph-name="gcommaaccent" unicode="&#x123;" horiz-adv-x="1245" 
d="M934 1591l133 -86q-84 -94 -130 -184t-75 -234h-262q96 330 334 504zM544 -18q-202 0 -319 137q-115 141 -75 361t202 360q168 139 353 139q79 0 145 -34t96 -93l19 102h323l-147 -833q-51 -295 -220 -451t-436 -155q-165 0 -281 86t-149 227l295 111q12 -57 64 -93
t125 -34q250 0 305 307q-98 -137 -300 -137zM644 279q81 0 150 58t85 140q14 82 -33 140q-47 59 -129 59t-151 -58t-84 -141q-15 -82 33 -140t129 -58z" />
    <glyph glyph-name="Hcircumflex" unicode="&#x124;" horiz-adv-x="1435" 
d="M825 1550h-219l287 355h319l162 -355h-221l-131 183zM649 854h430l99 557h348l-248 -1411h-348l94 549h-430l-94 -549h-342l248 1411h342z" />
    <glyph glyph-name="hcircumflex" unicode="&#x125;" horiz-adv-x="1208" 
d="M397 1554h-219l287 355h319l162 -355h-221l-131 183zM889 979q188 0 263 -121t34 -350l-88 -508h-326l86 498q12 74 -27 120t-105 46t-121 -42q-56 -42 -68 -120l-88 -502h-326l258 1456h326l-117 -651q35 80 131 127t168 47z" />
    <glyph glyph-name="Hbar" unicode="&#x126;" horiz-adv-x="1466" 
d="M516 0h-344l184 1044h-149l29 164h149l35 203h344l-35 -203h430l35 203h348l-35 -203h150l-29 -164h-149l-185 -1044h-348l96 551h-430zM1130 1044h-430l-34 -190h430z" />
    <glyph glyph-name="hbar" unicode="&#x127;" horiz-adv-x="1208" 
d="M889 979q186 0 261 -121t36 -350l-88 -508h-326l86 498q12 74 -27 120t-105 46t-121 -42q-56 -42 -68 -120l-88 -502h-326l196 1112h-147l29 164h147l33 180h326l-33 -180h258l-29 -164h-258l-55 -307q35 80 131 127t168 47z" />
    <glyph glyph-name="Itilde" unicode="&#x128;" horiz-adv-x="657" 
d="M690 1548q-42 0 -92 42t-69 42t-40 -23q-20 -24 -30 -65h-154q31 129 102 198t152 68q47 0 94 -43q51 -41 69 -41t41 23q22 23 28 61h153q-28 -126 -100 -194t-154 -68zM500 0h-342l248 1411h342z" />
    <glyph glyph-name="itilde" unicode="&#x129;" horiz-adv-x="567" 
d="M409 1223q-17 0 -39 -25t-32 -63h-154q31 129 103 197t153 69q46 0 94 -42t67 -42t40 21q20 22 31 63h153q-29 -127 -101 -195t-153 -67q-41 0 -93 42t-69 42zM123 0l168 956h321l-168 -956h-321z" />
    <glyph glyph-name="Imacron" unicode="&#x12a;" horiz-adv-x="657" 
d="M938 1774l-33 -179h-590l33 179h590zM500 0h-342l248 1411h342z" />
    <glyph glyph-name="imacron" unicode="&#x12b;" horiz-adv-x="567" 
d="M817 1364l-31 -178h-589l30 178h590zM123 0l168 956h321l-168 -956h-321z" />
    <glyph glyph-name="Ibreve" unicode="&#x12c;" horiz-adv-x="657" 
d="M375 1835h182q-10 -55 7 -79t71 -23q92 0 110 102h187q-20 -121 -112 -196t-217 -75q-126 0 -186 78t-42 193zM406 1411h342l-248 -1411h-342z" />
    <glyph glyph-name="ibreve" unicode="&#x12d;" horiz-adv-x="567" 
d="M516 1323q90 0 109 102h186q-19 -121 -111 -195t-218 -75t-186 77t-42 193h182q-10 -53 8 -77t72 -25zM612 956l-168 -956h-321l168 956h321z" />
    <glyph glyph-name="Iogonek" unicode="&#x12e;" horiz-adv-x="657" 
d="M383 -463q-92 1 -142 63t-39 139t44 118l108 143h-196l248 1411h342l-248 -1411l-127 -197q-45 -80 6 -110q39 -29 81 8t44 92l145 8q-18 -123 -96 -193t-170 -71z" />
    <glyph glyph-name="iogonek" unicode="&#x12f;" horiz-adv-x="571" 
d="M332 -463q-92 1 -142 63t-36 152q8 64 41 105l108 143h-180l168 954h325l-167 -954h-3l-124 -197q-47 -80 6 -110q41 -29 82 8t43 92l145 8q-18 -123 -96 -193t-170 -71zM311 1272q6 57 51 103q94 96 219 79q58 -8 89 -51q41 -39 37 -95t-33 -106t-84 -86
q-55 -35 -115 -31q-80 -1 -129 55t-35 132z" />
    <glyph glyph-name="Idot" unicode="&#x130;" horiz-adv-x="657" 
d="M666 1898q72 0 112 -47t29 -117t-69 -118q-58 -47 -131 -47t-113 46t-27 118q11 73 69 119t130 46zM406 1411h342l-248 -1411h-342z" />
    <glyph glyph-name="dotlessi" unicode="&#x131;" horiz-adv-x="571" 
d="M449 0h-326l168 954h325z" />
    <glyph glyph-name="IJ" unicode="&#x132;" horiz-adv-x="1318" 
d="M658 -150q126 0 157 164l248 1397h344l-246 -1397q-39 -215 -178 -350t-381 -135q-117 0 -221 39l86 307q65 -25 191 -25zM500 0h-342l248 1411h342z" />
    <glyph glyph-name="ij" unicode="&#x133;" horiz-adv-x="1142" 
d="M885 1272q6 57 51 103q94 96 218 79q58 -8 89 -51q41 -39 37 -95t-33 -106t-84 -86q-55 -35 -114 -31q-80 -1 -129 55t-35 132zM473 -485h-123l56 309h122q63 0 107 41q43 41 55 117l172 972h326l-168 -938l-4 -34q-31 -223 -176 -346q-146 -121 -367 -121zM311 1272
q6 57 51 103q94 96 219 79q58 -8 89 -51q41 -39 37 -95t-33 -106t-84 -86q-55 -35 -115 -31q-80 -1 -129 55t-35 132zM291 954h325l-167 -954h-326z" />
    <glyph glyph-name="Jcircumflex" unicode="&#x134;" horiz-adv-x="661" 
d="M444 1550h-219l287 355h319l162 -355h-221l-129 183zM2 -150q125 0 156 164l248 1397h346l-246 -1397q-39 -223 -181 -354t-376 -131q-117 0 -221 39l86 307q63 -25 188 -25z" />
    <glyph glyph-name="jcircumflex" unicode="&#x135;" horiz-adv-x="571" 
d="M344 1141h-219l287 354h319l162 -354h-221l-131 182zM-94 -485h-123l53 309h123q59 0 102 41t56 117l174 972h325l-167 -938l-5 -34q-31 -223 -175 -345t-363 -122z" />
    <glyph glyph-name="Kcommaaccent" unicode="&#x136;" horiz-adv-x="1296" 
d="M514 -618l-131 86q82 92 128 181t75 236h262q-94 -333 -334 -503zM1456 1411l-653 -696l534 -715h-469l-295 430l-73 -430h-342l248 1411h342l-72 -403l352 403h428z" />
    <glyph glyph-name="kcommaaccent" unicode="&#x137;" horiz-adv-x="1101" 
d="M348 -618l-131 86q82 92 128 181t75 236h262q-94 -333 -334 -503zM1110 0h-389l-213 344l-59 -344h-326l258 1456h326l-132 -733l228 231h399l-428 -424z" />
    <glyph glyph-name="kgreenlandic" unicode="&#x138;" horiz-adv-x="1058" 
d="M727 485l338 -485h-416l-155 299l-52 -299h-319l168 956h319l-47 -266l228 266h368z" />
    <glyph glyph-name="Lacute" unicode="&#x139;" horiz-adv-x="1060" 
d="M430 1534l254 356h303l-346 -356h-211zM158 0l248 1411h346l-197 -1112h508l-51 -299h-854z" />
    <glyph glyph-name="lacute" unicode="&#x13a;" horiz-adv-x="571" 
d="M416 1534l254 356h303l-346 -356h-211zM381 1456h326l-258 -1456h-326z" />
    <glyph glyph-name="Lcommaaccent" unicode="&#x13b;" horiz-adv-x="1060" 
d="M346 -618l-131 86q82 92 128 181t75 236h262q-94 -333 -334 -503zM1063 299l-51 -299h-854l248 1411h346l-197 -1112h508z" />
    <glyph glyph-name="lcommaaccent" unicode="&#x13c;" horiz-adv-x="571" 
d="M72 -618l-129 86q84 96 127 188q43 82 71 229h262q-91 -327 -331 -503zM449 0h-326l258 1456h326z" />
    <glyph glyph-name="Lcaron" unicode="&#x13d;" horiz-adv-x="1079" 
d="M977 913l-113 78q82 93 128 183t75 237h238q-92 -330 -328 -498zM1063 299l-51 -299h-854l248 1411h346l-197 -1112h508z" />
    <glyph glyph-name="lcaron" unicode="&#x13e;" horiz-adv-x="571" 
d="M799 958l-113 78q82 94 129 188t76 232h237q-87 -322 -329 -498zM449 0h-326l258 1456h326z" />
    <glyph glyph-name="Ldot" unicode="&#x13f;" horiz-adv-x="1062" 
d="M860 418q-82 0 -128 53t-32 134t80 134t147 53t128 -52q47 -54 33 -134t-80 -134t-148 -54zM1063 299l-51 -299h-854l248 1411h346l-197 -1112h508z" />
    <glyph glyph-name="ldot" unicode="&#x140;" horiz-adv-x="1040" 
d="M876 418q-82 0 -127 53q-46 53 -32 134t80 134q67 53 147 53t127 -52q47 -54 33 -134t-80 -134t-148 -54zM449 0h-326l258 1456h326z" />
    <glyph glyph-name="Lslash" unicode="&#x141;" horiz-adv-x="1079" 
d="M1081 299l-51 -299h-854l94 543l-170 -94l33 190l172 94l119 678h346l-82 -463l225 127l-34 -190l-226 -127l-80 -459h508z" />
    <glyph glyph-name="lslash" unicode="&#x142;" horiz-adv-x="708" 
d="M221 0l98 565l-208 -116l32 190l209 117l117 655h342l-78 -442l191 106l-35 -190l-191 -107l-135 -778h-342z" />
    <glyph glyph-name="Nacute" unicode="&#x143;" horiz-adv-x="1388" 
d="M823 1534l254 356h303l-346 -356h-211zM1479 1411l-248 -1411h-299l-299 770l-133 -770h-342l248 1411h309l286 -760l136 760h342z" />
    <glyph glyph-name="nacute" unicode="&#x144;" horiz-adv-x="1208" 
d="M633 1124l254 357h303l-346 -357h-211zM889 979q186 0 261 -121t36 -350l-88 -508h-326l86 498q12 82 -24 124q-37 42 -106 42t-124 -41t-67 -121l-88 -502h-326l168 954h325l-26 -149q35 80 131 127t168 47z" />
    <glyph glyph-name="Ncommaaccent" unicode="&#x145;" horiz-adv-x="1388" 
d="M532 -618l-131 86q82 92 128 181t75 236h262q-94 -333 -334 -503zM1001 651l136 760h342l-248 -1411h-299l-299 770l-133 -770h-342l248 1411h309z" />
    <glyph glyph-name="ncommaaccent" unicode="&#x146;" horiz-adv-x="1208" 
d="M397 -618l-131 86q82 92 128 181t75 236h262q-94 -333 -334 -503zM889 979q186 0 261 -121t36 -350l-88 -508h-326l86 498q12 82 -24 124q-37 42 -106 42t-124 -41t-67 -121l-88 -502h-326l168 954h325l-26 -149q35 80 131 127t168 47z" />
    <glyph glyph-name="Ncaron" unicode="&#x147;" horiz-adv-x="1388" 
d="M1411 1890l-289 -354h-319l-160 354h219l131 -184l197 184h221zM1479 1411l-248 -1411h-299l-299 770l-133 -770h-342l248 1411h309l286 -760l136 760h342z" />
    <glyph glyph-name="ncaron" unicode="&#x148;" horiz-adv-x="1208" 
d="M1249 1481l-288 -355h-320l-160 355h219l131 -185l197 185h221zM889 979q186 0 261 -121t36 -350l-88 -508h-326l86 498q12 82 -24 124q-37 42 -106 42t-124 -41t-67 -121l-88 -502h-326l168 954h325l-26 -149q35 80 131 127t168 47z" />
    <glyph glyph-name="napostrophe" unicode="&#x149;" horiz-adv-x="1320" 
d="M176 926l-133 86q80 92 126 181t75 237h262q-92 -328 -330 -504zM999 979q189 0 265 -122t34 -349l-90 -508h-325l86 498q12 82 -24 124q-37 42 -105 42t-124 -41t-69 -121l-86 -502h-325l165 954h326l-25 -149q35 80 129 127t168 47z" />
    <glyph glyph-name="Eng" unicode="&#x14a;" horiz-adv-x="1388" 
d="M672 -471q-117 0 -221 39l79 287q63 -25 193 -25q66 0 121 55t67 129l4 23l-282 733l-133 -770h-342l248 1411h309l286 -760l136 760h342l-248 -1411q-45 -219 -187 -345t-372 -126z" />
    <glyph glyph-name="eng" unicode="&#x14b;" horiz-adv-x="1208" 
d="M728 664q-69 0 -124 -41t-67 -121l-88 -502h-326l168 954h325l-26 -149q35 80 131 127t168 47q186 0 261 -121t36 -350l-88 -508q-44 -219 -186 -345t-373 -126q-117 0 -222 39l76 264q68 -25 195 -25q70 1 120 57t66 152l86 482q12 82 -25 124q-38 42 -107 42z" />
    <glyph glyph-name="Omacron" unicode="&#x14c;" horiz-adv-x="1595" 
d="M1458 1774l-33 -179h-589l32 179h590zM1286 973q-88 113 -247 113t-285 -112q-126 -111 -155 -270q-28 -159 61 -269q89 -109 245 -109t286 110t159 269q29 158 -64 268zM1103 1430q298 0 470 -213q174 -209 121 -511t-299 -513t-546 -211t-474 211t-122 511t302 513
t548 213z" />
    <glyph glyph-name="omacron" unicode="&#x14d;" horiz-adv-x="1153" 
d="M1149 1364l-33 -178h-590l33 178h590zM731 678q-83 0 -151 -58t-83 -141q-15 -82 33 -140t128 -58q81 0 150 58t85 140q14 83 -33 141t-129 58zM609 -18q-208 0 -335 139t-86 359t213 360q176 139 384 139t335 -139q127 -140 86 -362t-215 -359t-382 -137z" />
    <glyph glyph-name="Obreve" unicode="&#x14e;" horiz-adv-x="1595" 
d="M895 1835h182q-10 -55 7 -79t71 -23q88 0 111 102h186q-23 -121 -114 -196t-217 -75t-186 78t-40 193zM1286 973q-88 113 -247 113t-285 -112q-126 -111 -155 -270q-28 -159 61 -269q89 -109 245 -109t286 110t159 269q29 158 -64 268zM1103 1430q298 0 470 -213
q174 -209 121 -511t-299 -513t-546 -211t-474 211t-122 511t302 513t548 213z" />
    <glyph glyph-name="obreve" unicode="&#x14f;" horiz-adv-x="1153" 
d="M846 1323q92 0 108 102h187q-17 -121 -109 -195t-218 -75q-126 1 -187 77t-43 193h182q-8 -55 9 -79t71 -23zM731 678q-83 0 -151 -58t-83 -141q-15 -82 33 -140t128 -58q81 0 150 58t85 140q14 83 -33 141t-129 58zM609 -18q-208 0 -335 139t-86 359t213 360
q176 139 384 139t335 -139q127 -140 86 -362t-215 -359t-382 -137z" />
    <glyph glyph-name="Ohungarumlaut" unicode="&#x150;" horiz-adv-x="1595" 
d="M1149 1530l283 354h221l-299 -354h-205zM856 1530l254 354h215l-278 -354h-191zM1286 973q-88 113 -247 113t-285 -112q-126 -111 -155 -270q-28 -159 61 -269q89 -109 245 -109t286 110t159 269q29 158 -64 268zM1103 1430q298 0 470 -213q174 -209 121 -511t-299 -513
t-546 -211t-474 211t-122 511t302 513t548 213z" />
    <glyph glyph-name="ohungarumlaut" unicode="&#x151;" horiz-adv-x="1153" 
d="M856 1120l283 355h221l-299 -355h-205zM563 1120l254 355h215l-278 -355h-191zM731 678q-83 0 -151 -58t-83 -141q-15 -82 33 -140t128 -58q81 0 150 58t85 140q14 83 -33 141t-129 58zM609 -18q-208 0 -335 139t-86 359t213 360q176 139 384 139t335 -139
q127 -140 86 -362t-215 -359t-382 -137z" />
    <glyph glyph-name="OE" unicode="&#x152;" horiz-adv-x="2207" 
d="M1286 973q-88 113 -247 113t-285 -112q-126 -111 -155 -270q-28 -159 61 -269q89 -109 245 -109t286 110t159 269q29 158 -64 268zM846 -18q-297 0 -471 211t-122 511t302 513t545 213q205 0 360 -109l17 90h915l-53 -299h-574l-49 -270h504l-51 -293h-504l-43 -250h592
l-51 -299h-934l14 88q-195 -106 -397 -106z" />
    <glyph glyph-name="oe" unicode="&#x153;" horiz-adv-x="1835" 
d="M1229 569h381q-6 74 -56 108t-114 34q-50 4 -114 -30t-97 -112zM731 678q-83 0 -151 -58t-83 -141q-15 -82 33 -140t128 -58q81 0 150 58t85 140q14 83 -33 141t-129 58zM1402 242q100 0 183 80l96 -82l99 -80q-170 -178 -461 -178q-213 0 -330 135q-174 -135 -381 -135
t-334 139t-86 359t213 360q176 139 385 139t326 -133q176 133 384 133t328 -134t79 -353q1 -6 -5 -28l-12 -46q-6 -25 -8 -31h-684q-2 -65 53 -105t155 -40z" />
    <glyph glyph-name="Racute" unicode="&#x154;" horiz-adv-x="1314" 
d="M721 1534l254 356h303l-346 -356h-211zM922 1112h-226l-63 -346h225q104 -6 158 98t18 187q-30 65 -112 61zM989 1411q231 0 333 -137t67 -334q-27 -158 -135 -285t-283 -168l260 -487h-397l-224 471h-30l-80 -471h-342l248 1411h583z" />
    <glyph glyph-name="racute" unicode="&#x155;" horiz-adv-x="878" 
d="M895 979q94 0 145 -27l-133 -307q-63 25 -154 25t-153 -80t-98 -277l-53 -313h-326l168 954h309l-43 -235q55 125 149 193t189 67zM342 1124l254 357h303l-346 -357h-211z" />
    <glyph glyph-name="Rcommaaccent" unicode="&#x156;" horiz-adv-x="1314" 
d="M451 -618l-132 86q83 92 129 181t74 236h262q-93 -333 -333 -503zM922 1112h-226l-63 -346h225q104 -6 158 98t18 187q-30 65 -112 61zM989 1411q231 0 333 -137t67 -334q-27 -158 -135 -285t-283 -168l260 -487h-397l-224 471h-30l-80 -471h-342l248 1411h583z" />
    <glyph glyph-name="rcommaaccent" unicode="&#x157;" horiz-adv-x="878" 
d="M896 979q93 0 144 -27l-133 -307q-61 25 -153 25t-154 -80t-96 -277l-55 -313h-326l168 954h309l-43 -235q57 125 151 193t188 67zM63 -618l-129 86q84 96 127 188q43 82 72 229h262q-92 -327 -332 -503z" />
    <glyph glyph-name="Rcaron" unicode="&#x158;" horiz-adv-x="1314" 
d="M1360 1890l-289 -354h-319l-160 354h219l131 -184l197 184h221zM922 1112h-226l-63 -346h225q104 -6 158 98t18 187q-30 65 -112 61zM989 1411q231 0 333 -137t67 -334q-27 -158 -135 -285t-283 -168l260 -487h-397l-224 471h-30l-80 -471h-342l248 1411h583z" />
    <glyph glyph-name="rcaron" unicode="&#x159;" horiz-adv-x="878" 
d="M895 979q94 0 145 -27l-133 -307q-63 25 -154 25t-153 -80t-98 -277l-53 -313h-326l168 954h309l-43 -235q55 125 149 193t189 67zM1087 1481l-288 -355h-320l-160 355h220l131 -185l196 185h221z" />
    <glyph glyph-name="Sacute" unicode="&#x15a;" horiz-adv-x="1200" 
d="M743 1534l254 356h303l-346 -356h-211zM885 439q0 15 -31 40t-90 47l-154 56q-102 31 -174 82t-96 108q-53 133 -27 225q33 193 195 313t377 120t327 -119q115 -117 78 -322h-342q20 131 -123 131q-67 0 -113 -30t-57 -82q-12 -76 111 -115l152 -51q373 -121 315 -430
q-29 -150 -129 -250q-182 -182 -469 -180q-239 0 -359 120t-83 318h346q-8 -63 29 -101q38 -37 117 -37t134 34t66 94v29z" />
    <glyph glyph-name="sacute" unicode="&#x15b;" horiz-adv-x="985" 
d="M680 979q168 0 276 -81t74 -249h-305q16 86 -80 86q-80 0 -89 -49t58 -65l164 -48q82 -25 133 -65t65 -81q35 -103 15 -142q-29 -150 -172 -227q-143 -76 -308 -76t-278 90q-109 94 -81 247h305q-7 -39 17 -69t75 -29q96 0 110 64q4 21 -10 31t-65 24l-115 33
q-143 41 -211 125q-50 76 -30 191q20 114 152 202t300 88zM590 1124l254 357h303l-346 -357h-211z" />
    <glyph glyph-name="Scircumflex" unicode="&#x15c;" horiz-adv-x="1200" 
d="M748 1550h-220l287 355h320l161 -355h-221l-129 183zM885 439q0 15 -31 40t-90 47l-154 56q-102 31 -174 82t-96 108q-53 133 -27 225q33 193 195 313t377 120t327 -119q115 -117 78 -322h-342q20 131 -123 131q-67 0 -113 -30t-57 -82q-12 -76 111 -115l152 -51
q373 -121 315 -430q-29 -150 -129 -250q-180 -180 -469 -180q-239 0 -359 120t-83 318h346q-8 -63 29 -101q38 -37 117 -37t134 34t66 94v29z" />
    <glyph glyph-name="scircumflex" unicode="&#x15d;" horiz-adv-x="985" 
d="M680 979q168 0 276 -81t74 -249h-305q16 86 -80 86q-80 0 -89 -49t58 -65l164 -48q82 -25 133 -65t65 -81q35 -103 15 -142q-29 -150 -172 -227q-143 -76 -308 -76t-278 90q-109 94 -81 247h305q-7 -39 17 -69t75 -29q96 0 110 64q4 21 -10 31t-65 24l-115 33
q-143 41 -211 125q-50 76 -30 191q20 114 152 202t300 88zM557 1141h-219l287 354h319l162 -354h-221l-131 182z" />
    <glyph glyph-name="Scedilla" unicode="&#x15e;" horiz-adv-x="1202" 
d="M883 439q0 15 -31 40t-90 47l-154 56q-102 31 -174 82t-96 108q-53 133 -27 225q33 193 195 313t377 120t327 -119q115 -117 78 -322h-342q20 131 -123 131q-67 0 -113 -30t-57 -82q-12 -74 111 -115l154 -51q369 -125 313 -430q-33 -180 -167 -286t-308 -134l55 -115
q14 -31 1 -113t-86 -144t-166 -62t-144 70t-27 194l141 -8q-25 -84 31 -107q47 -16 81 22t24 95l-52 158q-229 6 -344 124t-80 314h347q-8 -63 29 -101q38 -37 117 -37t134 34t66 94v29z" />
    <glyph glyph-name="scedilla" unicode="&#x15f;" horiz-adv-x="989" 
d="M404 -442q-92 0 -144 69q-51 70 -27 195l142 -8q-25 -86 27 -104t84 21q32 38 22 93l-49 160q-145 12 -240 102q-92 90 -67 233h305q-9 -39 15 -69t72 -29q48 -1 80 17t37 42t-9 35q-14 10 -66 25l-117 33q-147 43 -209 125q-50 76 -30 192q20 115 152 202t299 87
t275 -81t74 -249h-305q16 86 -80 86q-80 0 -89 -49t58 -65l164 -48q80 -25 132 -65t65 -82q37 -104 18 -141q-23 -121 -130 -199t-261 -98l55 -111q12 -37 -1 -115t-86 -142q-74 -62 -166 -62z" />
    <glyph glyph-name="Scaron" unicode="&#x160;" horiz-adv-x="1200" 
d="M1358 1890l-289 -354h-319l-160 354h219l133 -184l195 184h221zM885 439q0 15 -31 40t-90 47l-154 56q-102 31 -174 82t-96 108q-53 133 -27 225q33 193 195 313t377 120t327 -119q115 -117 78 -322h-342q20 131 -123 131q-67 0 -113 -30t-57 -82q-12 -76 111 -115
l152 -51q373 -121 315 -430q-29 -150 -129 -250q-182 -182 -469 -180q-239 0 -359 120t-83 318h346q-8 -63 29 -101q38 -37 117 -37t134 34t66 94v29z" />
    <glyph glyph-name="scaron" unicode="&#x161;" horiz-adv-x="985" 
d="M680 979q168 0 276 -81t74 -249h-305q16 86 -80 86q-80 0 -89 -49t58 -65l164 -48q82 -25 133 -65t65 -81q35 -103 15 -142q-29 -150 -172 -227q-143 -76 -308 -76t-278 90q-109 94 -81 247h305q-7 -39 17 -69t75 -29q96 0 110 64q4 21 -10 31t-65 24l-115 33
q-143 41 -211 125q-50 76 -30 191q20 114 152 202t300 88zM1165 1481l-288 -355h-320l-160 355h219l132 -185l196 185h221z" />
    <glyph glyph-name="Tcommaaccent" unicode="&#x162;" horiz-adv-x="1181" 
d="M356 -618l-133 86q82 90 128 179t75 238h262q-92 -327 -332 -503zM420 0l196 1112h-364l51 299h1071l-51 -299h-365l-196 -1112h-342z" />
    <glyph glyph-name="tcommaaccent" unicode="&#x163;" horiz-adv-x="774" 
d="M145 -618l-131 86q82 94 127 182t74 235h262q-92 -327 -332 -503zM442 1296h322l-59 -342h200l-43 -239h-200l-125 -715h-322l125 715h-174l43 239h174z" />
    <glyph glyph-name="Tcaron" unicode="&#x164;" horiz-adv-x="1181" 
d="M1309 1890l-289 -354h-320l-159 354h219l133 -184l194 184h222zM252 1112l51 299h1071l-51 -299h-365l-196 -1112h-342l196 1112h-364z" />
    <glyph glyph-name="tcaron" unicode="&#x165;" horiz-adv-x="774" 
d="M705 954h200l-43 -239h-200l-125 -715h-322l125 715h-174l43 239h174l59 342h322zM958 1071l-112 78q84 96 129 186t74 234h237q-90 -324 -328 -498z" />
    <glyph glyph-name="Tbar" unicode="&#x166;" horiz-adv-x="1181" 
d="M420 0l104 580h-194l24 153h195l67 379h-364l51 299h1071l-51 -299h-365l-67 -379h194l-24 -153h-195l-104 -580h-342z" />
    <glyph glyph-name="tbar" unicode="&#x167;" horiz-adv-x="774" 
d="M215 0l59 356h-110l29 154h110l37 205h-174l43 239h174l59 342h322l-59 -342h200l-43 -239h-200l-37 -205h123l-29 -154h-123l-59 -356h-322z" />
    <glyph glyph-name="Utilde" unicode="&#x168;" horiz-adv-x="1396" 
d="M1098 1548q-44 0 -92 42t-66 42t-41 -24t-33 -64h-153q31 129 101 198q71 69 153 68q47 0 97 -42t70 -42t38 23q19 23 26 61h154q-27 -126 -100 -194t-154 -68zM733 -18q-229 0 -366 147t-97 385l158 897h344l-158 -897q-16 -90 37 -150t137 -60t160 57q76 58 92 153
l158 897h344l-158 -897q-42 -238 -232 -385t-419 -147z" />
    <glyph glyph-name="utilde" unicode="&#x169;" horiz-adv-x="1208" 
d="M528 -18q-188 0 -263 120t-34 351l88 501h328l-88 -491q-12 -82 24 -124q35 -42 105 -42t124 38t67 118l90 501h325l-168 -954h-325l24 150q-37 -82 -128 -125t-169 -43zM784 1223q-18 0 -40 -24t-27 -64h-154q29 129 101 197t153 69q47 0 94 -42t67 -42t40 21
q20 22 31 63h153q-30 -129 -100 -196t-152 -66q-44 0 -96 42t-70 42z" />
    <glyph glyph-name="Umacron" unicode="&#x16a;" horiz-adv-x="1396" 
d="M1346 1774l-31 -179h-590l31 179h590zM733 -18q-229 0 -366 147t-97 385l158 897h344l-158 -897q-16 -90 37 -150t137 -60t160 57q76 58 92 153l158 897h344l-158 -897q-42 -238 -232 -385t-419 -147z" />
    <glyph glyph-name="umacron" unicode="&#x16b;" horiz-adv-x="1208" 
d="M528 -18q-188 0 -263 120t-34 351l88 501h328l-88 -491q-12 -82 24 -124q35 -42 105 -42t124 38t67 118l90 501h325l-168 -954h-325l24 150q-37 -82 -128 -125t-169 -43zM1196 1364l-33 -178h-590l33 178h590z" />
    <glyph glyph-name="Ubreve" unicode="&#x16c;" horiz-adv-x="1396" 
d="M784 1835h183q-10 -55 7 -79t70 -23q88 0 111 102h186q-23 -121 -113 -196t-217 -75q-126 0 -187 78q-60 78 -40 193zM733 -18q-229 0 -366 147t-97 385l158 897h344l-158 -897q-16 -90 37 -150t137 -60t160 57q76 58 92 153l158 897h344l-158 -897q-42 -238 -232 -385
t-419 -147z" />
    <glyph glyph-name="ubreve" unicode="&#x16d;" horiz-adv-x="1208" 
d="M528 -18q-188 0 -263 120t-34 351l88 501h328l-88 -491q-12 -82 24 -124q35 -42 105 -42t124 38t67 118l90 501h325l-168 -954h-325l24 150q-37 -82 -128 -125t-169 -43zM893 1323q92 0 108 102h187q-18 -121 -110 -195t-218 -75q-127 -1 -187 77t-42 193h182
q-8 -55 9 -79t71 -23z" />
    <glyph glyph-name="Uring" unicode="&#x16e;" horiz-adv-x="1396" 
d="M1029 1655q56 0 104 38q47 38 57 95t-23 98t-89 41t-101 -40t-55 -98t20 -96t87 -38zM1009 1528q-109 0 -171 76t-43 185q18 111 107 187t198 76t171 -77t44 -185q-17 -108 -107 -185t-199 -77zM733 -18q-229 0 -366 147t-97 385l158 897h344l-158 -897q-16 -90 37 -150
t137 -60t160 57q76 58 92 153l158 897h344l-158 -897q-42 -238 -232 -385t-419 -147z" />
    <glyph glyph-name="uring" unicode="&#x16f;" horiz-adv-x="1208" 
d="M528 -18q-188 0 -263 120t-34 351l88 501h328l-88 -491q-12 -82 24 -124q35 -42 105 -42t124 38t67 118l90 501h325l-168 -954h-325l24 150q-37 -82 -128 -125t-169 -43zM880 1245q56 0 102 38t56 95t-22 99q-33 41 -89 41t-102 -40q-45 -41 -55 -99t22 -96t88 -38z
M857 1118q-110 0 -173 76q-62 78 -40 186t110 186q88 76 196 76t171 -76t41 -188t-108 -186t-197 -74z" />
    <glyph glyph-name="Uhungarumlaut" unicode="&#x170;" horiz-adv-x="1396" 
d="M1008 1530l282 354h221l-299 -354h-204zM715 1530l254 354h215l-279 -354h-190zM733 -18q-229 0 -366 147t-97 385l158 897h344l-158 -897q-16 -90 37 -150t137 -60t160 57q76 58 92 153l158 897h344l-158 -897q-42 -238 -232 -385t-419 -147z" />
    <glyph glyph-name="uhungarumlaut" unicode="&#x171;" horiz-adv-x="1208" 
d="M528 -18q-188 0 -263 120t-34 351l88 501h328l-88 -491q-12 -82 24 -124q35 -42 105 -42t124 38t67 118l90 501h325l-168 -954h-325l24 150q-37 -82 -128 -125t-169 -43zM840 1120l282 355h221l-299 -355h-204zM547 1120l254 355h215l-279 -355h-190z" />
    <glyph glyph-name="Uogonek" unicode="&#x172;" horiz-adv-x="1400" 
d="M809 -12l-111 -164q-43 -80 9 -111q41 -27 81 9t41 92l146 8q-16 -123 -93 -194q-77 -70 -170 -70t-146 62q-52 62 -39 139t46 118l89 109q-203 25 -317 169t-77 359l160 897h342l-158 -897q-16 -90 37 -150t137 -60t160 57q76 58 92 153l158 897h344l-158 -897
q-40 -213 -202 -357t-371 -169z" />
    <glyph glyph-name="uogonek" unicode="&#x173;" horiz-adv-x="1208" 
d="M528 -18q-190 0 -265 118t-34 346l90 508h326l-88 -497q-12 -82 24 -121q37 -39 107 -39t125 38t68 118l88 501h325l-168 -954l-120 -176q-47 -80 6 -111q41 -29 82 9t43 92l145 8q-18 -123 -95 -194q-77 -70 -170 -70t-146 62q-52 62 -35 153q8 59 43 104l102 123h-180
l24 150q-37 -82 -128 -125t-169 -43z" />
    <glyph glyph-name="Wcircumflex" unicode="&#x174;" horiz-adv-x="1808" 
d="M1012 1550h-219l286 355h320l162 -355h-222l-131 183zM975 1208h285l51 -600l387 803h373l-728 -1411h-264l-57 686l-293 -686h-266l-227 1411h370l103 -803z" />
    <glyph glyph-name="wcircumflex" unicode="&#x175;" horiz-adv-x="1554" 
d="M811 1141h-219l287 354h319l162 -354h-221l-131 182zM1122 428l238 526h348l-496 -954h-276l-59 571l-252 -571h-277l-170 954h348l49 -526l240 526h256z" />
    <glyph glyph-name="Ycircumflex" unicode="&#x176;" horiz-adv-x="1357" 
d="M784 1550h-219l287 355h319l162 -355h-221l-131 183zM961 629l-111 -629h-344l110 635l-413 776h407l224 -512l409 512h406z" />
    <glyph glyph-name="ycircumflex" unicode="&#x177;" horiz-adv-x="1060" 
d="M567 1141h-219l287 354h319l162 -354h-221l-131 182zM621 492l260 462h346l-842 -1425h-342l344 598l-227 827h356z" />
    <glyph glyph-name="Ydieresis" unicode="&#x178;" horiz-adv-x="1357" 
d="M1152 1573q-66 0 -104 43t-28 105q10 61 65 105t119 44t102 -43q36 -43 26 -105t-63 -106q-52 -43 -117 -43zM766 1573q-66 0 -104 43t-27 105q10 61 64 105q55 44 119 44t102 -43t26 -105q-10 -62 -62 -106q-52 -43 -118 -43zM961 629l-111 -629h-344l110 635l-413 776
h407l224 -512l409 512h406z" />
    <glyph glyph-name="Zacute" unicode="&#x179;" horiz-adv-x="1232" 
d="M762 1534l254 356h303l-346 -356h-211zM84 0l43 252l758 862h-578l51 297h1026l-43 -252l-766 -860h613l-51 -299h-1053z" />
    <glyph glyph-name="zacute" unicode="&#x17a;" horiz-adv-x="1048" 
d="M590 1124l254 357h303l-346 -357h-211zM276 954h844l-43 -237l-485 -422h409l-49 -295h-870l41 233l477 426h-377z" />
    <glyph glyph-name="Zdotaccent" unicode="&#x17b;" horiz-adv-x="1232" 
d="M946 1898q72 0 113 -47t29 -117t-70 -118q-57 -47 -130 -47t-113 46q-39 46 -27 118q12 73 69 119t129 46zM84 0l43 252l758 862h-578l51 297h1026l-43 -252l-766 -860h613l-51 -299h-1053z" />
    <glyph glyph-name="zdotaccent" unicode="&#x17c;" horiz-adv-x="1048" 
d="M778 1489q72 0 113 -47t29 -118t-70 -118t-130 -47q-73 0 -113 46q-39 46 -27 118t69 119t129 47zM276 954h844l-43 -237l-485 -422h409l-49 -295h-870l41 233l477 426h-377z" />
    <glyph glyph-name="Zcaron" unicode="&#x17d;" horiz-adv-x="1232" 
d="M1327 1890l-289 -354h-319l-160 354h219l131 -184l197 184h221zM84 0l43 252l758 862h-578l51 297h1026l-43 -252l-766 -860h613l-51 -299h-1053z" />
    <glyph glyph-name="zcaron" unicode="&#x17e;" horiz-adv-x="1048" 
d="M1161 1481l-289 -355h-319l-160 355h219l131 -185l197 185h221zM276 954h844l-43 -237l-485 -422h409l-49 -295h-870l41 233l477 426h-377z" />
    <glyph glyph-name="longs" unicode="&#x17f;" horiz-adv-x="708" 
d="M936 1456h123l-55 -309h-123q-131 0 -162 -158l-174 -989h-326l125 715h-178l43 239h178l6 35q39 225 182 346q144 121 361 121z" />
    <glyph glyph-name="florin" unicode="&#x192;" horiz-adv-x="1292" 
d="M203 -86q137 0 196 160l242 641h-182l86 239h182l25 62q80 227 247 348q168 121 377 125l117 2l-117 -311h-98q-76 0 -130 -54t-95 -172h182l-86 -239h-180l-277 -738q-66 -178 -235 -272q-174 -100 -367 -102l-100 -2l114 313h99z" />
    <glyph glyph-name="Aringacute" unicode="&#x1fa;" horiz-adv-x="1366" 
d="M974 1659q56 0 102 38t57 95q10 57 -22 98t-88 41t-102 -41q-47 -41 -57 -98t22 -95t88 -38zM949 1532q-110 0 -171 77t-44 171q16 94 72 160t134 96l209 295h303l-295 -303q131 -74 97 -252q-18 -94 -106 -168q-89 -76 -199 -76zM664 618h264l-56 465zM963 324h-445
l-174 -324h-367l768 1411h373l271 -1411h-363z" />
    <glyph glyph-name="aringacute" unicode="&#x1fb;" horiz-adv-x="1245" 
d="M884 1245q56 0 102 38t56 95t-21 99q-32 41 -88 41q-57 0 -103 -41t-56 -99t22 -95q32 -38 88 -38zM684 279q82 0 151 58t85 140q14 82 -33 140q-47 59 -129 59t-151 -58t-84 -141q-15 -82 32 -140t129 -58zM861 1118q-110 0 -173 76q-61 78 -44 172q16 94 72 160t134 96
l207 295h303l-293 -303q132 -74 96 -252q-19 -96 -105 -170t-197 -74zM561 -18q-178 0 -295 137q-115 141 -76 361t203 360t350 139q78 0 145 -34t97 -93l19 102h325l-168 -954h-325l20 109q-117 -127 -295 -127z" />
    <glyph glyph-name="AEacute" unicode="&#x1fc;" horiz-adv-x="1916" 
d="M1153 1534l254 356h303l-346 -356h-211zM1081 1411h967l-51 -299h-576l-49 -270h504l-51 -289h-504l-45 -254h592l-51 -299h-936l-2 2l53 309h-328l-248 -311h-413zM1053 991l-267 -385h197z" />
    <glyph glyph-name="aeacute" unicode="&#x1fd;" horiz-adv-x="2017" 
d="M1413 569h381q-4 51 -37 88t-65 45t-82 8q-52 0 -111 -33q-59 -34 -86 -108zM686 279q82 0 151 58t85 140q14 82 -33 140q-47 59 -129 59t-151 -58t-84 -141q-15 -82 32 -140t129 -58zM1588 242q100 0 181 80l195 -162q-170 -178 -461 -178q-205 0 -321 122l-19 -104
h-325l20 109q-117 -127 -295 -127t-295 137q-116 141 -76 361t203 360q164 139 350 139q78 0 145 -34t97 -93l19 102h325l-16 -96q165 121 369 121t324 -134t79 -353q0 -10 -11 -54t-14 -51h-684q-2 -65 54 -105t156 -40zM1087 1124l254 357h304l-347 -357h-211z" />
    <glyph glyph-name="Oslashacute" unicode="&#x1fe;" horiz-adv-x="1593" 
d="M545 705q-20 -119 24 -224l621 535q-84 72 -207 71q-159 0 -285 -112t-153 -270zM850 324q156 0 286 112t158 269q20 106 -28 213l-615 -531q84 -63 199 -63zM969 1534l254 356h303l-346 -356h-211zM1028 1430q278 0 447 -166l188 166l80 -95l-191 -168q131 -205 86 -462
q-53 -301 -301 -512t-546 -211q-252 0 -422 157l-195 -170l-80 97l197 167q-141 203 -92 472q51 299 301 512t528 213z" />
    <glyph glyph-name="oslashacute" unicode="&#x1ff;" horiz-adv-x="1153" 
d="M638 281q64 0 134 58q68 58 84 140q8 43 -4 90l-311 -270q33 -18 97 -18zM694 678q-82 0 -150 -58t-82 -130q-13 -70 5 -109l315 272q-43 25 -88 25zM728 979q190 0 314 -100l123 106l70 -82l-121 -104q86 -137 53 -320q-41 -223 -214 -360t-365 -137t-305 94l-133 -115
l-70 84l129 111q-92 130 -54 338t207 346q176 139 366 139zM639 1124l254 357h303l-346 -357h-211z" />
    <glyph glyph-name="Scommaaccent" unicode="&#x218;" horiz-adv-x="1200" 
d="M442 -618l-133 86q82 90 128 179t75 238h262q-92 -327 -332 -503zM885 439q0 15 -31 40t-90 47l-154 56q-102 31 -174 82t-96 108q-53 133 -27 225q33 193 195 313t377 120t327 -119q115 -117 78 -322h-342q20 131 -123 131q-67 0 -113 -30t-57 -82q-12 -76 111 -115
l152 -51q373 -121 315 -430q-29 -150 -129 -250q-180 -180 -469 -180q-239 0 -359 120t-83 318h346q-8 -63 29 -101q38 -37 117 -37t134 34t66 94v29z" />
    <glyph glyph-name="scommaaccent" unicode="&#x219;" horiz-adv-x="985" 
d="M680 979q168 0 276 -81t74 -249h-305q16 86 -80 86q-80 0 -89 -49t58 -65l164 -48q82 -25 133 -65t65 -81q35 -103 15 -142q-29 -150 -172 -227q-143 -76 -308 -76t-278 90q-109 94 -81 247h305q-7 -39 17 -69t75 -29q96 0 110 64q4 21 -10 31t-65 24l-115 33
q-143 41 -211 125q-50 76 -30 191q20 114 152 202t300 88zM315 -618l-133 86q84 94 130 184t75 233h262q-96 -329 -334 -503z" />
    <glyph glyph-name="circumflex" unicode="&#x2c6;" horiz-adv-x="1198" 
d="M635 1141h-219l286 354h320l162 -354h-221l-134 182z" />
    <glyph glyph-name="caron" unicode="&#x2c7;" horiz-adv-x="1198" 
d="M1243 1481l-289 -355h-319l-160 355h219l131 -185l197 185h221z" />
    <glyph glyph-name="breve" unicode="&#x2d8;" horiz-adv-x="1064" 
d="M784 1323q90 0 109 102h186q-20 -121 -111 -195t-217 -75q-127 -1 -187 77t-42 193h183q-10 -53 8 -77t71 -25z" />
    <glyph glyph-name="dotaccent" unicode="&#x2d9;" horiz-adv-x="675" 
d="M614 1489q72 0 112 -47t28 -119t-68 -118t-129 -46q-74 0 -115 46q-40 46 -28 118t70 119t130 47z" />
    <glyph glyph-name="ring" unicode="&#x2da;" horiz-adv-x="1175" 
d="M826 1245q56 0 103 38q46 38 56 95t-21 99q-32 41 -88 41t-103 -41q-46 -41 -56 -99q-11 -58 21 -95q32 -38 88 -38zM804 1118q-110 0 -173 76q-61 78 -39 186t108 186q88 76 198 76t171 -78t39 -187q-22 -111 -108 -185t-196 -74z" />
    <glyph glyph-name="ogonek" unicode="&#x2db;" horiz-adv-x="1093" 
d="M621 47l-150 -223q-45 -80 6 -111q39 -29 86 13q33 33 39 88l146 8q-18 -123 -96 -194q-78 -70 -170 -70q-93 0 -145 62t-39 139t46 118l137 170h140z" />
    <glyph glyph-name="tilde" unicode="&#x2dc;" horiz-adv-x="919" 
d="M584 1223q-18 0 -40 -24t-28 -64h-154q29 129 101 197t155 69q44 0 92 -42t67 -42q19 1 41 23t32 61h154q-31 -129 -103 -196t-151 -66q-40 0 -94 42t-72 42z" />
    <glyph glyph-name="hungarumlaut" unicode="&#x2dd;" horiz-adv-x="1169" 
d="M653 1120l283 355h221l-299 -355h-205zM360 1120l254 355h215l-278 -355h-191z" />
    <glyph glyph-name="Wgrave" unicode="&#x1e80;" horiz-adv-x="1808" 
d="M1036 1534l-219 356h303l127 -356h-211zM975 1208h285l51 -600l387 803h373l-728 -1411h-264l-57 686l-293 -686h-266l-227 1411h370l103 -803z" />
    <glyph glyph-name="wgrave" unicode="&#x1e81;" horiz-adv-x="1554" 
d="M866 1124l-219 357h303l127 -357h-211zM1122 428l238 526h348l-496 -954h-276l-59 571l-252 -571h-277l-170 954h348l49 -526l240 526h256z" />
    <glyph glyph-name="Wacute" unicode="&#x1e82;" horiz-adv-x="1808" 
d="M1081 1534l254 356h303l-346 -356h-211zM1311 608l387 803h373l-728 -1411h-264l-57 686l-293 -686h-266l-227 1411h370l103 -803l266 600h285z" />
    <glyph glyph-name="wacute" unicode="&#x1e83;" horiz-adv-x="1554" 
d="M858 1124l254 357h303l-346 -357h-211zM1708 954l-496 -954h-276l-59 571l-252 -571h-277l-170 954h348l49 -526l240 526h256l51 -526l238 526h348z" />
    <glyph glyph-name="Wdieresis" unicode="&#x1e84;" horiz-adv-x="1808" 
d="M1379 1573q-65 0 -103 43t-29 105q9 61 65 105t120 44t101 -43q36 -43 26 -105q-11 -62 -63 -106q-52 -43 -117 -43zM993 1573q-65 0 -103 43t-28 105q10 61 64 105t120 44q64 0 101 -43t27 -105t-62 -106q-52 -43 -119 -43zM1311 608l387 803h373l-728 -1411h-264
l-57 686l-293 -686h-266l-227 1411h370l103 -803l266 600h285z" />
    <glyph glyph-name="wdieresis" unicode="&#x1e85;" horiz-adv-x="1554" 
d="M1174 1163q-64 -1 -103 43t-29 106t66 105t120 43t100 -43t26 -105t-62 -106q-54 -44 -118 -43zM788 1163q-66 -1 -104 43t-27 106t65 105t118 43t102 -43q37 -43 27 -105q-11 -62 -63 -106t-118 -43zM1708 954l-496 -954h-276l-59 571l-252 -571h-277l-170 954h348
l49 -526l240 526h256l51 -526l238 526h348z" />
    <glyph glyph-name="Ygrave" unicode="&#x1ef2;" horiz-adv-x="1357" 
d="M856 1534l-219 356h303l127 -356h-211zM961 629l-111 -629h-344l110 635l-413 776h407l224 -512l409 512h406z" />
    <glyph glyph-name="ygrave" unicode="&#x1ef3;" horiz-adv-x="1060" 
d="M645 1124l-219 357h303l127 -357h-211zM621 492l260 462h346l-842 -1425h-342l344 598l-227 827h356z" />
    <glyph glyph-name="thinspace" unicode="&#x2009;" horiz-adv-x="28" 
 />
    <glyph glyph-name="endash" unicode="&#x2013;" horiz-adv-x="1339" 
d="M1331 629l-51 -277h-1102l51 277h1102z" />
    <glyph glyph-name="emdash" unicode="&#x2014;" horiz-adv-x="1781" 
d="M1774 627l-50 -277h-1544l49 277h1545z" />
    <glyph glyph-name="quoteleft" unicode="&#x2018;" horiz-adv-x="544" 
d="M618 1493l119 -82q-160 -178 -213 -465h-254q35 188 136 328t212 219z" />
    <glyph glyph-name="quoteright" unicode="&#x2019;" horiz-adv-x="526" 
d="M356 866l-118 82q88 96 137 205t76 260h254q-31 -183 -135 -325t-214 -222z" />
    <glyph glyph-name="quotesinglbase" unicode="&#x201a;" horiz-adv-x="532" 
d="M98 -283l-114 82q86 98 134 206t75 259h253q-34 -186 -138 -328t-210 -219z" />
    <glyph glyph-name="quotedblleft" unicode="&#x201c;" horiz-adv-x="903" 
d="M618 1493l119 -82q-160 -178 -213 -465h-254q35 188 136 328t212 219zM977 1493l119 -82q-160 -178 -213 -465h-254q35 188 136 328t212 219z" />
    <glyph glyph-name="quotedblright" unicode="&#x201d;" horiz-adv-x="884" 
d="M715 866l-119 82q88 96 137 205t76 260h254q-31 -183 -134 -325t-214 -222zM356 866l-118 82q88 96 137 205t76 260h254q-31 -183 -135 -325t-214 -222z" />
    <glyph glyph-name="quotedblbase" unicode="&#x201e;" horiz-adv-x="890" 
d="M457 -283l-119 82q88 96 137 205t76 260h254q-35 -186 -139 -328t-209 -219zM98 -283l-114 82q86 98 134 206t75 259h253q-34 -186 -138 -328t-210 -219z" />
    <glyph glyph-name="dagger" unicode="&#x2020;" horiz-adv-x="897" 
d="M498 1092l55 319h283l-56 -319h234l-37 -209h-234l-198 -1116h-283l199 1116h-234l37 209h234z" />
    <glyph glyph-name="daggerdbl" unicode="&#x2021;" horiz-adv-x="954" 
d="M528 1092l56 319h282l-55 -319h233l-36 -209h-234l-78 -437h234l-37 -204h-234l-86 -475h-282l86 475h-234l37 204h234l78 437h-234l37 209h233z" />
    <glyph glyph-name="bullet" unicode="&#x2022;" horiz-adv-x="1003" 
d="M669 811q140 0 220 -94q82 -89 57 -229q-26 -140 -140 -233t-253 -93t-223 92q-81 94 -56 231t140 231t255 95z" />
    <glyph glyph-name="ellipsis" unicode="&#x2026;" horiz-adv-x="1898" 
d="M1678 358q80 0 127 -53q48 -53 34 -133t-80 -135q-65 -55 -145 -55t-128 55t-34 135t80 133t146 53zM1024 358q80 0 128 -53t34 -133t-81 -135t-147 -55t-128 55q-47 55 -33 135t80 133q67 53 147 53zM368 358q81 0 129 -53q47 -53 33 -133t-80 -135t-147 -55
q-80 0 -128 55t-34 135t80 133t147 53z" />
    <glyph glyph-name="perthousand" unicode="&#x2030;" horiz-adv-x="2070" 
d="M1870 324q-25 28 -65 28q-41 0 -73 -28t-39 -70q-7 -41 17 -69q24 -27 64 -27q42 0 74 28t40 68q6 41 -18 70zM1839 528q115 0 181 -80t43 -196q-23 -115 -115 -193q-92 -77 -206 -77t-180 80t-43 194q21 116 113 194t207 78zM1235 324q-25 28 -65 28t-72 -28t-40 -70
q-8 -41 16 -69q24 -27 65 -27t73 28t41 68q6 41 -18 70zM1204 528q114 0 180 -80t44 -196q-22 -115 -114 -193q-93 -77 -207 -77q-113 0 -179 80t-44 194q22 116 114 194t206 78zM580 1194q-40 0 -73 -29q-32 -29 -40 -69q-9 -40 15 -69q24 -28 65 -28t74 28t41 68
q8 39 -17 69t-65 30zM614 1370q116 0 180 -82q65 -82 43 -196t-116 -191q-94 -78 -208 -78q-113 0 -179 79t-43 194q23 114 115 194t208 80zM1217 1343h194l-913 -1343h-193z" />
    <glyph glyph-name="guilsinglleft" unicode="&#x2039;" horiz-adv-x="681" 
d="M365 53l-209 424l358 424h244l-359 -424l209 -424h-243z" />
    <glyph glyph-name="guilsinglright" unicode="&#x203a;" horiz-adv-x="681" 
d="M485 901l205 -424l-356 -424h-244l356 424l-204 424h243z" />
    <glyph glyph-name="fraction" unicode="&#x2044;" horiz-adv-x="368" 
d="M-381 -18l1165 1384h191l-1163 -1384h-193z" />
    <glyph glyph-name="zerosuperior" unicode="&#x2070;" horiz-adv-x="739" 
d="M655 1186q90 0 127 210t-53 210q-98 0 -135 -210t61 -210zM621 983q-312 0 -238 414t381 413q305 0 231 -414t-374 -413z" />
    <glyph glyph-name="foursuperior" unicode="&#x2074;" horiz-adv-x="778" 
d="M948 1800l-78 -438h93l-33 -178h-92l-31 -191h-215l31 191h-404l440 616h289zM528 1362h127l45 250z" />
    <glyph glyph-name="fivesuperior" unicode="&#x2075;" horiz-adv-x="743" 
d="M608 1399q-115 0 -239 -82l-62 41l139 442h500l-28 -178h-332l-37 -111q71 47 169 47t161 -74q63 -75 41 -201t-136 -214q-113 -88 -272 -88q-80 0 -153 40t-115 107l178 123q60 -82 124 -82t112 36t58 85q9 49 -22 79t-86 30z" />
    <glyph glyph-name="sixsuperior" unicode="&#x2076;" horiz-adv-x="741" 
d="M706 1509q82 0 156 -59t50 -185t-120 -204t-228 -78q-134 0 -202 77t-65 206q0 194 98 366q49 84 136 133t191 45t160 -40t81 -117l-172 -82q-18 63 -97 63q-135 0 -190 -213q14 35 67 61t135 27zM591 1163q46 0 79 27q33 28 39 64t-17 62q-22 26 -66 26t-79 -28
q-35 -26 -40 -63t17 -63t67 -25z" />
    <glyph glyph-name="sevensuperior" unicode="&#x2077;" horiz-adv-x="657" 
d="M295 993l344 617h-311l30 190h611l-443 -807h-231z" />
    <glyph glyph-name="eightsuperior" unicode="&#x2078;" horiz-adv-x="757" 
d="M668 1509q38 0 64 22q26 21 31 51t-15 52t-56 21q-82 0 -94 -70q-6 -33 13 -55t57 -21zM722 1810q112 0 176 -60t48 -157q-8 -49 -39 -94t-67 -57q53 -8 84 -70t20 -133q-20 -115 -124 -185t-244 -71q-138 0 -220 70t-61 186q12 74 57 132t109 71q-31 18 -48 63
q-18 45 -10 88q19 97 113 157t206 60zM604 1155q49 0 84 28q35 29 41 69t-18 67q-25 27 -72 27q-111 -1 -125 -93q-8 -43 16 -71t74 -27z" />
    <glyph glyph-name="ninesuperior" unicode="&#x2079;" horiz-adv-x="739" 
d="M550 1284q-52 0 -88 11t-75 36t-59 76t-9 119q25 129 121 207q96 77 230 77t202 -76q66 -76 65 -188q-2 -220 -100 -385q-49 -82 -137 -131t-190 -46t-159 39q-56 36 -81 118l172 80q20 -61 99 -62q133 0 188 213q-15 -32 -71 -60t-108 -28zM608 1452q44 0 78 26
q35 26 40 63q5 36 -16 62q-22 25 -68 25t-78 -26t-38 -62t16 -62t66 -26z" />
    <glyph glyph-name="zeroinferior" unicode="&#x2080;" horiz-adv-x="739" 
d="M410 -197q90 0 127 210t-52 210q-98 0 -136 -210t61 -210zM520 428q304 0 230 -414t-375 -413q-312 -1 -238 413t383 414z" />
    <glyph glyph-name="oneinferior" unicode="&#x2081;" horiz-adv-x="495" 
d="M49 76l31 178l395 186l-147 -829h-217l92 530z" />
    <glyph glyph-name="twoinferior" unicode="&#x2082;" horiz-adv-x="698" 
d="M381 223q-72 0 -102 -82l-195 29q92 258 348 258q110 0 178 -72t46 -184t-117 -195l-207 -180h260l-31 -186h-571l18 125l408 383q34 41 22 73t-57 31z" />
    <glyph glyph-name="threeinferior" unicode="&#x2083;" horiz-adv-x="692" 
d="M289 -47h-86l26 151h86q86 0 105 76q6 25 -14 44q-20 20 -82 20t-115 -51l-90 116q100 119 293 119q111 0 174 -68t45 -164t-142 -151q137 -51 119 -179t-125 -196q-103 -70 -221 -70q-234 1 -270 140l125 110q39 -76 147 -75q59 1 97 27q37 26 45 66t-27 62t-90 23z" />
    <glyph glyph-name="fourinferior" unicode="&#x2084;" horiz-adv-x="776" 
d="M705 418l-80 -438h92l-31 -179h-92l-33 -190h-215l33 190h-399l436 617h289zM283 -20h127l45 249z" />
    <glyph glyph-name="fiveinferior" unicode="&#x2085;" horiz-adv-x="741" 
d="M474 176q98 0 160 -75t40 -199t-136 -214q-112 -89 -270 -89q-84 0 -156 41t-110 106l176 123q56 -82 120 -82t114 36q49 36 58 84t-23 79t-87 30q-117 0 -235 -82l-62 41l140 443h499l-32 -178h-332l-35 -111q73 47 171 47z" />
    <glyph glyph-name="sixinferior" unicode="&#x2086;" horiz-adv-x="739" 
d="M461 127q82 0 155 -61q74 -56 50 -182t-120 -205t-230 -79t-202 78q-68 76 -66 188q1 112 27 206t75 178t137 133t198 45q188 -10 234 -158l-176 -82q-14 64 -91 64t-124 -60t-68 -153q12 33 66 61t135 27zM378 -41q-44 -1 -78 -27t-39 -63t17 -63t68 -26t78 28
q33 26 39 63t-18 63q-23 26 -67 25z" />
    <glyph glyph-name="seveninferior" unicode="&#x2087;" horiz-adv-x="659" 
d="M47 -389l344 616h-311l33 191h610l-444 -807h-232z" />
    <glyph glyph-name="eightinferior" unicode="&#x2088;" horiz-adv-x="757" 
d="M350 203q-6 -33 14 -55t56 -22q38 0 64 22t31 52t-14 52t-55 20q-84 1 -96 -69zM476 428q112 0 178 -61t46 -156q-8 -49 -38 -94t-68 -58q55 -9 85 -73t17 -129q-20 -115 -124 -186t-244 -71q-139 0 -218 72q-79 70 -61 185q12 74 57 132t109 70q-35 19 -50 63t-7 89
q18 97 112 157t206 60zM464 -63q-24 27 -73 27t-83 -26q-34 -24 -41 -68t17 -71t72 -27t84 28q35 28 41 69t-17 68z" />
    <glyph glyph-name="nineinferior" unicode="&#x2089;" horiz-adv-x="741" 
d="M306 -98q-52 0 -89 11t-76 36t-58 76t-7 118q25 127 122 206t231 79t201 -76t64 -207q0 -195 -100 -366q-49 -84 -137 -133q-89 -49 -191 -45t-158 40t-81 117l174 80q17 -61 83 -61t111 41q66 63 90 172q-14 -32 -71 -60q-56 -28 -108 -28zM398 246q-46 0 -76 -26
t-36 -62q-8 -36 14 -63q22 -25 66 -25t78 26t40 63q4 35 -18 61t-68 26z" />
    <glyph glyph-name="colonmonetary" unicode="&#x20a1;" horiz-adv-x="1472" 
d="M807 -20q-43 0 -76 4l-115 -215l-116 45l104 196q-57 14 -108 41l-115 -213l-121 47l131 248q-106 100 -149 250t-13 319q55 310 303 522t551 206l119 219l121 -50l-102 -186q51 -12 112 -39l109 205l117 -51l-113 -213q115 -84 172 -211l-318 -186l-30 67l-366 -682
q82 9 172 57t161 142l246 -187q-119 -155 -299 -245t-377 -90zM1059 1102l-393 -729q41 -41 98 -58l403 752q-81 31 -108 35zM691 950q-89 -107 -114 -239t9 -217l317 598q-123 -35 -212 -142z" />
    <glyph glyph-name="lira" unicode="&#x20a4;" horiz-adv-x="1437" 
d="M1001 1430q489 0 404 -494h-324q29 166 -116 166q-61 0 -107 -44t-57 -112l-25 -141h205l-25 -131h-204l-15 -88h205l-22 -131h-205l-33 -183h342q33 0 48 20t24 64l18 103h322l-33 -176q-19 -117 -119 -200t-213 -83h-993l47 272h229l33 183h-160l23 131h160l14 88h-160
l25 131h160l30 174q37 205 180 328q145 123 342 123z" />
    <glyph glyph-name="uni20A6" unicode="&#x20a6;" horiz-adv-x="1576" 
d="M250 0l86 496h-148l27 145h147l21 115h-147l26 145h148l88 510h309l289 -760l133 760h342l-88 -510h151l-26 -145h-152l-20 -115h151l-26 -145h-152l-86 -496h-299l-297 770l-135 -770h-342z" />
    <glyph glyph-name="peseta" unicode="&#x20a7;" horiz-adv-x="1558" 
d="M1026 1112h-225l-62 -346h226q104 -6 159 104q51 98 15 181q-31 65 -113 61zM1094 1411q160 0 261 -71t134 -195h194l-26 -146h-156q-8 -57 -9 -71t-11 -43h155l-26 -146h-193q-75 -125 -201 -197t-290 -71h-242l-80 -471h-342l129 739h-164l27 146h164l20 114h-164
l27 146h164l45 266h584z" />
    <glyph glyph-name="rupee" unicode="&#x20a8;" horiz-adv-x="1351" 
d="M770 766q111 0 164 104h-662l25 146h659q-23 96 -122 96h-519l52 299h1142l-24 -145h-244q74 -100 68 -250h131l-25 -146h-129q-45 -141 -150 -244t-253 -139l260 -487h-398l-223 471h-323l53 295h518z" />
    <glyph glyph-name="uni20A9" unicode="&#x20a9;" horiz-adv-x="2015" 
d="M2169 1411l-262 -510h159l-26 -145h-209l-59 -115h247l-26 -145h-297l-254 -496h-264l-58 686l-293 -686h-266l-82 496h-280l26 145h232l-19 115h-192l26 145h144l-82 510h371l102 -803l266 600h285l51 -600l387 803h373z" />
    <glyph glyph-name="afii57636" unicode="&#x20aa;" horiz-adv-x="2097" 
d="M1202 336h457l139 774h328l-197 -1110h-815q-227 0 -340 118t-78 312l39 209h330l-25 -135q-12 -72 32 -120t130 -48zM1087 774h-456l-135 -774h-328l197 1110h815q228 0 338 -116t75 -314l-39 -209h-329l24 135q12 72 -31 120q-44 48 -131 48z" />
    <glyph glyph-name="Euro" unicode="&#x20ac;" horiz-adv-x="1708" 
d="M1241 1430q203 0 351 -88t210 -236l-319 -182q-33 86 -112 134t-189 48t-206 -54q-98 -54 -161 -153h424l-25 -135h-995l25 135h207q102 233 319 382t471 149zM1040 303q112 0 212 53q99 53 163 144l256 -183q-117 -155 -298 -245t-386 -90q-256 0 -426 151
q-168 154 -182 393h-203l25 136h995l-25 -136h-432q27 -104 108 -164t193 -59z" />
    <glyph glyph-name="uni2113" unicode="&#x2113;" horiz-adv-x="827" 
d="M637 1077l-86 -491h18q57 3 74 45q6 14 10 45l72 403q20 104 -23 105q-39 0 -55 -69q-6 -26 -10 -38zM643 227h154l-39 -227h-264q-319 0 -254 356l127 715q61 356 376 356t248 -376l-67 -379q-18 -102 -54 -166q-76 -143 -350 -144q0 -30 -1 -60t30 -52t94 -23z" />
    <glyph glyph-name="afii61352" unicode="&#x2116;" horiz-adv-x="2000" 
d="M2013 651h-520l25 137h520zM1822 1034q50 0 92 35t50 84t-20 85q-29 36 -78 36q-48 0 -90 -36t-51 -86t19 -84t78 -34zM1892 1427q115 -1 181 -81t44 -195t-116 -193t-208 -78q-113 0 -179 80q-66 78 -43 194t115 194t206 79zM1489 1411l-248 -1411h-299l-299 770
l-133 -770h-342l248 1411h309l287 -760l135 760h342z" />
    <glyph glyph-name="trademark" unicode="&#x2122;" horiz-adv-x="1724" 
d="M975 662h-189l175 579h-195l-102 -579h-189l103 579h-238l31 170h794l135 -440l291 440h162l-43 -749h-190l24 415l-213 -334h-135l-100 336z" />
    <glyph glyph-name="estimated" unicode="&#x212e;" horiz-adv-x="1312" 
d="M913 1100q-199 0 -344 -127l-57 -334h633l57 334q-51 57 -129 92t-160 35zM702 47q162 -1 271 63t221 197l55 -39q-121 -147 -248 -218t-296 -70q-242 0 -369 172q-125 174 -79 424t229 421q184 170 440 170t374 -174q123 -174 78 -422h-878l-70 -395q110 -129 272 -129z
" />
    <glyph glyph-name="minus" unicode="&#x2212;" horiz-adv-x="1028" 
d="M246 645h758l-39 -225h-758z" />
    <glyph glyph-name="notequal" unicode="&#x2260;" horiz-adv-x="1220" 
d="M1174 547l-35 -209h-547l-141 -211h-144l142 211h-252l34 209h355l137 209h-455l39 209h559l123 186h146l-123 -186h237l-39 -209h-340l-141 -209h445z" />
    <glyph glyph-name="lessequal" unicode="&#x2264;" horiz-adv-x="1292" 
d="M1151 0h-1026l35 207h1026zM1245 555l-43 -238l-954 394l45 250l1093 391l-43 -236l-772 -282z" />
    <glyph glyph-name="greaterequal" unicode="&#x2265;" horiz-adv-x="1292" 
d="M1167 0h-1026l35 207h1026zM1335 961l-45 -250l-1093 -394l43 238l772 279l-674 282l43 236z" />
    <glyph glyph-name="commaaccent" unicode="&#xf6c3;" horiz-adv-x="675" 
d="M180 -618l-133 86q82 90 128 179t75 238h262q-92 -327 -332 -503z" />
    <glyph glyph-name="rupiah" unicode="&#xf6dd;" horiz-adv-x="2539" 
d="M903 1112h-225l-64 -346h226q104 -6 158 98t18 187q-31 65 -113 61zM971 1411q231 0 333 -137t66 -334q-27 -158 -135 -285t-283 -168l260 -487h-397l-223 471h-31l-80 -471h-342l248 1411h584zM2061 682q-81 0 -151 -61t-85 -143q-14 -82 35 -137q49 -56 130 -56
q82 0 150 58t84 140q14 83 -34 141t-129 58zM2179 979q186 0 300 -138q114 -139 75 -361t-202 -360t-341 -138t-254 106l-98 -559h-326l252 1425h307l-24 -137q51 78 136 120t175 42z" />
    <glyph glyph-name="apple" unicode="&#xf8ff;" horiz-adv-x="1734" 
d="M1386 270v-67l-45 67h-16l2 -108h16l-2 67l48 -67h26l-2 108h-27zM1268 221v-18h24q-8 -21 -22 -21t-24 10t-11 23q0 11 9 23q10 12 26 12t16 -21h27q-10 41 -45 41q-23 0 -37 -16t-14 -38t14 -38q15 -16 37 -16t24 14l11 -14h12l-2 59h-45zM1204 162l-2 108h-14l2 -108
h14zM1108 203h-18q0 -41 45 -41t45 35q0 23 -33 29t-33 12q0 12 20 12t19 -12h21q0 32 -33 32t-44 -14q-20 -25 31 -49q25 0 25 -12q-1 -12 -23 -12t-22 20zM1083 250v20h-75l2 -108h82l-2 20h-58v25h51v18h-51v25h51zM950 182h-16v68h8q35 0 35 -35q-1 -13 -9 -23t-18 -10z
M950 270h-41l2 -108h41q49 0 49 54t-51 54zM856 221h-27v29h27q18 0 18 -12q0 -17 -18 -17zM868 270h-57l2 -108l-45 108h-18l-43 -108h24l6 26h45l9 -26h40l-2 45h27q18 0 18 -19q0 -4 3 -16v-10h26q-4 4 -8 26t-14 27q14 6 14 18q0 37 -27 37zM756 244h6l14 -37h-33z
M641 270v-20h35l2 -88h16l-2 88h31v20h-82zM578 203h-27q0 -41 45 -41t45 35q0 23 -32 29t-31 12q0 12 19 12t19 -12h19q0 32 -39 32t-39 -32q0 -16 33 -31q27 0 26 -10q0 -14 -20 -15q-18 1 -18 21zM504 182q-12 0 -24 12t-11 22q0 10 10 22t25 12q25 0 25 -34t-25 -34z
M504 270q-33 0 -45 -26t1 -55q13 -28 46 -27q45 0 45 54t-47 54zM391 197l-29 73h-30l2 -108h18l-2 76l29 -76h20l21 76l2 -76h18l-2 108h-28zM860 680l-545 539l13 -773h166l-154 154l-6 365l530 -519l516 519l6 -365l-149 -154h172l-12 773zM139 1407h1407l25 -1407h-1407
z" />
    <glyph glyph-name="NULL" horiz-adv-x="0" 
 />
    <glyph glyph-name="CR" horiz-adv-x="681" 
 />
    <glyph glyph-name="published" horiz-adv-x="1622" 
d="M1088 1266q-232 0 -423 -165t-233 -400t91 -397q131 -162 361 -163q230 0 425 164q192 166 233 398q41 231 -91 397q-131 166 -363 166zM1115 1427q298 0 470 -212t120 -512t-299 -512q-247 -211 -548 -211t-469 210t-117 510q51 299 297 514q248 213 546 213zM1102 1030
q113 0 165 -66q51 -66 33 -168q-18 -101 -93 -169t-187 -68h-119l-39 -217h-172l121 688h291zM1038 711q66 0 86 63t-18 92q-14 10 -35 11h-117l-28 -166h112z" />
    <glyph glyph-name="frenchfranc" horiz-adv-x="1544" 
d="M1081 260l-43 -260h-303l107 614h-209l-107 -614h-348l248 1411h913l-51 -299h-565l-41 -217h512l-37 -217q106 236 285 235q113 0 186 -34l-112 -293q-57 33 -142 32q-120 0 -190 -87t-103 -271z" />
    <glyph glyph-name="parenleft.case" horiz-adv-x="813" 
d="M342 33q-150 271 -78 675t321 682q249 280 533 279l-43 -237q-141 0 -321 -237q-309 -406 -219 -820q33 -163 113 -269t175 -106l-43 -236q-287 0 -438 269z" />
    <glyph glyph-name="parenright.case" horiz-adv-x="813" 
d="M354 1669q284 0 434 -278q150 -277 79 -681t-317 -674t-534 -272l43 236q143 0 320 225q174 227 221 480q31 163 -4 337t-114 282t-171 108z" />
    <glyph glyph-name="hyphen.case" horiz-adv-x="964" 
d="M999 877l-49 -277h-727l49 277h727z" />
    <glyph glyph-name="at.case" horiz-adv-x="1972" 
d="M1102 489q90 0 153 33l-34 -200q-55 -27 -152 -27q-176 0 -278 124q-101 124 -69 299t176 298t320 123t278 -118q101 -118 77 -286l-49 -286q-12 -57 16 -92q29 -34 76 -33q78 0 141 75q96 121 137 342q49 287 -131 476q-178 193 -470 193q-293 0 -529 -208t-289 -498
t111 -491t454 -201h125l-37 -198h-124q-373 0 -582 257t-143 634q37 239 193 449t385 333q228 123 466 119q243 6 437 -109t286 -317t47 -439q-35 -207 -158 -393q-139 -212 -371 -212q-122 0 -194 81q-72 82 -43 242l45 256q16 96 -39 163q-55 66 -148 66t-172 -66
t-95 -160q-16 -93 38 -161q56 -68 146 -68z" />
    <glyph glyph-name="bracketleft.case" horiz-adv-x="700" 
d="M594 -229h-498l334 1882h498l-39 -221h-234l-254 -1434h234z" />
    <glyph glyph-name="bracketright.case" horiz-adv-x="700" 
d="M315 1432l39 221h498l-334 -1882h-498l41 227h234l254 1434h-234z" />
    <glyph glyph-name="braceleft.case" horiz-adv-x="847" 
d="M889 1653h190l-39 -221h-163q-89 0 -145 -56t-70 -151l-52 -279q-16 -94 -85 -158t-144 -77q66 -10 115 -72q51 -59 32 -162l-49 -278q-18 -95 18 -151t126 -56h163l-41 -221h-190q-175 -1 -277 113t-65 300l53 316q12 57 -19 91q-32 34 -83 34l33 174q51 0 93 34t54 91
l55 315q31 186 173 300t317 114z" />
    <glyph glyph-name="braceright.case" horiz-adv-x="847" 
d="M221 -8q90 0 146 56q55 56 69 151l49 278q18 99 90 161t138 73q-70 14 -115 77t-29 158l49 279q18 94 -17 150q-36 56 -126 57h-164l39 221h191q174 0 276 -116t70 -298l-58 -315q-12 -57 20 -91t83 -34l-31 -174q-51 0 -94 -34t-53 -91l-56 -316q-31 -186 -174 -300
t-317 -113h-191l41 221h164z" />
    <glyph glyph-name="exclamdown.case" horiz-adv-x="604" 
d="M486 1055q-81 0 -128 53q-46 53 -32 133t80 135q66 56 146 56t129 -56q48 -56 34 -135q-14 -80 -81 -133t-148 -53zM473 0h-342l203 938h268z" />
    <glyph glyph-name="guillemotleft.case" horiz-adv-x="1126" 
d="M825 295l-209 424l359 424h244l-359 -424l209 -424h-244zM426 295l-209 424l358 424h244l-358 -424l209 -424h-244z" />
    <glyph glyph-name="periodcentered.case" horiz-adv-x="591" 
d="M459 866q80 0 129 -53t35 -133t-80 -134t-147 -54t-128 54q-46 54 -32 134t78 133q65 53 145 53z" />
    <glyph glyph-name="guillemotright.case" horiz-adv-x="1126" 
d="M553 1143l205 -424l-357 -424h-243l356 424l-205 424h244zM952 1143l205 -424l-356 -424h-244l356 424l-204 424h243z" />
    <glyph glyph-name="questiondown.case" horiz-adv-x="1015" 
d="M804 1053q-80 0 -129 53q-48 53 -34 133t81 135q68 56 148 56t127 -54t33 -136q-14 -81 -80 -134t-146 -53zM639 940h293l-2 -25q-14 -135 -74 -227t-209 -151l-80 -33q-76 -32 -86 -94t22 -91t89 -29t102 38q45 37 56 94h294q-37 -211 -173 -326q-137 -114 -333 -114
t-298 108t-68 291q25 143 113 243t219 144q66 22 94 60t41 112z" />
    <glyph glyph-name="endash.case" horiz-adv-x="1343" 
d="M1372 854l-49 -276h-1102l49 276h1102z" />
    <glyph glyph-name="emdash.case" horiz-adv-x="1785" 
d="M1815 854l-50 -276h-1544l49 276h1545z" />
    <glyph glyph-name="bullet.case" horiz-adv-x="966" 
d="M689 1028q140 0 220 -94q81 -90 57 -228t-138 -232t-254 -95t-222 93t-57 231t139 231q115 94 255 94z" />
    <glyph glyph-name="guilsinglleft.case" horiz-adv-x="727" 
d="M426 295l-209 424l358 424h244l-358 -424l209 -424h-244z" />
    <glyph glyph-name="guilsinglright.case" horiz-adv-x="727" 
d="M553 1143l205 -424l-357 -424h-243l356 424l-205 424h244z" />
    <glyph glyph-name="cent.case" horiz-adv-x="1110" 
d="M784 899q-80 0 -148 -58q-68 -59 -84 -141q-15 -82 32 -140t140 -58t169 88l246 -152q-180 -211 -410 -231l-39 -225h-158l41 231q-180 31 -278 162q-93 133 -61 324t176 323t335 168l41 242h158l-39 -236q219 -23 324 -231l-293 -160q-43 94 -152 94z" />
    <glyph glyph-name="zero.tnum" 
d="M961 1364q141 0 233 -53t127 -147q77 -208 16 -494q-51 -301 -195 -495t-425 -193q-510 0 -391 691t635 691zM770 297q176 0 240 375t-105 375q-91 1 -155 -101t-95 -276q-66 -373 115 -373z" />
    <glyph glyph-name="one.tnum" 
d="M403 807l50 280l620 287l-242 -1374h-333l159 913z" />
    <glyph glyph-name="two.tnum" 
d="M766 1059q-74 0 -120 -45t-77 -137l-286 45q67 210 217 326t342 116t301 -117t76 -300t-197 -333l-352 -319h434l-49 -295h-944l32 184l666 643q133 129 61 201q-30 31 -104 31z" />
    <glyph glyph-name="three.tnum" 
d="M629 569h-137l45 252h137q94 1 129 61t38 93t-25 75t-93 42q-102 0 -199 -84l-164 157q80 99 206 153t259 46q179 -10 275 -121t67 -258q-14 -79 -74 -147t-149 -113q104 -41 152 -127t26 -197q-33 -193 -205 -305t-387 -112q-147 0 -251 66t-138 181l240 185
q16 -60 66 -104q49 -44 137 -44t146 43t70 109t-32 107q-45 42 -139 42z" />
    <glyph glyph-name="four.tnum" 
d="M752 580l77 448l-317 -448h240zM1083 580h160l-49 -269h-160l-53 -311h-332l53 311h-661l762 1032h414z" />
    <glyph glyph-name="five.tnum" 
d="M690 678q-190 0 -358 -143l-127 79l237 729h815l-53 -284h-557l-59 -182q123 74 260 73q182 0 286 -127t66 -342q-39 -215 -219 -358t-442 -143q-137 0 -258 70t-185 186l287 184q81 -131 199 -131t202 64t96 143q13 78 -39 130t-151 52z" />
    <glyph glyph-name="six.tnum" 
d="M668 272q74 0 133 47t69 111t-30 113q-41 47 -114 47q-72 0 -130 -48t-68 -112q-10 -66 28 -112t112 -46zM852 862q123 0 244 -90q61 -45 89 -134t9 -198q-37 -202 -195 -330t-399 -128q-194 0 -306 127t-104 342q13 283 111 502q55 124 134 215q79 92 201 146t272 49
t242 -65q93 -60 136 -196l-289 -127q-27 104 -161 104t-209 -123q-74 -123 -99 -243q29 57 115 103t209 46z" />
    <glyph glyph-name="seven.tnum" 
d="M827 1047h-530l53 296h1016l-774 -1343h-369z" />
    <glyph glyph-name="eight.tnum" 
d="M779 862q60 0 104 34q43 34 52 85t-22 87t-82 36h-12q-55 0 -100 -35t-54 -86t23 -86t91 -35zM870 1364q180 0 285 -104q109 -102 80 -263q-12 -77 -57 -147t-105 -94q84 -27 131 -130t27 -208q-33 -190 -210 -314t-397 -122q-220 0 -354 120q-131 123 -98 316
q20 117 93 210t175 128q-47 35 -68 102q-22 67 -12 139q29 159 179 263q151 104 331 104zM731 623q-81 0 -145 -50t-77 -124t34 -124q47 -51 133 -51t148 50t76 124t-31 124q-44 50 -121 51h-17z" />
    <glyph glyph-name="nine.tnum" 
d="M762 1073q-74 0 -131 -47q-57 -48 -69 -112t28 -111q41 -47 114 -47t129 47t68 113t-27 111q-38 46 -112 46zM578 483q-123 0 -244 90q-61 45 -89 135t-7 197q36 205 192 332t401 127q195 0 306 -127t102 -342q-14 -285 -111 -504q-188 -420 -604 -409q-152 6 -246 65
t-135 197l289 127q27 -105 156 -105t207 116t104 251q-23 -55 -111 -103t-210 -47z" />
    <glyph glyph-name="zero.taboldstyle" 
d="M676 268q86 0 169 67t101 170t-38 170t-144 67t-170 -66q-78 -66 -96 -169t37 -171t141 -68zM815 1030q209 0 335 -144t86 -376t-216 -380t-387 -148t-340 146t-88 378t219 379q182 145 391 145z" />
    <glyph glyph-name="one.taboldstyle" 
d="M422 770l596 283l-187 -1053h-290l108 621l-274 -119z" />
    <glyph glyph-name="two.taboldstyle" 
d="M713 766q-100 0 -138 -115l-290 31q115 348 467 348q195 0 300 -89t81 -216q-15 -82 -49 -133t-128 -123l-262 -199h371l-47 -270h-856l24 150l559 458q49 37 60 84q4 30 -21 52t-71 22z" />
    <glyph glyph-name="six.taboldstyle" 
d="M668 272q74 0 133 47t69 111t-30 113q-41 47 -114 47q-72 0 -130 -48t-68 -112q-10 -66 28 -112t112 -46zM852 862q123 0 244 -90q61 -45 89 -134t9 -198q-37 -202 -195 -330t-399 -128q-194 0 -306 127t-104 342q13 283 111 502q55 124 134 215q79 92 201 146t272 49
t242 -65q93 -60 136 -196l-289 -127q-27 104 -161 104t-209 -123q-74 -123 -99 -243q29 57 115 103t209 46z" />
    <glyph glyph-name="eight.taboldstyle" 
d="M781 862q60 0 104 34q43 34 52 85t-22 87t-81 36h-13q-55 0 -100 -35t-54 -86t23 -86t91 -35zM870 1364q182 0 287 -104q109 -102 80 -263q-12 -77 -57 -147t-105 -94q84 -27 131 -130t27 -208q-33 -190 -210 -314t-397 -122q-220 0 -354 120q-131 123 -98 316
q20 117 93 210t175 128q-47 35 -68 102q-22 67 -12 139q29 159 178 263q148 104 330 104zM733 623q-81 0 -145 -50t-77 -124t34 -124q47 -51 133 -51t148 50t76 124t-31 124q-44 50 -121 51h-17z" />
    <glyph glyph-name="three.taboldstyle" 
d="M563 182h-137l47 252h137q96 0 131 60t38 93q3 32 -25 75q-29 43 -95 43q-102 0 -198 -84l-164 157q80 98 206 152t259 47q178 -10 275 -121t67 -258q-14 -78 -74 -146t-147 -114q102 -41 148 -127t28 -197q-35 -194 -205 -306t-387 -111q-150 -1 -254 65t-137 182
l239 185q53 -147 203 -148q92 0 151 43q58 42 70 108t-33 108q-47 42 -143 42z" />
    <glyph glyph-name="four.taboldstyle" 
d="M688 190l80 449l-319 -449h239zM1020 190h160l-50 -268h-159l-53 -311h-332l53 311h-657l759 1032h414z" />
    <glyph glyph-name="five.taboldstyle" 
d="M621 289q-193 0 -357 -144l-125 80l236 729h815l-51 -284h-557l-62 -183q123 74 262 74q182 0 286 -127t68 -341q-38 -214 -223 -357q-182 -145 -442 -146q-137 0 -258 71t-182 185l284 185q89 -131 203 -131t198 64t99 143q14 79 -40 131t-154 51z" />
    <glyph glyph-name="seven.taboldstyle" 
d="M762 657h-531l54 297h1015l-776 -1343h-368z" />
    <glyph glyph-name="nine.taboldstyle" 
d="M698 688q-74 0 -133 -47t-69 -111t30 -112q40 -47 112 -47t130 47q58 46 69 112t-27 112t-112 46zM515 98q-122 0 -247 90q-61 44 -89 134t-7 198q37 205 194 332t400 127q194 0 306 -127t104 -342q-13 -282 -111 -503q-55 -124 -134 -215t-201 -145t-272 -49t-244 64
q-93 59 -134 197l289 127q29 -104 161 -104t211 130q68 109 93 236q-23 -54 -110 -102t-209 -48z" />
    <glyph glyph-name="zero.oldstyle" horiz-adv-x="1212" 
d="M688 268q86 0 169 67t101 170t-37 170q-57 67 -145 67t-170 -66q-78 -66 -96 -169t37 -171t141 -68zM827 1030q209 0 335 -144t86 -376t-216 -380t-387 -148t-340 146t-88 378t219 379q182 145 391 145z" />
    <glyph glyph-name="one.oldstyle" horiz-adv-x="770" 
d="M213 770l596 283l-186 -1053h-291l108 621l-274 -119z" />
    <glyph glyph-name="two.oldstyle" horiz-adv-x="1064" 
d="M651 766q-100 0 -137 -115l-291 31q115 348 467 348q195 0 300 -89t81 -216q-14 -82 -48 -133t-128 -123l-262 -199h371l-48 -270h-856l25 150l559 458q49 37 56 76q6 38 -18 60t-71 22z" />
    <glyph glyph-name="three.oldstyle" horiz-adv-x="1081" 
d="M510 182h-137l47 252h137q96 0 131 60t38 93q3 32 -26 75t-94 43q-102 0 -198 -84l-164 157q80 98 206 152t259 47q178 -10 275 -121t67 -258q-13 -78 -73 -146t-149 -114q103 -41 149 -127t28 -197q-35 -194 -205 -306t-387 -111q-150 -1 -254 65t-137 182l239 185
q53 -147 203 -148q92 0 150 43q59 42 71 108t-34 108t-142 42z" />
    <glyph glyph-name="four.oldstyle" horiz-adv-x="1253" 
d="M721 190l80 449l-320 -449h240zM1053 190h159l-49 -268h-159l-54 -311h-332l54 311h-662l764 1032h414z" />
    <glyph glyph-name="five.oldstyle" horiz-adv-x="1200" 
d="M627 289q-193 0 -357 -144l-125 80l236 729h815l-51 -284h-557l-62 -183q123 74 262 74q182 0 286 -127t68 -341q-38 -214 -221 -358t-444 -145q-137 0 -258 71t-182 185l285 185q88 -131 202 -131t198 64t99 143q14 79 -40 131t-154 51z" />
    <glyph glyph-name="six.oldstyle" horiz-adv-x="1224" 
d="M686 272q74 0 133 47t69 111t-30 112q-41 48 -114 48t-130 -48t-67 -112q-11 -66 27 -112t112 -46zM870 862q123 0 244 -90q61 -45 89 -134t9 -198q-37 -203 -194 -331q-158 -127 -400 -127q-194 0 -306 127t-103 342q13 281 110 502q55 124 135 215q80 92 200 146
q122 54 272 49t242 -65t137 -196l-289 -127q-29 104 -163 104t-208 -123t-98 -243q29 57 115 103t208 46z" />
    <glyph glyph-name="seven.oldstyle" horiz-adv-x="1079" 
d="M709 657h-531l53 297h1016l-776 -1343h-369z" />
    <glyph glyph-name="eight.oldstyle" horiz-adv-x="1251" 
d="M812 862q60 0 103 34t53 85t-21 87q-30 36 -83 36h-12q-54 0 -100 -35t-55 -86t23 -86t92 -35zM902 1364q181 0 286 -104q109 -102 80 -263q-12 -77 -58 -147t-104 -94q84 -27 131 -130t27 -208q-33 -190 -210 -314q-178 -124 -398 -122q-220 0 -353 120
q-131 123 -98 316q20 117 93 210t175 128q-47 35 -69 102q-21 67 -11 139q29 159 179 263t330 104zM764 623q-82 0 -146 -50t-76 -124t34 -124q46 -51 132 -51t149 50q61 50 75 124t-30 124t-122 51h-16z" />
    <glyph glyph-name="nine.oldstyle" horiz-adv-x="1185" 
d="M698 688q-74 0 -133 -47t-69 -111t30 -112q40 -47 112 -47t130 47q58 46 69 112t-27 112t-112 46zM515 98q-122 0 -247 90q-61 44 -89 134t-7 198q37 205 194 332t400 127q194 0 306 -127t104 -342q-13 -282 -111 -503q-55 -124 -134 -215t-201 -145t-272 -49t-244 64
q-93 59 -134 197l289 127q29 -104 161 -104t211 130q68 109 93 236q-23 -54 -110 -102t-209 -48z" />
    <glyph glyph-name="Lslash.sc" horiz-adv-x="931" 
d="M528 270h426l-47 -270h-741l76 438l-146 -80l31 177l145 79l107 594h315l-71 -399l196 113l-31 -177l-196 -114z" />
    <glyph glyph-name="Zcaron.sc" horiz-adv-x="1097" 
d="M88 0l39 225l627 713h-478l48 270h886l-41 -227l-634 -711h509l-47 -270h-909zM997 1614h201l-254 -314h-287l-139 314h201l112 -156z" />
    <glyph glyph-name="exclam.sc" horiz-adv-x="624" 
d="M322 -14q-74 0 -116 49t-28 122t72 119t131 48q74 0 117 -48q42 -48 28 -120t-72 -121t-132 -49zM524 418h-245l108 790h305z" />
    <glyph glyph-name="ampersand.sc" horiz-adv-x="1273" 
d="M498 -16q-172 0 -255 96t-55 252q18 104 86 180t160 106q-68 23 -102 101t-19 174q23 135 140 225q121 90 290 105q231 16 351 -150l-248 -186q-33 51 -83 51t-88 -30t-44 -64q2 -12 -1 -37q-4 -25 26 -49t89 -25h144l20 119h271l-25 -131h154l-37 -215h-154l-22 -129
q-35 -176 43 -176q37 0 127 55l-37 -215q-131 -55 -221 -55q-164 0 -181 145q-55 -67 -149 -107t-180 -40zM678 483q-82 0 -125 -65q-41 -80 11 -122q32 -26 72 -26t76 12t77 65q41 54 53 132l2 4h-166z" />
    <glyph glyph-name="question.sc" horiz-adv-x="894" 
d="M375 -14q-74 0 -116 49t-28 122q13 73 71 119t132 48q74 0 117 -48t29 -120t-72 -121t-133 -49zM578 422h-259l11 61q33 172 200 258l50 25q99 47 110 76q4 10 8 30q18 53 -43 72q-72 20 -121 -16t-53 -84l-262 4q37 182 154 281t285 99t253 -92q86 -93 60 -251
q-47 -252 -281 -334q-100 -35 -112 -129z" />
    <glyph glyph-name="A.sc" horiz-adv-x="1228" 
d="M821 541l-47 381l-170 -381h217zM1225 0h-328l-53 272h-363l-145 -272h-332l655 1208h336z" />
    <glyph glyph-name="B.sc" horiz-adv-x="1169" 
d="M711 494h-164l-39 -224h164q61 0 101 32t48 80t-19 80q-28 32 -91 32zM731 748q41 0 71 24t38 64q18 102 -68 102h-145l-35 -190h139zM860 1208q170 0 256 -88t62 -233q-14 -78 -64 -146t-133 -96q94 -25 138 -109t29 -166q-27 -151 -133 -260q-106 -110 -333 -110h-532
l212 1208h498z" />
    <glyph glyph-name="C.sc" horiz-adv-x="1275" 
d="M903 905q-123 0 -230 -90t-127 -215t48 -215q74 -88 201 -88q165 0 286 145l226 -176q-252 -285 -568 -284q-255 0 -405 181t-104 439t261 439t467 182q158 0 283 -76t186 -207l-292 -180q-29 66 -91 106t-141 39z" />
    <glyph glyph-name="D.sc" horiz-adv-x="1267" 
d="M795 934h-170l-117 -660h170q114 0 194 94t104 231q24 135 -23 235t-158 100zM631 0h-481l212 1208h482q254 0 370 -172q117 -168 71 -432t-222 -434t-432 -170z" />
    <glyph glyph-name="E.sc" horiz-adv-x="1056" 
d="M506 270h498l-48 -270h-806l212 1208h791l-47 -270h-481l-39 -209h424l-45 -266h-424z" />
    <glyph glyph-name="F.sc" horiz-adv-x="985" 
d="M918 461h-375l-80 -461h-313l212 1208h785l-47 -270h-471l-39 -209h375z" />
    <glyph glyph-name="G.sc" horiz-adv-x="1355" 
d="M922 934q-140 0 -247 -96t-132 -234t47 -242q74 -100 203 -100q205 0 282 158h-327l40 231h672q-60 -333 -248 -501t-460 -168t-420 181q-150 181 -104 438t259 439t476 183q145 0 261 -60t179 -164l-264 -194q-77 129 -217 129z" />
    <glyph glyph-name="H.sc" horiz-adv-x="1263" 
d="M672 1208l-84 -469h340l84 469h315l-213 -1208h-315l80 461h-340l-80 -461h-309l212 1208h310z" />
    <glyph glyph-name="I.sc" horiz-adv-x="608" 
d="M459 0h-309l212 1208h310z" />
    <glyph glyph-name="J.sc" horiz-adv-x="612" 
d="M20 -129q104 0 127 127l213 1210h314l-213 -1210q-33 -190 -158 -305t-326 -115q-110 0 -196 35l76 278q59 -20 163 -20z" />
    <glyph glyph-name="K.sc" horiz-adv-x="1157" 
d="M1284 1208l-561 -596l459 -612h-428l-236 346l-59 -346h-309l212 1208h310l-58 -321l277 321h393z" />
    <glyph glyph-name="L.sc" horiz-adv-x="913" 
d="M510 270h426l-47 -270h-739l212 1208h314z" />
    <glyph glyph-name="M.sc" horiz-adv-x="1632" 
d="M702 1208l203 -710l449 710h260l-66 -1208h-321l39 612l-310 -473h-233l-141 473l-179 -612h-319l360 1208h258z" />
    <glyph glyph-name="N.sc" horiz-adv-x="1224" 
d="M641 1208l225 -612l111 612h311l-213 -1208h-270l-238 618l-108 -618h-309l212 1208h279z" />
    <glyph glyph-name="O.sc" horiz-adv-x="1392" 
d="M739 -18q-257 0 -407 181t-103 439t259 439t469 181t405 -180q148 -182 100 -442q-47 -260 -257 -439t-466 -179zM902 909q-126 0 -231 -90t-128 -218t50 -218t198 -90t231 89t129 218t-51 217q-72 92 -198 92z" />
    <glyph glyph-name="P.sc" horiz-adv-x="1120" 
d="M721 397h-193l-69 -397h-309l212 1208h502q201 0 290 -120t58 -286q-30 -166 -158 -285q-128 -120 -333 -120zM799 938h-174l-52 -274h179q119 0 145 137q25 137 -98 137z" />
    <glyph glyph-name="Q.sc" horiz-adv-x="1409" 
d="M911 936q-129 0 -236 -95t-131 -229t41 -221q65 -88 191 -112l-53 137l238 125l69 -168q110 90 134 229q24 138 -50 236t-203 98zM743 -14q-261 0 -411 181t-104 438t260 439t476 182t410 -182q150 -178 103 -440q-27 -141 -115 -273t-217 -220l76 -189l-242 -129
l-86 207q-70 -14 -150 -14z" />
    <glyph glyph-name="R.sc" horiz-adv-x="1163" 
d="M864 1208q201 0 290 -120t61 -272t-122 -259q-95 -106 -235 -143l223 -414h-356l-186 397h-11l-69 -397h-309l212 1208h502zM803 938h-178l-52 -274h181q119 0 145 137q25 137 -96 137z" />
    <glyph glyph-name="S.sc" horiz-adv-x="1064" 
d="M612 254q133 0 148 86q10 55 -96 96l-132 49q-88 29 -146 76t-80 95q-52 114 -27 190q31 170 169 272t324 102q188 0 286 -102q98 -104 64 -282h-309q19 104 -95 104t-130 -84q-4 -30 21 -51q26 -20 69 -35l127 -43q322 -104 272 -371q-20 -125 -112 -217
q-158 -158 -406 -157q-205 0 -309 102t-74 281h313q-10 -111 123 -111z" />
    <glyph glyph-name="T.sc" horiz-adv-x="983" 
d="M645 0h-307l166 938h-307l47 270h921l-47 -270h-307z" />
    <glyph glyph-name="U.sc" horiz-adv-x="1234" 
d="M651 -18q-197 0 -317 127q-119 128 -82 331l133 764h309l-133 -764q-12 -72 30 -120q43 -48 111 -48t126 48t73 120l133 764h312l-134 -764q-36 -206 -200 -332t-361 -126z" />
    <glyph glyph-name="V.sc" horiz-adv-x="1075" 
d="M1255 1208l-583 -1208h-271l-155 1208h323l56 -700l303 700h327z" />
    <glyph glyph-name="W.sc" horiz-adv-x="1589" 
d="M639 563l209 471h258l43 -473l309 647h338l-625 -1208h-235l-45 555l-236 -555h-239l-195 1208h334z" />
    <glyph glyph-name="X.sc" horiz-adv-x="1234" 
d="M637 1208l135 -319l252 319h373l-482 -565l304 -643h-367l-168 393l-303 -393h-365l527 643l-279 565h373z" />
    <glyph glyph-name="Y.sc" horiz-adv-x="1212" 
d="M856 535l-94 -535h-311l96 541l-357 667h371l182 -426l338 426h363z" />
    <glyph glyph-name="Z.sc" horiz-adv-x="1097" 
d="M88 0l39 225l627 713h-478l48 270h886l-41 -227l-634 -711h509l-47 -270h-909z" />
    <glyph glyph-name="Scaron.sc" horiz-adv-x="1064" 
d="M612 254q133 0 148 86q8 55 -96 96l-132 49q-88 29 -146 76t-80 95q-52 114 -27 190q31 170 169 272t324 102q188 0 286 -102q98 -104 64 -282h-309q19 104 -95 104t-130 -84q-5 -30 22 -51q27 -20 68 -35l127 -43q322 -106 272 -371q-20 -125 -112 -217
q-158 -158 -406 -157q-205 0 -309 102t-74 281h313q-10 -111 123 -111zM987 1614h201l-254 -314h-287l-137 314h199l112 -156z" />
    <glyph glyph-name="OE.sc" horiz-adv-x="1912" 
d="M1405 270h500l-47 -270h-809l8 57q-160 -76 -320 -75q-255 0 -405 181t-103 439t259 439t468 182q154 0 293 -80l13 65h792l-47 -270h-483l-39 -209h426l-45 -266h-426zM792 293q126 0 232 89t129 219t-51 219t-199 89t-231 -91t-129 -218t50 -217t199 -90z" />
    <glyph glyph-name="Ydieresis.sc" horiz-adv-x="1212" 
d="M856 535l-94 -535h-311l96 541l-357 667h371l182 -426l338 426h363zM1058 1591q58 0 90 -39t22 -94t-57 -94q-46 -39 -103 -39t-92 39t-26 94t58 94q50 39 108 39zM724 1591q58 0 90 -39t22 -94t-56 -94t-104 -39q-57 0 -92 39t-26 94t58 94q50 39 108 39z" />
    <glyph glyph-name="exclamdown.sc" horiz-adv-x="620" 
d="M524 1223q72 0 116 -49t30 -122t-74 -120t-135 -47q-74 0 -114 47q-39 47 -25 120t72 122t130 49zM463 0h-305l170 791h245z" />
    <glyph glyph-name="questiondown.sc" horiz-adv-x="894" 
d="M700 887q-74 0 -116 47t-29 120t73 122t134 49t114 -49t27 -122t-71 -120t-132 -47zM476 -18q-169 0 -255 93t-59 251q47 252 282 333q53 18 79 48t32 81h258l-10 -61q-29 -170 -201 -258l-47 -25q-100 -49 -112 -76q-25 -56 3 -81q28 -27 76 -27t84 30q37 30 45 77
l260 -5q-35 -184 -151 -282t-284 -98z" />
    <glyph glyph-name="Agrave.sc" horiz-adv-x="1228" 
d="M821 541l-47 381l-170 -381h217zM1225 0h-328l-53 272h-363l-145 -272h-332l655 1208h336zM977 1296h-186l-185 318h273z" />
    <glyph glyph-name="Aacute.sc" horiz-adv-x="1228" 
d="M821 541l-47 381l-170 -381h217zM1225 0h-328l-53 272h-363l-145 -272h-332l655 1208h336zM694 1296l213 318h275l-299 -318h-189z" />
    <glyph glyph-name="Acircumflex.sc" horiz-adv-x="1228" 
d="M821 541l-47 381l-170 -381h217zM1225 0h-328l-53 272h-363l-145 -272h-332l655 1208h336zM872 1468l-165 -155h-201l252 311h286l142 -311h-203z" />
    <glyph glyph-name="Atilde.sc" horiz-adv-x="1228" 
d="M786 1368q-18 0 -35 -17t-26 -57h-137q29 117 89 177t132 61q35 0 78 -37t62 -37t33 24q15 24 19 50h140q-29 -117 -89 -177t-132 -61q-35 0 -76 37q-40 37 -58 37zM821 541l-47 381l-170 -381h217zM1225 0h-328l-53 272h-363l-145 -272h-332l655 1208h336z" />
    <glyph glyph-name="Adieresis.sc" horiz-adv-x="1228" 
d="M821 541l-47 381l-170 -381h217zM1225 0h-328l-53 272h-363l-145 -272h-332l655 1208h336zM1069 1591q59 0 90 -39t21 -95t-56 -94t-102 -38q-57 0 -93 39t-27 93q8 54 58 94t109 40zM735 1591q57 0 90 -39t23 -94t-56 -94t-104 -39t-91 39q-34 39 -26 93q7 54 57 94
t107 40z" />
    <glyph glyph-name="Aring.sc" horiz-adv-x="1228" 
d="M821 541l-47 381l-170 -381h217zM1225 0h-328l-53 272h-363l-145 -272h-332l655 1208h336zM860 1409q47 0 86 31t47 80t-19 82q-28 32 -74 32t-83 -32t-45 -82q-8 -49 16 -80t72 -31zM923 1745q91 0 143 -66q52 -67 37 -159t-93 -156t-170 -66q-92 0 -144 65
q-50 65 -35 158t93 159t169 65z" />
    <glyph glyph-name="AE.sc" horiz-adv-x="1691" 
d="M924 825l-207 -303h155zM563 260l-207 -260h-376l956 1208h854l-47 -270h-483l-39 -209h421l-45 -262h-421l-35 -197h497l-47 -270h-811l43 260h-260z" />
    <glyph glyph-name="Ccedilla.sc" horiz-adv-x="1280" 
d="M596 -362q-86 0 -125 68t-20 167l129 -6q-25 -78 14 -98q34 -12 66 7t40 60q16 94 -61 154q-215 33 -336 207q-117 176 -78 403q47 260 262 441t467 182q158 0 283 -76t186 -207l-293 -180q-29 66 -91 106t-140 39q-123 0 -230 -90t-127 -215t48 -215q74 -88 201 -88
q161 0 288 145l224 -176q-99 -122 -235 -196t-277 -86q51 -70 35 -157t-80 -138t-150 -51z" />
    <glyph glyph-name="Egrave.sc" horiz-adv-x="1056" 
d="M506 270h498l-48 -270h-806l212 1208h791l-47 -270h-481l-39 -209h424l-45 -266h-424zM897 1296h-188l-185 318h275z" />
    <glyph glyph-name="Eacute.sc" horiz-adv-x="1056" 
d="M827 1614h275l-299 -318h-189zM956 0h-806l212 1208h791l-47 -270h-481l-39 -209h424l-45 -266h-424l-35 -193h498z" />
    <glyph glyph-name="Ecircumflex.sc" horiz-adv-x="1056" 
d="M506 270h498l-48 -270h-806l212 1208h791l-47 -270h-481l-39 -209h424l-45 -266h-424zM778 1466l-168 -153h-198l250 311h286l144 -311h-203z" />
    <glyph glyph-name="Edieresis.sc" horiz-adv-x="1056" 
d="M976 1591q60 0 91 -39t21 -95t-56 -94q-45 -38 -102 -38t-93 39t-27 93t58 94q48 40 108 40zM643 1591q57 0 90 -39t23 -94t-56 -94t-104 -39q-57 0 -91 39t-26 93q7 54 57 94t107 40zM956 0h-806l212 1208h791l-47 -270h-481l-39 -209h424l-45 -266h-424l-35 -193h498z
" />
    <glyph glyph-name="Igrave.sc" horiz-adv-x="608" 
d="M459 0h-309l212 1208h310zM692 1296h-188l-185 318h273z" />
    <glyph glyph-name="Iacute.sc" horiz-adv-x="608" 
d="M459 0h-309l212 1208h310zM375 1286l211 324h272l-297 -324h-186z" />
    <glyph glyph-name="Icircumflex.sc" horiz-adv-x="608" 
d="M459 0h-309l212 1208h310zM561 1466l-168 -153h-198l249 311h287l141 -311h-200z" />
    <glyph glyph-name="Idieresis.sc" horiz-adv-x="608" 
d="M459 0h-309l212 1208h310zM754 1591q58 0 91 -39q31 -39 21 -95t-56 -94t-102 -38t-93 39q-35 39 -26 94t58 94t107 39zM420 1591q58 0 91 -39q31 -39 21 -95t-55 -94t-103 -38t-92 39t-26 93t57 94t107 40z" />
    <glyph glyph-name="Eth.sc" horiz-adv-x="1296" 
d="M707 274q113 0 193 94t105 231q23 135 -23 235t-159 100h-170l-45 -256h176l-34 -191h-177l-36 -213h170zM659 0h-481l84 487h-164l35 191h164l94 530h481q254 0 371 -170t71 -434t-222 -434t-433 -170z" />
    <glyph glyph-name="Ntilde.sc" horiz-adv-x="1224" 
d="M782 1368q-16 0 -33 -17t-26 -57h-137q29 117 89 177t132 61q35 0 78 -37t62 -37t33 24q15 24 19 50h140q-29 -117 -89 -177t-132 -61q-35 0 -77 37q-43 37 -59 37zM641 1208l225 -612l111 612h311l-213 -1208h-270l-238 618l-108 -618h-309l212 1208h279z" />
    <glyph glyph-name="Ograve.sc" horiz-adv-x="1392" 
d="M739 -18q-257 0 -407 181t-103 439t259 439t469 181t405 -180q148 -182 100 -442q-47 -260 -257 -439t-466 -179zM902 909q-126 0 -231 -90t-128 -218t50 -218t198 -90t231 89t129 218t-51 217q-72 92 -198 92zM1067 1296h-188l-185 318h275z" />
    <glyph glyph-name="Oacute.sc" horiz-adv-x="1392" 
d="M739 -18q-257 0 -407 181t-103 439t259 439t469 181t405 -180q148 -182 100 -442q-47 -260 -257 -439t-466 -179zM902 909q-126 0 -231 -90t-128 -218t50 -218t198 -90t231 89t129 218t-51 217q-72 92 -198 92zM842 1296l217 318h272l-299 -318h-190z" />
    <glyph glyph-name="Ocircumflex.sc" horiz-adv-x="1392" 
d="M739 -18q-257 0 -407 181t-103 439t259 439t469 181t405 -180q148 -182 100 -442q-47 -260 -257 -439t-466 -179zM902 909q-126 0 -231 -90t-128 -218t50 -218t198 -90t231 89t129 218t-51 217q-72 92 -198 92zM1001 1466l-167 -153h-201l252 311h284l144 -311h-203z" />
    <glyph glyph-name="Otilde.sc" horiz-adv-x="1392" 
d="M971 1331q-41 37 -60 37t-36 -24t-23 -50h-137q29 118 89 178t132 60q35 0 78 -37t62 -37t33 24q15 24 19 50h140q-25 -117 -86 -177t-135 -61q-35 0 -76 37zM739 -18q-257 0 -407 181t-103 439t259 439t469 181t405 -180q148 -182 100 -442q-47 -260 -257 -439
t-466 -179zM902 909q-126 0 -231 -90t-128 -218t50 -218t198 -90t231 89t129 218t-51 217q-72 92 -198 92z" />
    <glyph glyph-name="Odieresis.sc" horiz-adv-x="1392" 
d="M739 -18q-257 0 -407 181t-103 439t259 439t469 181t405 -180q148 -182 100 -442q-47 -260 -257 -439t-466 -179zM902 909q-126 0 -231 -90t-128 -218t50 -218t198 -90t231 89t129 218t-51 217q-72 92 -198 92zM1190 1591q58 0 91 -39q32 -39 22 -94q-11 -55 -57 -94
t-104 -39t-92 38t-25 94t58 95t107 39zM856 1591q57 0 90 -39t23 -94q-9 -55 -57 -94t-105 -39t-91 39t-25 93t59 94t106 40z" />
    <glyph glyph-name="Oslash.sc" horiz-adv-x="1392" 
d="M745 291q123 0 232 90q106 92 129 219q14 82 -23 166l-491 -424q69 -51 153 -51zM842 911q-113 0 -218 -91q-104 -90 -124 -204t14 -192l504 434q-63 53 -176 53zM692 -18q-211 0 -356 133l-168 -146l-72 90l164 142q-117 176 -78 399q47 260 259 441t468 182
q219 0 365 -140l162 140l71 -86l-164 -144q113 -170 72 -393q-47 -258 -256 -438t-467 -180z" />
    <glyph glyph-name="Ugrave.sc" horiz-adv-x="1234" 
d="M649 -18q-197 0 -317 126t-84 332l135 764h309l-133 -764q-12 -72 30 -120q43 -48 111 -48t126 48t73 120l133 764h311l-135 -764q-34 -206 -198 -332t-361 -126zM1006 1296h-187l-184 318h272z" />
    <glyph glyph-name="Uacute.sc" horiz-adv-x="1234" 
d="M649 -18q-197 0 -317 126t-84 332l135 764h309l-133 -764q-12 -72 30 -120q43 -48 111 -48t126 48t73 120l133 764h311l-135 -764q-34 -206 -198 -332t-361 -126zM768 1296l215 318h274l-301 -318h-188z" />
    <glyph glyph-name="Ucircumflex.sc" horiz-adv-x="1234" 
d="M649 -18q-197 0 -317 126t-84 332l135 764h309l-133 -764q-12 -72 30 -120q43 -48 111 -48t126 48t73 120l133 764h311l-135 -764q-34 -206 -198 -332t-361 -126zM911 1466l-168 -153h-198l252 311h286l140 -311h-203z" />
    <glyph glyph-name="Udieresis.sc" horiz-adv-x="1234" 
d="M649 -18q-197 0 -317 126t-84 332l135 764h309l-133 -764q-12 -72 30 -120q43 -48 111 -48t126 48t73 120l133 764h311l-135 -764q-34 -206 -198 -332t-361 -126zM1104 1591q60 0 90 -39t20 -95t-56 -94t-103 -38t-92 39t-26 93t58 94t109 40zM770 1591q57 0 90 -39
t23 -94q-9 -55 -57 -94t-105 -39t-91 39t-25 93t59 94t106 40z" />
    <glyph glyph-name="Yacute.sc" horiz-adv-x="1212" 
d="M856 535l-94 -535h-311l96 541l-357 667h371l182 -426l338 426h363zM711 1296l217 318h272l-301 -318h-188z" />
    <glyph glyph-name="Thorn.sc" horiz-adv-x="1040" 
d="M621 201h-129l-33 -201h-309l212 1208h310l-35 -192h129q172 0 267 -113t61 -294t-169 -295q-136 -114 -304 -113zM688 760h-96l-53 -303h112q53 -1 91 41t52 111q13 69 -15 110t-91 41z" />
    <glyph glyph-name="Amacron.sc" horiz-adv-x="1228" 
d="M821 541l-47 381l-170 -381h217zM1225 0h-328l-53 272h-363l-145 -272h-332l655 1208h336zM621 1501h516l-27 -162h-516z" />
    <glyph glyph-name="Abreve.sc" horiz-adv-x="1228" 
d="M821 541l-47 381l-170 -381h217zM1225 0h-328l-53 272h-363l-145 -272h-332l655 1208h336zM872 1475q72 0 89 86h167q-18 -106 -97 -173t-187 -67t-162 70q-53 70 -35 170h164q-8 -45 5 -65t56 -21z" />
    <glyph glyph-name="Cacute.sc" horiz-adv-x="1275" 
d="M852 1296l213 318h274l-299 -318h-188zM903 905q-123 0 -230 -90t-127 -215t48 -215q74 -88 201 -88q166 0 286 145l226 -176q-252 -285 -568 -284q-255 0 -405 181t-104 439t261 439t467 182q158 0 283 -76t186 -207l-292 -180q-29 66 -91 106t-141 39z" />
    <glyph glyph-name="Ccircumflex.sc" horiz-adv-x="1275" 
d="M903 905q-123 0 -230 -90t-127 -215t48 -215q74 -88 201 -88q165 0 286 145l226 -176q-252 -285 -568 -284q-255 0 -405 181t-104 439t261 439t467 182q158 0 283 -76t186 -207l-292 -180q-29 66 -91 106t-141 39zM1010 1522l-166 -156h-199l250 311h287l141 -311h-203z
" />
    <glyph glyph-name="Cdotaccent.sc" horiz-adv-x="1275" 
d="M974 1319q-66 -1 -100 41t-24 106t61 108q51 42 115 42t102 -42q37 -42 27 -107t-63 -107t-118 -41zM903 905q-123 0 -230 -90t-127 -215t48 -215q74 -88 201 -88q166 0 286 145l226 -176q-252 -285 -568 -284q-255 0 -405 181t-104 439t261 439t467 182q158 0 283 -76
t186 -207l-292 -180q-29 66 -91 106t-141 39z" />
    <glyph glyph-name="Ccaron.sc" horiz-adv-x="1275" 
d="M903 905q-123 0 -230 -90t-127 -215t48 -215q74 -88 201 -88q165 0 286 145l226 -176q-252 -285 -568 -284q-255 0 -405 181t-104 439t261 439t467 182q158 0 283 -76t186 -207l-292 -180q-29 66 -91 106t-141 39zM1186 1665h203l-250 -311h-287l-143 311h200l113 -154z
" />
    <glyph glyph-name="Dcaron.sc" horiz-adv-x="1265" 
d="M793 934h-170l-117 -662h170q114 0 194 96t105 232q19 138 -25 236t-157 98zM629 0h-479l212 1206h480q254 0 370 -172q117 -168 71 -431t-222 -433t-432 -170zM1042 1614h201l-254 -314h-284l-140 314h201l111 -158z" />
    <glyph glyph-name="Aogonek.sc" horiz-adv-x="1228" 
d="M821 541l-47 381l-170 -381h217zM659 1208h336l230 -1208q-115 -84 -127 -164q-8 -39 18 -59t60 -8q47 20 57 98l129 6q-14 -102 -74 -169q-60 -66 -151 -66q-90 0 -139 52q-48 52 -31 136q15 103 114 174h-184l-53 272h-363l-145 -272h-332z" />
    <glyph glyph-name="Emacron.sc" horiz-adv-x="1056" 
d="M506 270h498l-48 -270h-806l212 1208h791l-47 -270h-481l-39 -209h424l-45 -266h-424zM524 1501h516l-26 -162h-516z" />
    <glyph glyph-name="Ebreve.sc" horiz-adv-x="1056" 
d="M791 1475q72 0 88 86h168q-17 -106 -97 -173t-188 -67t-162 70q-53 70 -35 170h164q-8 -45 5 -65t57 -21zM956 0h-806l212 1208h791l-47 -270h-481l-39 -209h424l-45 -266h-424l-35 -193h498z" />
    <glyph glyph-name="Edotaccent.sc" horiz-adv-x="1056" 
d="M816 1616q64 0 102 -42t26 -107q-10 -65 -63 -107t-118 -41q-65 -1 -99 41t-25 106q10 64 61 108q52 42 116 42zM956 0h-806l212 1208h791l-47 -270h-481l-39 -209h424l-45 -266h-424l-35 -193h498z" />
    <glyph glyph-name="Ecaron.sc" horiz-adv-x="1056" 
d="M506 270h498l-48 -270h-806l212 1208h791l-47 -270h-481l-39 -209h424l-45 -266h-424zM942 1614h203l-256 -314h-287l-137 314h199l112 -158z" />
    <glyph glyph-name="Gcircumflex.sc" horiz-adv-x="1355" 
d="M1016 1522l-166 -156h-199l250 311h287l141 -311h-203zM922 934q-140 0 -247 -96t-132 -234t47 -242q74 -100 203 -100q205 0 282 158h-327l40 231h672q-60 -333 -248 -501t-460 -168t-420 181q-150 181 -104 438t259 439t476 183q145 0 261 -60t179 -164l-264 -194
q-77 129 -217 129z" />
    <glyph glyph-name="Gbreve.sc" horiz-adv-x="1355" 
d="M922 934q-140 0 -247 -96t-132 -234t47 -242q74 -100 203 -100q205 0 282 158h-327l40 231h672q-60 -333 -248 -501t-460 -168t-420 181q-150 181 -104 438t259 439t476 183q145 0 261 -60t179 -164l-264 -194q-77 129 -217 129zM1012 1475q70 0 84 86h170
q-18 -106 -98 -173t-188 -67t-162 70t-36 170h166q-8 -45 6 -65t58 -21z" />
    <glyph glyph-name="Eogonek.sc" horiz-adv-x="1056" 
d="M1004 270l-48 -270q-115 -84 -127 -164q-8 -39 19 -59q26 -20 66 -4t51 94l129 6q-14 -102 -74 -169q-60 -66 -150 -66q-92 0 -140 52t-32 141t115 169h-663l212 1208h791l-47 -270h-481l-39 -209h424l-45 -266h-424l-35 -193h498z" />
    <glyph glyph-name="Dcroat.sc" horiz-adv-x="1296" 
d="M707 274q113 0 193 94t105 231q23 135 -23 235t-159 100h-170l-45 -256h176l-34 -191h-177l-36 -213h170zM659 0h-481l84 487h-164l35 191h164l94 530h481q254 0 371 -170t71 -434t-222 -434t-433 -170z" />
    <glyph glyph-name="Gdotaccent.sc" horiz-adv-x="1355" 
d="M922 934q-140 0 -247 -96t-132 -234t47 -242q74 -100 203 -100q205 0 282 158h-327l40 231h672q-60 -333 -248 -501t-460 -168t-420 181q-150 181 -104 438t259 439t476 183q145 0 261 -60t179 -164l-264 -194q-77 129 -217 129zM990 1319q-66 -1 -101 41t-25 106t62 108
q52 42 116 42t100 -42t26 -107t-62 -107q-50 -42 -116 -41z" />
    <glyph glyph-name="Hcircumflex.sc" horiz-adv-x="1263" 
d="M672 1208l-84 -469h340l84 469h315l-213 -1208h-315l80 461h-340l-80 -461h-309l212 1208h310zM889 1468l-166 -155h-199l250 311h287l141 -311h-203z" />
    <glyph glyph-name="Hbar.sc" horiz-adv-x="1292" 
d="M942 739l25 146h-340l-25 -146h340zM555 463l-82 -463h-311l153 885h-127l29 151h127l31 172h311l-31 -172h340l31 172h315l-30 -172h129l-29 -151h-129l-154 -885h-315l82 463h-340z" />
    <glyph glyph-name="Itilde.sc" horiz-adv-x="608" 
d="M466 1368q-16 0 -34 -17t-26 -57h-138q29 117 89 177t132 61q35 0 78 -37t61 -37t34 24t20 50h139q-29 -117 -89 -177t-132 -61q-35 0 -76 37t-58 37zM459 0h-309l212 1208h310z" />
    <glyph glyph-name="Imacron.sc" horiz-adv-x="608" 
d="M459 0h-309l212 1208h310zM311 1501h516l-26 -162h-516z" />
    <glyph glyph-name="Iogonek.sc" horiz-adv-x="608" 
d="M362 1208h310l-213 -1208q-115 -84 -127 -164q-8 -39 18 -59t60 -8q47 20 57 98l129 6q-33 -236 -227 -235q-88 0 -137 52q-48 52 -32 140t115 170h-165z" />
    <glyph glyph-name="IJ.sc" horiz-adv-x="1220" 
d="M635 -129q98 0 121 127l215 1210h313l-215 -1210q-33 -192 -158 -306t-327 -114q-111 0 -199 35l76 278q59 -20 174 -20zM459 0h-309l212 1208h310z" />
    <glyph glyph-name="Jcircumflex.sc" horiz-adv-x="612" 
d="M27 -129q98 0 120 127l215 1210h314l-215 -1210q-33 -190 -158 -305t-326 -115q-110 0 -196 35l76 278q59 -20 170 -20zM559 1466l-164 -153h-200l251 311h285l141 -311h-200z" />
    <glyph glyph-name="Lacute.sc" horiz-adv-x="913" 
d="M377 1296l217 318h272l-299 -318h-190zM889 0h-739l212 1208h314l-166 -938h426z" />
    <glyph glyph-name="Lcaron.sc" horiz-adv-x="974" 
d="M723 891l217 317h272l-299 -317h-190zM510 270h426l-47 -270h-739l212 1208h314z" />
    <glyph glyph-name="Ldot.sc" horiz-adv-x="927" 
d="M860 731q64 0 104 -43q38 -42 26 -106t-64 -106q-51 -42 -117 -42q-65 0 -101 42t-24 108t62 106t114 41zM510 270h426l-47 -270h-739l212 1208h314z" />
    <glyph glyph-name="Nacute.sc" horiz-adv-x="1224" 
d="M674 1296l213 318h274l-299 -318h-188zM977 1208h311l-213 -1208h-270l-238 618l-108 -618h-309l212 1208h279l225 -612z" />
    <glyph glyph-name="Ncaron.sc" horiz-adv-x="1224" 
d="M641 1208l225 -612l111 612h311l-213 -1208h-270l-238 618l-108 -618h-309l212 1208h279zM1036 1614h203l-256 -314h-285l-139 314h201l110 -158z" />
    <glyph glyph-name="Omacron.sc" horiz-adv-x="1392" 
d="M739 -18q-257 0 -407 181t-103 439t259 439t469 181t405 -180q148 -182 100 -442q-47 -260 -257 -439t-466 -179zM902 909q-126 0 -231 -90t-128 -218t50 -218t198 -90t231 89t129 218t-51 217q-72 92 -198 92zM748 1501h514l-27 -162h-514z" />
    <glyph glyph-name="Obreve.sc" horiz-adv-x="1392" 
d="M739 -18q-257 0 -407 181t-103 439t259 439t469 181t405 -180q148 -182 100 -442q-47 -260 -257 -439t-466 -179zM902 909q-126 0 -231 -90t-128 -218t50 -218t198 -90t231 89t129 218t-51 217q-72 92 -198 92zM1001 1475q72 0 86 86h170q-18 -104 -99 -172
q-80 -68 -188 -68t-162 70t-36 170h164q-14 -86 65 -86z" />
    <glyph glyph-name="Ohungarumlaut.sc" horiz-adv-x="1392" 
d="M739 -18q-257 0 -407 181t-103 439t259 439t469 181t405 -180q148 -182 100 -442q-47 -260 -257 -439t-466 -179zM902 909q-126 0 -231 -90t-128 -218t50 -218t198 -90t231 89t129 218t-51 217q-72 92 -198 92zM932 1292h-168l213 316h188zM1192 1292h-180l237 316h197z
" />
    <glyph glyph-name="Racute.sc" horiz-adv-x="1163" 
d="M864 1208q201 0 290 -120t61 -272t-122 -259q-95 -106 -235 -143l223 -414h-356l-186 397h-11l-69 -397h-309l212 1208h502zM754 664q119 0 145 137q25 137 -96 137h-178l-52 -274h181zM621 1296l213 318h272l-297 -318h-188z" />
    <glyph glyph-name="Rcaron.sc" horiz-adv-x="1163" 
d="M864 1208q201 0 290 -120t61 -272t-122 -259q-95 -106 -235 -143l223 -414h-356l-186 397h-11l-69 -397h-309l212 1208h502zM803 938h-178l-52 -274h181q119 0 145 137q25 137 -96 137zM989 1614h203l-256 -314h-287l-135 314h197l114 -156z" />
    <glyph glyph-name="Sacute.sc" horiz-adv-x="1064" 
d="M674 1296l213 318h272l-297 -318h-188zM612 254q133 0 148 86q8 55 -96 96l-132 49q-88 29 -146 76t-80 95q-52 114 -27 190q31 170 169 272t324 102q188 0 286 -102q98 -104 64 -282h-309q19 104 -95 104t-130 -84q-5 -30 22 -51q27 -20 68 -35l127 -43
q322 -106 272 -371q-20 -125 -111 -216q-160 -160 -407 -158q-205 0 -309 102t-74 281h313q-10 -111 123 -111z" />
    <glyph glyph-name="Scircumflex.sc" horiz-adv-x="1064" 
d="M612 254q133 0 148 86q8 55 -96 96l-132 49q-88 29 -146 76t-80 95q-52 114 -27 190q31 170 169 272t324 102q188 0 286 -102q98 -104 64 -282h-309q19 104 -95 104t-130 -84q-5 -30 22 -51q27 -20 68 -35l127 -43q322 -106 272 -371q-20 -125 -112 -217
q-158 -158 -406 -157q-205 0 -309 102t-74 281h313q-10 -111 123 -111zM823 1468l-168 -155h-200l252 311h286l142 -311h-201z" />
    <glyph glyph-name="Scedilla.sc" horiz-adv-x="1069" 
d="M611 254q132 0 149 86q8 55 -96 96l-129 49q-88 29 -148 76q-59 47 -81 95q-52 114 -27 190q31 170 169 272t324 102q188 0 286 -102q98 -104 64 -282h-309q23 104 -96 104q-113 0 -129 -84q-5 -30 22 -51q27 -20 68 -35l127 -43q322 -106 272 -371q-29 -154 -145 -248
t-277 -118q59 -74 43 -162t-82 -139t-152 -51t-124 68q-39 68 -21 167l130 -6q-23 -78 16 -98q33 -12 65 7t41 60q12 86 -53 148q-186 10 -278 112t-64 269h313q-10 -111 122 -111z" />
    <glyph glyph-name="Utilde.sc" horiz-adv-x="1234" 
d="M813 1368q-49 0 -65 -74h-138q29 118 89 178t132 60q35 0 78 -37t61 -37t34 24t20 50h139q-25 -117 -86 -177t-135 -61q-37 0 -76 37t-53 37zM649 -18q-197 0 -317 126t-84 332l135 764h309l-133 -764q-12 -72 30 -120q43 -48 111 -48t126 48t73 120l133 764h311
l-135 -764q-34 -206 -198 -332t-361 -126z" />
    <glyph glyph-name="Umacron.sc" horiz-adv-x="1234" 
d="M649 -18q-197 0 -317 126t-84 332l135 764h309l-133 -764q-12 -72 30 -120q43 -48 111 -48t126 48t73 120l133 764h311l-135 -764q-34 -206 -198 -332t-361 -126zM664 1501h514l-29 -162h-514z" />
    <glyph glyph-name="Ubreve.sc" horiz-adv-x="1234" 
d="M649 -18q-197 0 -317 126t-84 332l135 764h309l-133 -764q-12 -72 30 -120q43 -48 111 -48t126 48t73 120l133 764h311l-135 -764q-34 -206 -198 -332t-361 -126zM915 1475q68 0 84 86h170q-18 -106 -98 -173q-79 -67 -187 -67t-162 69t-36 171h166q-6 -45 7 -65t56 -21z
" />
    <glyph glyph-name="Uring.sc" horiz-adv-x="1234" 
d="M901 1409q47 0 86 31t47 80t-19 82q-28 32 -74 32t-83 -32t-45 -82q-7 -49 17 -80t71 -31zM964 1745q91 0 143 -66q52 -67 37 -159t-93 -156t-170 -66q-92 0 -144 65q-51 65 -36 158t93 159t170 65zM649 -18q-197 0 -317 126t-84 332l135 764h309l-133 -764
q-12 -72 30 -120q43 -48 111 -48t126 48t73 120l133 764h311l-135 -764q-34 -206 -198 -332t-361 -126z" />
    <glyph glyph-name="Uhungarumlaut.sc" horiz-adv-x="1234" 
d="M807 1292h-168l213 316h188zM1067 1292h-180l237 316h197zM649 -18q-197 0 -317 126t-84 332l135 764h309l-133 -764q-12 -72 30 -120q43 -48 111 -48t126 48t73 120l133 764h311l-135 -764q-34 -206 -198 -332t-361 -126z" />
    <glyph glyph-name="Uogonek.sc" horiz-adv-x="1234" 
d="M700 -14q-96 -66 -108 -150q-8 -39 18 -59t62 -8q49 23 57 98l129 6q-14 -102 -74 -169q-60 -66 -150 -66q-91 0 -140 52t-33 140t100 158q-166 29 -258 147q-90 125 -57 305l135 764h307l-133 -764q-12 -72 30 -120q43 -48 111 -48t126 48t73 120l133 764h313l-135 -764
q-35 -186 -178 -313q-144 -123 -328 -141z" />
    <glyph glyph-name="Wcircumflex.sc" horiz-adv-x="1589" 
d="M639 563l209 471h258l43 -473l309 647h338l-625 -1208h-235l-45 555l-236 -555h-239l-195 1208h334zM1055 1468l-168 -155h-199l248 311h289l141 -311h-203z" />
    <glyph glyph-name="Ycircumflex.sc" horiz-adv-x="1212" 
d="M856 535l-94 -535h-311l96 541l-357 667h371l182 -426l338 426h363zM864 1468l-168 -155h-198l250 311h286l142 -311h-203z" />
    <glyph glyph-name="Tcaron.sc" horiz-adv-x="983" 
d="M645 0h-307l166 938h-307l47 270h921l-47 -270h-307zM905 1614h203l-256 -314h-287l-137 314h199l112 -158z" />
    <glyph glyph-name="Tbar.sc" horiz-adv-x="987" 
d="M340 0l82 481h-213l31 170h213l53 287h-307l47 270h921l-47 -270h-307l-53 -287h205l-31 -170h-205l-82 -481h-307z" />
    <glyph glyph-name="Zacute.sc" horiz-adv-x="1097" 
d="M668 1296l213 318h276l-299 -318h-190zM88 0l39 225l627 713h-478l48 270h886l-41 -227l-634 -711h509l-47 -270h-909z" />
    <glyph glyph-name="Zdotaccent.sc" horiz-adv-x="1097" 
d="M818 1616q64 0 102 -42t26 -107q-10 -65 -63 -107t-118 -41q-65 -1 -99 41t-25 106q10 64 61 108q52 42 116 42zM88 0l39 225l627 713h-478l48 270h886l-41 -227l-634 -711h509l-47 -270h-909z" />
    <glyph glyph-name="Wgrave.sc" horiz-adv-x="1589" 
d="M639 563l209 471h258l43 -473l309 647h338l-625 -1208h-235l-45 555l-236 -555h-239l-195 1208h334zM1106 1296h-188l-183 318h273z" />
    <glyph glyph-name="Wacute.sc" horiz-adv-x="1589" 
d="M1155 1614h272l-301 -318h-188zM1106 1034l43 -473l309 647h338l-625 -1208h-235l-45 555l-236 -555h-239l-195 1208h334l84 -645l209 471h258z" />
    <glyph glyph-name="Wdieresis.sc" horiz-adv-x="1589" 
d="M1241 1591q59 0 90 -39t21 -95t-56 -94t-104 -38q-57 0 -92 39t-26 93q8 54 58 94t109 40zM907 1591q57 0 90 -39t23 -94t-57 -94t-105 -39t-91 39q-34 39 -25 93q8 54 58 94t107 40zM1106 1034l43 -473l309 647h338l-625 -1208h-235l-45 555l-236 -555h-239l-195 1208
h334l84 -645l209 471h258z" />
    <glyph glyph-name="Aringacute.sc" horiz-adv-x="1228" 
d="M860 1409q47 0 86 31t47 80t-19 82q-28 32 -74 32t-83 -32t-45 -82q-8 -49 16 -80t72 -31zM821 541l-47 381l-170 -381h217zM997 1989h275l-258 -269q113 -66 88 -200q-14 -92 -92 -156t-170 -66q-92 0 -144 65q-51 65 -34 157q27 139 155 202zM1225 0h-328l-53 272h-363
l-145 -272h-332l655 1208h336z" />
    <glyph glyph-name="AEacute.sc" horiz-adv-x="1691" 
d="M872 522l52 303l-207 -303h155zM-20 0l956 1208h854l-47 -270h-483l-39 -209h421l-45 -262h-421l-35 -197h497l-47 -270h-811l43 260h-260l-207 -260h-376zM971 1296l213 318h272l-297 -318h-188z" />
    <glyph glyph-name="Oslashacute.sc" horiz-adv-x="1392" 
d="M745 291q123 0 232 90q106 92 129 219q14 82 -23 166l-491 -424q69 -51 153 -51zM842 911q-113 0 -218 -91q-104 -90 -124 -204t14 -192l504 434q-63 53 -176 53zM692 -18q-211 0 -356 133l-168 -146l-72 90l164 142q-117 176 -78 399q47 260 259 441t468 182
q219 0 365 -140l162 140l71 -86l-164 -144q113 -170 72 -393q-47 -258 -256 -438t-467 -180zM834 1296l215 318h274l-301 -318h-188z" />
    <glyph glyph-name="Ibreve.sc" horiz-adv-x="608" 
d="M459 0h-309l212 1208h310zM567 1475q72 0 86 86h170q-18 -106 -98 -173q-79 -67 -187 -67t-162 69t-36 171h166q-8 -47 5 -67t56 -19z" />
    <glyph glyph-name="Eng.sc" horiz-adv-x="1222" 
d="M586 -424q-106 0 -199 35l76 274q55 -20 172 -20q53 -1 93 43t52 112l-213 603l-108 -623h-309l212 1208h277l225 -635l113 635h309l-215 -1212q-37 -196 -160 -308t-325 -112z" />
    <glyph glyph-name="Ygrave.sc" horiz-adv-x="1212" 
d="M856 535l-94 -535h-311l96 541l-357 667h371l182 -426l338 426h363zM932 1296h-187l-184 318h273z" />
    <glyph glyph-name="Gcommaaccent.sc" horiz-adv-x="1355" 
d="M922 934q-140 0 -247 -96t-132 -234t47 -242q74 -100 203 -100q205 0 282 158h-327l40 231h672q-60 -333 -248 -501t-460 -168t-420 181q-150 181 -104 438t259 439t476 183q145 0 261 -60t179 -164l-264 -194q-77 129 -217 129zM543 -545l-125 86q160 178 186 340h242
q-43 -236 -303 -426z" />
    <glyph glyph-name="Kcommaaccent.sc" horiz-adv-x="1157" 
d="M395 -545l-125 86q160 178 187 340h241q-43 -236 -303 -426zM1284 1208l-561 -596l459 -612h-428l-236 346l-59 -346h-309l212 1208h310l-58 -321l277 321h393z" />
    <glyph glyph-name="Lcommaaccent.sc" horiz-adv-x="913" 
d="M311 -545l-125 86q160 178 187 340h241q-43 -236 -303 -426zM510 270h426l-47 -270h-739l212 1208h314z" />
    <glyph glyph-name="Ncommaaccent.sc" horiz-adv-x="1224" 
d="M422 -545l-125 86q160 178 186 340h242q-43 -236 -303 -426zM641 1208l225 -612l111 612h311l-213 -1208h-270l-238 618l-108 -618h-309l212 1208h279z" />
    <glyph glyph-name="Rcommaaccent.sc" horiz-adv-x="1163" 
d="M387 -545l-125 86q160 178 187 340h241q-43 -236 -303 -426zM864 1208q201 0 290 -120t61 -272t-122 -259q-95 -106 -235 -143l223 -414h-356l-186 397h-11l-69 -397h-309l212 1208h502zM803 938h-178l-52 -274h181q119 0 145 137q25 137 -96 137z" />
    <glyph glyph-name="Tcommaaccent.sc" horiz-adv-x="983" 
d="M274 -545l-124 86q160 178 186 340h242q-44 -236 -304 -426zM645 0h-307l166 938h-307l47 270h921l-47 -270h-307z" />
    <glyph glyph-name="Scommaaccent.sc" horiz-adv-x="1064" 
d="M373 -545l-125 86q160 178 186 340h242q-43 -236 -303 -426zM612 254q133 0 148 86q8 55 -96 96l-132 49q-88 29 -146 76t-80 95q-52 114 -27 190q31 170 169 272t324 102q188 0 286 -102q98 -104 64 -282h-309q19 104 -95 104t-130 -84q-5 -30 22 -51q27 -20 68 -35
l127 -43q322 -106 272 -371q-20 -125 -112 -217q-158 -158 -406 -157q-205 0 -309 102t-74 281h313q-10 -111 123 -111z" />
    <glyph glyph-name="Idotaccent.sc" horiz-adv-x="608" 
d="M459 0h-309l212 1208h310zM590 1618q62 0 98 -41q35 -41 25 -102q-11 -61 -61 -103t-112 -43q-62 0 -97 41q-33 42 -23 104t59 103t111 41z" />
    <glyph glyph-name="zero.numr" horiz-adv-x="739" 
d="M649 1149q-98 0 -135 -210t57 -210t131 210t-53 210zM684 1354q309 0 233 -414t-378 -414q-310 0 -234 414t379 414z" />
    <glyph glyph-name="one.numr" horiz-adv-x="495" 
d="M213 1001l31 179l395 186l-147 -829h-218l93 530z" />
    <glyph glyph-name="two.numr" horiz-adv-x="698" 
d="M545 1149q-72 0 -103 -82l-194 29q92 258 348 258q110 0 178 -72t46 -184t-118 -195l-204 -180h260l-33 -186h-575l22 125l410 382q32 41 20 73t-57 32z" />
    <glyph glyph-name="three.numr" horiz-adv-x="692" 
d="M453 879h-86l26 151h86q92 0 105 76q4 27 -14 45t-62 18q-82 0 -133 -51l-92 117q106 119 292 119q111 0 176 -70t46 -158q-16 -98 -144 -155q139 -53 121 -180t-125 -197q-109 -68 -225 -68q-231 0 -272 140l129 110q39 -76 149 -76q59 0 96 27t44 67q6 40 -28 62
t-89 23z" />
    <glyph glyph-name="four.numr" horiz-adv-x="776" 
d="M868 1343l-80 -438h93l-31 -178h-92l-33 -190h-215l33 190h-404l441 616h288zM446 905h127l45 250z" />
    <glyph glyph-name="five.numr" horiz-adv-x="741" 
d="M524 942q-111 0 -235 -82l-62 41l140 442h499l-30 -178h-332l-35 -110q71 47 169 47t160 -75t40 -201t-134 -214q-111 -88 -272 -88q-80 0 -154 40t-116 108l180 123l29 -39q43 -43 99 -43t106 36t58 84q9 49 -23 79t-87 30z" />
    <glyph glyph-name="six.numr" horiz-adv-x="739" 
d="M627 1053q82 0 155 -62q74 -57 50 -182t-120 -204t-230 -79t-200 77t-66 189q2 212 99 384q49 84 137 133t190 45q104 -4 160 -40t81 -118l-174 -82q-14 63 -97 64q-133 0 -188 -213q14 35 68 61t135 27zM544 885q-44 -1 -78 -27t-38 -63t16 -63t66 -26t79 28
q34 26 40 63t-18 63q-23 26 -67 25z" />
    <glyph glyph-name="seven.numr" horiz-adv-x="659" 
d="M211 537l344 616h-311l32 190h611l-445 -806h-231z" />
    <glyph glyph-name="eight.numr" horiz-adv-x="757" 
d="M516 1128q-6 -32 12 -54t60 -21q80 0 94 75q4 27 -15 49t-55 21q-84 0 -96 -70zM495 526q-138 0 -221 70q-82 70 -61 186q14 74 59 132t109 71q-35 19 -50 63t-7 89q18 98 110 155q94 62 207 62t177 -60t48 -157q-8 -49 -39 -95t-67 -57q53 -9 84 -73t18 -130
q-20 -116 -124 -186t-243 -70zM524 698q48 0 83 28q34 28 40 69q7 41 -17 67t-73 27q-49 -1 -83 -25t-41 -67t18 -71t73 -28z" />
    <glyph glyph-name="nine.numr" horiz-adv-x="741" 
d="M581 854q-56 -28 -128 -27q-72 0 -148 47q-39 25 -58 76t-7 119q25 127 121 206q97 79 231 79t202 -76q67 -76 64 -207q-4 -199 -100 -366q-51 -87 -138 -135q-86 -48 -188 -44t-158 40q-55 36 -84 118l175 80q18 -61 96 -62q135 0 190 213q-14 -33 -70 -61zM530 995
q44 1 78 27q35 26 40 62t-16 62q-22 26 -68 26t-78 -26t-38 -63t16 -63t66 -25z" />
    <glyph glyph-name="zero.dnom" horiz-adv-x="739" 
d="M553 612q-98 0 -135 -210t61 -209q90 -1 127 209t-53 210zM590 817q303 0 229 -414t-375 -413q-311 -1 -237 413t383 414z" />
    <glyph glyph-name="one.dnom" horiz-adv-x="495" 
d="M121 465l29 178l395 186l-146 -829h-217l92 530z" />
    <glyph glyph-name="two.dnom" horiz-adv-x="698" 
d="M502 817q110 0 178 -72q68 -73 45 -185t-117 -193l-207 -181h263l-31 -186h-576l19 125l409 383q35 41 22 73t-58 31q-72 0 -99 -82l-194 29q82 258 346 258z" />
    <glyph glyph-name="three.dnom" horiz-adv-x="690" 
d="M356 342h-86l27 152h86q94 0 106 75q9 63 -97 63q-60 0 -113 -50l-93 116q106 119 293 119q111 1 174 -67t45 -164t-139 -152q135 -55 117 -181t-124 -195q-106 -68 -223 -68q-233 1 -276 139l129 111q45 -76 159 -76t130 96q8 38 -26 60t-89 22z" />
    <glyph glyph-name="four.dnom" horiz-adv-x="778" 
d="M774 807l-80 -438h92l-30 -179h-92l-31 -190h-215l31 190h-404l440 617h289zM352 369h127l45 249z" />
    <glyph glyph-name="five.dnom" horiz-adv-x="741" 
d="M430 406q-113 0 -237 -82l-64 41l141 442h500l-31 -178h-331l-37 -111q71 47 167 47t162 -73q62 -74 40 -201t-132 -215t-272 -88q-80 0 -154 40t-116 107l178 123l30 -39q42 -43 100 -43t106 36t58 85q9 49 -22 79t-86 30z" />
    <glyph glyph-name="six.dnom" horiz-adv-x="741" 
d="M529 516q83 0 157 -59t52 -185t-120 -204t-232 -78t-201 77t-63 211t41 249q38 116 138 205t254 85q95 -4 151 -40t80 -118l-174 -81q-18 63 -94 63t-123 -60t-67 -153q14 36 66 62t135 26zM412 170q46 0 81 27q33 27 39 63t-16 63q-23 25 -67 25q-45 0 -79 -26t-39 -64
q-5 -36 15 -62t66 -26z" />
    <glyph glyph-name="seven.dnom" horiz-adv-x="659" 
d="M119 0l340 616h-312l35 191h611l-443 -807h-231z" />
    <glyph glyph-name="eight.dnom" horiz-adv-x="757" 
d="M490 516q38 0 65 22t31 52t-16 50q-20 22 -54 22q-88 0 -96 -70q-4 -32 14 -54t56 -22zM546 817q112 0 176 -60t48 -157q-8 -49 -39 -94t-67 -57q53 -9 84 -73t18 -130q-20 -115 -124 -186q-104 -70 -244 -70q-138 0 -220 70t-61 186q14 74 59 132t109 71q-31 18 -47 62
q-17 44 -11 89q15 94 111 156t208 61zM336 260q-6 -45 18 -72q24 -26 72 -26q49 0 84 28t41 68q6 41 -19 68t-71 26q-109 0 -125 -92z" />
    <glyph glyph-name="nine.dnom" horiz-adv-x="739" 
d="M376 291q-54 0 -90 11t-75 36t-58 76t-8 118q25 129 121 207t230 78t202 -76q66 -76 65 -189q-2 -211 -101 -384q-50 -84 -138 -133t-198 -45q-186 10 -232 157l174 80q18 -61 94 -61q142 0 191 213q-11 -33 -67 -61t-110 -27zM466 635q-46 0 -78 -26q-32 -27 -38 -63
t17 -62t67 -26t77 28q34 26 39 62q6 36 -16 62t-68 25z" />
    <glyph glyph-name="l.alt1" horiz-adv-x="677" 
d="M664 309h92l-56 -309h-92q-217 0 -317 121t-60 346l177 989h325l-176 -989q-12 -78 17 -118t90 -40z" />
    <glyph glyph-name="a.alt1" horiz-adv-x="1116" 
d="M754 979q197 0 303 -105q111 -100 73 -307l-100 -567h-323l16 102q-53 -57 -130 -89t-147 -31q-172 0 -256 80t-59 218t145 215q122 77 280 77t235 -52l6 29q14 68 -29 115t-113 47q-137 -1 -233 -97l-141 170q172 195 473 195zM552 203q54 0 115 37q60 37 91 96
q-53 49 -166 49t-133 -92q-6 -31 16 -61q23 -29 77 -29z" />
    <glyph glyph-name="y.alt1" horiz-adv-x="1044" 
d="M283 -59l90 159l-201 854h332l102 -489l277 489h331l-667 -1134q-102 -168 -203 -236q-94 -70 -248 -69q-63 0 -143 28l49 267q42 -14 106 -14t96 30q32 31 79 115z" />
    <glyph glyph-name="lslash.alt1" horiz-adv-x="776" 
d="M717 309h92l-53 -309h-92q-217 0 -316 121q-98 121 -61 346l14 90l-195 -108l33 190l195 109l127 708h325l-90 -506l224 125l-35 -190l-223 -125l-50 -293q-24 -158 105 -158z" />
    <glyph glyph-name="lacute.alt1" horiz-adv-x="675" 
d="M606 0q-217 0 -317 121t-60 346l177 989h325l-176 -989q-11 -78 17 -118t90 -40h92l-56 -309h-92zM424 1534l254 356h303l-346 -356h-211z" />
    <glyph glyph-name="lcommaaccent.alt1" horiz-adv-x="675" 
d="M254 -618l-133 86q82 90 128 179t75 238h262q-92 -327 -332 -503zM621 309h92l-56 -309h-92q-217 0 -317 121t-60 346l177 989h325l-176 -989q-12 -78 17 -118t90 -40z" />
    <glyph glyph-name="lcaron.alt1" horiz-adv-x="675" 
d="M606 0q-217 0 -317 121t-60 346l177 989h325l-176 -989q-11 -78 17 -118t90 -40h92l-56 -309h-92zM823 958l-110 78q84 98 129 186t73 234h238q-88 -322 -330 -498z" />
    <glyph glyph-name="aacute.alt1" horiz-adv-x="1116" 
d="M637 1124l254 357h303l-346 -357h-211zM754 979q197 0 303 -105q111 -100 73 -307l-100 -567h-323l16 102q-53 -57 -130 -89t-147 -31q-172 0 -256 80t-59 218t145 215q122 77 280 77t235 -52l6 29q14 68 -29 115t-113 47q-137 -1 -233 -97l-141 170q172 195 473 195z
M552 203q54 0 115 37q60 37 91 96q-53 49 -166 49t-133 -92q-6 -31 16 -61q23 -29 77 -29z" />
    <glyph glyph-name="agrave.alt1" horiz-adv-x="1116" 
d="M709 1124l-220 357h304l127 -357h-211zM754 979q197 0 303 -105q111 -100 73 -307l-100 -567h-323l16 102q-53 -57 -130 -89t-147 -31q-172 0 -256 80t-59 218t145 215q122 77 280 77t235 -52l6 29q14 68 -29 115t-113 47q-137 -1 -233 -97l-141 170q172 195 473 195z
M552 203q54 0 115 37q60 37 91 96q-53 49 -166 49t-133 -92q-6 -31 16 -61q23 -29 77 -29z" />
    <glyph glyph-name="acircumflex.alt1" horiz-adv-x="1116" 
d="M623 1141h-220l287 354h320l161 -354h-221l-133 182zM754 979q197 0 303 -105q111 -100 73 -307l-100 -567h-323l16 102q-53 -57 -130 -89t-147 -31q-172 0 -256 80t-59 218t145 215q122 77 280 77t235 -52l6 29q14 68 -29 115t-113 47q-137 -1 -233 -97l-141 170
q172 195 473 195zM552 203q54 0 115 37q60 37 91 96q-53 49 -166 49t-133 -92q-6 -31 16 -61q23 -29 77 -29z" />
    <glyph glyph-name="adieresis.alt1" horiz-adv-x="1116" 
d="M754 979q197 0 303 -105q111 -100 73 -307l-100 -567h-323l16 102q-53 -57 -130 -89t-147 -31q-172 0 -256 80t-59 218t145 215q122 77 280 77t235 -52l6 29q14 68 -29 115t-113 47q-137 -1 -233 -97l-141 170q172 195 473 195zM552 203q54 0 115 37q60 37 91 96
q-53 49 -166 49t-133 -92q-6 -31 16 -61q23 -29 77 -29zM1039 1460q63 0 101 -43t28 -105t-63 -106q-52 -44 -117 -43q-66 -1 -104 43t-28 106t64 105t119 43zM602 1163q-66 -1 -104 43t-27 106q9 62 63 105t120 43t102 -43t26 -105t-62 -106t-118 -43z" />
    <glyph glyph-name="atilde.alt1" horiz-adv-x="1116" 
d="M754 979q197 0 303 -105q111 -100 73 -307l-100 -567h-323l16 102q-53 -57 -130 -89t-147 -31q-172 0 -256 80t-59 218t145 215q122 77 280 77t235 -52l6 29q14 68 -29 115t-113 47q-137 -1 -233 -97l-141 170q172 195 473 195zM552 203q54 0 115 37q60 37 91 96
q-53 49 -166 49t-133 -92q-6 -31 16 -61q23 -29 77 -29zM718 1223q-18 0 -38 -25t-31 -63h-153q28 129 100 197t156 69q47 0 94 -42t66 -42t40 21q20 22 31 63h154q-29 -127 -101 -195t-153 -67q-43 0 -97 41q-51 43 -68 43z" />
    <glyph glyph-name="aring.alt1" horiz-adv-x="1116" 
d="M754 979q197 0 303 -105q111 -100 73 -307l-100 -567h-323l16 102q-53 -57 -130 -89t-147 -31q-172 0 -256 80t-59 218t145 215q122 77 280 77t235 -52l6 29q14 68 -29 115t-113 47q-137 -1 -233 -97l-141 170q172 195 473 195zM552 203q54 0 115 37q60 37 91 96
q-53 49 -166 49t-133 -92q-6 -31 16 -61q23 -29 77 -29zM798 1245q56 0 103 38t57 95t-22 99q-33 41 -89 41t-102 -40q-45 -41 -55 -99t21 -96t87 -38zM775 1118q-110 0 -171 77q-62 77 -40 185t110 186q88 76 196 76t171 -76t41 -187q-22 -109 -110 -185t-197 -76z" />
    <glyph glyph-name="amacron.alt1" horiz-adv-x="1116" 
d="M1116 1364l-31 -178h-589l30 178h590zM754 979q197 0 303 -105q111 -100 73 -307l-100 -567h-323l16 102q-53 -57 -130 -89t-147 -31q-172 0 -256 80t-59 218t145 215q122 77 280 77t235 -52l6 29q14 68 -29 115t-113 47q-137 -1 -233 -97l-141 170q172 195 473 195z
M552 203q54 0 115 37q60 37 91 96q-53 49 -166 49t-133 -92q-6 -31 16 -61q23 -29 77 -29z" />
    <glyph glyph-name="abreve.alt1" horiz-adv-x="1116" 
d="M754 979q197 0 303 -105q111 -100 73 -307l-100 -567h-323l16 102q-53 -57 -130 -89t-147 -31q-172 0 -256 80t-59 218t145 215q122 77 280 77t235 -52l6 29q14 68 -29 115t-113 47q-137 -1 -233 -97l-141 170q172 195 473 195zM552 203q54 0 115 37q60 37 91 96
q-53 49 -166 49t-133 -92q-6 -31 16 -61q23 -29 77 -29zM813 1323q92 0 111 102h186q-20 -121 -112 -195t-217 -75q-126 -1 -186 77t-42 193h182q-10 -55 7 -79t71 -23z" />
    <glyph glyph-name="aogonek.alt1" horiz-adv-x="1116" 
d="M552 203q54 0 115 37q60 37 91 96q-53 49 -166 49t-133 -92q-6 -31 16 -61q23 -29 77 -29zM754 979q197 0 303 -105q111 -100 73 -307l-100 -567h-176l-125 -176q-45 -80 6 -111q43 -29 83 9t42 92l146 8q-16 -123 -94 -194q-78 -70 -170 -70q-93 0 -145 62t-36 153
q8 63 43 104l103 123l16 102q-53 -57 -130 -89t-147 -31q-172 0 -256 80t-59 218t145 215q122 77 280 77t235 -52l6 29q14 68 -29 115t-113 47q-137 -1 -233 -97l-141 170q172 195 473 195z" />
    <glyph glyph-name="yacute.alt1" horiz-adv-x="1044" 
d="M373 100l-201 854h332l102 -489l277 489h331l-667 -1134q-102 -168 -203 -236q-94 -70 -248 -69q-63 0 -143 28l49 267q43 -14 116 -14t113 60t52 85zM623 1124l251 357h304l-344 -357h-211z" />
    <glyph glyph-name="ydieresis.alt1" horiz-adv-x="1044" 
d="M373 100l-201 854h332l102 -489l277 489h331l-667 -1134q-102 -168 -203 -236q-94 -70 -248 -69q-63 0 -143 28l49 267q43 -14 116 -14t113 60t52 85zM976 1460q64 0 100 -43t26 -105t-62 -106t-118 -43q-64 0 -103 43q-38 44 -28 106t65 105q56 43 120 43zM588 1460
q64 0 102 -43q37 -43 27 -105q-11 -62 -63 -106t-118 -43q-66 0 -103 43q-37 44 -27 106t64 105t118 43z" />
    <glyph glyph-name="ae.alt1" horiz-adv-x="1755" 
d="M555 213q133 0 203 129q-55 49 -167 49t-132 -92q-7 -27 21 -57t75 -29zM454 -18q-160 0 -255 80t-69 218q26 140 143 214q118 74 286 74t234 -42l8 47q12 61 -28 103t-118 43q-133 0 -237 -105l-139 170q172 195 473 195q205 0 303 -105q159 104 355 104t316 -134
q143 -161 54 -455h-684q-2 -63 54 -101t140 -38q139 0 219 96l203 -151q-82 -105 -213 -159t-274 -54t-234 52q-90 52 -106 148q-49 -92 -160 -146t-271 -54zM1128 563h381q-2 82 -52 113t-114 26q-162 0 -215 -139z" />
    <glyph glyph-name="aeacute.alt1" horiz-adv-x="1755" 
d="M991 1124l254 357h303l-346 -357h-211zM555 213q133 0 203 129q-55 49 -167 49t-132 -92q-7 -27 21 -57t75 -29zM454 -18q-160 0 -255 80t-69 218q26 140 143 214q118 74 286 74t234 -42l8 47q12 61 -28 103t-118 43q-133 0 -237 -105l-139 170q172 195 473 195
q205 0 303 -105q159 104 355 104t316 -134q143 -161 54 -455h-684q-2 -63 54 -101t140 -38q139 0 219 96l203 -151q-82 -105 -213 -159t-274 -54t-234 52q-90 52 -106 148q-49 -92 -160 -146t-271 -54zM1128 563h381q-2 82 -52 113t-114 26q-162 0 -215 -139z" />
    <glyph glyph-name="ycircumflex.alt1" horiz-adv-x="1044" 
d="M283 -59l90 159l-201 854h332l102 -489l277 489h331l-667 -1134q-102 -168 -203 -236q-94 -70 -248 -69q-63 0 -143 28l49 267q42 -14 106 -14t96 30q32 31 79 115zM561 1141h-219l287 354h319l162 -354h-221l-131 182z" />
    <glyph glyph-name="ldot.alt1" horiz-adv-x="956" 
d="M662 309h92l-56 -309h-92q-217 0 -317 121t-60 346l177 989h325l-176 -989q-12 -78 17 -118t90 -40zM848 418q-80 0 -127 54t-33 134t81 133t148 53t127 -52q46 -54 31 -134q-14 -80 -80 -134q-67 -54 -147 -54z" />
    <glyph glyph-name="t.alt1" horiz-adv-x="829" 
d="M723 309h68l-54 -309h-108q-221 0 -305 84t-45 307l57 324h-172l43 239h172l33 189l344 98l-51 -287h198l-43 -239h-198l-52 -289q-12 -70 14 -94t99 -23z" />
    <glyph glyph-name="tcaron.alt1" horiz-adv-x="829" 
d="M629 0q-221 0 -305 84t-45 307l57 324h-172l43 239h172l33 189l344 98l-51 -287h198l-43 -239h-198l-52 -289q-12 -76 17 -96t96 -21h68l-54 -309h-108zM956 1071l-112 78q84 96 129 186t74 234h237q-90 -324 -328 -498z" />
    <glyph glyph-name="tbar.alt1" horiz-adv-x="831" 
d="M725 309h68l-54 -309h-108q-221 0 -305 84t-45 307l10 60h-107l27 147h106l21 117h-172l43 239h172l33 189l344 98l-51 -287h198l-43 -239h-198l-21 -117h123l-27 -147h-123l-4 -25q-12 -70 14 -94t99 -23z" />
    <glyph glyph-name="tcommaaccent.alt1" horiz-adv-x="831" 
d="M725 309h68l-54 -309h-108q-221 0 -305 84t-45 307l57 324h-172l43 239h172l33 189l344 98l-51 -287h198l-43 -239h-198l-52 -289q-12 -70 14 -94t99 -23zM356 -618l-131 86q82 90 128 179t75 238h262q-94 -333 -334 -503z" />
    <glyph glyph-name="T.sc.alt1" horiz-adv-x="983" 
d="M645 0h-307l166 938h-307l47 270h921l-47 -270h-307z" />
    <glyph glyph-name="Tcaron.sc.alt1" horiz-adv-x="983" 
d="M645 0h-307l166 938h-307l47 270h921l-47 -270h-307zM905 1614h203l-256 -314h-287l-137 314h199l112 -158z" />
    <glyph glyph-name="Tbar.sc.alt1" horiz-adv-x="987" 
d="M340 0l82 481h-213l31 170h213l53 287h-307l47 270h921l-47 -270h-307l-53 -287h205l-31 -170h-205l-82 -481h-307z" />
    <glyph glyph-name="Tcommaaccent.sc.alt1" horiz-adv-x="983" 
d="M274 -545l-124 86q160 178 186 340h242q-44 -236 -304 -426zM645 0h-307l166 938h-307l47 270h921l-47 -270h-307z" />
    <glyph glyph-name="aringacute.alt1" horiz-adv-x="1116" 
d="M754 979q197 0 303 -105q111 -100 73 -307l-100 -567h-323l16 102q-53 -57 -130 -89t-147 -31q-172 0 -256 80t-59 218t145 215q122 77 280 77t235 -52l6 29q14 68 -29 115t-113 47q-137 -1 -233 -97l-141 170q172 195 473 195zM552 203q54 0 115 37q60 37 91 96
q-53 49 -166 49t-133 -92q-6 -31 16 -61q23 -29 77 -29zM806 1245q56 0 103 38t58 95q10 56 -23 98t-89 42q-55 0 -101 -40t-56 -99q-10 -58 21 -96t87 -38zM783 1118q-110 0 -171 77t-44 171q18 94 72 160t132 96l207 295h303l-293 -303q135 -72 99 -251q-18 -93 -107 -169
q-88 -76 -198 -76z" />
    </font>
</defs>
</svg>
