<?xml version="1.0" standalone="no"?>
<!DOCTYPE svg PUBLIC "-//W3C//DTD SVG 1.1//EN" "http://www.w3.org/Graphics/SVG/1.1/DTD/svg11.dtd" >
<svg xmlns="http://www.w3.org/2000/svg">
<metadata>
Created by FontPrep 20130207 at Thu Apr 13 14:24:19 2017
 By Brian E Cook
Copyright (c) Olivier Gourvat - Mostardesign Studio, 2012. All rights reserved.
</metadata>
<defs>
<font id="2d22a28e3618dd403ddbdac6966ff382" horiz-adv-x='1024' >
  <font-face 
    font-family="SofiaPro-SemiBold"
    font-weight="600"
    font-stretch="normal"
    units-per-em="2048"
    panose-1="2 11 0 0 0 0 0 0 0 0"
    ascent="1638"
    descent="-410"
    x-height="956"
    cap-height="1411"
    bbox="-362 -561 2310 2273"
    underline-thickness="102"
    underline-position="-102"
    unicode-range="U+0020-FB04"
  />
<missing-glyph horiz-adv-x="1300" 
d="M485 268q0 -36 28 -62t66 -26q37 0 65 26t28 62t-28 63q-28 25 -66 25t-65 -26q-28 -26 -28 -62zM379 883h127q0 76 43 123t109 47t115 -42q48 -43 48 -107t-49 -103q-31 -35 -97 -53q-65 -18 -113 -69q-48 -52 -48 -147v-77h127v77q0 43 25 66q25 24 96 44t128 92
q56 74 56 182t-85 186t-203 78t-198 -82t-81 -215zM1137 0h-973v1362h973v-1362z" />
    <glyph glyph-name="f_f" unicode="ff" horiz-adv-x="1515" 
d="M1421 1477h105v-240h-105q-156 0 -155 -205v-76h202v-200h-202v-756h-252v756h-533v-756h-252v756h-182v200h182v76q-1 211 105 328t303 117h104v-240h-104q-156 0 -156 -205v-76h533v76q0 211 105 328t302 117z" />
    <glyph glyph-name="fi" unicode="fi" horiz-adv-x="1347" 
d="M1084 1176q-68 0 -114 44t-46 107t48 107t114 43q66 0 111 -43q46 -42 46 -106t-46 -108t-113 -44zM481 956h727v-956h-247v756h-480v-756h-252v756h-182v200h182v76q-1 211 105 328t303 117h104v-240h-104q-156 0 -156 -205v-76z" />
    <glyph glyph-name="fl" unicode="fl" horiz-adv-x="1361" 
d="M637 1477h584v-1477h-250v1237h-334q-156 0 -156 -205v-76h203v-200h-203v-756h-252v756h-182v200h182v76q-1 211 105 328t303 117z" />
    <glyph glyph-name="f_f_i" unicode="ffi" horiz-adv-x="2131" 
d="M1870 1477q66 0 112 -43q46 -42 46 -106t-46 -108t-113 -44t-114 44t-47 107t48 107t114 43zM1266 956h727v-956h-248v756h-479v-756h-252v756h-533v-756h-252v756h-182v200h182v76q-1 211 105 328t303 117h104v-240h-104q-156 0 -156 -205v-76h533v76q0 211 105 328
t302 117h105v-240h-105q-156 0 -155 -205v-76z" />
    <glyph glyph-name="f_f_l" unicode="ffl" horiz-adv-x="2146" 
d="M2005 0h-250v1237h-334q-156 0 -155 -205v-76h202v-200h-202v-756h-252v756h-533v-756h-252v756h-182v200h182v76q-1 211 105 328t303 117h104v-240h-104q-156 0 -156 -205v-76h533v76q0 211 105 328t302 117h584v-1477z" />
    <glyph glyph-name="f_f_j" unicode="ffj" horiz-adv-x="2107" 
d="M1842 1176q-67 0 -114 44t-47 106q-1 62 47 106t114 45q66 0 113 -43q46 -42 46 -106t-46 -108t-113 -44zM1612 -477h-158v229h121q143 0 141 180v824h-450v-756h-252v756h-533v-756h-252v756h-182v200h182v76q-1 211 105 328t303 117h104v-240h-104q-156 0 -156 -205
v-76h533v76q0 211 105 328t302 117h105v-240h-105q-156 0 -155 -205v-76h702v-1019q0 -414 -356 -414z" />
    <glyph glyph-name="f_j" unicode="fj" horiz-adv-x="1323" 
d="M897 1326q0 62 47 106t114 45q66 0 112 -43q46 -42 46 -106t-46 -108t-112 -44t-114 44q-47 44 -47 106zM827 -477h-157v229h121q143 0 141 180v824h-451v-756h-252v756h-182v200h182v76q-1 211 105 328t303 117h104v-240h-104q-156 0 -156 -205v-76h703v-1019
q-1 -414 -357 -414z" />
    <glyph glyph-name=".notdef" horiz-adv-x="1300" 
d="M485 268q0 -36 28 -62t66 -26q37 0 65 26t28 62t-28 63q-28 25 -66 25t-65 -26q-28 -26 -28 -62zM379 883h127q0 76 43 123t109 47t115 -42q48 -43 48 -107t-49 -103q-31 -35 -97 -53q-65 -18 -113 -69q-48 -52 -48 -147v-77h127v77q0 43 25 66q25 24 96 44t128 92
q56 74 56 182t-85 186t-203 78t-198 -82t-81 -215zM1137 0h-973v1362h973v-1362z" />
    <glyph glyph-name=".null" horiz-adv-x="0" 
 />
    <glyph glyph-name="nonmarkingreturn" horiz-adv-x="681" 
 />
    <glyph glyph-name="space" unicode=" " horiz-adv-x="507" 
 />
    <glyph glyph-name="exclam" unicode="!" horiz-adv-x="573" 
d="M286 291q66 0 114 -44t48 -112q0 -67 -48 -111t-114 -44t-114 45q-47 45 -47 111t47 110q47 45 114 45zM180 412l-39 999h293l-39 -999h-215z" />
    <glyph glyph-name="quotedbl" unicode="&#x22;" horiz-adv-x="722" 
d="M569 809h-141l-20 602h182zM295 809h-141l-21 602h182z" />
    <glyph glyph-name="numbersign" unicode="#" horiz-adv-x="1431" 
d="M870 870h-213l-102 -348h211zM1237 1411l-104 -356h227l-51 -185h-230l-102 -348h227l-51 -184h-227l-107 -338h-207l103 338h-211l-105 -338h-204l102 338h-225l51 184h225l101 348h-222l49 185h226l104 356h209l-102 -356h211l104 356h209z" />
    <glyph glyph-name="dollar" unicode="$" horiz-adv-x="1165" 
d="M516 1638h141v-217q174 -23 281 -135q106 -113 106 -285h-262q0 85 -56 135t-152 50t-154 -46q-59 -46 -60 -120q0 -117 168 -162l174 -51q210 -57 304 -169t81 -261q-10 -169 -131 -275t-299 -120v-232h-141v232q-190 20 -310 140t-120 290h262q4 -84 71 -142t171 -57
q104 0 168 47q63 47 67 120t-44 120t-150 75l-174 46q-356 104 -357 393q0 168 120 282t296 127v215z" />
    <glyph glyph-name="percent" unicode="%" horiz-adv-x="1409" 
d="M1178 252q0 47 -35 82t-82 35q-74 6 -106 -72t24 -127q49 -56 127 -24t72 106zM1061 526q115 0 195 -80t79 -195q0 -114 -80 -194q-83 -77 -195 -77t-194 77q-78 82 -78 195t78 194q80 80 195 80zM463 1090q0 48 -35 82t-82 34q-74 6 -106 -72t24 -126q49 -56 127 -24
t72 106zM345 1364q114 0 195 -80t81 -194t-80 -195q-82 -78 -195 -78t-194 78q-78 82 -78 195t78 194q79 80 193 80zM1098 1354l-666 -1354h-139l665 1354h140z" />
    <glyph glyph-name="ampersand" unicode="&#x26;" horiz-adv-x="1396" 
d="M580 -20q-203 0 -340 120q-133 121 -134 306q0 127 58 222t168 142q-68 33 -110 107t-42 165q0 152 113 263t282 116q244 10 383 -188l-210 -129q-58 76 -136 76t-122 -44t-44 -108q0 -84 67 -138q42 -34 103 -34h248v168h234v-168h170v-203h-170v-233q0 -127 40 -173
t158 -46v-221q-162 2 -248 38t-122 129q-42 -79 -142 -123t-204 -44zM864 653h-256q-125 0 -186 -75q-59 -80 -50 -165t71 -137t168 -53q106 0 180 77t73 212v141z" />
    <glyph glyph-name="quotesingle" unicode="'" horiz-adv-x="448" 
d="M295 809h-141l-21 602h182z" />
    <glyph glyph-name="parenleft" unicode="(" horiz-adv-x="774" 
d="M86 469q0 424 175 691t444 267v-208q-164 -1 -283 -221t-119 -527t119 -524t283 -217v-207q-267 0 -443 261t-176 685z" />
    <glyph glyph-name="parenright" unicode=")" horiz-adv-x="774" 
d="M688 469q0 -424 -175 -685t-443 -261v207q162 0 282 218t119 522q0 304 -120 526t-281 223v208q268 0 443 -267t175 -691z" />
    <glyph glyph-name="asterisk" unicode="*" horiz-adv-x="970" 
d="M334 670l-146 110l170 209l-262 74l60 176l252 -98l-17 270h189l-19 -268l256 96l55 -176l-260 -70l172 -215l-147 -104l-148 223z" />
    <glyph glyph-name="plus" unicode="+" horiz-adv-x="1046" 
d="M944 436h-321v-323h-199v323h-322v199h322v319h199v-319h321v-199z" />
    <glyph glyph-name="comma" unicode="," horiz-adv-x="555" 
d="M176 -270l-166 61q156 217 152 502h258q-6 -199 -80 -344t-164 -219z" />
    <glyph glyph-name="hyphen" unicode="-" horiz-adv-x="976" 
d="M848 391h-719v209h719v-209z" />
    <glyph glyph-name="period" unicode="." horiz-adv-x="557" 
d="M440 135q0 -67 -48 -111t-115 -44t-113 45t-47 111q1 66 47 110q46 45 113 45t115 -44t48 -112z" />
    <glyph glyph-name="slash" unicode="/" horiz-adv-x="1026" 
d="M61 0l684 1411h220l-684 -1411h-220z" />
    <glyph glyph-name="zero" unicode="0" horiz-adv-x="1234" 
d="M375 672q0 -446 246 -447q241 0 241 447t-241 446q-246 0 -246 -446zM123 672q0 692 498 692q281 0 393 -205q98 -180 98 -486t-100 -491q-109 -202 -391 -202q-498 0 -498 692z" />
    <glyph glyph-name="one" unicode="1" horiz-adv-x="741" 
d="M557 0h-252v1010l-225 -90v225l477 211v-1356z" />
    <glyph glyph-name="two" unicode="2" horiz-adv-x="1107" 
d="M969 240v-240h-856v129l546 655q82 94 82 170t-54 120q-54 46 -137 46t-140 -54t-70 -140l-234 43q27 180 150 287q123 108 302 108t306 -115t127 -291t-143 -340l-332 -378h453z" />
    <glyph glyph-name="three" unicode="3" horiz-adv-x="1118" 
d="M385 596v223h143q82 -4 117 49q35 52 35 102t-30 93t-89 55q-131 16 -207 -82l-196 129q57 99 167 153t238 46q172 -10 280 -118t107 -257q0 -79 -45 -149t-121 -113q102 -39 168 -147t56 -218q-18 -182 -168 -288t-348 -92q-135 8 -248 85t-168 197l219 111
q31 -63 91 -107t141 -43t146 57t64 142q1 42 -27 88q-54 88 -182 84h-143z" />
    <glyph glyph-name="four" unicode="4" horiz-adv-x="1226" 
d="M1135 510v-219h-179v-291h-249v291h-662l668 1048h243v-829h179zM707 510v467l-297 -467h297z" />
    <glyph glyph-name="five" unicode="5" horiz-adv-x="1191" 
d="M557 227q127 0 206 67q79 66 79 170t-72 165t-186 61q-182 0 -308 -135l-143 86l113 698h762v-231h-562l-47 -274q85 72 263 72t304 -119q126 -117 126 -329t-146 -345t-389 -133q-139 0 -266 78t-199 204l211 131q41 -74 111 -120t143 -46z" />
    <glyph glyph-name="six" unicode="6" horiz-adv-x="1173" 
d="M649 864q168 0 292 -125t122 -322t-137 -319q-136 -122 -330 -118q-194 2 -324 129q-129 127 -145 335q-6 127 -5 257t35 251t89 214q55 94 158 148q102 54 244 49t240 -65t163 -194l-232 -98q-59 122 -188 122t-196 -122t-56 -293q20 59 98 105t172 46zM399 430
q1 -86 59 -146t142 -62t144 58q60 58 61 143q2 85 -55 145q-56 60 -140 62t-145 -56t-66 -144z" />
    <glyph glyph-name="seven" unicode="7" horiz-adv-x="1107" 
d="M98 1104v235h981l-641 -1339h-286l530 1104h-584z" />
    <glyph glyph-name="eight" unicode="8" horiz-adv-x="1196" 
d="M203 1006q-1 142 113 250t281 108t280 -107q117 -105 117 -249t-101 -238q92 -53 144 -142t53 -194q0 -190 -144 -322t-349 -132q-204 0 -348 132t-145 322q0 221 197 336q-98 94 -98 236zM575 664q-93 0 -157 -67t-64 -157t72 -156t171 -67q99 0 171 67q72 68 72 158
t-68 156t-160 66h-37zM748 989q0 59 -42 101t-108 40q-66 0 -109 -41t-43 -100t43 -101t110 -42t108 42t41 101z" />
    <glyph glyph-name="nine" unicode="9" horiz-adv-x="1175" 
d="M526 479q-166 0 -290 125q-123 126 -121 322t135 317q136 121 332 118t323 -129t146 -333q6 -127 5 -257t-35 -252t-89 -215q-54 -93 -158 -147t-246 -48t-239 65q-98 59 -162 195l231 98q58 -123 188 -123t195 121q68 119 58 295q-21 -59 -99 -105t-174 -47zM778 911
q0 87 -58 147t-142 62t-144 -57t-61 -143q-2 -84 55 -144t141 -64q85 -3 145 55t64 144z" />
    <glyph glyph-name="colon" unicode=":" horiz-adv-x="581" 
d="M291 666q-68 0 -115 44t-47 112t47 111q47 44 115 44t115 -44t47 -112q0 -67 -47 -111t-115 -44zM291 -20q-68 0 -115 44t-47 112t47 111q47 44 115 44t115 -44t47 -112q0 -67 -47 -111t-115 -44z" />
    <glyph glyph-name="semicolon" unicode=";" horiz-adv-x="595" 
d="M473 821q0 -67 -47 -111q-46 -44 -114 -44t-115 44t-47 112t47 111q47 44 115 44t114 -44q47 -44 47 -112zM193 -270l-170 61q156 211 153 502h260q-6 -199 -80 -344t-163 -219z" />
    <glyph glyph-name="less" unicode="&#x3c;" horiz-adv-x="1286" 
d="M1126 307v-215l-1032 393v213l1032 394v-215l-755 -285z" />
    <glyph glyph-name="equal" unicode="=" horiz-adv-x="1228" 
d="M143 276v193h942v-193h-942zM1085 877v-193h-942v193h942z" />
    <glyph glyph-name="greater" unicode="&#x3e;" horiz-adv-x="1286" 
d="M1192 698v-213l-1032 -393v215l755 285l-755 285v215z" />
    <glyph glyph-name="question" unicode="?" horiz-adv-x="1005" 
d="M406 293q68 0 114 -45t47 -112q0 -68 -47 -112q-46 -44 -114 -44t-115 44t-47 112q0 67 47 112t115 45zM680 1030q0 64 -52 106t-127 42t-124 -50t-49 -129h-248q0 195 117 312q119 117 305 117t307 -110t121 -290q0 -140 -78 -244t-205 -143q-63 -20 -91 -56t-28 -108
l-4 -67h-243l-5 67q0 135 50 230q18 39 69 73q51 39 86 56l121 61q78 35 78 133z" />
    <glyph glyph-name="at" unicode="@" horiz-adv-x="1980" 
d="M1208 272v260q0 106 -72 178t-174 70q-101 0 -178 -71q-72 -73 -72 -175t72 -174q76 -72 172 -72t181 68v-186q-88 -49 -176 -49q-174 0 -295 120q-121 121 -121 293t121 293q125 121 294 121q168 0 290 -114t128 -281v-293q0 -127 130 -127t184 154q41 123 41 272
q-1 295 -221 495t-526 200t-513 -214q-207 -213 -207 -516t207 -513t508 -210h59v-170h-59q-375 0 -630 259t-255 633t257 637t628 263q242 5 457 -109t343 -317t124 -438q0 -203 -86 -387q-98 -206 -327 -206q-120 0 -202 76t-82 230z" />
    <glyph glyph-name="A" unicode="A" horiz-adv-x="1339" 
d="M848 571l-178 539l-174 -539h352zM1339 0h-276l-129 342h-526l-129 -342h-279l528 1411h283z" />
    <glyph glyph-name="B" unicode="B" horiz-adv-x="1298" 
d="M752 625h-314v-392h320q80 -1 129 57t49 138t-51 138t-133 59zM438 1178v-334h273q67 0 109 48t42 123t-42 119t-118 44h-264zM1135 1028q0 -205 -187 -274q121 -31 192 -128t70 -202q0 -176 -120 -300t-318 -124h-596v1411h553q186 1 296 -103t110 -280z" />
    <glyph glyph-name="C" unicode="C" horiz-adv-x="1419" 
d="M90 703q0 301 205 513t506 211q173 1 323 -73t244 -205l-209 -150q-137 181 -343 181t-334 -140q-130 -140 -130 -338t129 -336t320 -139q109 -1 206 51t160 140l207 -152q-94 -135 -245 -211t-328 -75q-301 0 -506 210t-205 513z" />
    <glyph glyph-name="D" unicode="D" horiz-adv-x="1462" 
d="M727 0h-551v1411h551q295 0 466 -200t171 -508q0 -307 -170 -505t-467 -198zM727 1171h-289v-931h289q183 0 279 132t96 332t-98 334q-98 133 -277 133z" />
    <glyph glyph-name="E" unicode="E" horiz-adv-x="1171" 
d="M1069 0h-893v1411h873v-233h-613v-367h537v-231h-537v-347h633v-233z" />
    <glyph glyph-name="F" unicode="F" horiz-adv-x="1093" 
d="M438 0h-262v1411h862v-233h-600v-367h475v-233h-475v-578z" />
    <glyph glyph-name="G" unicode="G" horiz-adv-x="1548" 
d="M352 702q0 -201 131 -341t326 -140q151 0 265 83t116 210h-387v215h688q0 -369 -180 -559q-179 -190 -491 -190t-521 210t-209 511q0 300 209 513t516 213t506 -215l-193 -168q-130 138 -322 138t-323 -142q-131 -137 -131 -338z" />
    <glyph glyph-name="H" unicode="H" horiz-adv-x="1441" 
d="M1001 819v592h265v-1411h-265v584h-565v-584h-260v1411h260v-592h565z" />
    <glyph glyph-name="I" unicode="I" horiz-adv-x="612" 
d="M436 0h-260v1411h260v-1411z" />
    <glyph glyph-name="J" unicode="J" horiz-adv-x="614" 
d="M-20 -229q100 0 148 60t48 163v1417h262v-1417q0 -217 -114 -344t-338 -127q-66 0 -189 31l25 237q58 -20 158 -20z" />
    <glyph glyph-name="K" unicode="K" horiz-adv-x="1224" 
d="M440 0h-264v1411h264v-514l379 514h307l-536 -700l663 -711h-342l-471 522v-522z" />
    <glyph glyph-name="L" unicode="L" horiz-adv-x="1036" 
d="M983 0h-807v1411h262v-1178h545v-233z" />
    <glyph glyph-name="M" unicode="M" horiz-adv-x="1882" 
d="M489 1411l451 -954l449 954h225l172 -1411h-262l-109 940l-368 -780h-209l-371 780l-111 -940h-262l174 1411h221z" />
    <glyph glyph-name="N" unicode="N" horiz-adv-x="1396" 
d="M958 1411h263v-1411h-240l-545 928v-928h-260v1411h244l538 -917v917z" />
    <glyph glyph-name="O" unicode="O" horiz-adv-x="1611" 
d="M90 702q0 299 207 512t508 213t509 -213t208 -513t-209 -511q-209 -210 -508 -210t-508 210q-207 213 -207 512zM350 702q0 -196 132 -330t322 -134t323 136t133 328t-132 330q-132 137 -324 137t-323 -135t-131 -332z" />
    <glyph glyph-name="P" unicode="P" horiz-adv-x="1253" 
d="M438 0h-262v1411h574q221 0 333 -135q115 -134 115 -322t-114 -320t-334 -132h-312v-502zM745 1178h-307v-443h299q90 0 145 65q54 66 54 156t-51 156q-52 66 -140 66z" />
    <glyph glyph-name="Q" unicode="Q" horiz-adv-x="1622" 
d="M352 716q0 -188 109 -319q151 -181 409 -159l-122 204l188 113l143 -233q188 135 189 380q0 199 -133 338q-133 140 -326 140t-325 -138t-132 -326zM90 701q0 300 209 513t512 213q303 1 512 -211t209 -514q0 -182 -86 -341t-232 -259l140 -227l-189 -115l-153 248
q-104 -29 -203 -28q-301 0 -510 210t-209 511z" />
    <glyph glyph-name="R" unicode="R" horiz-adv-x="1292" 
d="M438 502v-502h-262v1411h565q221 0 334 -135q117 -134 117 -310t-92 -300q-88 -125 -266 -154l360 -512h-315l-332 502h-109zM729 1178h-291v-443h283q92 -1 145 63t54 156q0 92 -52 158t-139 66z" />
    <glyph glyph-name="S" unicode="S" horiz-adv-x="1181" 
d="M94 412h262q4 -84 71 -142t171 -57q104 0 168 47t68 120t-44 120t-151 75l-174 46q-356 104 -356 393q0 184 138 299t339 115t334 -116t133 -311h-262q-1 85 -57 135t-151 50t-155 -46t-59 -120q0 -117 168 -162l174 -51q211 -57 304 -169t81 -261q-10 -187 -150 -293
t-356 -106t-356 124q-140 126 -140 310z" />
    <glyph glyph-name="T" unicode="T" horiz-adv-x="1173" 
d="M455 1171h-398v240h1059v-240h-397v-1171h-264v1171z" />
    <glyph glyph-name="U" unicode="U" horiz-adv-x="1394" 
d="M971 498v913h262v-913q0 -230 -157 -374t-380 -144t-379 143t-155 375v913h266v-913q0 -117 79 -194t191 -77t193 76q80 76 80 195z" />
    <glyph glyph-name="V" unicode="V" horiz-adv-x="1177" 
d="M471 0l-430 1411h272l275 -983l274 983h273l-428 -1411h-236z" />
    <glyph glyph-name="W" unicode="W" horiz-adv-x="1826" 
d="M1018 1214l213 -786l303 983h285l-480 -1411h-211l-217 801l-213 -801h-213l-475 1411h283l301 -983l215 786h209z" />
    <glyph glyph-name="X" unicode="X" horiz-adv-x="1316" 
d="M942 1411h313l-442 -657l492 -754h-312l-336 543l-335 -543h-310l490 754l-443 657h314l284 -448z" />
    <glyph glyph-name="Y" unicode="Y" horiz-adv-x="1318" 
d="M793 0h-269v643l-540 768h311l362 -543l367 543h313l-544 -772v-639z" />
    <glyph glyph-name="Z" unicode="Z" horiz-adv-x="1202" 
d="M86 0v205l680 971h-653v235h991v-207l-686 -968h686v-236h-1018z" />
    <glyph glyph-name="bracketleft" unicode="[" horiz-adv-x="679" 
d="M606 -465h-450v1876h450v-194h-229v-1485h229v-197z" />
    <glyph glyph-name="backslash" unicode="\" horiz-adv-x="1026" 
d="M745 0l-684 1411h220l684 -1411h-220z" />
    <glyph glyph-name="bracketright" unicode="]" horiz-adv-x="679" 
d="M74 1411h450v-1876h-450v197h229v1485h-229v194z" />
    <glyph glyph-name="underscore" unicode="_" horiz-adv-x="1490" 
d="M1362 -254h-1233v191h1233v-191z" />
    <glyph glyph-name="grave" unicode="`" horiz-adv-x="1103" 
d="M547 1114l-283 334h262l215 -334h-194z" />
    <glyph glyph-name="a" unicode="a" horiz-adv-x="1257" 
d="M340 479q0 -113 78 -186q55 -55 135 -67q79 -12 149 13q70 26 119 90t45 150q0 119 -78 189t-184 70t-185 -74q-79 -72 -79 -185zM1116 0h-250v123q-41 -66 -127 -104t-170 -37q-199 0 -343 138t-144 359t144 359t343 139q86 0 169 -36t128 -103v118h250v-956z" />
    <glyph glyph-name="b" unicode="b" horiz-adv-x="1241" 
d="M391 0h-250v1477h250v-648q37 68 118 108t181 40q193 0 331 -138q138 -137 138 -361t-137 -361t-332 -137q-98 0 -180 40t-119 109v-129zM649 219q106 0 179 74q73 73 73 187t-72 187t-176 73t-181 -72q-77 -70 -77 -186t74 -190t180 -73z" />
    <glyph glyph-name="c" unicode="c" horiz-adv-x="1064" 
d="M596 977q121 0 225 -49t172 -137l-198 -150q-69 94 -187 94q-118 -1 -199 -71t-81 -183t80 -187t198 -75q118 0 189 96l200 -147q-141 -188 -399 -188q-215 0 -366 141q-150 141 -150 359t151 358q152 139 365 139z" />
    <glyph glyph-name="d" unicode="d" horiz-adv-x="1241" 
d="M592 219q104 0 180 73q76 72 76 188t-78 188t-182 71t-176 -73t-72 -186t72 -189q76 -72 180 -72zM1100 0h-248v129q-39 -68 -121 -109t-180 -40q-195 0 -332 137t-137 360t138 361t331 139q100 0 181 -40t120 -108v648h248v-1477z" />
    <glyph glyph-name="e" unicode="e" horiz-adv-x="1132" 
d="M578 768q-98 0 -167 -56t-83 -147h491q-14 95 -79 149q-64 54 -162 54zM1063 481q0 -25 -4 -86h-729q12 -92 85 -148q73 -57 165 -57t158 33t96 90l190 -102q-59 -113 -179 -172t-267 -59q-207 0 -353 139q-143 141 -143 362t143 359t353 137t347 -139q138 -138 138 -357
z" />
    <glyph glyph-name="f" unicode="f" horiz-adv-x="731" 
d="M637 1477h104v-240h-104q-156 0 -156 -205v-76h203v-200h-203v-756h-252v756h-182v200h182v76q-1 211 105 328t303 117z" />
    <glyph glyph-name="g" unicode="g" horiz-adv-x="1251" 
d="M575 -250q162 0 233 102t58 279q-35 -67 -120 -109t-185 -42q-195 0 -338 137q-141 137 -141 360t143 361t336 139q98 0 183 -41t122 -109v129h244v-819q0 -307 -137 -461t-398 -153q-149 -1 -271 75t-185 207l203 103q30 -70 102 -114t151 -44zM860 479q0 117 -75 188
t-183 71t-184 -74t-76 -187t74 -187t180 -73t185 73t79 189z" />
    <glyph glyph-name="h" unicode="h" horiz-adv-x="1202" 
d="M391 510v-510h-250v1477h250v-668q31 80 121 124t176 44q184 0 284 -117t101 -328v-532h-250v520q0 96 -59 154t-150 59q-91 0 -157 -57t-66 -166z" />
    <glyph glyph-name="i" unicode="i" horiz-adv-x="530" 
d="M265 1176q-67 0 -113 44t-48 107q0 63 48 107t114 43q66 0 112 -43q46 -42 46 -106t-46 -108t-113 -44zM141 956h248v-956h-248v956z" />
    <glyph glyph-name="j" unicode="j" horiz-adv-x="534" 
d="M267 1176q-67 0 -114 44t-47 106t48 106t114 45q66 0 112 -43q46 -42 46 -106t-46 -108t-113 -44zM37 -477h-158v229h121q143 0 141 180v1024h252v-1019q0 -414 -356 -414z" />
    <glyph glyph-name="k" unicode="k" horiz-adv-x="1062" 
d="M389 0h-248v1477h248v-807l264 286h324l-402 -419l488 -537h-313l-361 410v-410z" />
    <glyph glyph-name="l" unicode="l" horiz-adv-x="532" 
d="M391 0h-250v1477h250v-1477z" />
    <glyph glyph-name="m" unicode="m" horiz-adv-x="1769" 
d="M1393 520q1 98 -49 156t-135 57q-85 0 -138 -59t-53 -164v-510h-250v526q-2 94 -51 150t-132 57q-83 0 -139 -56t-55 -167v-510h-250v956h250v-141q35 76 113 118t162 42q227 -12 305 -178q99 180 289 180t285 -111t95 -319v-547h-247v520z" />
    <glyph glyph-name="n" unicode="n" 
d="M391 510v-510h-250v956h250v-141q37 74 117 118t168 44q172 1 264 -105t92 -307v-565h-250v520q0 102 -48 158t-139 55q-91 0 -147 -55t-57 -168z" />
    <glyph glyph-name="o" unicode="o" horiz-adv-x="1159" 
d="M579 -18q-209 0 -353 138t-144 360t143 360t353 137q210 0 355 -138q144 -139 144 -359t-145 -359t-353 -139zM580 225q109 -1 179 71t70 183q1 111 -71 181t-178 71q-106 0 -178 -71q-72 -72 -72 -182t70 -182t180 -71z" />
    <glyph glyph-name="p" unicode="p" horiz-adv-x="1239" 
d="M395 475q0 -115 74 -187q73 -72 181 -71q108 0 180 72q72 73 71 187q0 114 -74 188q-75 74 -181 74t-178 -74t-73 -189zM141 956h250v-129q37 68 119 109t180 41q190 0 328 -138q138 -137 139 -361q0 -224 -136 -361t-331 -137q-98 0 -180 40t-119 107v-592h-250v1421z
" />
    <glyph glyph-name="q" unicode="q" horiz-adv-x="1239" 
d="M848 956h250v-1421h-250v592q-37 -68 -119 -108t-180 -39q-195 0 -332 137q-135 137 -135 360t138 361t329 139q98 0 180 -41t119 -109v129zM340 476q0 -114 72 -186t176 -73t180 69t76 187t-73 191t-180 74t-179 -74t-72 -188z" />
    <glyph glyph-name="r" unicode="r" horiz-adv-x="841" 
d="M391 338v-338h-250v956h250v-225q35 119 108 182t164 63t156 -34l-43 -225q-55 27 -145 26q-240 1 -240 -405z" />
    <glyph glyph-name="s" unicode="s" horiz-adv-x="929" 
d="M459 977q147 0 255 -74t113 -227h-237q-2 47 -39 73t-90 25q-121 0 -121 -94q0 -53 100 -80l160 -39q154 -40 208 -138q42 -77 42 -149q0 -139 -116 -217q-116 -77 -272 -77t-272 86q-115 90 -116 235h233q5 -51 57 -87t112 -34t96 29t37 65t-24 59q-26 22 -81 34
l-131 32q-166 47 -218 118q-53 71 -53 181t104 194q104 85 253 85z" />
    <glyph glyph-name="t" unicode="t" horiz-adv-x="718" 
d="M221 1321h248v-365h203v-200h-203v-756h-248v756h-174v200h174v365z" />
    <glyph glyph-name="u" unicode="u" 
d="M770 446v510h250v-956h-250v135q-37 -71 -112 -113t-152 -42q-176 0 -277 107q-100 108 -100 304v565h252v-520q0 -104 51 -158t137 -54q85 0 143 55q58 56 58 167z" />
    <glyph glyph-name="v" unicode="v" horiz-adv-x="1060" 
d="M641 0h-221l-402 956h267l245 -637l246 637h268z" />
    <glyph glyph-name="w" unicode="w" horiz-adv-x="1585" 
d="M1288 956h266l-342 -956h-208l-213 641l-207 -641h-207l-352 956h266l194 -604l193 604h221l195 -604z" />
    <glyph glyph-name="x" unicode="x" horiz-adv-x="1064" 
d="M14 0l377 520l-313 436h293l164 -235l159 235h293l-313 -436l375 -520h-291l-226 319l-227 -319h-291z" />
    <glyph glyph-name="y" unicode="y" horiz-adv-x="1046" 
d="M762 956h266l-592 -1423h-264l219 541l-373 882h267l237 -596z" />
    <glyph glyph-name="z" unicode="z" horiz-adv-x="1040" 
d="M115 723v233h825v-192l-502 -531h502v-233h-856v190l494 533h-463z" />
    <glyph glyph-name="braceleft" unicode="{" horiz-adv-x="833" 
d="M70 389v170q49 0 87 33t38 82v332q-1 182 117 294t292 111h160v-192h-166q-78 -1 -132 -57t-54 -140v-313q0 -83 -39 -147t-101 -89q60 -25 100 -88t40 -145v-301q0 -83 55 -145t131 -62h166v-197h-160q-174 0 -292 112t-117 294v335q0 47 -37 80t-88 33z" />
    <glyph glyph-name="bar" unicode="|" horiz-adv-x="452" 
d="M156 -250v1888h141v-1888h-141z" />
    <glyph glyph-name="braceright" unicode="}" horiz-adv-x="833" 
d="M764 559v-170q-51 0 -88 -33t-37 -80v-335q0 -182 -119 -293q-115 -113 -291 -113h-159v197h166q76 0 131 61t55 146v301q0 82 39 145t100 88q-61 25 -100 88t-39 148v313q0 84 -54 140t-132 57h-166v192h159q176 0 291 -113q119 -111 119 -292v-332q0 -49 37 -82t88 -33
z" />
    <glyph glyph-name="exclamdown" unicode="&#xa1;" horiz-adv-x="542" 
d="M432 821q0 -67 -48 -111t-115 -44t-113 45t-47 111q1 66 47 110q46 45 113 45t115 -44t48 -112zM379 545l39 -1010h-293l39 1010h215z" />
    <glyph glyph-name="cent" unicode="&#xa2;" horiz-adv-x="1095" 
d="M508 1188h141v-213q227 -18 352 -184l-198 -150q-69 94 -187 94q-118 -1 -199 -71t-81 -183t80 -187t198 -75q118 0 189 96l201 -147q-129 -168 -355 -186v-232h-141v238q-180 33 -300 165q-120 133 -120 327t118 324t302 165v219z" />
    <glyph glyph-name="sterling" unicode="&#xa3;" horiz-adv-x="1357" 
d="M809 705v-127h-262v-349h389q82 0 82 64v80h248v-111q0 -114 -67 -188t-171 -74h-940v229h209v349h-166v127h166v258q0 213 119 339t310 125t317 -117t126 -333h-256q0 96 -53 144t-133 45t-130 -51t-50 -126v-284h262z" />
    <glyph glyph-name="currency" unicode="&#xa4;" horiz-adv-x="1265" 
d="M444 695q0 -79 56 -134t134 -55q79 0 134 55t55 134t-55 134t-134 55q-78 0 -134 -54q-56 -56 -56 -135zM633 280q-123 0 -219 66l-146 -147l-131 131l146 147q-63 94 -64 217q0 123 66 219l-148 148l131 131l148 -148q100 64 221 64t215 -64l145 148l131 -131l-145 -148
q63 -106 63 -227t-63 -209l145 -147l-131 -131l-145 147q-96 -66 -219 -66z" />
    <glyph glyph-name="yen" unicode="&#xa5;" horiz-adv-x="1480" 
d="M1210 659v-137h-338v-180h338v-135h-338v-207h-268v207h-336v135h336v180h-336v137h324l-529 752h312l362 -543l367 543h313l-532 -752h325z" />
    <glyph glyph-name="brokenbar" unicode="&#xa6;" horiz-adv-x="460" 
d="M160 1638h141v-788h-141v788zM160 -250v789h141v-789h-141z" />
    <glyph glyph-name="section" unicode="&#xa7;" horiz-adv-x="1089" 
d="M340 18q51 -155 207 -155q76 0 133 54t57 138v385q0 88 -57 140t-148 51q-41 -1 -90 -13v226q55 14 99 14q178 0 301 -116t123 -302v-385q0 -186 -123 -302t-301 -115q-143 0 -262 81q-117 84 -154 234zM750 1036q-51 156 -207 156q-76 0 -133 -54t-58 -139v-385
q0 -88 58 -139t147 -51q41 0 90 12v-225q-55 -14 -98 -14q-176 0 -301 114q-123 117 -123 303v385q0 188 123 303q122 115 284 115t279 -82t154 -233z" />
    <glyph glyph-name="dieresis" unicode="&#xa8;" horiz-adv-x="1128" 
d="M602 1294q0 58 41 96t100 38t99 -38t41 -96q0 -58 -40 -95q-39 -38 -99 -38t-101 38t-41 95zM246 1294q0 57 41 95t99 38q58 -1 99 -39t41 -94t-41 -94q-41 -39 -99 -39t-99 38t-41 95z" />
    <glyph glyph-name="copyright" unicode="&#xa9;" horiz-adv-x="1640" 
d="M229 702q0 -248 172 -422t418 -174t418 174t172 422t-172 423t-418 175t-418 -175t-172 -423zM104 702q0 299 207 512q209 213 508 213t508 -213t209 -513t-209 -511t-508 -211t-508 211q-207 213 -207 512zM826 322q-155 0 -262 107t-107 262q-1 155 107 263t260 107
q152 0 282 -135l-94 -97q-94 95 -188 95t-162 -68q-66 -68 -66 -163t66 -167q68 -68 162 -68t192 99l92 -102q-127 -133 -282 -133z" />
    <glyph glyph-name="ordfeminine" unicode="&#xaa;" horiz-adv-x="976" 
d="M811 416h-645v127h645v-127zM258 1004q0 -90 58 -150t146 -59q88 -1 148 57t60 150t-62 149t-148 57t-144 -57t-58 -147zM815 664h-145v94q-36 -49 -96 -79t-123 -30q-141 0 -244 96q-101 98 -101 257t102 255q102 97 244 97q144 0 218 -107v92h145v-675z" />
    <glyph glyph-name="guillemotleft" unicode="&#xab;" horiz-adv-x="1021" 
d="M729 53l-283 424l283 424h201l-283 -424l283 -424h-201zM367 53l-283 424l283 424h200l-282 -424l282 -424h-200z" />
    <glyph glyph-name="logicalnot" unicode="&#xac;" horiz-adv-x="1296" 
d="M143 532v222h998v-531h-223v309h-775z" />
    <glyph glyph-name="registered" unicode="&#xae;" horiz-adv-x="1640" 
d="M229 702q0 -248 172 -422t418 -174t418 174t172 422t-172 423t-418 175t-418 -175t-172 -423zM104 702q0 299 207 512q209 213 508 213t508 -213t209 -513t-209 -511t-508 -211t-508 211q-207 213 -207 512zM715 922v-195h135q43 0 71 29q27 30 27 70t-25 68
q-26 28 -69 28h-139zM715 588v-250h-142v723h281q106 0 170 -69t63 -160t-41 -153t-116 -81l184 -260h-172l-180 250h-47z" />
    <glyph glyph-name="overscore" unicode="&#xaf;" horiz-adv-x="1042" 
d="M797 1198h-551v170h551v-170z" />
    <glyph glyph-name="degree" unicode="&#xb0;" horiz-adv-x="763" 
d="M242 1142q0 -58 41 -100t99 -41q58 0 99 41q41 40 41 100t-41 100t-99 40t-99 -41t-41 -99zM96 1142q0 118 84 202t202 83q118 0 202 -84q84 -83 84 -201t-84 -202t-202 -84t-202 84t-84 202z" />
    <glyph glyph-name="plusminus" unicode="&#xb1;" horiz-adv-x="1118" 
d="M977 193v-195h-836v195h836zM977 588h-320v-295h-198v295h-318v196h318v291h198v-291h320v-196z" />
    <glyph glyph-name="twosuperior" unicode="&#xb2;" horiz-adv-x="649" 
d="M63 887v76l322 383q45 53 45 98t-30 72q-30 26 -79 26t-83 -32t-41 -85l-138 29q19 106 91 168t177 64q105 0 179 -68t74 -171t-84 -200l-191 -217h262v-143h-504z" />
    <glyph glyph-name="threesuperior" unicode="&#xb3;" horiz-adv-x="655" 
d="M555 1460q0 -94 -98 -149q61 -23 99 -85t32 -126q-10 -100 -100 -166t-186 -58q-95 8 -162 52q-67 45 -99 112q82 39 127 66q45 -80 129 -88q51 -2 90 28t42 76t-28 81q-31 36 -94 34h-86v129h86q47 0 72 34t18 68q-2 33 -27 57q-26 24 -63 23q-63 2 -104 -53l-58 37
q-47 31 -55 39q84 124 250 114q86 -5 150 -69q64 -62 65 -156z" />
    <glyph glyph-name="acute" unicode="&#xb4;" horiz-adv-x="1103" 
d="M264 1114l215 334h262l-282 -334h-195z" />
    <glyph glyph-name="mu" unicode="&#xb5;" 
d="M389 -365h-233v1321h250v-524q0 -100 50 -154t134 -54t141 56t57 166v510h250v-956h-250v127q-36 -68 -108 -108q-72 -39 -159 -39t-150 57l18 -258v-144z" />
    <glyph glyph-name="paragraph" unicode="&#xb6;" horiz-adv-x="1417" 
d="M1067 1217h-59v-1338q0 -106 -84 -191t-197 -89h-235v176h223q41 -1 71 27t29 67v1542h248q113 0 197 -84t83 -197v-174h-184v162q0 41 -26 70q-27 29 -66 29zM514 1411h176v-1438q0 -59 -13 -71t-48 -13h-135v633q-174 8 -299 138t-125 311q0 180 129 310t315 130z" />
    <glyph glyph-name="middot" unicode="&#xb7;" horiz-adv-x="569" 
d="M284 797q66 0 114 -44t48 -112t-48 -112t-114 -44t-114 45q-47 45 -47 111t47 111t114 45z" />
    <glyph glyph-name="cedilla" unicode="&#xb8;" horiz-adv-x="1081" 
d="M544 -436q-89 0 -151 68q-61 69 -59 178l141 -9q0 -24 10 -51q25 -57 88 -41q57 20 35 94l-94 256h121l104 -192q19 -33 19 -107t-62 -134q-62 -62 -152 -62z" />
    <glyph glyph-name="onesuperior" unicode="&#xb9;" horiz-adv-x="434" 
d="M330 887h-150v581l-135 -61v133l285 143v-796z" />
    <glyph glyph-name="ordmasculine" unicode="&#xba;" horiz-adv-x="950" 
d="M807 416h-655v127h655v-127zM469 795q87 -1 147 59t60 151t-60 147t-147 56q-88 0 -147 -56q-60 -56 -60 -147t60 -151t147 -59zM469 649q-150 1 -252 99t-102 255t103 253t252 98q149 0 249 -99q104 -95 104 -251t-102 -256t-252 -99z" />
    <glyph glyph-name="guillemotright" unicode="&#xbb;" horiz-adv-x="1021" 
d="M655 901l283 -424l-283 -424h-200l282 424l-282 424h200zM293 901l282 -424l-282 -424h-201l283 424l-283 424h201z" />
    <glyph glyph-name="onequarter" unicode="&#xbc;" horiz-adv-x="1591" 
d="M365 553h-150v582l-135 -62v135l285 142v-797zM1139 1370h155l-921 -1390h-160zM1262 301v266l-168 -266h168zM1516 170h-105v-170h-149v170h-390l396 618h143v-487h105v-131z" />
    <glyph glyph-name="onehalf" unicode="&#xbd;" horiz-adv-x="1622" 
d="M365 553h-150v582l-135 -62v135l285 142v-797zM1139 1370h155l-921 -1390h-160zM1014 0v78l321 383q45 53 45 98t-30 72q-31 27 -79 27t-82 -32t-42 -85l-137 26q18 109 90 171t177 62t179 -67q74 -68 74 -171t-84 -200l-191 -219h263v-143h-504z" />
    <glyph glyph-name="threequarters" unicode="&#xbe;" horiz-adv-x="1746" 
d="M1294 1370h156l-922 -1390h-159zM1417 301v266l-168 -266h168zM1671 170h-104v-170h-150v170h-389l395 618h144v-487h104v-131zM588 1128q0 -93 -99 -149q61 -23 99 -85t33 -128q-11 -102 -101 -167t-186 -57t-162 52q-66 45 -98 115l127 65q45 -88 129 -88q51 -2 90 28
t42 74t-28 82q-31 37 -94 35h-86v129h86q47 0 72 34t18 69q-2 33 -28 57t-62 23q-67 3 -104 -56l-113 78q83 124 249 114q86 -5 151 -69t65 -156z" />
    <glyph glyph-name="questiondown" unicode="&#xbf;" horiz-adv-x="987" 
d="M754 820q0 -68 -47 -112t-115 -44t-115 45t-47 111t47 112q47 45 115 45t115 -45t47 -112zM317 -80q1 -63 53 -105t127 -42t124 49t49 129h248q0 -195 -118 -311t-305 -117t-307 109t-120 290q0 139 77 244q78 104 205 143q63 20 91 56t28 108l4 74h244l4 -74
q0 -133 -49 -231q-18 -33 -70 -72t-88 -57l-119 -60q-78 -35 -78 -133z" />
    <glyph glyph-name="Agrave" unicode="&#xc0;" horiz-adv-x="1339" 
d="M592 1569l-283 334h262l215 -334h-194zM848 571l-178 539l-174 -539h352zM1339 0h-276l-129 342h-526l-129 -342h-279l528 1411h283z" />
    <glyph glyph-name="Aacute" unicode="&#xc1;" horiz-adv-x="1339" 
d="M547 1569l215 334h262l-283 -334h-194zM496 571h352l-178 539zM934 342h-526l-129 -342h-279l528 1411h283l528 -1411h-276z" />
    <glyph glyph-name="Acircumflex" unicode="&#xc2;" horiz-adv-x="1339" 
d="M319 1575l224 334h252l225 -334h-193l-159 180l-156 -180h-193zM848 571l-178 539l-174 -539h352zM1339 0h-276l-129 342h-526l-129 -342h-279l528 1411h283z" />
    <glyph glyph-name="Atilde" unicode="&#xc3;" horiz-adv-x="1339" 
d="M577 1698q-17 0 -33 -24t-20 -64h-143q6 128 61 192t136 64q49 0 105 -42q57 -42 75 -42t36 22q17 23 19 62h143q-6 -123 -63 -188t-135 -64q-44 0 -104 42t-77 42zM848 571l-178 539l-174 -539h352zM1339 0h-276l-129 342h-526l-129 -342h-279l528 1411h283z" />
    <glyph glyph-name="Adieresis" unicode="&#xc4;" horiz-adv-x="1339" 
d="M707 1749q0 57 41 95t100 38t99 -38t40 -95t-40 -95t-99 -38t-100 38t-41 95zM491 1882q58 0 99 -39t41 -94t-41 -94t-99 -39t-100 38q-41 38 -41 95t41 95q42 38 100 38zM496 571h352l-178 539zM934 342h-526l-129 -342h-279l528 1411h283l528 -1411h-276z" />
    <glyph glyph-name="Aring" unicode="&#xc5;" horiz-adv-x="1339" 
d="M549 1795q0 -50 35 -84t84 -34t84 34q34 34 34 84t-34 85q-35 35 -84 35t-84 -35t-35 -85zM432 1794q0 98 68 170q70 70 168 70t168 -69t70 -169t-70 -168t-168 -68t-168 68q-68 68 -68 166zM496 571h352l-178 539zM934 342h-526l-129 -342h-279l528 1411h283l528 -1411
h-276z" />
    <glyph glyph-name="AE" unicode="&#xc6;" horiz-adv-x="1910" 
d="M915 586v471l-270 -471h270zM1788 1411v-237h-610v-363h534v-233h-534v-340h630v-238h-890v2l-3 -2v334h-419l-213 -334h-312l891 1411h926z" />
    <glyph glyph-name="Ccedilla" unicode="&#xc7;" horiz-adv-x="1421" 
d="M92 714q0 292 205 502q205 212 506 211q173 1 323 -73t244 -205l-209 -150q-137 181 -343 181t-334 -140q-130 -140 -130 -338t129 -336t320 -139q109 -1 206 51t160 140l207 -152q-86 -124 -221 -198t-295 -86l64 -115q18 -33 18 -105t-63 -136q-63 -62 -151 -62
t-150 68q-61 68 -60 178l141 -9q1 -24 11 -51q25 -57 88 -41q57 20 35 94l-68 181q-269 26 -451 232t-182 498z" />
    <glyph glyph-name="Egrave" unicode="&#xc8;" horiz-adv-x="1171" 
d="M594 1569l-283 334h262l215 -334h-194zM1069 0h-893v1411h873v-233h-613v-367h537v-231h-537v-347h633v-233z" />
    <glyph glyph-name="Eacute" unicode="&#xc9;" horiz-adv-x="1171" 
d="M391 1569l215 334h262l-282 -334h-195zM176 1411h873v-233h-613v-367h537v-231h-537v-347h633v-233h-893v1411z" />
    <glyph glyph-name="Ecircumflex" unicode="&#xca;" horiz-adv-x="1171" 
d="M231 1575l224 334h252l225 -334h-193l-159 180l-156 -180h-193zM1069 0h-893v1411h873v-233h-613v-367h537v-231h-537v-347h633v-233z" />
    <glyph glyph-name="Edieresis" unicode="&#xcb;" horiz-adv-x="1171" 
d="M647 1749q0 57 41 95t100 38q60 0 100 -38t40 -95t-40 -95t-100 -38t-100 38q-41 38 -41 95zM431 1882q58 0 99 -39t41 -94t-41 -94t-99 -39t-99 38t-41 95t41 95t99 38zM176 1411h873v-233h-613v-367h537v-231h-537v-347h633v-233h-893v1411z" />
    <glyph glyph-name="Igrave" unicode="&#xcc;" horiz-adv-x="612" 
d="M436 0h-260v1411h260v-1411zM240 1569l-283 334h262l215 -334h-194z" />
    <glyph glyph-name="Iacute" unicode="&#xcd;" horiz-adv-x="612" 
d="M178 1569l215 334h262l-282 -334h-195zM176 1411h260v-1411h-260v1411z" />
    <glyph glyph-name="Icircumflex" unicode="&#xce;" horiz-adv-x="612" 
d="M436 0h-260v1411h260v-1411zM-43 1575l223 334h252l225 -334h-192l-160 180l-155 -180h-193z" />
    <glyph glyph-name="Idieresis" unicode="&#xcf;" horiz-adv-x="612" 
d="M344 1749q0 57 41 95t100 38t99 -38t41 -95q0 -57 -40 -95q-39 -38 -99 -38t-101 38t-41 95zM128 1882q58 0 99 -39t41 -94t-41 -94t-99 -39t-99 38t-41 95t41 95t99 38zM176 1411h260v-1411h-260v1411z" />
    <glyph glyph-name="Eth" unicode="&#xd0;" horiz-adv-x="1478" 
d="M741 600h-282v-356h286q179 0 277 129t98 329t-97 332q-97 133 -278 133h-286v-387h282v-180zM199 600h-193v180h193v631h546q297 0 466 -200t169 -508q0 -307 -170 -505t-465 -198h-546v600z" />
    <glyph glyph-name="Ntilde" unicode="&#xd1;" horiz-adv-x="1396" 
d="M606 1698q-18 0 -34 -24t-19 -64h-143q6 128 61 192t135 64q50 0 106 -42t74 -42t36 22q17 23 20 62h143q-6 -123 -63 -188t-136 -64q-46 0 -104 42t-76 42zM958 1411h263v-1411h-240l-545 928v-928h-260v1411h244l538 -917v917z" />
    <glyph glyph-name="Ograve" unicode="&#xd2;" horiz-adv-x="1611" 
d="M709 1569l-283 334h262l215 -334h-194zM90 702q0 299 207 512t508 213t509 -213t208 -513t-209 -511q-209 -210 -508 -210t-508 210q-207 213 -207 512zM350 702q0 -196 132 -330t322 -134t323 136t133 328t-132 330q-132 137 -324 137t-323 -135t-131 -332z" />
    <glyph glyph-name="Oacute" unicode="&#xd3;" horiz-adv-x="1611" 
d="M694 1569l215 334h262l-282 -334h-195zM90 702q0 299 207 512t508 213t509 -213t208 -513t-209 -511q-209 -210 -508 -210t-508 210q-207 213 -207 512zM804 238q190 0 323 136t133 328t-132 330q-132 137 -324 137t-323 -135q-131 -136 -131 -332t132 -330t322 -134z
" />
    <glyph glyph-name="Ocircumflex" unicode="&#xd4;" horiz-adv-x="1611" 
d="M455 1575l223 334h252l225 -334h-192l-160 180l-156 -180h-192zM90 702q0 299 207 512t508 213t509 -213t208 -513t-209 -511q-209 -210 -508 -210t-508 210q-207 213 -207 512zM350 702q0 -196 132 -330t322 -134t323 136t133 328t-132 330q-132 137 -324 137t-323 -135
t-131 -332z" />
    <glyph glyph-name="Otilde" unicode="&#xd5;" horiz-adv-x="1611" 
d="M90 702q0 299 207 512t508 213t509 -213t208 -513t-209 -511q-209 -210 -508 -210t-508 210q-207 213 -207 512zM350 702q0 -196 132 -330t322 -134t323 136t133 328t-132 330q-132 137 -324 137t-323 -135t-131 -332zM715 1698q-19 0 -35 -24t-18 -64h-144q6 128 62 192
t135 64q49 0 105 -42t74 -42t37 22q17 23 19 62h144q-6 -123 -64 -188t-135 -64q-45 0 -103 42t-77 42z" />
    <glyph glyph-name="Odieresis" unicode="&#xd6;" horiz-adv-x="1611" 
d="M844 1749q0 57 41 95t100 38t99 -38t40 -95t-40 -95t-99 -38t-100 38t-41 95zM628 1882q58 0 99 -39t41 -94t-41 -94t-99 -39t-100 38q-41 38 -41 95t41 95q42 38 100 38zM90 702q0 299 207 512t508 213t509 -213t208 -513t-209 -511q-209 -210 -508 -210t-508 210
q-207 213 -207 512zM804 238q190 0 323 136t133 328t-132 330q-132 137 -324 137t-323 -135q-131 -136 -131 -332t132 -330t322 -134z" />
    <glyph glyph-name="multiply" unicode="&#xd7;" horiz-adv-x="1007" 
d="M889 784l-246 -243l246 -244l-139 -141l-246 243l-242 -239l-139 139l242 242l-244 243l139 138l244 -242l246 246z" />
    <glyph glyph-name="Oslash" unicode="&#xd8;" horiz-adv-x="1607" 
d="M803 238q190 0 322 136t132 328q0 150 -88 275l-632 -653q114 -86 266 -86zM348 702q0 -156 92 -284l637 657q-115 94 -291 94t-307 -135t-131 -332zM88 718q0 282 207 496q207 213 508 213q262 0 457 -165l161 165l97 -94l-164 -168q166 -203 166 -463q0 -301 -209 -512
t-508 -210q-231 0 -414 133q-8 2 -35 22l-164 -168l-96 96l164 168q-170 205 -170 487z" />
    <glyph glyph-name="Ugrave" unicode="&#xd9;" horiz-adv-x="1394" 
d="M657 1569l-282 334h262l215 -334h-195zM971 498v913h262v-913q0 -230 -157 -374t-380 -144t-379 143t-155 375v913h266v-913q0 -117 79 -194t191 -77t193 76q80 76 80 195z" />
    <glyph glyph-name="Uacute" unicode="&#xda;" horiz-adv-x="1394" 
d="M524 1569l215 334h262l-282 -334h-195zM971 498v913h262v-913q0 -230 -157 -374t-380 -144t-379 143t-155 375v913h266v-913q0 -117 79 -194t191 -77t193 76q80 76 80 195z" />
    <glyph glyph-name="Ucircumflex" unicode="&#xdb;" horiz-adv-x="1394" 
d="M346 1575l223 334h252l226 -334h-193l-160 180l-155 -180h-193zM971 498v913h262v-913q0 -230 -157 -374t-380 -144t-379 143t-155 375v913h266v-913q0 -117 79 -194t191 -77t193 76q80 76 80 195z" />
    <glyph glyph-name="Udieresis" unicode="&#xdc;" horiz-adv-x="1394" 
d="M735 1749q0 57 41 95q40 38 100 38t100 -38t40 -95t-40 -95t-100 -38t-100 38q-41 38 -41 95zM519 1882q58 0 99 -39t41 -94t-41 -94t-99 -39t-99 38t-41 95t41 95t99 38zM971 498v913h262v-913q0 -230 -157 -374t-380 -144t-379 143t-155 375v913h266v-913
q0 -117 79 -194t191 -77t193 76q80 76 80 195z" />
    <glyph glyph-name="Yacute" unicode="&#xdd;" horiz-adv-x="1318" 
d="M508 1569l215 334h262l-283 -334h-194zM793 0h-269v643l-540 768h311l362 -543l367 543h313l-544 -772v-639z" />
    <glyph glyph-name="Thorn" unicode="&#xde;" horiz-adv-x="1173" 
d="M668 266h-232v-266h-260v1411h260v-237h232q193 0 317 -125q129 -123 129 -326t-128 -330t-318 -127zM856 720q0 98 -58 160t-147 66h-215v-450h221q84 0 142 62q57 63 57 162z" />
    <glyph glyph-name="germandbls" unicode="&#xdf;" 
d="M844 455q0 92 -64 163q-61 76 -174 76h-63v213h49q61 0 99 43q38 44 38 106t-46 102t-126 40t-125 -56t-45 -198v-944h-246v1004q0 196 114 310t298 114t300 -100q116 -99 116 -254t-129 -240q108 -50 174 -154t65 -234q0 -206 -124 -336t-339 -130q-75 -1 -159 24
l37 236q70 -16 120 -17q98 0 164 70t66 162z" />
    <glyph glyph-name="agrave" unicode="&#xe0;" horiz-adv-x="1257" 
d="M598 1114l-283 334h263l215 -334h-195zM340 479q0 -113 78 -186q55 -55 135 -67q79 -12 149 13q70 26 119 90t45 150q0 119 -78 189t-184 70t-185 -74q-79 -72 -79 -185zM1116 0h-250v123q-41 -66 -127 -104t-170 -37q-199 0 -343 138t-144 359t144 359t343 139
q86 0 169 -36t128 -103v118h250v-956z" />
    <glyph glyph-name="aacute" unicode="&#xe1;" horiz-adv-x="1257" 
d="M449 1114l215 334h262l-283 -334h-194zM340 479q0 -113 78 -186q55 -55 135 -67q79 -12 149 13q70 26 119 90t45 150q0 119 -78 189t-184 70t-185 -74q-79 -72 -79 -185zM1116 0h-250v123q-41 -66 -127 -104t-170 -37q-199 0 -343 138t-144 359t144 359t343 139
q86 0 169 -36t128 -103v118h250v-956z" />
    <glyph glyph-name="acircumflex" unicode="&#xe2;" horiz-adv-x="1257" 
d="M279 1120l223 334h252l225 -334h-193l-159 180l-156 -180h-192zM340 479q0 -113 78 -186q55 -55 135 -67q79 -12 149 13q70 26 119 90t45 150q0 119 -78 189t-184 70t-185 -74q-79 -72 -79 -185zM1116 0h-250v123q-41 -66 -127 -104t-170 -37q-199 0 -343 138t-144 359
t144 359t343 139q86 0 169 -36t128 -103v118h250v-956z" />
    <glyph glyph-name="atilde" unicode="&#xe3;" horiz-adv-x="1257" 
d="M539 1243q-18 0 -35 -23q-16 -24 -19 -65h-143q6 127 61 192t136 64q49 0 105 -42t74 -42t37 23q17 23 19 61h144q-6 -123 -64 -187t-135 -65q-45 0 -105 41q-57 43 -75 43zM340 479q0 -113 78 -186q55 -55 135 -67q79 -12 149 13q70 26 119 90t45 150q0 119 -78 189
t-184 70t-185 -74q-79 -72 -79 -185zM1116 0h-250v123q-41 -66 -127 -104t-170 -37q-199 0 -343 138t-144 359t144 359t343 139q86 0 169 -36t128 -103v118h250v-956z" />
    <glyph glyph-name="adieresis" unicode="&#xe4;" horiz-adv-x="1257" 
d="M668 1294q0 58 41 96t100 38t99 -38t40 -96t-40 -95q-40 -38 -99 -38t-100 38t-41 95zM452 1427q58 -1 99 -39t41 -94t-41 -94q-41 -39 -99 -39t-100 38q-41 38 -41 95t41 96q42 37 100 37zM340 479q0 -113 78 -186q55 -55 135 -67q79 -12 149 13q70 26 119 90t45 150
q0 119 -78 189t-184 70t-185 -74q-79 -72 -79 -185zM1116 0h-250v123q-41 -66 -127 -104t-170 -37q-199 0 -343 138t-144 359t144 359t343 139q86 0 169 -36t128 -103v118h250v-956z" />
    <glyph glyph-name="aring" unicode="&#xe5;" horiz-adv-x="1257" 
d="M510 1340q0 -50 35 -84t84 -34t84 34t35 84t-35 85t-84 35t-84 -35t-35 -85zM393 1339q0 98 68 170q70 70 169 70t168 -69q68 -69 68 -169q0 -99 -70 -167t-166 -68q-97 0 -167 68t-70 165zM340 479q0 -113 78 -186q55 -55 135 -67q79 -12 149 13q70 26 119 90t45 150
q0 119 -78 189t-184 70t-185 -74q-79 -72 -79 -185zM1116 0h-250v123q-41 -66 -127 -104t-170 -37q-199 0 -343 138t-144 359t144 359t343 139q86 0 169 -36t128 -103v118h250v-956z" />
    <glyph glyph-name="ae" unicode="&#xe6;" horiz-adv-x="2033" 
d="M1962 481q0 -25 -4 -86h-729q14 -94 86 -149q72 -56 164 -56q91 0 157 33t97 90l192 -102q-61 -113 -180 -172t-266 -59q-246 0 -381 178v-158h-232v123q-41 -66 -127 -104t-170 -37q-199 0 -343 138t-144 359t144 359t343 139q86 0 169 -36t128 -103v118h232v-153
q135 174 381 174q209 1 346 -137t137 -359zM340 479q0 -113 78 -186q55 -55 135 -67q79 -12 149 13q70 26 119 90t45 150q0 119 -78 189t-184 70t-185 -74q-79 -72 -79 -185zM1476 768q-98 0 -167 -54q-68 -54 -82 -149h491q-12 95 -78 149t-164 54z" />
    <glyph glyph-name="ccedilla" unicode="&#xe7;" horiz-adv-x="1069" 
d="M737 -238q0 -72 -63 -136q-64 -62 -152 -62t-149 68t-60 178l142 -9q0 -25 10 -51q25 -57 88 -41q57 20 35 94l-68 183q-188 24 -313 160t-125 344t151 348q152 139 365 139q121 0 225 -49t172 -137l-198 -150q-69 94 -187 94q-118 -1 -199 -71t-81 -183t80 -187t198 -75
q118 0 189 96l200 -147q-123 -161 -342 -184l64 -117q18 -33 18 -105z" />
    <glyph glyph-name="egrave" unicode="&#xe8;" horiz-adv-x="1132" 
d="M512 1114l-283 334h263l215 -334h-195zM578 768q-98 0 -167 -56t-83 -147h491q-14 95 -79 149q-64 54 -162 54zM1063 481q0 -25 -4 -86h-729q12 -92 85 -148q73 -57 165 -57t158 33t96 90l190 -102q-59 -113 -179 -172t-267 -59q-207 0 -353 139q-143 141 -143 362
t143 359t353 137t347 -139q138 -138 138 -357z" />
    <glyph glyph-name="eacute" unicode="&#xe9;" horiz-adv-x="1132" 
d="M465 1114l215 334h262l-283 -334h-194zM578 768q-98 0 -167 -56t-83 -147h491q-14 95 -79 149q-64 54 -162 54zM1063 481q0 -25 -4 -86h-729q12 -92 85 -148q73 -57 165 -57t158 33t96 90l190 -102q-59 -113 -179 -172t-267 -59q-207 0 -353 139q-143 141 -143 362
t143 359t353 137t347 -139q138 -138 138 -357z" />
    <glyph glyph-name="ecircumflex" unicode="&#xea;" horiz-adv-x="1132" 
d="M221 1120l223 334h252l226 -334h-193l-160 180l-155 -180h-193zM578 768q-98 0 -167 -56t-83 -147h491q-14 95 -79 149q-64 54 -162 54zM1063 481q0 -25 -4 -86h-729q12 -92 85 -148q73 -57 165 -57t158 33t96 90l190 -102q-59 -113 -179 -172t-267 -59q-207 0 -353 139
q-143 141 -143 362t143 359t353 137t347 -139q138 -138 138 -357z" />
    <glyph glyph-name="edieresis" unicode="&#xeb;" horiz-adv-x="1132" 
d="M610 1294q0 58 41 96t101 38t99 -38q40 -38 40 -96t-40 -95q-39 -38 -99 -38t-101 38t-41 95zM254 1294q0 57 41 95t99 38t100 -38q41 -39 41 -95t-41 -94q-42 -39 -100 -39t-99 38t-41 95zM578 768q-98 0 -167 -56t-83 -147h491q-14 95 -79 149q-64 54 -162 54z
M1063 481q0 -25 -4 -86h-729q12 -92 85 -148q73 -57 165 -57t158 33t96 90l190 -102q-59 -113 -179 -172t-267 -59q-207 0 -353 139q-143 141 -143 362t143 359t353 137t347 -139q138 -138 138 -357z" />
    <glyph glyph-name="igrave" unicode="&#xec;" horiz-adv-x="530" 
d="M141 0v956h248v-956h-248zM188 1114l-282 334h262l215 -334h-195z" />
    <glyph glyph-name="iacute" unicode="&#xed;" horiz-adv-x="530" 
d="M139 1114l215 334h262l-282 -334h-195zM389 956v-956h-248v956h248z" />
    <glyph glyph-name="icircumflex" unicode="&#xee;" horiz-adv-x="530" 
d="M141 0v956h248v-956h-248zM-84 1120l223 334h252l225 -334h-192l-160 180l-155 -180h-193z" />
    <glyph glyph-name="idieresis" unicode="&#xef;" horiz-adv-x="530" 
d="M303 1294q0 58 41 96t100 38q60 0 100 -38t40 -96t-40 -95q-40 -38 -100 -38t-100 38q-41 38 -41 95zM-53 1294q0 57 41 95t99 38q58 -1 99 -39t41 -94t-41 -94q-41 -39 -99 -39t-99 38t-41 95zM389 956v-956h-248v956h248z" />
    <glyph glyph-name="eth" unicode="&#xf0;" 
d="M580 223q110 -1 182 71t72 184t-73 182t-181 69q-108 0 -181 -70q-71 -69 -71 -181t72 -184t180 -71zM1077 479q0 -221 -145 -360t-353 -139q-209 0 -353 138t-144 351t126 345t308 147q41 4 90 -7l-129 156l-174 -88l-61 98l164 84l-154 207h252l86 -115l162 80l71 -88
l-161 -84l321 -428q94 -127 94 -297z" />
    <glyph glyph-name="ntilde" unicode="&#xf1;" 
d="M489 1243q-18 1 -34 -23t-19 -65h-143q6 127 61 192t135 64q49 0 105 -42t76 -42q18 0 36 23q17 23 19 61h143q-6 -123 -63 -187t-135 -65q-45 0 -104 42t-77 42zM391 510v-510h-250v956h250v-141q37 74 117 118t168 44q172 1 264 -105t92 -307v-565h-250v520
q0 102 -48 158t-139 55q-91 0 -147 -55t-57 -168z" />
    <glyph glyph-name="ograve" unicode="&#xf2;" horiz-adv-x="1159" 
d="M518 1114l-282 334h262l215 -334h-195zM579 -18q-209 0 -353 138t-144 360t143 360t353 137q210 0 355 -138q144 -139 144 -359t-145 -359t-353 -139zM580 225q109 -1 179 71t70 183q1 111 -71 181t-178 71q-106 0 -178 -71q-72 -72 -72 -182t70 -182t180 -71z" />
    <glyph glyph-name="oacute" unicode="&#xf3;" horiz-adv-x="1159" 
d="M449 1114l215 334h262l-283 -334h-194zM578 -18q-208 0 -352 138t-144 360t143 360t353 137q210 0 355 -138q144 -139 144 -359t-145 -359q-146 -139 -354 -139zM580 731q-106 -1 -178 -71t-72 -181t70 -183t180 -71q110 0 180 72q70 73 70 183t-72 180t-178 71z" />
    <glyph glyph-name="ocircumflex" unicode="&#xf4;" horiz-adv-x="1159" 
d="M229 1120l224 334h252l225 -334h-193l-159 180l-156 -180h-193zM579 -18q-209 0 -353 138t-144 360t143 360t353 137q210 0 355 -138q144 -139 144 -359t-145 -359t-353 -139zM580 225q109 -1 179 71t70 183q1 111 -71 181t-178 71q-106 0 -178 -71q-72 -72 -72 -182
t70 -182t180 -71z" />
    <glyph glyph-name="otilde" unicode="&#xf5;" horiz-adv-x="1159" 
d="M487 1243q-18 1 -34 -23t-19 -65h-143q6 127 61 192t135 64q49 0 105 -42t76 -42q18 0 35 23t20 61h143q-6 -123 -63 -187t-135 -65q-45 0 -104 42t-77 42zM579 -18q-209 0 -353 138t-144 360t143 360t353 137q210 0 355 -138q144 -139 144 -359t-145 -359t-353 -139z
M580 225q109 -1 179 71t70 183q1 111 -71 181t-178 71q-106 0 -178 -71q-72 -72 -72 -182t70 -182t180 -71z" />
    <glyph glyph-name="odieresis" unicode="&#xf6;" horiz-adv-x="1159" 
d="M616 1294q0 58 41 96t101 38t99 -38q40 -38 40 -96t-40 -95q-39 -38 -99 -38t-101 38t-41 95zM260 1294q0 57 41 95t99 38t100 -38q41 -39 41 -95t-41 -94q-42 -39 -100 -39t-99 38t-41 95zM578 -18q-208 0 -352 138t-144 360t143 360t353 137q210 0 355 -138
q144 -139 144 -359t-145 -359q-146 -139 -354 -139zM580 731q-106 -1 -178 -71t-72 -181t70 -183t180 -71q110 0 180 72q70 73 70 183t-72 180t-178 71z" />
    <glyph glyph-name="divide" unicode="&#xf7;" 
d="M115 414v186h932v-186h-932zM430 885q0 61 44 102t108 41t107 -41q44 -41 44 -102t-44 -103t-107 -43q-63 0 -108 42q-44 43 -44 104zM430 135q0 61 45 103t107 43q62 0 106 -42q45 -41 45 -103t-45 -104q-44 -42 -106 -42t-107 42t-45 103z" />
    <glyph glyph-name="oslash" unicode="&#xf8;" horiz-adv-x="1159" 
d="M580 223q110 0 180 71t69 185q0 68 -26 119l-338 -348q52 -27 115 -27zM580 731q-106 0 -178 -72t-72 -166t35 -151l344 354q-59 35 -129 35zM580 -20q-166 0 -291 88l-119 -121l-96 96l114 119q-106 126 -106 332t144 344t336 139q192 0 325 -100l104 108l96 -94
l-106 -109q96 -131 96 -303q0 -221 -145 -360t-352 -139z" />
    <glyph glyph-name="ugrave" unicode="&#xf9;" 
d="M770 446v510h250v-956h-250v135q-37 -71 -112 -113t-152 -42q-176 0 -277 107q-100 108 -100 304v565h252v-520q0 -104 51 -158t137 -54q85 0 143 55q58 56 58 167zM557 1114l-281 334h261l217 -334h-197z" />
    <glyph glyph-name="uacute" unicode="&#xfa;" 
d="M770 446v510h250v-956h-250v135q-37 -71 -112 -113t-152 -42q-176 0 -277 107q-100 108 -100 304v565h252v-520q0 -104 51 -158t137 -54q85 0 143 55q58 56 58 167zM422 1114l217 334h262l-283 -334h-196z" />
    <glyph glyph-name="ucircumflex" unicode="&#xfb;" 
d="M219 1120l223 334h252l226 -334h-193l-160 180l-155 -180h-193zM770 446v510h250v-956h-250v135q-37 -71 -112 -113t-152 -42q-176 0 -277 107q-100 108 -100 304v565h252v-520q0 -104 51 -158t137 -54q85 0 143 55q58 56 58 167z" />
    <glyph glyph-name="udieresis" unicode="&#xfc;" 
d="M770 446v510h250v-956h-250v135q-37 -71 -112 -113t-152 -42q-176 0 -277 107q-100 108 -100 304v565h252v-520q0 -104 51 -158t137 -54q85 0 143 55q58 56 58 167zM753 1434q58 0 99 -39t41 -95t-41 -94q-41 -39 -99 -39t-100 38q-41 38 -41 95t41 96q42 38 100 38z
M256 1300q0 58 41 96t99 38t98 -38t41 -96q0 -58 -40 -95q-41 -38 -99 -38t-99 38t-41 95z" />
    <glyph glyph-name="yacute" unicode="&#xfd;" horiz-adv-x="1046" 
d="M344 1114l215 334h262l-282 -334h-195zM436 -467h-264l219 541l-373 882h267l237 -596l240 596h266z" />
    <glyph glyph-name="thorn" unicode="&#xfe;" horiz-adv-x="1234" 
d="M389 -465h-248v1942h248v-637q41 63 121 100t172 37q195 0 333 -138q138 -137 138 -361t-137 -361t-334 -137q-92 0 -172 36t-121 103v-584zM393 481q0 -117 73 -189t180 -73q107 0 179 74q72 75 72 187t-72 185t-176 73t-180 -70t-76 -187z" />
    <glyph glyph-name="ydieresis" unicode="&#xff;" horiz-adv-x="1046" 
d="M567 1294q0 58 41 96q40 38 100 38t100 -38t40 -96t-40 -95q-40 -38 -100 -38t-100 38q-41 38 -41 95zM211 1294q0 57 41 95t99 38t100 -38q41 -39 41 -95t-41 -94q-41 -39 -99 -39t-100 38q-41 38 -41 95zM436 -467h-264l219 541l-373 882h267l237 -596l240 596h266z
" />
    <glyph glyph-name="Amacron" unicode="&#x100;" horiz-adv-x="1339" 
d="M944 1653h-551v170h551v-170zM848 571l-178 539l-174 -539h352zM1339 0h-276l-129 342h-526l-129 -342h-279l528 1411h283z" />
    <glyph glyph-name="amacron" unicode="&#x101;" horiz-adv-x="1257" 
d="M905 1198h-551v170h551v-170zM340 479q0 -113 78 -186q55 -55 135 -67q79 -12 149 13q70 26 119 90t45 150q0 119 -78 189t-184 70t-185 -74q-79 -72 -79 -185zM1116 0h-250v123q-41 -66 -127 -104t-170 -37q-199 0 -343 138t-144 359t144 359t343 139q86 0 169 -36
t128 -103v118h250v-956z" />
    <glyph glyph-name="Abreve" unicode="&#x102;" horiz-adv-x="1339" 
d="M395 1862h168q0 -113 105 -113q48 0 76 32t28 81h170q0 -121 -76 -194t-202 -73t-197 76q-72 76 -72 191zM496 571h352l-178 539zM934 342h-526l-129 -342h-279l528 1411h283l528 -1411h-276z" />
    <glyph glyph-name="abreve" unicode="&#x103;" horiz-adv-x="1257" 
d="M356 1407h168q0 -113 105 -113q49 0 77 32t27 81h170q0 -121 -76 -194q-75 -73 -201 -73t-198 76t-72 191zM340 479q0 -113 78 -186q55 -55 135 -67q79 -12 149 13q70 26 119 90t45 150q0 119 -78 189t-184 70t-185 -74q-79 -72 -79 -185zM1116 0h-250v123
q-41 -66 -127 -104t-170 -37q-199 0 -343 138t-144 359t144 359t343 139q86 0 169 -36t128 -103v118h250v-956z" />
    <glyph glyph-name="Aogonek" unicode="&#x104;" horiz-adv-x="1339" 
d="M848 571l-178 539l-174 -539h352zM971 -240q0 72 18 107l72 133l-127 342h-526l-129 -342h-279l528 1411h283l528 -1411h-147l-72 -197q-23 -74 35 -94q63 -16 88 41l10 51l142 9q3 -109 -59 -178q-62 -68 -150 -68t-152 62t-63 134z" />
    <glyph glyph-name="aogonek" unicode="&#x105;" horiz-adv-x="1257" 
d="M340 479q0 -113 78 -186q55 -55 135 -67q79 -12 149 13q70 26 119 90t45 150q0 119 -78 189t-184 70t-185 -74q-79 -72 -79 -185zM82 479q0 221 144 359t343 139q86 0 169 -36t128 -103v118h250v-956h-119l-71 -197q-23 -74 35 -94q63 -16 88 41l10 51l141 9
q2 -109 -59 -178q-61 -68 -151 -68t-151 61q-62 61 -62 134t18 108l71 133v123q-41 -66 -127 -104t-170 -37q-199 0 -343 138t-144 359z" />
    <glyph glyph-name="Cacute" unicode="&#x106;" horiz-adv-x="1419" 
d="M682 1569l215 334h262l-282 -334h-195zM90 703q0 301 205 513t506 211q173 1 323 -73t244 -205l-209 -150q-137 181 -343 181t-334 -140q-130 -140 -130 -338t129 -336t320 -139q109 -1 206 51t160 140l207 -152q-94 -135 -245 -211t-328 -75q-301 0 -506 210t-205 513z
" />
    <glyph glyph-name="cacute" unicode="&#x107;" horiz-adv-x="1064" 
d="M489 1114l216 334h262l-283 -334h-195zM596 977q121 0 225 -49t172 -137l-198 -150q-69 94 -187 94q-118 -1 -199 -71t-81 -183t80 -187t198 -75q118 0 189 96l200 -147q-141 -188 -399 -188q-215 0 -366 141q-150 141 -150 359t151 358q152 139 365 139z" />
    <glyph glyph-name="Ccircumflex" unicode="&#x108;" horiz-adv-x="1419" 
d="M449 1575l223 334h252l225 -334h-193l-159 180l-156 -180h-192zM90 703q0 301 205 513t506 211q173 1 323 -73t244 -205l-209 -150q-137 181 -343 181t-334 -140q-130 -140 -130 -338t129 -336t320 -139q109 -1 206 51t160 140l207 -152q-94 -135 -245 -211t-328 -75
q-301 0 -506 210t-205 513z" />
    <glyph glyph-name="ccircumflex" unicode="&#x109;" horiz-adv-x="1064" 
d="M233 1120l224 334h252l225 -334h-193l-159 180l-156 -180h-193zM596 977q121 0 225 -49t172 -137l-198 -150q-69 94 -187 94q-118 -1 -199 -71t-81 -183t80 -187t198 -75q118 0 189 96l200 -147q-141 -188 -399 -188q-215 0 -366 141q-150 141 -150 359t151 358
q152 139 365 139z" />
    <glyph glyph-name="Cdotaccent" unicode="&#x10a;" horiz-adv-x="1419" 
d="M643 1740q0 60 43 101q44 41 106 41t105 -41t43 -101t-43 -102t-105 -41q-62 0 -106 41q-43 42 -43 102zM90 703q0 301 205 513t506 211q173 1 323 -73t244 -205l-209 -150q-137 181 -343 181t-334 -140q-130 -140 -130 -338t129 -336t320 -139q109 -1 206 51t160 140
l207 -152q-94 -135 -245 -211t-328 -75q-301 0 -506 210t-205 513z" />
    <glyph glyph-name="cdotaccent" unicode="&#x10b;" horiz-adv-x="1064" 
d="M449 1285q0 60 43 101t105 41t105 -41t43 -101t-43 -101t-105 -41t-105 41t-43 101zM596 977q121 0 225 -49t172 -137l-198 -150q-69 94 -187 94q-118 -1 -199 -71t-81 -183t80 -187t198 -75q118 0 189 96l200 -147q-141 -188 -399 -188q-215 0 -366 141
q-150 141 -150 359t151 358q152 139 365 139z" />
    <glyph glyph-name="Ccaron" unicode="&#x10c;" horiz-adv-x="1419" 
d="M911 1569h-252l-223 334h193l155 -183l160 183h193zM90 703q0 301 205 513t506 211q173 1 323 -73t244 -205l-209 -150q-137 181 -343 181t-334 -140q-130 -140 -130 -338t129 -336t320 -139q109 -1 206 51t160 140l207 -152q-94 -135 -245 -211t-328 -75
q-301 0 -506 210t-205 513z" />
    <glyph glyph-name="ccaron" unicode="&#x10d;" horiz-adv-x="1064" 
d="M700 1114h-251l-224 334h193l155 -182l160 182h193zM596 977q121 0 225 -49t172 -137l-198 -150q-69 94 -187 94q-118 -1 -199 -71t-81 -183t80 -187t198 -75q118 0 189 96l200 -147q-141 -188 -399 -188q-215 0 -366 141q-150 141 -150 359t151 358q152 139 365 139z
" />
    <glyph glyph-name="Dcaron" unicode="&#x10e;" horiz-adv-x="1462" 
d="M852 1569h-252l-223 334h192l156 -183l160 183h192zM727 0h-551v1411h551q295 0 466 -200t171 -508q0 -307 -170 -505t-467 -198zM438 240h289q183 0 279 132t96 332t-97 334q-97 133 -278 133h-289v-931z" />
    <glyph glyph-name="dcaron" unicode="&#x10f;" horiz-adv-x="1333" 
d="M1323 926l-154 51q141 199 134 434h219q-8 -163 -64 -291t-135 -194zM592 219q104 0 180 73q76 72 76 188t-78 188t-182 71t-176 -73t-72 -186t72 -189q76 -72 180 -72zM1100 0h-248v129q-39 -68 -121 -109t-180 -40q-195 0 -332 137t-137 360t138 361t331 139
q100 0 181 -40t120 -108v648h248v-1477z" />
    <glyph glyph-name="Dcroat" unicode="&#x110;" horiz-adv-x="1478" 
d="M741 600h-282v-356h286q179 0 277 129t98 329t-97 332q-97 133 -278 133h-286v-387h282v-180zM199 600h-193v180h193v631h546q297 0 466 -200t169 -508q0 -307 -170 -505t-465 -198h-546v600z" />
    <glyph glyph-name="dslash" unicode="&#x111;" horiz-adv-x="1241" 
d="M592 219q104 0 180 73q76 72 76 188t-78 188t-182 71t-176 -73t-72 -186t72 -189q76 -72 180 -72zM852 1143h-305v157h305v177h248v-177h155v-157h-155v-1143h-248v129q-39 -68 -121 -109t-180 -40q-195 0 -332 137t-137 360t138 361t331 139q100 0 181 -40t120 -108v314
z" />
    <glyph glyph-name="Emacron" unicode="&#x112;" horiz-adv-x="1171" 
d="M889 1653h-551v170h551v-170zM1069 0h-893v1411h873v-233h-613v-367h537v-231h-537v-347h633v-233z" />
    <glyph glyph-name="emacron" unicode="&#x113;" horiz-adv-x="1132" 
d="M848 1198h-551v170h551v-170zM578 768q-98 0 -167 -56t-83 -147h491q-14 95 -79 149q-64 54 -162 54zM1063 481q0 -25 -4 -86h-729q12 -92 85 -148q73 -57 165 -57t158 33t96 90l190 -102q-59 -113 -179 -172t-267 -59q-207 0 -353 139q-143 141 -143 362t143 359
t353 137t347 -139q138 -138 138 -357z" />
    <glyph glyph-name="Ebreve" unicode="&#x114;" horiz-adv-x="1171" 
d="M307 1862h168q0 -113 105 -113q48 0 76 32t28 81h170q0 -121 -76 -194t-202 -73t-197 76q-72 76 -72 191zM176 1411h873v-233h-613v-367h537v-231h-537v-347h633v-233h-893v1411z" />
    <glyph glyph-name="ebreve" unicode="&#x115;" horiz-adv-x="1132" 
d="M299 1407h168q0 -113 104 -113q49 0 77 32t28 81h170q0 -121 -76 -194t-202 -73t-198 76t-71 191zM578 768q-98 0 -167 -56t-83 -147h491q-14 95 -79 149q-64 54 -162 54zM1063 481q0 -25 -4 -86h-729q12 -92 85 -148q73 -57 165 -57t158 33t96 90l190 -102
q-59 -113 -179 -172t-267 -59q-207 0 -353 139q-143 141 -143 362t143 359t353 137t347 -139q138 -138 138 -357z" />
    <glyph glyph-name="Edotaccent" unicode="&#x116;" horiz-adv-x="1171" 
d="M617 1882q61 0 105 -41t44 -101t-43 -102t-105 -41q-62 -1 -106 41q-43 42 -43 102t43 101t105 41zM176 1411h873v-233h-613v-367h537v-231h-537v-347h633v-233h-893v1411z" />
    <glyph glyph-name="edotaccent" unicode="&#x117;" horiz-adv-x="1132" 
d="M424 1285q0 60 43 101t105 41t106 -41t43 -101q0 -60 -43 -101q-44 -41 -106 -41t-105 41t-43 101zM578 768q-98 0 -167 -56t-83 -147h491q-14 95 -79 149q-64 54 -162 54zM1063 481q0 -25 -4 -86h-729q12 -92 85 -148q73 -57 165 -57t158 33t96 90l190 -102
q-59 -113 -179 -172t-267 -59q-207 0 -353 139q-143 141 -143 362t143 359t353 137t347 -139q138 -138 138 -357z" />
    <glyph glyph-name="Eogonek" unicode="&#x118;" horiz-adv-x="1171" 
d="M1069 233v-233l-76 -197q-23 -74 35 -94q63 -16 88 41l10 51l142 9q2 -109 -60 -178q-62 -68 -149 -68t-151 62t-64 134t18 107l72 133h-758v1411h873v-233h-613v-367h537v-231h-537v-347h633z" />
    <glyph glyph-name="eogonek" unicode="&#x119;" horiz-adv-x="1134" 
d="M578 768q-98 0 -167 -56t-83 -147h491q-14 95 -79 149q-64 54 -162 54zM637 -241q0 73 18 108l70 131q-70 -18 -147 -18q-207 0 -353 139q-143 141 -143 362t143 359t353 137q210 0 347 -138q138 -138 138 -358q0 -25 -4 -86h-729q12 -92 85 -148q73 -57 165 -57t158 33
t96 90l190 -102q-23 -35 -115 -143q-66 -85 -123 -265q-23 -74 35 -94q63 -16 88 41l11 51l141 9q3 -109 -59 -178q-62 -68 -151 -68t-152 61q-62 61 -62 134z" />
    <glyph glyph-name="Ecaron" unicode="&#x11a;" horiz-adv-x="1171" 
d="M733 1569h-252l-223 334h193l155 -183l160 183h192zM176 1411h873v-233h-613v-367h537v-231h-537v-347h633v-233h-893v1411z" />
    <glyph glyph-name="ecaron" unicode="&#x11b;" horiz-adv-x="1132" 
d="M698 1114h-252l-223 334h193l155 -182l160 182h193zM578 768q-98 0 -167 -56t-83 -147h491q-14 95 -79 149q-64 54 -162 54zM1063 481q0 -25 -4 -86h-729q12 -92 85 -148q73 -57 165 -57t158 33t96 90l190 -102q-59 -113 -179 -172t-267 -59q-207 0 -353 139
q-143 141 -143 362t143 359t353 137t347 -139q138 -138 138 -357z" />
    <glyph glyph-name="Gcircumflex" unicode="&#x11c;" horiz-adv-x="1548" 
d="M430 1575l223 334h252l225 -334h-192l-160 180l-155 -180h-193zM352 702q0 -201 131 -341t326 -140q151 0 265 83t116 210h-387v215h688q0 -369 -180 -559q-179 -190 -491 -190t-521 210t-209 511q0 300 209 513t516 213t506 -215l-193 -168q-130 138 -322 138t-323 -142
q-131 -137 -131 -338z" />
    <glyph glyph-name="gcircumflex" unicode="&#x11d;" horiz-adv-x="1251" 
d="M276 1120l224 334h252l225 -334h-193l-159 180l-156 -180h-193zM575 -250q162 0 233 102t58 279q-35 -67 -120 -109t-185 -42q-195 0 -338 137q-141 137 -141 360t143 361t336 139q98 0 183 -41t122 -109v129h244v-819q0 -307 -137 -461t-398 -153q-149 -1 -271 75
t-185 207l203 103q30 -70 102 -114t151 -44zM860 479q0 117 -75 188t-183 71t-184 -74t-76 -187t74 -187t180 -73t185 73t79 189z" />
    <glyph glyph-name="Gbreve" unicode="&#x11e;" horiz-adv-x="1548" 
d="M506 1862h168q0 -113 104 -113q49 0 77 32t28 81h170q0 -121 -76 -194t-202 -73q-125 0 -197 76t-72 191zM352 702q0 -201 131 -341t326 -140q151 0 265 83t116 210h-387v215h688q0 -369 -180 -559q-179 -190 -491 -190t-521 210t-209 511q0 300 209 513t516 213
t506 -215l-193 -168q-130 138 -322 138t-323 -142q-131 -137 -131 -338z" />
    <glyph glyph-name="gbreve" unicode="&#x11f;" horiz-adv-x="1251" 
d="M352 1407h168q0 -113 105 -113q49 0 77 32t27 81h170q0 -121 -76 -194q-75 -73 -201 -73t-198 76t-72 191zM575 -250q162 0 233 102t58 279q-35 -67 -120 -109t-185 -42q-195 0 -338 137q-141 137 -141 360t143 361t336 139q98 0 183 -41t122 -109v129h244v-819
q0 -307 -137 -461t-398 -153q-149 0 -271 76t-185 206l203 103q30 -70 102 -114t151 -44zM860 479q0 117 -75 188t-183 71t-184 -74t-76 -187t74 -187t180 -73t185 73t79 189z" />
    <glyph glyph-name="Gdotaccent" unicode="&#x120;" horiz-adv-x="1548" 
d="M779 1882q61 0 105 -41t44 -101t-43 -102t-105 -41q-62 -1 -106 41q-43 42 -43 102t43 101t105 41zM352 702q0 -201 131 -341t326 -140q151 0 265 83t116 210h-387v215h688q0 -369 -180 -559q-179 -190 -491 -190t-521 210t-209 511q0 300 209 513t516 213t506 -215
l-193 -168q-130 138 -322 138t-323 -142q-131 -137 -131 -338z" />
    <glyph glyph-name="gdotaccent" unicode="&#x121;" horiz-adv-x="1251" 
d="M477 1285q0 60 43 101q44 41 106 41t105 -41t43 -101t-43 -101t-105 -41t-106 41q-43 41 -43 101zM575 -250q162 0 233 102t58 279q-35 -67 -120 -109t-185 -42q-195 0 -338 137q-141 137 -141 360t143 361t336 139q98 0 183 -41t122 -109v129h244v-819q0 -307 -137 -461
t-398 -153q-149 0 -271 76t-185 206l203 103q30 -70 102 -114t151 -44zM860 479q0 117 -75 188t-183 71t-184 -74t-76 -187t74 -187t180 -73t185 73t79 189z" />
    <glyph glyph-name="Gcommaaccent" unicode="&#x122;" horiz-adv-x="1548" 
d="M745 -561l-131 59q68 96 92 175t19 212h219q-17 -299 -199 -446zM352 702q0 -201 131 -341t326 -140q151 0 265 83t116 210h-387v215h688q0 -369 -180 -559q-179 -190 -491 -190t-521 210t-209 511q0 300 209 513t516 213t506 -215l-193 -168q-130 138 -322 138
t-323 -142q-131 -137 -131 -338z" />
    <glyph glyph-name="gcommaaccent" unicode="&#x123;" horiz-adv-x="1251" 
d="M575 -250q162 0 233 102t58 279q-35 -67 -120 -109t-185 -42q-195 0 -338 137q-141 137 -141 360t143 361t336 139q98 0 183 -41t122 -109v129h244v-819q0 -307 -137 -461t-398 -153q-149 0 -271 76t-185 206l203 103q30 -70 102 -114t151 -44zM860 479q0 117 -75 188
t-183 71t-184 -74t-76 -187t74 -187t180 -73t185 73t79 189zM651 1581l131 -59q-68 -96 -92 -176t-16 -209h-221q14 294 198 444z" />
    <glyph glyph-name="Hcircumflex" unicode="&#x124;" horiz-adv-x="1441" 
d="M371 1575l223 334h252l225 -334h-192l-160 180l-156 -180h-192zM1001 819v592h265v-1411h-265v584h-565v-584h-260v1411h260v-592h565z" />
    <glyph glyph-name="hcircumflex" unicode="&#x125;" horiz-adv-x="1202" 
d="M-80 1565l223 333h252l226 -333h-193l-160 180l-155 -180h-193zM391 510v-510h-250v1477h250v-668q31 80 121 124t176 44q184 0 284 -117t101 -328v-532h-250v520q0 96 -59 154t-150 59q-91 0 -157 -57t-66 -166z" />
    <glyph glyph-name="Hbar" unicode="&#x126;" horiz-adv-x="1466" 
d="M451 1040v-221h563v221h-563zM188 0v1040h-145v154h145v217h263v-217h563v217h264v-217h145v-154h-145v-1040h-264v582h-563v-582h-263z" />
    <glyph glyph-name="hbar" unicode="&#x127;" horiz-adv-x="1189" 
d="M391 510v-510h-250v1143h-151v157h151v177h250v-177h291v-157h-291v-334q31 80 115 124t170 44q184 0 284 -117t101 -328v-532h-252v520q0 96 -55 154q-54 58 -144 59q-90 0 -154 -57t-65 -166z" />
    <glyph glyph-name="Itilde" unicode="&#x128;" horiz-adv-x="612" 
d="M436 0h-260v1411h260v-1411zM215 1698q-19 0 -35 -24t-18 -64h-144q6 128 62 192t135 64q49 0 105 -42t74 -42t37 22q17 23 20 62h143q-6 -123 -64 -188t-135 -64q-45 0 -103 42t-77 42z" />
    <glyph glyph-name="itilde" unicode="&#x129;" horiz-adv-x="530" 
d="M141 0v956h248v-956h-248zM354 1159q-44 0 -104 42t-77 42t-34 -23q-16 -24 -18 -65h-144q5 127 61 192t136 64q50 0 106 -42t74 -42t36 23q17 23 20 61h143q-5 -123 -63 -187t-136 -65z" />
    <glyph glyph-name="Imacron" unicode="&#x12a;" horiz-adv-x="612" 
d="M436 0h-260v1411h260v-1411zM582 1653h-551v170h551v-170z" />
    <glyph glyph-name="imacron" unicode="&#x12b;" horiz-adv-x="530" 
d="M141 0v956h248v-956h-248zM543 1198h-551v170h551v-170z" />
    <glyph glyph-name="Ibreve" unicode="&#x12c;" horiz-adv-x="612" 
d="M33 1862h168q0 -113 104 -113q49 0 77 32t28 81h170q0 -121 -76 -194t-202 -73t-198 76q-71 76 -71 191zM176 1411h260v-1411h-260v1411z" />
    <glyph glyph-name="ibreve" unicode="&#x12d;" horiz-adv-x="530" 
d="M-8 1407h168q0 -113 104 -113q49 0 77 32t28 81h170q0 -121 -76 -194t-202 -73q-125 0 -197 76t-72 191zM389 956v-956h-248v956h248z" />
    <glyph glyph-name="Iogonek" unicode="&#x12e;" horiz-adv-x="612" 
d="M436 0h-129l-71 -197q-23 -74 34 -94q63 -16 88 41l11 51l141 9q2 -109 -59 -178q-61 -68 -149 -68t-152 62t-64 134t18 107l72 133v1411h260v-1411z" />
    <glyph glyph-name="iogonek" unicode="&#x12f;" horiz-adv-x="530" 
d="M265 1176q-67 0 -113 44t-48 107q0 63 48 107t114 43q66 0 112 -43q46 -42 46 -106t-46 -108t-113 -44zM141 956h248v-956h-115l-71 -197q-23 -74 35 -94q63 -16 88 41l10 51l141 9q2 -109 -59 -178q-62 -68 -150 -68t-151 62t-63 134t18 107l69 133v956z" />
    <glyph glyph-name="Idot" unicode="&#x130;" horiz-adv-x="612" 
d="M306 1882q62 0 106 -41t43 -101q0 -60 -43 -102q-44 -42 -106 -41q-62 -1 -105 41t-43 102t43 101t105 41zM176 1411h260v-1411h-260v1411z" />
    <glyph glyph-name="dotlessi" unicode="&#x131;" horiz-adv-x="530" 
d="M141 0v956h248v-956h-248z" />
    <glyph glyph-name="IJ" unicode="&#x132;" horiz-adv-x="1226" 
d="M436 0h-260v1411h260v-1411zM592 -229q100 0 148 60t48 163v1417h263v-1417q0 -217 -114 -344t-339 -127q-65 0 -188 31l24 237q58 -20 158 -20z" />
    <glyph glyph-name="ij" unicode="&#x133;" horiz-adv-x="1064" 
d="M265 1176q-67 0 -113 44t-48 107q0 63 48 107t114 43q66 0 112 -43q46 -42 46 -106t-46 -108t-113 -44zM141 956h248v-956h-248v956zM637 1326q0 62 47 106t114 45q66 0 112 -43q46 -42 46 -106t-46 -108t-112 -44t-114 44q-47 44 -47 106zM567 -477h-157v229h120
q143 0 142 180v1024h252v-1019q-1 -414 -357 -414z" />
    <glyph glyph-name="Jcircumflex" unicode="&#x134;" horiz-adv-x="614" 
d="M-47 1575l223 334h252l225 -334h-192l-160 180l-156 -180h-192zM-20 -229q100 0 148 60t48 163v1417h262v-1417q0 -217 -114 -344t-338 -127q-66 0 -189 31l25 237q58 -20 158 -20z" />
    <glyph glyph-name="jcircumflex" unicode="&#x135;" horiz-adv-x="534" 
d="M-68 1120l224 334h252l225 -334h-193l-159 180l-156 -180h-193zM37 -477h-158v229h121q143 0 141 180v1024h252v-1019q0 -414 -356 -414z" />
    <glyph glyph-name="Kcommaaccent" unicode="&#x136;" horiz-adv-x="1224" 
d="M588 -561l-131 59q67 96 91 175t19 212h219q-16 -299 -198 -446zM440 0h-264v1411h264v-514l379 514h307l-536 -700l663 -711h-342l-471 522v-522z" />
    <glyph glyph-name="kcommaaccent" unicode="&#x137;" horiz-adv-x="1062" 
d="M506 -561l-131 59q67 96 91 175t19 212h220q-17 -299 -199 -446zM389 0h-248v1477h248v-807l264 286h324l-402 -419l488 -537h-313l-361 410v-410z" />
    <glyph glyph-name="kgreenlandic" unicode="&#x138;" horiz-adv-x="1019" 
d="M389 0h-248v956h248v-315l266 315h301l-415 -471l471 -485h-316l-307 326v-326z" />
    <glyph glyph-name="Lacute" unicode="&#x139;" horiz-adv-x="1036" 
d="M186 1569l215 334h263l-283 -334h-195zM176 1411h262v-1178h545v-233h-807v1411z" />
    <glyph glyph-name="lacute" unicode="&#x13a;" horiz-adv-x="532" 
d="M152 1569l215 334h262l-283 -334h-194zM141 1477h250v-1477h-250v1477z" />
    <glyph glyph-name="Lcommaaccent" unicode="&#x13b;" horiz-adv-x="1036" 
d="M483 -561l-131 59q68 96 92 175t19 212h219q-17 -299 -199 -446zM983 0h-807v1411h262v-1178h545v-233z" />
    <glyph glyph-name="lcommaaccent" unicode="&#x13c;" horiz-adv-x="532" 
d="M391 0h-250v1477h250v-1477zM176 -561l-131 59q67 96 91 175t20 212h219q-17 -299 -199 -446z" />
    <glyph glyph-name="Lcaron" unicode="&#x13d;" horiz-adv-x="1040" 
d="M729 926l-154 51q141 199 134 434h219q-8 -163 -64 -291t-135 -194zM983 0h-807v1411h262v-1178h545v-233z" />
    <glyph glyph-name="lcaron" unicode="&#x13e;" horiz-adv-x="532" 
d="M141 1477h250v-1477h-250v1477zM614 991l-153 51q141 199 133 435h219q-7 -164 -63 -292t-136 -194z" />
    <glyph glyph-name="Ldot" unicode="&#x13f;" horiz-adv-x="1036" 
d="M983 0h-807v1411h262v-1178h545v-233zM543 641q1 66 47 111t113 45t115 -44t48 -112t-48 -112t-115 -44t-113 45t-47 111z" />
    <glyph glyph-name="ldot" unicode="&#x140;" horiz-adv-x="806" 
d="M391 0h-250v1477h250v-1477zM669 797q67 0 115 -44t47 -112q0 -68 -48 -112q-49 -44 -115 -44t-113 45t-47 111t47 111t114 45z" />
    <glyph glyph-name="Lslash" unicode="&#x141;" horiz-adv-x="1048" 
d="M188 0v623l-141 -91v175l141 90v614h263v-450l198 122v-174l-198 -123v-548h544v-238h-807z" />
    <glyph glyph-name="lslash" unicode="&#x142;" horiz-adv-x="598" 
d="M190 1477h250v-541l170 106v-172l-170 -106v-764h-250v606l-163 -102v172l163 102v699z" />
    <glyph glyph-name="Nacute" unicode="&#x143;" horiz-adv-x="1396" 
d="M559 1569l215 334h262l-282 -334h-195zM1221 0h-240l-545 928v-928h-260v1411h244l538 -917v917h263v-1411z" />
    <glyph glyph-name="nacute" unicode="&#x144;" 
d="M438 1114l215 334h262l-282 -334h-195zM391 510v-510h-250v956h250v-141q37 74 117 118t168 44q172 1 264 -105t92 -307v-565h-250v520q0 102 -48 158t-139 55q-91 0 -147 -55t-57 -168z" />
    <glyph glyph-name="Ncommaaccent" unicode="&#x145;" horiz-adv-x="1396" 
d="M623 -561l-131 59q68 96 92 175t18 212h219q-16 -299 -198 -446zM958 1411h263v-1411h-240l-545 928v-928h-260v1411h244l538 -917v917z" />
    <glyph glyph-name="ncommaaccent" unicode="&#x146;" 
d="M508 -561l-131 59q67 96 91 175t19 212h220q-17 -299 -199 -446zM391 510v-510h-250v956h250v-141q37 74 117 118t168 44q172 1 264 -105t92 -307v-565h-250v520q0 102 -48 158t-139 55q-91 0 -147 -55t-57 -168z" />
    <glyph glyph-name="Ncaron" unicode="&#x147;" horiz-adv-x="1396" 
d="M823 1569h-252l-223 334h193l155 -183l160 183h193zM1221 0h-240l-545 928v-928h-260v1411h244l538 -917v917h263v-1411z" />
    <glyph glyph-name="ncaron" unicode="&#x148;" 
d="M707 1114h-252l-224 334h193l156 -182l159 182h193zM391 510v-510h-250v956h250v-141q37 74 117 118t168 44q172 1 264 -105t92 -307v-565h-250v520q0 102 -48 158t-139 55q-91 0 -147 -55t-57 -168z" />
    <glyph glyph-name="napostrophe" unicode="&#x149;" 
d="M2 979l-145 43q106 145 80 350h225q2 -262 -160 -393zM391 510v-510h-250v956h250v-141q37 74 117 118t168 44q172 1 264 -105t92 -307v-565h-250v520q0 102 -48 158t-139 55q-91 0 -147 -55t-57 -168z" />
    <glyph glyph-name="Eng" unicode="&#x14a;" horiz-adv-x="1394" 
d="M438 0h-262v1411h244l536 -934v934h263v-1391q1 -221 -105 -359t-344 -138q-70 0 -190 31l26 243q243 -66 326 62q43 65 43 145l-537 920v-924z" />
    <glyph glyph-name="eng" unicode="&#x14b;" horiz-adv-x="1163" 
d="M1032 53q0 -219 -105 -342t-323 -123q-53 0 -137 21l25 229q44 -14 122 -14t123 59t45 156v481q0 102 -48 158t-139 55q-91 0 -147 -55t-57 -168v-510h-250v956h250v-141q37 74 117 118t168 44q172 1 265 -105t91 -307v-512z" />
    <glyph glyph-name="Omacron" unicode="&#x14c;" horiz-adv-x="1611" 
d="M1081 1653h-551v170h551v-170zM90 702q0 299 207 512t508 213t509 -213t208 -513t-209 -511q-209 -210 -508 -210t-508 210q-207 213 -207 512zM350 702q0 -196 132 -330t322 -134t323 136t133 328t-132 330q-132 137 -324 137t-323 -135t-131 -332z" />
    <glyph glyph-name="omacron" unicode="&#x14d;" horiz-adv-x="1159" 
d="M854 1198h-551v170h551v-170zM579 -18q-209 0 -353 138t-144 360t143 360t353 137q210 0 355 -138q144 -139 144 -359t-145 -359t-353 -139zM580 225q109 -1 179 71t70 183q1 111 -71 181t-178 71q-106 0 -178 -71q-72 -72 -72 -182t70 -182t180 -71z" />
    <glyph glyph-name="Obreve" unicode="&#x14e;" horiz-adv-x="1611" 
d="M532 1862h168q0 -113 105 -113q49 0 77 32t27 81h170q1 -121 -75 -194t-202 -73t-198 76t-72 191zM90 702q0 299 207 512t508 213t509 -213t208 -513t-209 -511q-209 -210 -508 -210t-508 210q-207 213 -207 512zM804 238q190 0 323 136t133 328t-132 330
q-132 137 -324 137t-323 -135q-131 -136 -131 -332t132 -330t322 -134z" />
    <glyph glyph-name="obreve" unicode="&#x14f;" horiz-adv-x="1159" 
d="M305 1407h168q0 -113 105 -113q48 0 76 32t28 81h170q0 -121 -76 -194t-202 -73t-197 76q-72 76 -72 191zM578 -18q-208 0 -352 138t-144 360t143 360t353 137q210 0 355 -138q144 -139 144 -359t-145 -359q-146 -139 -354 -139zM580 731q-106 -1 -178 -71t-72 -181
t70 -183t180 -71q110 0 180 72q70 73 70 183t-72 180t-178 71z" />
    <glyph glyph-name="Ohungarumlaut" unicode="&#x150;" horiz-adv-x="1611" 
d="M760 1903h215l-225 -334h-193zM1075 1903h219l-247 -334h-199zM90 702q0 299 207 512t508 213t509 -213t208 -513t-209 -511q-209 -210 -508 -210t-508 210q-207 213 -207 512zM804 238q190 0 323 136t133 328t-132 330q-132 137 -324 137t-323 -135q-131 -136 -131 -332
t132 -330t322 -134z" />
    <glyph glyph-name="ohungarumlaut" unicode="&#x151;" horiz-adv-x="1159" 
d="M530 1448h215l-225 -334h-192zM846 1448h219l-248 -334h-199zM578 -18q-208 0 -352 138t-144 360t143 360t353 137q210 0 355 -138q144 -139 144 -359t-145 -359q-146 -139 -354 -139zM580 731q-106 -1 -178 -71t-72 -181t70 -183t180 -71q110 0 180 72q70 73 70 183
t-72 180t-178 71z" />
    <glyph glyph-name="OE" unicode="&#x152;" horiz-adv-x="2252" 
d="M352 702q0 -194 132 -328t322 -134t320 137t129 332q-2 195 -134 327t-320 131q-189 0 -319 -136t-130 -329zM1260 1411h870v-237h-610v-363h534v-233h-534v-340h630v-238h-890v166q-186 -186 -472 -186t-492 212t-206 510q0 299 207 512t496 213t467 -188v172z" />
    <glyph glyph-name="oe" unicode="&#x153;" horiz-adv-x="1882" 
d="M82 478q0 222 144 360t362 139q218 0 364 -164q144 164 364 164t348 -125t144 -332q6 -47 2 -125h-731q14 -94 86 -149q72 -56 164 -56t158 33t96 90l193 -102q-60 -113 -180 -172t-267 -59q-232 -1 -377 165q-145 -165 -363 -165q-219 0 -363 138t-144 360zM580 223
q109 1 179 71t70 182q1 112 -71 184t-178 71q-106 0 -178 -72q-72 -71 -72 -183t70 -182t180 -71zM1326 768q-99 0 -167 -54t-82 -149h492q-14 95 -79 149t-164 54z" />
    <glyph glyph-name="Racute" unicode="&#x154;" horiz-adv-x="1292" 
d="M457 1569l215 334h262l-283 -334h-194zM438 502v-502h-262v1411h565q221 0 334 -135q117 -134 117 -310t-92 -300q-88 -125 -266 -154l360 -512h-315l-332 502h-109zM729 1178h-291v-443h283q92 -1 145 63t54 156q0 92 -52 158t-139 66z" />
    <glyph glyph-name="racute" unicode="&#x155;" horiz-adv-x="841" 
d="M391 338v-338h-250v956h250v-225q35 119 108 182t164 63t156 -34l-43 -225q-55 27 -145 26q-240 1 -240 -405zM156 1114l215 334h262l-283 -334h-194z" />
    <glyph glyph-name="Rcommaaccent" unicode="&#x156;" horiz-adv-x="1292" 
d="M606 -561l-131 59q67 96 91 175t20 212h219q-17 -299 -199 -446zM438 502v-502h-262v1411h565q221 0 334 -135q117 -134 117 -310t-92 -300q-88 -125 -266 -154l360 -512h-315l-332 502h-109zM729 1178h-291v-443h283q92 -1 145 63t54 156q0 92 -52 158t-139 66z" />
    <glyph glyph-name="rcommaaccent" unicode="&#x157;" horiz-adv-x="841" 
d="M180 -561l-131 59q67 96 91 175t20 212h219q-17 -299 -199 -446zM391 338v-338h-250v956h250v-225q35 119 108 182t164 63t156 -34l-43 -225q-55 27 -145 26q-240 1 -240 -405z" />
    <glyph glyph-name="Rcaron" unicode="&#x158;" horiz-adv-x="1292" 
d="M764 1569h-252l-223 334h192l156 -183l160 183h192zM438 502v-502h-262v1411h565q221 0 334 -135q117 -134 117 -310t-92 -300q-88 -125 -266 -154l360 -512h-315l-332 502h-109zM729 1178h-291v-443h283q92 -1 145 63t54 156q0 92 -52 158t-139 66z" />
    <glyph glyph-name="rcaron" unicode="&#x159;" horiz-adv-x="841" 
d="M391 338v-338h-250v956h250v-225q35 119 108 182t164 63t156 -34l-43 -225q-55 27 -145 26q-240 1 -240 -405zM565 1114h-252l-223 334h193l155 -182l160 182h193z" />
    <glyph glyph-name="Sacute" unicode="&#x15a;" horiz-adv-x="1181" 
d="M489 1569l216 334h262l-283 -334h-195zM598 213q104 0 168 47t68 120t-44 120t-151 75l-174 46q-356 104 -356 393q0 184 138 299t339 115t334 -116t133 -311h-262q-1 85 -57 135t-151 50t-155 -46t-59 -120q0 -117 168 -162l174 -51q211 -57 304 -169t81 -261
q-10 -187 -150 -293t-356 -106q-215 0 -355 124q-140 125 -141 310h262q4 -84 71 -142t171 -57z" />
    <glyph glyph-name="sacute" unicode="&#x15b;" horiz-adv-x="929" 
d="M334 1114l215 334h262l-283 -334h-194zM459 977q147 0 255 -74t113 -227h-237q-2 47 -39 73t-90 25q-121 0 -121 -94q0 -53 100 -80l160 -39q154 -40 208 -138q42 -77 42 -149q0 -139 -116 -217q-116 -77 -272 -77t-272 86q-115 90 -116 235h233q5 -51 57 -87t112 -34
t96 29t37 65t-24 59q-26 22 -81 34l-131 32q-166 47 -218 118q-53 71 -53 181t104 194q104 85 253 85z" />
    <glyph glyph-name="Scircumflex" unicode="&#x15c;" horiz-adv-x="1181" 
d="M246 1575l223 334h252l225 -334h-192l-160 180l-156 -180h-192zM94 412h262q4 -84 71 -142t171 -57q104 0 168 47t68 120t-44 120t-151 75l-174 46q-356 104 -356 393q0 184 138 299t339 115t334 -116t133 -311h-262q-1 85 -57 135t-151 50t-155 -46t-59 -120
q0 -117 168 -162l174 -51q211 -57 304 -169t81 -261q-10 -187 -150 -293t-356 -106t-356 124q-140 126 -140 310z" />
    <glyph glyph-name="scircumflex" unicode="&#x15d;" horiz-adv-x="929" 
d="M113 1120l223 334h252l225 -334h-192l-160 180l-156 -180h-192zM459 977q147 0 255 -74t113 -227h-237q-2 47 -39 73t-90 25q-121 0 -121 -94q0 -53 100 -80l160 -39q154 -40 208 -138q42 -77 42 -149q0 -139 -116 -217q-116 -77 -272 -77t-272 86q-115 90 -116 235h233
q5 -51 57 -87t112 -34t96 29t37 65t-24 59q-26 22 -81 34l-131 32q-166 47 -218 118q-53 71 -53 181t104 194q104 85 253 85z" />
    <glyph glyph-name="Scedilla" unicode="&#x15e;" horiz-adv-x="1185" 
d="M96 412h262q4 -84 71 -142t171 -57q104 0 168 47t68 120t-44 120t-151 75l-174 46q-356 104 -356 393q0 184 137 299t340 115t335 -116t132 -311h-262q-1 85 -57 135t-151 50t-155 -46t-59 -120q0 -117 168 -162l174 -51q409 -109 386 -437q-11 -156 -124 -259
q-113 -102 -281 -127l64 -117q18 -33 18 -107t-62 -134q-62 -62 -152 -62t-150 68q-61 68 -60 178l142 -9q0 -24 10 -51q25 -57 88 -41q57 20 35 94l-66 177q-205 12 -336 133q-129 123 -129 299z" />
    <glyph glyph-name="scedilla" unicode="&#x15f;" horiz-adv-x="931" 
d="M464 -436q-89 0 -151 68q-61 69 -59 178l141 -9q0 -25 11 -51q25 -57 88 -41q57 20 34 94l-65 177h-2q-152 0 -268 86q-115 90 -117 235h233q5 -51 57 -87t112 -34t96 29t37 65t-24 59q-26 22 -81 34l-131 32q-166 47 -218 118q-53 71 -53 181t104 194q104 85 252 85
t256 -74t113 -227h-237q-2 47 -39 73t-90 25q-121 0 -121 -94q0 -53 100 -80l160 -39q250 -64 250 -304q0 -89 -70 -161t-192 -100l69 -129q19 -33 19 -107t-62 -134q-62 -62 -152 -62z" />
    <glyph glyph-name="Scaron" unicode="&#x160;" horiz-adv-x="1181" 
d="M721 1569h-252l-223 334h192l156 -183l160 183h192zM598 213q104 0 168 47t68 120t-44 120t-151 75l-174 46q-356 104 -356 393q0 184 138 299t339 115t334 -116t133 -311h-262q-1 85 -57 135t-151 50t-155 -46t-59 -120q0 -117 168 -162l174 -51q211 -57 304 -169
t81 -261q-10 -187 -150 -293t-356 -106q-215 0 -355 124q-140 125 -141 310h262q4 -84 71 -142t171 -57z" />
    <glyph glyph-name="scaron" unicode="&#x161;" horiz-adv-x="929" 
d="M588 1114h-252l-223 334h192l156 -182l160 182h192zM459 977q147 0 255 -74t113 -227h-237q-2 47 -39 73t-90 25q-121 0 -121 -94q0 -53 100 -80l160 -39q154 -40 208 -138q42 -77 42 -149q0 -139 -116 -217q-116 -77 -272 -77t-272 86q-115 90 -116 235h233
q5 -51 57 -87t112 -34t96 29t37 65t-24 59q-26 22 -81 34l-131 32q-166 47 -218 118q-53 71 -53 181t104 194q104 85 253 85z" />
    <glyph glyph-name="Tcommaaccent" unicode="&#x162;" horiz-adv-x="1173" 
d="M492 -561l-132 59q68 96 92 175t19 212h219q-16 -299 -198 -446zM455 1171h-398v240h1059v-240h-397v-1171h-264v1171z" />
    <glyph glyph-name="tcommaaccent" unicode="&#x163;" horiz-adv-x="718" 
d="M260 -561l-131 59q67 96 91 175t20 212h219q-17 -299 -199 -446zM221 1321h248v-365h203v-200h-203v-756h-248v756h-174v200h174v365z" />
    <glyph glyph-name="Tcaron" unicode="&#x164;" horiz-adv-x="1173" 
d="M713 1569h-252l-223 334h192l156 -183l159 183h193zM57 1411h1059v-240h-397v-1171h-264v1171h-398v240z" />
    <glyph glyph-name="tcaron" unicode="&#x165;" horiz-adv-x="716" 
d="M219 756h-172v200h172v365h250v-365h201v-200h-201v-756h-250v756zM707 1073l-134 60q68 96 92 175t19 212h219q-14 -295 -196 -447z" />
    <glyph glyph-name="Tbar" unicode="&#x166;" horiz-adv-x="1173" 
d="M455 0v684h-236v156h236v331h-398v240h1059v-240h-397v-331h233v-156h-233v-684h-264z" />
    <glyph glyph-name="tbar" unicode="&#x167;" horiz-adv-x="724" 
d="M473 0h-250v406h-119v145h119v205h-172v200h172v365h250v-365h201v-200h-201v-205h148v-145h-148v-406z" />
    <glyph glyph-name="Utilde" unicode="&#x168;" horiz-adv-x="1394" 
d="M971 498v913h262v-913q0 -230 -157 -374t-380 -144t-379 143t-155 375v913h266v-913q0 -117 79 -194t191 -77t193 76q80 76 80 195zM606 1698q-18 0 -34 -24t-19 -64h-143q6 128 61 192t135 64q50 0 106 -42t74 -42t36 22q17 23 20 62h143q-6 -123 -63 -188t-136 -64
q-46 0 -104 42t-76 42z" />
    <glyph glyph-name="utilde" unicode="&#x169;" 
d="M684 1159q-44 0 -104 42t-77 42t-34 -23q-16 -24 -18 -65h-144q5 127 61 192t136 64q49 0 105 -42q57 -42 75 -42t36 23q17 23 19 61h144q-5 -123 -63 -187t-136 -65zM770 446v510h250v-956h-250v135q-37 -71 -112 -113t-152 -42q-176 0 -277 107q-100 108 -100 304v565
h252v-520q0 -104 51 -158t137 -54q85 0 143 55q58 56 58 167z" />
    <glyph glyph-name="Umacron" unicode="&#x16a;" horiz-adv-x="1394" 
d="M973 1653h-551v170h551v-170zM971 498v913h262v-913q0 -230 -157 -374t-380 -144t-379 143t-155 375v913h266v-913q0 -117 79 -194t191 -77t193 76q80 76 80 195z" />
    <glyph glyph-name="umacron" unicode="&#x16b;" 
d="M870 1198h-551v170h551v-170zM770 446v510h250v-956h-250v135q-37 -71 -112 -113t-152 -42q-176 0 -277 107q-100 108 -100 304v565h252v-520q0 -104 51 -158t137 -54q85 0 143 55q58 56 58 167z" />
    <glyph glyph-name="Ubreve" unicode="&#x16c;" horiz-adv-x="1394" 
d="M424 1862h168q0 -113 104 -113q49 0 77 32t28 81h170q0 -121 -76 -194t-202 -73q-125 0 -197 76t-72 191zM971 498v913h262v-913q0 -230 -157 -374t-380 -144t-379 143t-155 375v913h266v-913q0 -117 79 -194t191 -77t193 76q80 76 80 195z" />
    <glyph glyph-name="ubreve" unicode="&#x16d;" 
d="M322 1407h167q0 -113 105 -113q49 0 77 32t27 81h170q0 -121 -76 -194t-201 -73t-197 76t-72 191zM770 446v510h250v-956h-250v135q-37 -71 -112 -113t-152 -42q-176 0 -277 107q-100 108 -100 304v565h252v-520q0 -104 51 -158t137 -54q85 0 143 55q58 56 58 167z" />
    <glyph glyph-name="Uring" unicode="&#x16e;" horiz-adv-x="1394" 
d="M696 1915q-50 0 -84 -35t-34 -85t34 -84t84 -34q49 0 84 34t35 84t-35 85t-84 35zM461 1794q0 98 67 170q70 70 168 70t168 -69t70 -169t-70 -168t-168 -68t-168 68q-67 68 -67 166zM971 498v913h262v-913q0 -230 -157 -374t-380 -144t-379 143t-155 375v913h266v-913
q0 -117 79 -194t191 -77t193 76q80 76 80 195z" />
    <glyph glyph-name="uring" unicode="&#x16f;" 
d="M475 1340q0 -50 35 -84t84 -34t84 34t35 84t-35 85t-84 35t-84 -35t-35 -85zM358 1339q0 98 68 170q70 70 168 70t168 -69t70 -169q0 -99 -70 -167t-168 -68t-167 68t-69 165zM770 446v510h250v-956h-250v135q-37 -71 -112 -113t-152 -42q-176 0 -277 107
q-100 108 -100 304v565h252v-520q0 -104 51 -158t137 -54q85 0 143 55q58 56 58 167z" />
    <glyph glyph-name="Uhungarumlaut" unicode="&#x170;" horiz-adv-x="1394" 
d="M971 498v913h262v-913q0 -230 -157 -374t-380 -144t-379 143t-155 375v913h266v-913q0 -117 79 -194t191 -77t193 76q80 76 80 195zM657 1903h215l-225 -334h-192zM973 1903h219l-248 -334h-199z" />
    <glyph glyph-name="uhungarumlaut" unicode="&#x171;" 
d="M770 446v510h250v-956h-250v135q-37 -71 -112 -113t-152 -42q-176 0 -277 107q-100 108 -100 304v565h252v-520q0 -104 51 -158t137 -54q85 0 143 55q58 56 58 167zM496 1448h215l-226 -334h-192zM811 1448h219l-248 -334h-198z" />
    <glyph glyph-name="Uogonek" unicode="&#x172;" horiz-adv-x="1394" 
d="M545 -240q0 72 18 107l64 117q-199 26 -332 164t-133 350v913h266v-913q0 -117 79 -194t191 -77t193 76q80 76 80 195v913h262v-913q0 -216 -136 -356t-337 -158l-66 -181q-23 -74 35 -94q63 -16 88 41l10 51l142 9q3 -109 -59 -178q-62 -68 -150 -68t-152 62t-63 134z
" />
    <glyph glyph-name="uogonek" unicode="&#x173;" 
d="M680 -240q0 72 18 107l72 133v135q-37 -71 -112 -113t-152 -42q-176 0 -277 107q-100 108 -100 304v565h252v-520q0 -104 51 -158t137 -54q85 0 143 56t58 166v510h250v-956h-119l-72 -197q-23 -74 35 -94q63 -16 88 41l11 51l141 9q2 -109 -60 -178q-62 -68 -149 -68
t-151 62t-64 134z" />
    <glyph glyph-name="Wcircumflex" unicode="&#x174;" horiz-adv-x="1826" 
d="M563 1575l223 334h252l226 -334h-193l-160 180l-155 -180h-193zM1018 1214l213 -786l303 983h285l-480 -1411h-211l-217 801l-213 -801h-213l-475 1411h283l301 -983l215 786h209z" />
    <glyph glyph-name="wcircumflex" unicode="&#x175;" horiz-adv-x="1585" 
d="M438 1120l224 334h251l226 -334h-193l-160 180l-155 -180h-193zM1288 956h266l-342 -956h-208l-213 641l-207 -641h-207l-352 956h266l194 -604l193 604h221l195 -604z" />
    <glyph glyph-name="Ycircumflex" unicode="&#x176;" horiz-adv-x="1318" 
d="M309 1575l223 334h252l226 -334h-193l-160 180l-155 -180h-193zM793 0h-269v643l-540 768h311l362 -543l367 543h313l-544 -772v-639z" />
    <glyph glyph-name="ycircumflex" unicode="&#x177;" horiz-adv-x="1046" 
d="M178 1120l223 334h252l226 -334h-193l-160 180l-155 -180h-193zM762 956h266l-592 -1423h-264l219 541l-373 882h267l237 -596z" />
    <glyph glyph-name="Ydieresis" unicode="&#x178;" horiz-adv-x="1318" 
d="M698 1749q0 57 41 95t101 38t99 -38q40 -38 40 -95t-40 -95q-39 -38 -99 -38t-101 38t-41 95zM482 1882q58 0 100 -39t41 -94q0 -55 -41 -94q-42 -39 -100 -39t-99 38t-41 95t41 95t99 38zM793 0h-269v643l-540 768h311l362 -543l367 543h313l-544 -772v-639z" />
    <glyph glyph-name="Zacute" unicode="&#x179;" horiz-adv-x="1202" 
d="M440 1569l215 334h263l-283 -334h-195zM86 0v205l680 971h-653v235h991v-207l-686 -968h686v-236h-1018z" />
    <glyph glyph-name="zacute" unicode="&#x17a;" horiz-adv-x="1040" 
d="M367 1114l215 334h262l-283 -334h-194zM940 956v-192l-502 -531h502v-233h-856v190l494 533h-463v233h825z" />
    <glyph glyph-name="Zdotaccent" unicode="&#x17b;" horiz-adv-x="1202" 
d="M446 1740q0 60 43 101t105 41t106 -41q43 -41 43 -101t-43 -102t-105 -41q-62 0 -106 41q-43 42 -43 102zM86 0v205l680 971h-653v235h991v-207l-686 -968h686v-236h-1018z" />
    <glyph glyph-name="zdotaccent" unicode="&#x17c;" horiz-adv-x="1040" 
d="M511 1143q-61 0 -105 41t-44 101t44 101t105 41q62 0 105 -41t43 -101t-43 -101t-105 -41zM940 956v-192l-502 -531h502v-233h-856v190l494 533h-463v233h825z" />
    <glyph glyph-name="Zcaron" unicode="&#x17d;" horiz-adv-x="1202" 
d="M721 1569h-252l-223 334h192l156 -183l160 183h192zM86 0v205l680 971h-653v235h991v-207l-686 -968h686v-236h-1018z" />
    <glyph glyph-name="zcaron" unicode="&#x17e;" horiz-adv-x="1040" 
d="M637 1114h-252l-223 334h192l156 -182l160 182h192zM940 956v-192l-502 -531h502v-233h-856v190l494 533h-463v233h825z" />
    <glyph glyph-name="longs" unicode="&#x17f;" horiz-adv-x="663" 
d="M637 1477h104v-240h-104q-156 0 -156 -205v-1032h-252v756h-182v200h182v76q-1 211 105 328t303 117z" />
    <glyph glyph-name="florin" unicode="&#x192;" horiz-adv-x="1275" 
d="M219 -152q145 0 193 203l143 699h-178l43 206h178l16 72q43 213 172 327t334 109l94 -2l-47 -237h-108q-92 0 -137 -65t-72 -204h203l-41 -206h-205q-117 -584 -158 -761t-169 -279t-314 -99q-80 0 -105 2l48 235h110z" />
    <glyph glyph-name="Aringacute" unicode="&#x1fa;" horiz-adv-x="1339" 
d="M549 1795q0 -50 35 -84t84 -34t84 34q34 34 34 84t-34 85q-35 35 -84 35t-84 -35t-35 -85zM496 571h352l-178 539zM905 1794q1 -98 -69 -166t-168 -68t-168 68q-68 68 -68 157t45 151t119 87l162 250h262l-232 -272q117 -72 117 -207zM934 342h-526l-129 -342h-279
l528 1411h283l528 -1411h-276z" />
    <glyph glyph-name="aringacute" unicode="&#x1fb;" horiz-adv-x="1257" 
d="M573 1448q-49 0 -83 -35t-35 -85q1 -50 35 -84t83 -34t84 34t35 84t-35 85t-84 35zM811 1327q0 -98 -70 -166q-70 -67 -168 -67t-167 67q-68 68 -68 157t45 151t119 87l162 250h262l-232 -272q117 -72 117 -207zM340 479q0 -113 78 -186q55 -55 135 -67q79 -12 149 13
q70 26 119 90t45 150q0 119 -78 189t-184 70t-185 -74q-79 -72 -79 -185zM1116 0h-250v123q-41 -66 -127 -104t-170 -37q-199 0 -343 138t-144 359t144 359t343 139q86 0 169 -36t128 -103v118h250v-956z" />
    <glyph glyph-name="AEacute" unicode="&#x1fc;" horiz-adv-x="1910" 
d="M864 1569l215 334h262l-282 -334h-195zM915 586v471l-270 -471h270zM1788 1411v-237h-610v-363h534v-233h-534v-340h630v-238h-890v2l-3 -2v334h-419l-213 -334h-312l891 1411h926z" />
    <glyph glyph-name="aeacute" unicode="&#x1fd;" horiz-adv-x="2033" 
d="M866 1114l215 334h262l-282 -334h-195zM1962 481q0 -25 -4 -86h-729q14 -94 86 -149q72 -56 164 -56q91 0 157 33t97 90l192 -102q-61 -113 -180 -172t-266 -59q-246 0 -381 178v-158h-232v123q-41 -66 -127 -104t-170 -37q-199 0 -343 138t-144 359t144 359t343 139
q86 0 169 -36t128 -103v118h232v-153q135 174 381 174q209 1 346 -137t137 -359zM604 737q-106 -1 -185 -73t-79 -185t78 -186q55 -55 135 -67q169 -26 268 103q49 65 45 150q0 119 -78 189t-184 69zM1476 768q-98 0 -167 -54q-68 -54 -82 -149h491q-12 95 -78 149t-164 54z
" />
    <glyph glyph-name="Oslashacute" unicode="&#x1fe;" horiz-adv-x="1607" 
d="M803 238q190 0 322 136t132 328q0 150 -88 275l-632 -653q114 -86 266 -86zM348 702q0 -156 92 -284l637 657q-115 94 -291 94t-307 -135t-131 -332zM88 718q0 282 207 496q207 213 508 213q262 0 457 -165l161 165l97 -94l-164 -168q166 -203 166 -463q0 -301 -209 -512
t-508 -210q-231 0 -414 133q-8 2 -35 22l-164 -168l-96 96l164 168q-170 205 -170 487zM705 1569l215 334h262l-283 -334h-194z" />
    <glyph glyph-name="oslashacute" unicode="&#x1ff;" horiz-adv-x="1159" 
d="M580 223q110 0 180 71t69 185q0 68 -26 119l-338 -348q52 -27 115 -27zM580 731q-106 0 -178 -72t-72 -166t35 -151l344 354q-59 35 -129 35zM580 -20q-166 0 -291 88l-119 -121l-96 96l114 119q-106 126 -106 332t144 344t336 139q192 0 325 -100l104 108l96 -94
l-106 -109q96 -131 96 -303q0 -221 -145 -360t-352 -139zM489 1114l216 334h262l-283 -334h-195z" />
    <glyph glyph-name="Scommaaccent" unicode="&#x218;" horiz-adv-x="1181" 
d="M520 -561l-131 59q67 96 91 175t20 212h219q-17 -299 -199 -446zM94 412h262q4 -84 71 -142t171 -57q104 0 168 47t68 120t-44 120t-151 75l-174 46q-356 104 -356 393q0 184 138 299t339 115t334 -116t133 -311h-262q-1 85 -57 135t-151 50t-155 -46t-59 -120
q0 -117 168 -162l174 -51q211 -57 304 -169t81 -261q-10 -187 -150 -293t-356 -106t-356 124q-140 126 -140 310z" />
    <glyph glyph-name="scommaaccent" unicode="&#x219;" horiz-adv-x="929" 
d="M385 -561l-131 59q68 96 92 175t19 212h219q-17 -299 -199 -446zM459 977q147 0 255 -74t113 -227h-237q-2 47 -39 73t-90 25q-121 0 -121 -94q0 -53 100 -80l160 -39q154 -40 208 -138q42 -77 42 -149q0 -139 -116 -217q-116 -77 -272 -77t-272 86q-115 90 -116 235h233
q5 -51 57 -87t112 -34t96 29t37 65t-24 59q-26 22 -81 34l-131 32q-166 47 -218 118q-53 71 -53 181t104 194q104 85 253 85z" />
    <glyph glyph-name="circumflex" unicode="&#x2c6;" horiz-adv-x="1191" 
d="M246 1120l223 334h252l225 -334h-192l-160 180l-156 -180h-192z" />
    <glyph glyph-name="caron" unicode="&#x2c7;" horiz-adv-x="1191" 
d="M721 1114h-252l-223 334h192l156 -182l160 182h192z" />
    <glyph glyph-name="breve" unicode="&#x2d8;" horiz-adv-x="1038" 
d="M246 1407h168q0 -113 104 -113q49 0 77 32t28 81h170q0 -121 -76 -194t-202 -73q-125 0 -197 76t-72 191z" />
    <glyph glyph-name="dotaccent" unicode="&#x2d9;" horiz-adv-x="747" 
d="M225 1285q0 60 43 101q44 41 106 41t105 -41t43 -101t-43 -101t-105 -41t-106 41q-43 41 -43 101z" />
    <glyph glyph-name="ring" unicode="&#x2da;" horiz-adv-x="1087" 
d="M444 1340q0 -50 35 -84t84 -34t84 34t35 84t-35 85t-84 35t-84 -35t-35 -85zM328 1339q0 98 67 170q70 70 169 70t168 -69t69 -169q0 -99 -70 -167t-167 -68q-96 0 -166 68t-70 165z" />
    <glyph glyph-name="ogonek" unicode="&#x2db;" horiz-adv-x="1081" 
d="M328 -240q0 72 18 107l105 192h120l-94 -256q-23 -74 35 -94q63 -16 88 41l10 51l142 9q2 -109 -60 -178q-62 -68 -149 -68t-151 62t-64 134z" />
    <glyph glyph-name="tilde" unicode="&#x2dc;" horiz-adv-x="903" 
d="M541 1159q-45 0 -105 42t-77 42q-17 1 -33 -23t-19 -65h-143q6 127 61 192t135 64q50 0 106 -42t74 -42t37 23q17 23 19 61h143q-6 -123 -63 -187t-135 -65z" />
    <glyph glyph-name="hungarumlaut" unicode="&#x2dd;" horiz-adv-x="1064" 
d="M367 1448h215l-226 -334h-192zM682 1448h219l-248 -334h-198z" />
    <glyph glyph-name="Wgrave" unicode="&#x1e80;" horiz-adv-x="1826" 
d="M772 1569l-283 334h263l215 -334h-195zM1018 1214l213 -786l303 983h285l-480 -1411h-211l-217 801l-213 -801h-213l-475 1411h283l301 -983l215 786h209z" />
    <glyph glyph-name="wgrave" unicode="&#x1e81;" horiz-adv-x="1585" 
d="M688 1114l-282 334h262l215 -334h-195zM1288 956h266l-342 -956h-208l-213 641l-207 -641h-207l-352 956h266l194 -604l193 604h221l195 -604z" />
    <glyph glyph-name="Wacute" unicode="&#x1e82;" horiz-adv-x="1826" 
d="M825 1569l215 334h263l-283 -334h-195zM1534 1411h285l-480 -1411h-211l-217 801l-213 -801h-213l-475 1411h283l301 -983l215 786h209l213 -786z" />
    <glyph glyph-name="wacute" unicode="&#x1e83;" horiz-adv-x="1585" 
d="M676 1114l215 334h262l-283 -334h-194zM1212 0h-208l-213 641l-207 -641h-207l-352 956h266l194 -604l193 604h221l195 -604l194 604h266z" />
    <glyph glyph-name="Wdieresis" unicode="&#x1e84;" horiz-adv-x="1826" 
d="M952 1749q0 57 41 95t101 38t99 -38q40 -38 40 -95t-40 -95q-39 -38 -99 -38t-101 38t-41 95zM736 1882q58 0 100 -39t41 -94q0 -55 -41 -94q-42 -39 -100 -39t-99 38t-41 95t41 95t99 38zM1534 1411h285l-480 -1411h-211l-217 801l-213 -801h-213l-475 1411h283
l301 -983l215 786h209l213 -786z" />
    <glyph glyph-name="wdieresis" unicode="&#x1e85;" horiz-adv-x="1585" 
d="M827 1294q0 58 41 96q40 38 100 38t100 -38t40 -96t-40 -95q-40 -38 -100 -38t-100 38q-41 38 -41 95zM471 1294q0 57 41 95t99 38t100 -38q41 -39 41 -95t-41 -94q-41 -39 -99 -39t-100 38q-41 38 -41 95zM1212 0h-208l-213 641l-207 -641h-207l-352 956h266l194 -604
l193 604h221l195 -604l194 604h266z" />
    <glyph glyph-name="Ygrave" unicode="&#x1ef2;" horiz-adv-x="1318" 
d="M596 1569l-283 334h262l216 -334h-195zM793 0h-269v643l-540 768h311l362 -543l367 543h313l-544 -772v-639z" />
    <glyph glyph-name="ygrave" unicode="&#x1ef3;" horiz-adv-x="1046" 
d="M475 1114l-282 334h262l215 -334h-195zM762 956h266l-592 -1423h-264l219 541l-373 882h267l237 -596z" />
    <glyph glyph-name="thinspace" unicode="&#x2009;" horiz-adv-x="28" 
 />
    <glyph glyph-name="endash" unicode="&#x2013;" horiz-adv-x="1267" 
d="M1139 371h-1010v221h1010v-221z" />
    <glyph glyph-name="emdash" unicode="&#x2014;" horiz-adv-x="1699" 
d="M1571 371h-1442v221h1442v-221z" />
    <glyph glyph-name="quoteleft" unicode="&#x2018;" horiz-adv-x="546" 
d="M379 1462l110 -55q-43 -57 -83 -129q-86 -156 -87 -369h-213q6 167 96 325t177 228z" />
    <glyph glyph-name="quoteright" unicode="&#x2019;" horiz-adv-x="542" 
d="M256 1413h211q-2 -167 -91 -323t-181 -228l-111 56q43 59 81 123q39 63 65 165t26 207z" />
    <glyph glyph-name="quotesinglbase" unicode="&#x201a;" horiz-adv-x="512" 
d="M174 340h211q-2 -166 -91 -322t-181 -229l-111 53q61 90 84 131q88 154 88 367z" />
    <glyph glyph-name="quotedblleft" unicode="&#x201c;" horiz-adv-x="882" 
d="M381 1462l108 -55q-43 -57 -83 -129q-86 -156 -87 -367h-210q2 165 92 323t180 228zM655 911h-213q6 169 96 325t177 226l110 -55q-37 -53 -84 -129q-86 -152 -86 -367z" />
    <glyph glyph-name="quotedblright" unicode="&#x201d;" horiz-adv-x="874" 
d="M588 1413h213q-5 -169 -95 -325t-178 -226l-110 53q59 88 84 129q86 156 86 369zM254 1413h211q-2 -165 -92 -323t-178 -228l-111 53q47 68 82 129q88 152 88 369z" />
    <glyph glyph-name="quotedblbase" unicode="&#x201e;" horiz-adv-x="845" 
d="M508 340h211q-2 -166 -92 -324t-178 -227l-111 53q61 90 84 131q86 152 86 367zM174 340h211q-2 -166 -91 -322t-181 -229l-109 53q47 68 82 129q88 152 88 369z" />
    <glyph glyph-name="dagger" unicode="&#x2020;" horiz-adv-x="845" 
d="M309 1411h228v-354h227v-174h-227v-1094h-228v1094h-227v174h227v354z" />
    <glyph glyph-name="daggerdbl" unicode="&#x2021;" horiz-adv-x="903" 
d="M338 1411h227v-354h228v-174h-228v-457h228v-172h-228v-465h-227v465h-227v172h227v457h-227v174h227v354z" />
    <glyph glyph-name="bullet" unicode="&#x2022;" horiz-adv-x="950" 
d="M156 487q0 131 92 220q94 88 228 88t226 -88q92 -87 92 -219t-94 -220q-90 -88 -224 -88t-228 88q-92 88 -92 219z" />
    <glyph glyph-name="ellipsis" unicode="&#x2026;" horiz-adv-x="1660" 
d="M1544 135q0 -67 -47 -111t-115 -44t-114 44q-47 44 -47 112t47 111q46 44 114 44t115 -44t47 -112zM670 136q0 68 46 111q46 44 114 44t115 -45q48 -45 48 -111q0 -67 -48 -111q-47 -44 -115 -44t-115 43q-45 45 -45 113zM440 135q0 -67 -47 -111t-115 -44t-114 44
q-47 44 -47 112t47 111q47 44 115 44q69 0 115 -44t46 -112z" />
    <glyph glyph-name="perthousand" unicode="&#x2030;" horiz-adv-x="2037" 
d="M1808 252q0 47 -34 82q-35 35 -82 35q-74 6 -106 -72t24 -127q49 -55 127 -24q77 32 71 106zM1692 526q114 0 194 -80t80 -195q0 -114 -80 -194q-82 -77 -194 -77t-195 77q-78 82 -78 195t78 194q80 80 195 80zM1182 252q0 47 -35 82t-82 35q-74 6 -106 -72t24 -127
q49 -56 127 -24t72 106zM1065 526q115 0 195 -80t79 -195q0 -114 -79 -194q-82 -77 -195 -77t-195 77q-78 82 -77 195q0 113 77 194q80 80 195 80zM467 1090q0 48 -35 82t-82 34q-74 6 -106 -72t24 -126q49 -56 127 -24t72 106zM349 1364q114 0 195 -80t81 -194t-80 -195
q-82 -78 -195 -78t-194 78q-78 82 -78 195t78 194q79 80 193 80zM1102 1354l-666 -1354h-139l666 1354h139z" />
    <glyph glyph-name="guilsinglleft" unicode="&#x2039;" horiz-adv-x="659" 
d="M367 53l-283 424l283 424h200l-282 -424l282 -424h-200z" />
    <glyph glyph-name="guilsinglright" unicode="&#x203a;" horiz-adv-x="659" 
d="M293 901l282 -424l-282 -424h-201l283 424l-283 424h201z" />
    <glyph glyph-name="fraction" unicode="&#x2044;" horiz-adv-x="368" 
d="M563 1370h156l-922 -1390h-159z" />
    <glyph glyph-name="zerosuperior" unicode="&#x2070;" horiz-adv-x="729" 
d="M223 1280q-1 -260 141 -260t142 260t-142 260t-141 -260zM74 1280q0 406 291 406t291 -406t-291 -406t-291 406z" />
    <glyph glyph-name="foursuperior" unicode="&#x2074;" horiz-adv-x="716" 
d="M412 1186v266l-168 -266h168zM666 1055h-105v-168h-149v168h-389l395 618h143v-487h105v-131z" />
    <glyph glyph-name="fivesuperior" unicode="&#x2075;" horiz-adv-x="696" 
d="M340 1022q58 0 102 39t45 97q0 58 -41 93t-106 35q-109 0 -190 -78l-72 47l65 418h441v-139h-320l-26 -152q52 35 152 35q100 -1 172 -71t73 -193q0 -123 -84 -201t-225 -78q-84 0 -159 44t-118 118l125 82q52 -96 166 -96z" />
    <glyph glyph-name="sixsuperior" unicode="&#x2076;" horiz-adv-x="694" 
d="M254 1138q0 -50 34 -84t82 -35t83 33t36 83q0 49 -33 84q-34 35 -83 35t-84 -32q-35 -34 -35 -84zM397 1395q98 0 172 -75t72 -191q-2 -115 -81 -187t-194 -70q-114 2 -190 76t-86 197q-23 168 38 359q26 81 95 132q70 51 174 50q175 -11 238 -156l-137 -57
q-35 71 -109 71t-114 -68t-35 -171q18 37 61 63t96 27z" />
    <glyph glyph-name="sevensuperior" unicode="&#x2077;" horiz-adv-x="663" 
d="M61 1673h580l-381 -786h-170l311 645h-340v141z" />
    <glyph glyph-name="eightsuperior" unicode="&#x2078;" horiz-adv-x="706" 
d="M364 1548q-48 0 -72 -24t-24 -56q-8 -54 52 -76t96 19q39 39 17 88t-69 49zM494 1143q0 49 -39 90t-95 39h-18q-53 0 -91 -39t-38 -90q-4 -82 88 -117t152 27q41 41 41 90zM121 1478q0 82 68 145q69 63 165 63t164 -62t68 -148t-58 -137q115 -73 115 -191t-84 -196
t-204 -78t-208 78q-84 78 -84 197t115 190q-57 57 -57 139z" />
    <glyph glyph-name="ninesuperior" unicode="&#x2079;" horiz-adv-x="694" 
d="M255 1340q34 -34 83 -34t84 32t36 82t-33 85t-83 36t-84 -33t-36 -84t33 -84zM313 1165q-98 0 -173 75q-74 75 -70 191q4 117 82 187t194 68t191 -76q76 -74 86 -197q12 -201 -39 -356q-66 -190 -269 -183q-169 11 -239 156l139 57q35 -73 107 -73t113 68q40 68 38 173
q-20 -37 -63 -63t-97 -27z" />
    <glyph glyph-name="zeroinferior" unicode="&#x2080;" horiz-adv-x="729" 
d="M223 90q-1 -260 141 -260t142 260t-142 260t-141 -260zM365 496q291 0 291 -406t-292 -405q-290 -1 -290 405t291 406z" />
    <glyph glyph-name="oneinferior" unicode="&#x2081;" horiz-adv-x="434" 
d="M330 -305h-150v584l-135 -62v133l285 144v-799z" />
    <glyph glyph-name="twoinferior" unicode="&#x2082;" horiz-adv-x="657" 
d="M70 -305v78l321 383q45 53 45 98t-30 72q-31 26 -79 26t-82 -32t-42 -84l-137 26q18 109 90 171q72 63 177 63t179 -68t74 -171t-84 -200l-191 -219h262v-143h-503z" />
    <glyph glyph-name="threeinferior" unicode="&#x2083;" horiz-adv-x="651" 
d="M553 270q0 -94 -98 -149q61 -23 99 -85t32 -128q-8 -100 -100 -166t-186 -58q-95 8 -162 52q-67 45 -99 114l127 66q45 -88 129 -88q51 -2 90 28t42 74t-28 82q-31 37 -94 35h-86v129h86q47 0 72 34t18 69q-1 33 -27 57t-63 22q-67 2 -104 -55l-113 78q84 124 250 114
q86 -5 150 -69q64 -62 65 -156z" />
    <glyph glyph-name="fourinferior" unicode="&#x2084;" horiz-adv-x="710" 
d="M408 -4v266l-168 -266h168zM662 -135h-105v-170h-149v170h-390l396 618h143v-487h105v-131z" />
    <glyph glyph-name="fiveinferior" unicode="&#x2085;" horiz-adv-x="692" 
d="M340 -168q58 0 102 39t45 97q0 58 -41 93t-106 35q-109 0 -190 -78l-72 48l65 417h441v-139h-320l-26 -154q52 37 152 37q100 -1 172 -71t73 -193q0 -123 -85 -202t-224 -78q-82 0 -158 44t-119 117l125 84q52 -96 166 -96z" />
    <glyph glyph-name="sixinferior" unicode="&#x2086;" horiz-adv-x="692" 
d="M252 -52q0 -50 34 -85t82 -36t83 34t35 84t-32 84q-34 35 -83 35t-84 -32q-35 -34 -35 -84zM395 205q98 0 172 -75q74 -74 72 -190t-81 -188t-194 -70q-114 2 -190 76t-86 197q-24 165 38 357q26 81 95 133q70 52 174 51q175 -11 238 -156l-137 -57q-35 71 -109 71
t-114 -68t-35 -173q14 37 59 65t98 27z" />
    <glyph glyph-name="seveninferior" unicode="&#x2087;" horiz-adv-x="643" 
d="M55 483h580l-381 -788h-170l311 647h-340v141z" />
    <glyph glyph-name="eightinferior" unicode="&#x2088;" horiz-adv-x="706" 
d="M362 358q-46 0 -70 -23t-24 -58t24 -59t70 -22t67 42q22 40 0 80t-67 40zM494 -47q0 49 -40 90t-94 39h-18q-53 0 -91 -39t-38 -90q-4 -82 89 -117t151 29q41 39 41 88zM121 289q0 82 68 144q69 63 165 63t164 -62t68 -148q0 -85 -58 -136q115 -74 115 -192t-84 -196
t-204 -78t-208 78q-84 78 -84 197t115 191q-57 57 -57 139z" />
    <glyph glyph-name="nineinferior" unicode="&#x2089;" horiz-adv-x="694" 
d="M338 115q49 1 84 33t36 82t-33 85t-83 36t-84 -34t-36 -83t33 -84q34 -35 83 -35zM322 -176q72 0 113 68q40 68 38 174q-18 -37 -62 -64t-98 -27q-98 0 -173 75q-74 75 -70 190q4 114 83 186t193 70t191 -76q76 -74 86 -197q12 -203 -39 -354q-63 -188 -269 -186
q-169 10 -239 155l139 60q35 -74 107 -74z" />
    <glyph glyph-name="colonmonetary" unicode="&#x20a1;" horiz-adv-x="1441" 
d="M344 712q0 -154 70 -270l256 719q-146 -41 -236 -168t-90 -281zM803 1178l-301 -840q57 -53 131 -80l319 891q-69 25 -149 29zM82 702q0 295 197 505t485 218l80 224l110 -41l-67 -189q80 -8 149 -35l68 191l110 -41l-69 -197q121 -68 215 -188l-209 -150q-45 57 -96 91
l-305 -859q37 -4 43 -4q109 -1 205 51t161 140l207 -152q-94 -135 -245 -211t-328 -75q-63 0 -129 12l-78 -219l-111 41l74 209q-82 31 -135 65l-88 -242l-111 39l100 279q-111 100 -172 240t-61 298z" />
    <glyph glyph-name="lira" unicode="&#x20a4;" horiz-adv-x="1366" 
d="M817 588v-123h-262v-236h420q23 1 37 19t14 45v80h248v-111q0 -114 -67 -188t-171 -74h-940v229h209v236h-166v123h166v108h-166v123h166v146q0 211 119 337t310 125q192 -1 318 -117t126 -333h-256q0 96 -54 144t-133 45q-80 -3 -130 -51t-50 -126v-170h262v-123h-262
v-108h262z" />
    <glyph glyph-name="uni20A6" unicode="&#x20a6;" horiz-adv-x="1609" 
d="M545 776h88l-88 152v-152zM1067 664h-100l100 -170v170zM1067 997h-295l129 -221h166v221zM285 776v221h-185v113h185v301h243l177 -301h362v301h262v-301h178v-113h-178v-221h178v-112h-178v-664h-239l-390 664h-155v-664h-260v664h-185v112h185z" />
    <glyph glyph-name="peseta" unicode="&#x20a7;" horiz-adv-x="1546" 
d="M526 788v-53h299q88 0 142 53h-441zM834 1178h-308v-58h432q-50 58 -124 58zM1024 956q0 22 -8 52h-490v-107h494q4 33 4 55zM264 0v788h-164v113h164v107h-164v112h164v291h574q156 0 264 -79t153 -212h207v-112h-180q4 -66 4 -82t-2 -25h178v-113h-198
q-39 -134 -149 -210t-277 -76h-312v-502h-262z" />
    <glyph glyph-name="rupee" unicode="&#x20a8;" horiz-adv-x="1435" 
d="M129 928v119h629q-49 131 -176 131h-453q0 45 -2 116v117h1216v-119h-434q106 -100 127 -245h307v-119h-299q-8 -164 -100 -278t-258 -138l361 -512h-316l-332 502h-270v233h444q85 1 137 55t60 138h-641z" />
    <glyph glyph-name="uni20A9" unicode="&#x20a9;" horiz-adv-x="2033" 
d="M1411 659h-135l63 -231zM766 659h-135l71 -231zM1485 903h-275l35 -131h201zM831 903h-274l39 -131h201zM98 659v113h236l-45 131h-191v113h154l-133 395h282l121 -395h340l56 198h208l54 -198h340l122 395h285l-135 -395h139v-113h-178l-43 -131h221v-113h-260
l-223 -659h-211l-178 659h-78l-174 -659h-213l-223 659h-273z" />
    <glyph glyph-name="afii57636" unicode="&#x20aa;" horiz-adv-x="1810" 
d="M571 422v278h250v-243q1 -87 63 -147t160 -60h330v852h252v-1102h-526q-74 0 -148 6q-172 16 -276 131q-105 121 -105 285zM1239 680v-279h-250v244q0 87 -62 147t-161 60h-330v-852h-252v1102h527q90 0 147 -8q172 -16 276 -131t105 -283z" />
    <glyph glyph-name="Euro" unicode="&#x20ac;" horiz-adv-x="1710" 
d="M98 520v123h992v-123h-478q49 -131 163 -212t238 -81q243 0 382 191l207 -152q-94 -135 -245 -211t-329 -75q-248 0 -440 151q-188 152 -248 389h-242zM1090 881v-123h-992v123h240q59 240 248 391q188 156 442 155q174 1 324 -73t243 -205l-209 -150q-137 180 -358 181
q-141 0 -255 -82t-163 -217h480z" />
    <glyph glyph-name="uni2113" unicode="&#x2113;" horiz-adv-x="817" 
d="M670 0h-240q-297 0 -297 340v747q0 340 297 340q291 0 291 -350v-383q0 -176 -76 -258t-285 -82v-14q0 -66 24 -94t87 -31l199 -10v-205zM360 1075v-502l70 5q63 0 64 104v393q0 133 -64 133q-70 0 -70 -133z" />
    <glyph glyph-name="afii61352" unicode="&#x2116;" horiz-adv-x="2004" 
d="M1894 666h-518v122h518v-122zM1513 1149q0 -51 35 -88q37 -35 88 -35t87 36t36 87t-36 88t-87 37t-87 -37t-36 -88zM1364 1149q0 115 78 193t193 79q114 0 194 -80q80 -81 80 -193t-80 -192q-82 -78 -194 -78t-193 78q-78 78 -78 193zM1227 0h-238l-545 928v-928h-262
v1411h246l537 -917v917h262v-1411z" />
    <glyph glyph-name="trademark" unicode="&#x2122;" horiz-adv-x="1738" 
d="M530 1270v-617h-159v617h-242v141h774l236 -493l231 493h137l92 -758h-157l-58 488l-186 -404h-119l-188 404l-57 -488h-158l74 617h-220z" />
    <glyph glyph-name="estimated" unicode="&#x212e;" horiz-adv-x="1333" 
d="M365 639h632v334q-139 127 -325 127t-307 -127v-334zM1243 571h-878v-395q135 -129 297 -129q162 -1 260 63t184 197l63 -39q-96 -147 -210 -218t-283 -70q-242 0 -400 172q-156 174 -156 424t154 421q154 170 410 170t406 -174q153 -172 153 -422z" />
    <glyph glyph-name="minus" unicode="&#x2212;" horiz-adv-x="1085" 
d="M942 635v-195h-799v195h799z" />
    <glyph glyph-name="notequal" unicode="&#x2260;" horiz-adv-x="1249" 
d="M1094 276h-537l-106 -217h-144l107 217h-262v193h354l104 215h-458v193h553l102 206h145l-102 -206h244v-193h-338l-105 -215h443v-193z" />
    <glyph glyph-name="lessequal" unicode="&#x2264;" horiz-adv-x="1314" 
d="M1151 180v-180h-1008v180h1008zM1161 510v-215l-1032 393v213l1032 393v-215l-755 -284z" />
    <glyph glyph-name="greaterequal" unicode="&#x2265;" horiz-adv-x="1314" 
d="M164 0v180h1007v-180h-1007zM1186 901v-213l-1032 -393v215l755 285l-755 284v215z" />
    <glyph glyph-name="commaaccent" unicode="&#xf6c3;" horiz-adv-x="616" 
d="M274 -561l-131 59q67 96 91 175t20 212h219q-17 -299 -199 -446z" />
    <glyph glyph-name="rupiah" unicode="&#xf6dd;" horiz-adv-x="2379" 
d="M1548 475q0 -115 74 -187t180 -71q106 0 179 72q73 73 73 187t-73 188t-181 74t-180 -74t-72 -189zM1294 956h250v-129q37 68 119 109t180 41q191 0 329 -138q138 -137 138 -361t-136 -361t-331 -137q-98 0 -180 40t-119 107v-592h-250v1421zM410 502v-502h-263v1411h566
q221 0 334 -135q117 -134 117 -310t-93 -300q-88 -125 -266 -154l360 -512h-315l-332 502h-108zM700 1178h-290v-443h282q92 -1 146 63t53 156q0 92 -51 158q-52 66 -140 66z" />
    <glyph glyph-name="apple" unicode="&#xf8ff;" horiz-adv-x="1734" 
d="M1329 270v-108h17v67l45 -67h26v108h-26v-67l-45 67h-17zM1317 162v59h-45v-18h24q-8 -21 -22 -21t-24 10t-11 23q0 11 9 23q10 12 26 12t16 -21h27q-10 41 -45 41q-23 0 -37 -16t-14 -38t14 -38q15 -16 35 -16t26 14l9 -14h12zM1206 162v108h-14v-108h14zM1112 203h-18
q0 -41 45 -41t45 35q0 23 -33 29t-33 12q0 12 20 12t19 -12h21q0 32 -33 32t-44 -14q-20 -26 32 -49q25 0 24 -10q-1 -14 -23 -14t-22 20zM1087 250v20h-75v-108h82v20h-58v25h51v18h-51v25h51zM954 182h-16v68h8q35 0 35 -35q-1 -13 -9 -23t-18 -10zM954 270h-41v-108h41
q51 0 51 54t-51 54zM860 221h-26v29h26q18 0 19 -12q-1 -17 -19 -17zM872 270h-57v-108l-43 108h-18l-45 -108h24l8 26h45l7 -26h41v45h26q18 0 19 -19v-26h26q-6 6 -6 25t-14 28q14 6 14 23q0 32 -27 32zM760 244h6l14 -37h-32zM645 270v-20h35v-88h16v88h31v20h-82z
M582 203h-27q0 -41 45 -41t45 35q0 23 -32 29t-31 12q0 12 19 12t20 -12h18q0 32 -39 32t-39 -32q0 -16 33 -31q27 0 27 -12t-21 -13q-18 1 -18 21zM508 182q-12 0 -24 12t-11 22q0 10 10 22t25 12q25 0 25 -34t-25 -34zM555 215q0 55 -49 55t-49 -54t51 -54q23 0 35 16
t12 37zM336 270v-108h18v76l27 -76h20l23 76v-76h18v108h-28l-19 -73l-28 73h-31zM336 446h166l-152 154v365l522 -519l525 519v-365l-152 -154h172v773l-545 -539l-536 539v-773zM164 1407h1407v-1407h-1407v1407z" />
    <glyph glyph-name="NULL" horiz-adv-x="0" 
 />
    <glyph glyph-name="CR" horiz-adv-x="681" 
 />
    <glyph glyph-name="published" horiz-adv-x="1640" 
d="M229 702q0 -248 172 -422t418 -174t418 174t172 422t-172 423t-418 175t-418 -175t-172 -423zM104 702q0 299 207 512q209 213 508 213t508 -213t209 -513t-209 -511t-508 -211t-508 211q-207 213 -207 512zM748 907v-194h133q57 0 81 49t1 97t-78 48h-137zM748 573v-249
h-142v723h279q109 0 171 -68t62 -164t-60 -169t-173 -73h-137z" />
    <glyph glyph-name="frenchfranc" horiz-adv-x="1509" 
d="M1006 0h-242v635h-315v-635h-261v1411h854v-235h-593v-312h557v-223q72 246 256 246q119 0 176 -37l-43 -229q-63 33 -144 32q-246 0 -245 -405v-248z" />
    <glyph glyph-name="parenleft.case" horiz-adv-x="774" 
d="M86 698q0 424 175 692t444 267v-209q-164 0 -283 -220t-119 -528t119 -524q119 -217 283 -217v-207q-267 0 -443 261t-176 685z" />
    <glyph glyph-name="parenright.case" horiz-adv-x="774" 
d="M688 698q0 -424 -175 -685t-443 -261v207q162 0 282 218t119 522q0 305 -120 527t-281 222v209q268 1 443 -267t175 -692z" />
    <glyph glyph-name="hyphen.case" horiz-adv-x="976" 
d="M848 621h-719v208h719v-208z" />
    <glyph glyph-name="at.case" horiz-adv-x="1980" 
d="M1208 502v260q0 106 -72 177t-174 71q-101 0 -178 -72q-72 -72 -72 -174t72 -174q76 -72 172 -72t181 68v-187q-88 -49 -176 -49q-174 0 -295 120t-121 293t121 294q125 121 294 121q168 0 290 -114t128 -282v-293q0 -127 130 -127t184 154q41 123 41 272
q-1 297 -221 496t-526 199t-513 -213t-207 -516t207 -513t508 -210h59v-170h-59q-375 0 -630 259t-255 633t257 637t628 263q242 6 457 -109q215 -116 343 -318t124 -438q0 -203 -86 -387q-99 -206 -327 -206q-120 1 -202 77t-82 230z" />
    <glyph glyph-name="bracketleft.case" horiz-adv-x="679" 
d="M606 -236h-450v1876h450v-194h-229v-1485h229v-197z" />
    <glyph glyph-name="bracketright.case" horiz-adv-x="679" 
d="M74 1640h450v-1876h-450v197h229v1485h-229v194z" />
    <glyph glyph-name="braceleft.case" horiz-adv-x="833" 
d="M70 618v170q49 0 87 33t38 82v332q-1 182 117 294t292 111h160v-192h-166q-78 0 -132 -56t-54 -141v-313q0 -84 -39 -147t-101 -89q60 -25 100 -88t40 -145v-301q0 -84 55 -145t131 -62h166v-197h-160q-174 0 -292 112t-117 294v336q0 48 -37 80t-88 32z" />
    <glyph glyph-name="braceright.case" horiz-adv-x="833" 
d="M764 788v-170q-51 0 -88 -32t-37 -80v-336q0 -182 -119 -293q-115 -113 -291 -113h-159v197h166q76 -1 131 61t55 146v301q0 82 39 145t100 88q-61 24 -100 88t-39 148v313q0 85 -54 141t-132 56h-166v192h159q176 0 291 -112q119 -111 119 -293v-332q0 -49 37 -82
t88 -33z" />
    <glyph glyph-name="exclamdown.case" horiz-adv-x="573" 
d="M125 1274q0 66 47 111t114 45q66 0 114 -44t48 -112t-48 -112t-114 -44t-114 45q-47 45 -47 111zM395 997l39 -997h-293l39 997h215z" />
    <glyph glyph-name="guillemotleft.case" horiz-adv-x="1069" 
d="M748 283l-283 424l283 423h200l-282 -423l282 -424h-200zM385 283l-283 424l283 423h201l-283 -423l283 -424h-201z" />
    <glyph glyph-name="periodcentered.case" horiz-adv-x="569" 
d="M284 1026q66 0 114 -44t48 -112t-48 -112t-114 -43q-66 0 -114 45q-47 44 -47 110t47 111t114 45z" />
    <glyph glyph-name="guillemotright.case" horiz-adv-x="1069" 
d="M684 1130l283 -423l-283 -424h-201l283 424l-283 423h201zM322 1130l282 -423l-282 -424h-201l282 424l-282 423h201z" />
    <glyph glyph-name="questiondown.case" horiz-adv-x="1005" 
d="M600 1427q68 -1 115 -45t47 -111t-47 -112t-115 -45t-115 45t-47 112t47 111t115 45zM505 225q75 0 124 49t49 129h248q0 -195 -118 -311t-304 -117q-186 0 -307 110t-121 290q0 141 78 245t204 142q63 20 92 56q27 36 27 108l4 73h244l4 -73q0 -133 -49 -232
q-18 -34 -70 -72t-88 -57l-119 -59q-78 -35 -77 -133q0 -63 52 -105t127 -43z" />
    <glyph glyph-name="endash.case" horiz-adv-x="1271" 
d="M1141 600h-1010v221h1010v-221z" />
    <glyph glyph-name="emdash.case" horiz-adv-x="1703" 
d="M1573 600h-1442v221h1442v-221z" />
    <glyph glyph-name="bullet.case" horiz-adv-x="958" 
d="M160 717q0 131 92 219q94 88 228 88t226 -88t93 -219q0 -131 -92 -219q-93 -88 -227 -88t-228 88q-92 88 -92 219z" />
    <glyph glyph-name="guilsinglleft.case" horiz-adv-x="706" 
d="M385 283l-283 424l283 423h201l-283 -423l283 -424h-201z" />
    <glyph glyph-name="guilsinglright.case" horiz-adv-x="706" 
d="M322 1130l282 -423l-282 -424h-201l282 424l-282 423h201z" />
    <glyph glyph-name="cent.case" horiz-adv-x="1099" 
d="M508 1417h141v-213q227 -18 352 -184l-198 -150q-69 94 -187 94t-199 -70q-81 -72 -81 -184t80 -187t198 -75t189 97l201 -148q-129 -168 -355 -186v-231h-141v237q-180 33 -300 165t-120 327t118 325t302 164v219z" />
    <glyph glyph-name="zero.tnum" horiz-adv-x="1187" 
d="M350 672q0 -446 246 -447q242 0 242 447t-242 446q-246 0 -246 -446zM98 672q0 692 498 692q281 0 393 -205q98 -180 98 -486t-100 -491q-109 -202 -391 -202q-498 0 -498 692z" />
    <glyph glyph-name="one.tnum" horiz-adv-x="1187" 
d="M780 0h-252v1010l-225 -90v225l477 211v-1356z" />
    <glyph glyph-name="two.tnum" horiz-adv-x="1187" 
d="M1008 240v-240h-856v129l546 655q82 94 82 170t-54 120q-54 46 -137 46t-140 -54t-70 -140l-234 43q27 180 150 287q123 108 302 108t306 -115t127 -291t-143 -340l-332 -378h453z" />
    <glyph glyph-name="three.tnum" horiz-adv-x="1187" 
d="M420 596v223h143q84 -4 118 49q34 52 34 102t-30 93t-89 55q-131 16 -207 -82l-196 129q57 99 167 153t238 46q172 -10 280 -118t107 -257q0 -79 -45 -149t-121 -113q102 -39 168 -147t55 -218q-18 -182 -168 -288t-348 -92q-136 8 -248 85t-167 197l219 111
q31 -63 91 -107t141 -43t146 57t64 142q0 42 -28 88q-54 88 -181 84h-143z" />
    <glyph glyph-name="four.tnum" horiz-adv-x="1187" 
d="M1114 510v-219h-178v-291h-250v291h-661l667 1048h244v-829h178zM686 510v467l-297 -467h297z" />
    <glyph glyph-name="five.tnum" horiz-adv-x="1187" 
d="M555 227q127 0 206 67q79 66 79 170t-72 165t-186 61q-180 0 -308 -135l-143 86l113 698h762v-231h-562l-47 -274q85 72 263 72t304 -119q126 -117 126 -329t-146 -345t-389 -133q-139 0 -266 78t-199 204l211 131q41 -74 111 -120t143 -46z" />
    <glyph glyph-name="six.tnum" horiz-adv-x="1187" 
d="M655 864q168 0 292 -125t122 -322t-137 -319q-136 -122 -330 -118q-194 2 -323 129t-146 335q-6 127 -5 257t35 251t89 214q54 94 158 148t245 49t239 -65t163 -194l-232 -98q-59 122 -188 122t-196 -122t-56 -293q20 59 98 105t172 46zM464 284q58 -60 142 -62t144 58
q60 58 61 143q2 85 -55 145q-56 60 -140 62t-145 -56t-63 -144t56 -146z" />
    <glyph glyph-name="seven.tnum" horiz-adv-x="1187" 
d="M137 1104v235h981l-641 -1339h-287l531 1104h-584z" />
    <glyph glyph-name="eight.tnum" horiz-adv-x="1187" 
d="M199 1006q-1 142 113 250t281 108t279 -107q117 -105 117 -249t-100 -238q92 -53 144 -142t52 -194q0 -190 -144 -322t-348 -132t-348 132t-145 322q0 221 197 336q-98 94 -98 236zM571 664q-93 0 -157 -67t-64 -157t72 -156t171 -67q99 0 171 67q72 68 72 158t-68 156
t-160 66h-37zM595 846q67 0 107 42t41 101q0 59 -42 101q-41 42 -107 40q-66 0 -109 -41t-43 -100t43 -101t110 -42z" />
    <glyph glyph-name="nine.tnum" horiz-adv-x="1187" 
d="M532 479q-166 0 -290 125q-123 126 -121 322t135 317q136 121 332 118t323 -129t146 -333q6 -127 5 -257t-35 -252t-89 -215q-54 -93 -158 -147t-245 -48t-240 65q-98 59 -162 195l232 98q57 -123 187 -123t197 120t56 296q-20 -59 -98 -106q-79 -46 -175 -46zM784 911
q0 87 -58 147t-142 62t-144 -57t-61 -143q-2 -84 55 -144t141 -64q85 -3 145 55t64 144z" />
    <glyph glyph-name="zero.taboldstyle" horiz-adv-x="1187" 
d="M319 518q0 -133 83 -216t193 -83q109 0 193 84t84 216t-81 214q-82 82 -196 82t-195 -82t-81 -215zM1110 520q0 -238 -150 -388t-364 -150q-213 0 -365 150q-151 150 -151 388t150 386t365 149q214 0 363 -150q152 -147 152 -385z" />
    <glyph glyph-name="one.taboldstyle" horiz-adv-x="1187" 
d="M819 0h-252v684l-278 -125v246l530 254v-1059z" />
    <glyph glyph-name="two.taboldstyle" horiz-adv-x="1187" 
d="M993 227v-227h-819v135l481 492q70 63 70 108t-38 74t-99 29q-62 0 -104 -35t-50 -96l-244 32q18 154 126 244t279 90t286 -96t115 -230t-144 -272l-262 -248h403z" />
    <glyph glyph-name="six.taboldstyle" horiz-adv-x="1187" 
d="M655 864q168 0 292 -125t122 -322t-137 -319q-136 -122 -330 -118q-194 2 -323 129t-146 335q-6 127 -5 257t35 251t89 214q54 94 158 148t245 49t239 -65t163 -194l-232 -98q-59 122 -188 122t-196 -122t-56 -293q20 59 98 105t172 46zM464 284q58 -60 142 -62t144 58
q60 58 61 143q2 85 -55 145q-56 60 -140 62t-145 -56t-63 -144t56 -146z" />
    <glyph glyph-name="eight.taboldstyle" horiz-adv-x="1187" 
d="M199 1006q-1 142 113 250t281 108t279 -107q117 -105 117 -249t-100 -238q92 -53 144 -142t52 -194q0 -190 -144 -322t-348 -132t-348 132t-145 322q0 221 197 336q-98 94 -98 236zM571 664q-93 0 -157 -67t-64 -157t72 -156t171 -67q99 0 171 67q72 68 72 158t-68 156
t-160 66h-37zM595 846q67 0 107 42t41 101q0 59 -42 101q-41 42 -107 40q-66 0 -109 -41t-43 -100t43 -101t110 -42z" />
    <glyph glyph-name="three.taboldstyle" horiz-adv-x="1187" 
d="M424 209v223h143q84 -2 118 50t34 102t-30 92q-30 43 -89 55q-131 16 -207 -82l-196 129q57 98 167 152t238 47q172 -10 280 -118t107 -257q0 -80 -45 -150t-121 -112q102 -40 168 -148t56 -217q-18 -179 -170 -287t-347 -94q-136 8 -248 85t-167 198q12 4 108 55l111 56
q31 -62 91 -106t141 -44t146 56t64 143q0 42 -28 88q-54 88 -181 84h-143z" />
    <glyph glyph-name="four.taboldstyle" horiz-adv-x="1187" 
d="M1120 125v-219h-178v-291h-252v291h-661l667 1048h246v-829h178zM690 125v465l-297 -465h297z" />
    <glyph glyph-name="five.taboldstyle" horiz-adv-x="1187" 
d="M840 80q0 104 -71 165q-71 60 -187 60q-184 0 -308 -133l-143 86l113 696h762v-231h-562l-47 -274q85 73 263 73t304 -120t126 -332t-148 -342q-145 -133 -387 -134q-139 0 -266 78t-199 205l213 131q39 -74 108 -119t144 -45q129 0 207 66t78 170z" />
    <glyph glyph-name="seven.taboldstyle" horiz-adv-x="1187" 
d="M139 719v235h981l-643 -1339h-287l531 1104h-582z" />
    <glyph glyph-name="nine.taboldstyle" horiz-adv-x="1187" 
d="M539 94q-166 0 -291 125q-123 127 -121 323t135 316q136 121 332 118t323 -129t146 -333q6 -127 5 -257t-35 -252t-89 -215q-54 -93 -158 -147q-104 -55 -245 -49t-239 66t-163 195l232 98q59 -123 188 -123t196 120t56 296q-20 -60 -98 -106t-174 -46zM791 526
q-1 86 -59 146t-142 63q-84 2 -144 -57t-61 -143q-2 -85 55 -145q58 -60 142 -63t144 55t65 144z" />
    <glyph glyph-name="zero.oldstyle" horiz-adv-x="1228" 
d="M338 518q0 -133 82 -216t193 -83q110 0 194 84t84 215t-83 214t-196 83q-114 0 -194 -82t-80 -215zM614 -18q-212 0 -364 150t-152 388t152 385q150 150 364 150t363 -150q151 -147 151 -385t-150 -388t-364 -150z" />
    <glyph glyph-name="one.oldstyle" horiz-adv-x="776" 
d="M614 0h-249v684l-281 -125v246l530 254v-1059z" />
    <glyph glyph-name="two.oldstyle" horiz-adv-x="1069" 
d="M936 227v-227h-819v135l481 492q68 65 68 109t-37 73t-99 29t-103 -35q-42 -35 -50 -96l-244 32q16 154 125 244t280 90q170 0 284 -95t114 -231t-143 -272l-263 -248h406z" />
    <glyph glyph-name="three.oldstyle" horiz-adv-x="1079" 
d="M371 209v223h143q84 -2 118 50t34 102t-30 92q-30 43 -89 55q-131 16 -207 -82l-197 129q57 98 167 152t239 47q171 -10 279 -118t108 -257q0 -80 -45 -150t-121 -112q102 -40 168 -148t55 -217q-18 -179 -170 -287t-346 -94q-135 8 -248 85t-168 198q12 4 109 55l111 56
q31 -62 91 -106t141 -44t145 56t65 143q1 42 -27 88q-54 88 -182 84h-143z" />
    <glyph glyph-name="four.oldstyle" horiz-adv-x="1200" 
d="M1126 125v-219h-178v-291h-252v291h-659l665 1048h246v-829h178zM696 125v465l-297 -465h297z" />
    <glyph glyph-name="five.oldstyle" 
d="M829 78q0 104 -71 166q-72 61 -187 61q-182 0 -309 -135l-141 86l112 698h760v-233h-559l-49 -272q94 72 248 71q193 0 319 -120t125 -330q0 -210 -146 -342q-146 -133 -388 -134q-139 0 -267 78q-127 78 -198 205q16 8 108 68l105 63q39 -76 109 -121t143 -45
q129 0 208 66q78 66 78 170z" />
    <glyph glyph-name="six.oldstyle" horiz-adv-x="1173" 
d="M649 864q168 0 292 -125t122 -322t-137 -319q-136 -122 -330 -118q-194 2 -324 129q-129 127 -145 335q-6 127 -5 257t35 251t89 214q55 94 158 148q102 54 244 49t240 -65t163 -194l-232 -98q-59 122 -188 122t-196 -122t-56 -293q20 59 98 105t172 46zM399 430
q1 -86 59 -146t142 -62t144 58q60 58 61 143q2 85 -55 145q-56 60 -140 62t-145 -56t-66 -144z" />
    <glyph glyph-name="seven.oldstyle" horiz-adv-x="1060" 
d="M76 719v235h981l-641 -1339h-287l530 1104h-583z" />
    <glyph glyph-name="eight.oldstyle" horiz-adv-x="1196" 
d="M203 1006q-1 142 113 250t281 108t280 -107q117 -105 117 -249t-101 -238q92 -53 144 -142t53 -194q0 -190 -144 -322t-349 -132q-204 0 -348 132t-145 322q0 221 197 336q-98 94 -98 236zM575 664q-93 0 -157 -67t-64 -157t72 -156t171 -67q99 0 171 67q72 68 72 158
t-68 156t-160 66h-37zM748 989q0 59 -42 101t-108 40q-66 0 -109 -41t-43 -100t43 -101t110 -42t108 42t41 101z" />
    <glyph glyph-name="nine.oldstyle" horiz-adv-x="1134" 
d="M512 94q-166 0 -291 125q-123 127 -121 323t136 316q135 121 331 118q195 -3 323 -129t146 -333q6 -127 5 -257t-35 -252t-88 -215t-158 -147q-104 -55 -246 -49t-240 66t-161 195l231 98q57 -123 187 -123t197 120t56 296q-20 -60 -98 -106t-174 -46zM764 526
q0 86 -58 146t-142 63q-84 2 -144 -57t-62 -143q-2 -85 56 -145t141 -63q85 -3 145 55t64 144z" />
    <glyph glyph-name="Lslash.sc" horiz-adv-x="888" 
d="M408 1171v-364l161 102v-149l-161 -103v-448h446v-209h-676v514l-119 -72v150l119 74v505h230z" />
    <glyph glyph-name="Zcaron.sc" horiz-adv-x="1052" 
d="M96 0v178l555 789h-530v204h825v-176l-557 -788h557v-207h-850zM403 1575l127 -143l129 143h172l-192 -285h-215l-193 285h172z" />
    <glyph glyph-name="exclam.sc" horiz-adv-x="593" 
d="M434 115q0 -57 -41 -97t-99 -38q-58 0 -99 38t-41 96t40 96t99 38t100 -38t41 -95zM397 340h-198l-33 827h264z" />
    <glyph glyph-name="ampersand.sc" horiz-adv-x="1196" 
d="M729 438v99h-170q-211 0 -225 -162q-2 -80 53 -131t141 -51t144 66q57 66 57 179zM530 715h199v137h205v-139h139v-176h-139v-187q0 -100 34 -137t130 -37v-194q-135 2 -210 30t-106 99q-36 -59 -116 -95t-162 -36q-174 0 -287 100t-113 258q0 217 177 301
q-113 57 -113 221q0 125 97 222t235 98q207 0 321 -164l-182 -115q-53 66 -113 66t-94 -34q-35 -34 -35 -79q-1 -45 29 -92t104 -47z" />
    <glyph glyph-name="question.sc" horiz-adv-x="874" 
d="M354 248q60 0 100 -38t40 -96t-41 -96t-99 -38t-100 39q-41 39 -41 96t41 95t100 38zM432 969q-59 -1 -99 -39t-42 -99h-211q0 165 97 261t255 96t258 -90t100 -226t-64 -224q-65 -87 -171 -120q-43 -12 -66 -36t-24 -52l-8 -102h-213l-2 63q0 129 50 204t163 116
q67 25 93 55t26 79q0 48 -42 81q-41 33 -100 33z" />
    <glyph glyph-name="A.sc" horiz-adv-x="1167" 
d="M1143 0h-242l-104 281h-424l-107 -281h-241l438 1171h242zM582 899l-136 -418h275z" />
    <glyph glyph-name="B.sc" horiz-adv-x="1128" 
d="M647 512h-252v-307h256q61 0 102 46q40 46 40 107t-41 108q-42 46 -105 46zM395 967v-258h217q53 1 86 37t33 94t-33 93q-33 34 -92 34h-211zM629 1171q158 1 249 -85t91 -240t-142 -219q95 -29 149 -107t54 -166q0 -152 -101 -253t-265 -101h-496v1171h461z" />
    <glyph glyph-name="C.sc" horiz-adv-x="1228" 
d="M96 580q0 252 170 428q172 176 424 176q293 0 475 -238l-182 -131q-121 152 -285 152t-268 -113q-104 -112 -104 -272t104 -273t260 -112q182 -1 297 159l182 -133q-81 -113 -207 -179t-272 -64q-250 0 -422 174t-172 426z" />
    <glyph glyph-name="D.sc" horiz-adv-x="1257" 
d="M395 963v-754h232q139 0 220 104q81 103 81 271t-79 273t-222 106h-232zM627 0h-459v1171h459q248 1 389 -163t141 -423t-141 -422t-389 -163z" />
    <glyph glyph-name="E.sc" horiz-adv-x="1021" 
d="M168 0v1171h729v-204h-504v-287h443v-205h-443v-270h518v-205h-743z" />
    <glyph glyph-name="F.sc" horiz-adv-x="954" 
d="M168 0v1171h721v-204h-494v-287h391v-205h-391v-475h-227z" />
    <glyph glyph-name="G.sc" horiz-adv-x="1327" 
d="M693 969q-155 0 -262 -114q-107 -113 -107 -275t106 -275t262 -112q117 -1 210 63t95 162h-317v190h577q0 -309 -148 -469q-149 -159 -407 -159t-433 175t-175 426t172 427q176 176 430 176t424 -185l-164 -145h-4q-104 115 -259 115z" />
    <glyph glyph-name="H.sc" horiz-adv-x="1243" 
d="M846 1171h229v-1171h-229v479h-453v-479h-225v1171h225v-485h453v485z" />
    <glyph glyph-name="I.sc" horiz-adv-x="561" 
d="M168 0v1171h225v-1171h-225z" />
    <glyph glyph-name="J.sc" horiz-adv-x="563" 
d="M9 -188q159 0 159 176v1183h227v-1183q0 -182 -95 -288t-284 -106q-69 0 -161 27l20 209q51 -18 134 -18z" />
    <glyph glyph-name="K.sc" horiz-adv-x="1069" 
d="M397 0h-229v1171h229v-407l303 407h269l-447 -581l551 -590h-297l-379 420v-420z" />
    <glyph glyph-name="L.sc" horiz-adv-x="876" 
d="M168 0v1171h227v-966h447v-205h-674z" />
    <glyph glyph-name="M.sc" horiz-adv-x="1605" 
d="M436 1171l365 -774l366 774h195l141 -1171h-227l-88 739l-293 -608h-180l-297 608l-90 -739h-228l144 1171h192z" />
    <glyph glyph-name="N.sc" horiz-adv-x="1206" 
d="M1038 1171v-1171h-207l-438 745v-745h-225v1171h209l432 -733v733h229z" />
    <glyph glyph-name="O.sc" horiz-adv-x="1380" 
d="M1059 581q0 155 -109 267q-110 112 -262 110q-152 0 -258 -110t-106 -267t104 -268q110 -109 262 -109t260 112q108 110 109 265zM96 582q0 250 172 426t422 176t423 -175t173 -427t-175 -427t-423 -175t-420 176t-172 426z" />
    <glyph glyph-name="P.sc" horiz-adv-x="1085" 
d="M395 967v-351h238q100 -4 141 85t1 179t-134 87h-246zM168 0v1171h477q185 -1 281 -113t96 -268t-96 -266q-96 -111 -281 -110h-250v-414h-227z" />
    <glyph glyph-name="Q.sc" horiz-adv-x="1386" 
d="M1063 580q1 160 -107 274t-264 113q-156 0 -262 -113q-106 -112 -106 -268t94 -257t244 -124h69l-102 164l168 102l118 -192q68 51 108 133t40 168zM94 581q0 251 172 427q176 176 426 176t425 -175t175 -429q0 -146 -70 -276t-188 -216l115 -188l-168 -105l-127 207
q-84 -23 -162 -22q-248 0 -423 175t-175 426z" />
    <glyph glyph-name="R.sc" horiz-adv-x="1124" 
d="M395 967v-351h226q98 -4 139 85t2 179t-133 87h-234zM395 414v-414h-227v1171h471q182 0 281 -112q98 -113 98 -259t-77 -248t-216 -130l299 -422h-276l-275 414h-78z" />
    <glyph glyph-name="S.sc" horiz-adv-x="1030" 
d="M100 348h230q2 -70 55 -116t135 -46t133 37t55 94q9 114 -155 154l-143 41q-297 80 -297 328q1 152 117 248t285 96t278 -98t108 -263h-225q0 68 -46 110t-119 42t-122 -38t-49 -93q0 -90 135 -127l141 -41q168 -45 248 -142t74 -221q-10 -157 -130 -245t-296 -88
t-295 106q-117 106 -117 262z" />
    <glyph glyph-name="T.sc" horiz-adv-x="976" 
d="M47 965v206h883v-206h-326v-965h-231v965h-326z" />
    <glyph glyph-name="U.sc" horiz-adv-x="1204" 
d="M821 412v759h228v-759q0 -193 -132 -313q-133 -119 -315 -119t-314 120t-132 312v759h231v-759q-1 -92 63 -154t153 -61q89 0 154 61q64 62 64 154z" />
    <glyph glyph-name="V.sc" horiz-adv-x="1034" 
d="M57 1171h238l221 -786l221 786h240l-356 -1171h-205z" />
    <glyph glyph-name="W.sc" horiz-adv-x="1576" 
d="M1051 397l245 774h246l-399 -1171h-182l-173 631l-172 -631h-182l-397 1171h246l243 -776l172 617h183z" />
    <glyph glyph-name="X.sc" horiz-adv-x="1155" 
d="M1079 1171l-368 -544l409 -627h-270l-275 436l-270 -436h-270l405 627l-366 544h274l227 -360l234 360h270z" />
    <glyph glyph-name="Y.sc" horiz-adv-x="1171" 
d="M700 0h-231v532l-451 639h271l295 -440l297 440h276l-457 -639v-532z" />
    <glyph glyph-name="Z.sc" horiz-adv-x="1052" 
d="M96 0v178l555 789h-530v204h825v-176l-557 -788h557v-207h-850z" />
    <glyph glyph-name="Scaron.sc" horiz-adv-x="1030" 
d="M520 186q82 0 133 37t55 94q9 114 -155 154l-143 41q-297 80 -297 328q1 152 117 248t285 96t278 -98t108 -263h-225q0 68 -46 110t-119 42t-122 -38t-49 -93q0 -90 135 -127l141 -41q168 -45 248 -142t74 -221q-10 -157 -130 -245t-296 -88t-295 106q-117 106 -117 262
h230q2 -70 55 -116t135 -46zM379 1575l129 -143l129 143h172l-195 -285h-215l-190 285h170z" />
    <glyph glyph-name="OE.sc" horiz-adv-x="1910" 
d="M322 582q0 -158 108 -267t260 -109t258 114q106 112 107 266q-4 154 -111 260q-106 110 -257 110t-258 -108t-107 -266zM1055 1171h731v-206h-502v-285h438v-207h-438v-264h516v-209h-745v125q-162 -145 -367 -145q-250 0 -422 176t-172 426t172 426t407 176t382 -148
v135z" />
    <glyph glyph-name="Ydieresis.sc" horiz-adv-x="1171" 
d="M700 0h-231v532l-451 639h271l295 -440l297 440h276l-457 -639v-532zM724 1565q50 0 85 -33t35 -83t-35 -83t-85 -33t-86 34t-36 83t36 82t86 33zM549 1449q0 -50 -34 -83t-85 -33t-87 34t-36 83t36 82t87 33t85 -33t34 -83z" />
    <glyph glyph-name="exclamdown.sc" horiz-adv-x="593" 
d="M434 1053q0 -57 -41 -95t-100 -38t-99 38t-40 96t41 96t99 38t99 -39t41 -96zM199 827h198l33 -827h-264z" />
    <glyph glyph-name="questiondown.sc" horiz-adv-x="874" 
d="M521 1188q57 0 99 -39t42 -96t-41 -95t-101 -38t-99 38q-40 38 -40 96t41 96t99 38zM301 312q0 -48 42 -81t100 -33t99 39q40 38 42 99h211q1 -164 -97 -260t-255 -96t-259 90q-100 92 -100 227t64 222q65 87 156 114t104 92l10 104h213l2 -63q0 -129 -50 -204t-163 -116
q-66 -26 -92 -56t-27 -78z" />
    <glyph glyph-name="Agrave.sc" horiz-adv-x="1167" 
d="M1143 0h-242l-104 281h-424l-107 -281h-241l438 1171h242zM582 899l-136 -418h275zM684 1292h-174l-242 285h232z" />
    <glyph glyph-name="Aacute.sc" horiz-adv-x="1167" 
d="M797 281h-424l-107 -281h-241l438 1171h242l438 -1171h-242zM721 481l-139 418l-136 -418h275zM670 1573h229l-240 -287h-176z" />
    <glyph glyph-name="Acircumflex.sc" horiz-adv-x="1167" 
d="M1143 0h-242l-104 281h-424l-107 -281h-241l438 1171h242zM582 899l-136 -418h275zM877 1294h-175l-127 146l-129 -146h-170l193 287h213z" />
    <glyph glyph-name="Atilde.sc" horiz-adv-x="1167" 
d="M1143 0h-242l-104 281h-424l-107 -281h-241l438 1171h242zM582 899l-136 -418h275zM505 1397q-17 1 -29 -19t-11 -53h-131q6 99 47 155t100 64q37 2 89 -32t72 -34q41 1 46 68h131q-6 -109 -54 -164t-116 -55q-33 0 -80 35t-64 35z" />
    <glyph glyph-name="Adieresis.sc" horiz-adv-x="1167" 
d="M797 281h-424l-107 -281h-241l438 1171h242l438 -1171h-242zM721 481l-139 418l-136 -418h275zM711 1565q51 0 85 -33t35 -83q-1 -50 -35 -83t-85 -33t-87 34t-36 83t36 82t87 33zM417 1565q50 0 85 -33t35 -82t-35 -83t-85 -34t-87 34t-37 83t37 82t87 33z" />
    <glyph glyph-name="Aring.sc" horiz-adv-x="1167" 
d="M797 281h-424l-107 -281h-241l438 1171h242l438 -1171h-242zM721 481l-139 418l-136 -418h275zM664 1483q0 35 -27 61t-62 27q-35 0 -61 -27q-26 -28 -25 -62t25 -58t60 -25q36 1 63 25t27 59zM776 1484q0 -84 -58 -142t-144 -58t-142 58q-57 58 -57 142q0 85 57 143
q57 59 142 59q86 0 144 -58t58 -144z" />
    <glyph glyph-name="AE.sc" horiz-adv-x="1642" 
d="M788 496v354l-204 -354h204zM788 274h-335l-177 -274h-272l741 1171h773v-206h-502v-285h438v-207h-438v-264h518v-209h-746v274z" />
    <glyph glyph-name="Ccedilla.sc" horiz-adv-x="1230" 
d="M690 1186q293 0 475 -238l-182 -131q-115 152 -282 152t-271 -114q-104 -113 -104 -271t104 -271t260 -112q186 0 297 157l182 -133q-158 -215 -424 -239l21 -42t30 -62t13 -64q0 -74 -53 -126t-130 -52t-129 60t-51 155l134 -7q0 -60 24 -72q24 -11 45 -3q41 16 25 69
l-53 144q-225 25 -377 194q-148 170 -148 412t170 418q172 176 424 176z" />
    <glyph glyph-name="Egrave.sc" horiz-adv-x="1021" 
d="M670 1292h-176l-244 285h233zM168 0v1171h729v-204h-504v-287h443v-205h-443v-270h518v-205h-743z" />
    <glyph glyph-name="Eacute.sc" horiz-adv-x="1021" 
d="M897 1171v-204h-504v-287h443v-205h-443v-270h518v-205h-743v1171h729zM561 1577h234l-244 -285h-174z" />
    <glyph glyph-name="Ecircumflex.sc" horiz-adv-x="1021" 
d="M805 1294h-170l-129 146l-129 -146h-170l190 287h215zM168 0v1171h729v-204h-504v-287h443v-205h-443v-270h518v-205h-743z" />
    <glyph glyph-name="Edieresis.sc" horiz-adv-x="1021" 
d="M897 1171v-204h-504v-287h443v-205h-443v-270h518v-205h-743v1171h729zM532 1449q0 50 36 83t87 33t86 -33t35 -82t-35 -83t-86 -34t-87 33t-36 83zM240 1449q0 50 35 83t87 33t87 -33t35 -82t-36 -83q-34 -34 -85 -34t-88 33q-35 33 -35 83z" />
    <glyph glyph-name="Igrave.sc" horiz-adv-x="561" 
d="M389 1292h-176l-244 285h234zM168 0v1171h225v-1171h-225z" />
    <glyph glyph-name="Iacute.sc" horiz-adv-x="561" 
d="M393 1171v-1171h-225v1171h225zM164 1311l192 272h236l-248 -272h-180z" />
    <glyph glyph-name="Icircumflex.sc" horiz-adv-x="561" 
d="M582 1294h-170l-129 146l-129 -146h-170l190 287h215zM168 0v1171h225v-1171h-225z" />
    <glyph glyph-name="Idieresis.sc" horiz-adv-x="561" 
d="M307 1449q0 50 36 83t87 33t86 -33t35 -82t-35 -83t-86 -34t-87 33t-36 83zM14 1449q0 50 36 83t87 33t86 -33t35 -82t-35 -83t-86 -34t-87 33t-36 83zM393 1171v-1171h-225v1171h225z" />
    <glyph glyph-name="Eth.sc" horiz-adv-x="1269" 
d="M412 958v-311h231v-147h-231v-287h229q139 0 219 102q80 103 80 269t-80 270t-219 104h-229zM641 0h-457v500h-157v147h157v524h457q246 0 385 -165q141 -162 141 -421t-139 -422t-387 -163z" />
    <glyph glyph-name="Ntilde.sc" horiz-adv-x="1206" 
d="M676 1327q-32 0 -80 35t-65 35q-17 1 -28 -19t-11 -53h-134q6 109 54 165t116 56q33 0 79 -34q47 -34 61 -34q46 2 45 68h131q-4 -109 -52 -164t-116 -55zM1038 1171v-1171h-207l-438 745v-745h-225v1171h209l432 -733v733h229z" />
    <glyph glyph-name="Ograve.sc" horiz-adv-x="1380" 
d="M1059 581q0 155 -109 267q-110 112 -262 110q-152 0 -258 -110t-106 -267t104 -268q110 -109 262 -109t260 112q108 110 109 265zM96 582q0 250 172 426t422 176t423 -175t173 -427t-175 -427t-423 -175t-420 176t-172 426zM756 1292h-174l-244 285h231z" />
    <glyph glyph-name="Oacute.sc" horiz-adv-x="1380" 
d="M1059 581q0 155 -109 267q-110 112 -262 110q-152 0 -258 -110t-106 -267t104 -268q110 -109 262 -109t260 112q108 110 109 265zM96 582q0 250 172 426t422 176t423 -175t173 -427t-175 -427t-423 -175t-420 176t-172 426zM786 1577h234l-244 -285h-174z" />
    <glyph glyph-name="Ocircumflex.sc" horiz-adv-x="1380" 
d="M1059 581q0 155 -109 267q-110 112 -262 110q-152 0 -258 -110t-106 -267t104 -268q110 -109 262 -109t260 112q108 110 109 265zM96 582q0 250 172 426t422 176t423 -175t173 -427t-175 -427t-423 -175t-420 176t-172 426zM989 1294h-170l-131 148l-125 -148h-172
l193 287h213z" />
    <glyph glyph-name="Otilde.sc" horiz-adv-x="1380" 
d="M620 1397q-40 0 -40 -72h-131q6 109 53 165t114 56q35 0 81 -34q45 -34 63 -34q38 1 43 68h129q-4 -109 -52 -164t-116 -55q-31 0 -78 35q-48 35 -66 35zM1059 581q0 155 -109 267q-110 112 -262 110q-152 0 -258 -110t-106 -267t104 -268q110 -109 262 -109t260 112
q108 110 109 265zM96 582q0 250 172 426t422 176t423 -175t173 -427t-175 -427t-423 -175t-420 176t-172 426z" />
    <glyph glyph-name="Odieresis.sc" horiz-adv-x="1380" 
d="M1059 581q0 155 -109 267q-110 112 -262 110q-152 0 -258 -110t-106 -267t104 -268q110 -109 262 -109t260 112q108 110 109 265zM96 582q0 250 172 426t422 176t423 -175t173 -427t-175 -427t-423 -175t-420 176t-172 426zM717 1449q0 50 35 83t86 33t86 -33
q34 -33 34 -83t-34 -83t-86 -33q-51 0 -86 33t-35 83zM544 1565q50 0 85 -33t35 -82t-35 -83t-85 -34t-86 34t-36 83t36 82t86 33z" />
    <glyph glyph-name="Oslash.sc" horiz-adv-x="1378" 
d="M686 205q154 1 262 111t109 248q0 138 -68 235l-512 -529q90 -65 209 -65zM322 594q0 -144 69 -238l514 531q-100 72 -219 71q-154 0 -259 -110t-105 -254zM94 598q0 234 172 410t404 176t393 -135l135 137l86 -86l-135 -137q135 -172 135 -383q0 -250 -175 -425
t-423 -175q-197 -1 -367 126l-135 -139l-86 88l133 140q-137 169 -137 403z" />
    <glyph glyph-name="Ugrave.sc" horiz-adv-x="1204" 
d="M821 412v759h228v-759q0 -193 -132 -313q-133 -119 -315 -119t-314 120t-132 312v759h231v-759q-1 -92 63 -154t153 -61q89 0 154 61q64 62 64 154zM737 1292h-174l-241 285h231z" />
    <glyph glyph-name="Uacute.sc" horiz-adv-x="1204" 
d="M821 412v759h228v-759q0 -193 -132 -313q-133 -119 -315 -119t-314 120t-132 312v759h231v-759q-1 -92 63 -154t153 -61q89 0 154 61q64 62 64 154zM647 1577h230l-242 -285h-176z" />
    <glyph glyph-name="Ucircumflex.sc" horiz-adv-x="1204" 
d="M821 412v759h228v-759q0 -193 -132 -313q-133 -119 -315 -119t-314 120t-132 312v759h231v-759q-1 -92 63 -154t153 -61q89 0 154 61q64 62 64 154zM901 1294h-172l-129 148l-127 -148h-172l193 287h213z" />
    <glyph glyph-name="Udieresis.sc" horiz-adv-x="1204" 
d="M821 412v759h228v-759q0 -193 -132 -313q-133 -119 -315 -119t-314 120t-132 312v759h231v-759q-1 -92 63 -154t153 -61q89 0 154 61q64 62 64 154zM750 1565q52 0 86 -33t34 -83t-34 -83t-86 -33q-51 0 -87 34t-36 83t36 82t87 33zM456 1565q50 0 84 -33t34 -83t-34 -83
t-84 -33t-87 34t-37 83t37 82t87 33z" />
    <glyph glyph-name="Yacute.sc" horiz-adv-x="1171" 
d="M639 1577h233l-243 -285h-174zM700 0h-231v532l-451 639h271l295 -440l297 440h276l-457 -639v-532z" />
    <glyph glyph-name="Thorn.sc" horiz-adv-x="1017" 
d="M395 778v-358h174q66 0 112 50t46 128t-46 127t-114 53h-172zM578 221h-183v-221h-227v1171h227v-194h183q160 -1 267 -103t107 -273t-107 -275t-267 -105z" />
    <glyph glyph-name="Amacron.sc" horiz-adv-x="1167" 
d="M1143 0h-242l-104 281h-424l-107 -281h-241l438 1171h242zM582 899l-136 -418h275zM344 1360v151h465v-151h-465z" />
    <glyph glyph-name="Abreve.sc" horiz-adv-x="1167" 
d="M797 281h-424l-107 -281h-241l438 1171h242l438 -1171h-242zM721 481l-139 418l-136 -418h275zM346 1542h150q0 -92 79 -92q37 0 59 27t21 65h152q1 -104 -63 -166t-171 -63q-107 1 -167 65t-60 164z" />
    <glyph glyph-name="Cacute.sc" horiz-adv-x="1228" 
d="M96 580q0 252 170 428q172 176 424 176q293 0 475 -238l-182 -131q-121 152 -285 152t-268 -113q-104 -112 -104 -272t104 -273t260 -112q182 0 297 159l182 -133q-81 -113 -207 -179t-272 -64q-250 0 -422 174t-172 426zM760 1577h231l-241 -285h-177z" />
    <glyph glyph-name="Ccircumflex.sc" horiz-adv-x="1228" 
d="M96 580q0 252 170 428q172 176 424 176q293 0 475 -238l-182 -131q-121 152 -285 152t-268 -113q-104 -112 -104 -272t104 -273t260 -112q182 -1 297 159l182 -133q-81 -113 -207 -179t-272 -64q-250 0 -422 174t-172 426zM983 1294h-170l-129 146l-129 -146h-170
l193 287h213z" />
    <glyph glyph-name="Cdotaccent.sc" horiz-adv-x="1228" 
d="M96 580q0 252 170 428q172 176 424 176q293 0 475 -238l-182 -131q-121 152 -285 152t-268 -113q-104 -112 -104 -272t104 -273t260 -112q182 0 297 159l182 -133q-81 -113 -207 -179t-272 -64q-250 0 -422 174t-172 426zM547 1461q0 52 37 87t90 35t91 -35t38 -87
t-37 -87t-91 -35t-91 35t-37 87z" />
    <glyph glyph-name="Ccaron.sc" horiz-adv-x="1228" 
d="M569 1575l129 -143l129 143h172l-194 -285h-215l-191 285h170zM96 580q0 252 170 428q172 176 424 176q293 0 475 -238l-182 -131q-121 152 -285 152t-268 -113q-104 -112 -104 -272t104 -273t260 -112q182 0 297 159l182 -133q-81 -113 -207 -179t-272 -64
q-250 0 -422 174t-172 426z" />
    <glyph glyph-name="Dcaron.sc" horiz-adv-x="1257" 
d="M627 209q139 0 220 104q81 103 81 271t-79 273t-222 106h-232v-754h232zM168 0v1171h459q248 1 389 -163t141 -423t-141 -422t-389 -163h-459zM496 1575l127 -143l131 143h172l-195 -285h-215l-192 285h172z" />
    <glyph glyph-name="Aogonek.sc" horiz-adv-x="1167" 
d="M723 481l-139 416l-138 -416h277zM1008 -360q-78 0 -130 52t-53 126q0 29 17 78l57 110l-102 275h-424l-107 -281h-241l438 1171h242l438 -1171h-131l-51 -158q-14 -55 26 -69q31 -11 53 17t15 58l131 7q2 -95 -49 -155t-129 -60z" />
    <glyph glyph-name="Emacron.sc" horiz-adv-x="1021" 
d="M285 1360v151h463v-151h-463zM168 0v1171h729v-204h-504v-287h443v-205h-443v-270h518v-205h-743z" />
    <glyph glyph-name="Ebreve.sc" horiz-adv-x="1021" 
d="M897 1171v-204h-504v-287h443v-205h-443v-270h518v-205h-743v1171h729zM274 1542h150q0 -92 82 -92q37 0 57 26t21 66h151q0 -104 -62 -166q-61 -62 -167 -63t-169 65t-63 164z" />
    <glyph glyph-name="Edotaccent.sc" horiz-adv-x="1021" 
d="M897 1171v-204h-504v-287h443v-205h-443v-270h518v-205h-743v1171h729zM401 1461q0 52 38 87t91 35q52 0 90 -35t38 -87t-38 -87q-36 -35 -90 -35t-92 35q-37 35 -37 87z" />
    <glyph glyph-name="Ecaron.sc" horiz-adv-x="1021" 
d="M381 1575l129 -143l129 143h172l-195 -285h-215l-190 285h170zM897 1171v-204h-504v-287h443v-205h-443v-270h518v-205h-743v1171h729z" />
    <glyph glyph-name="Gcircumflex.sc" horiz-adv-x="1327" 
d="M969 1294h-172l-129 148l-127 -148h-172l192 287h213zM693 969q-155 0 -262 -114q-107 -113 -107 -275t106 -275t262 -112q117 -1 210 63t95 162h-317v190h577q0 -309 -148 -469q-149 -159 -407 -159t-433 175t-175 426t172 427q176 176 430 176t424 -185l-164 -145h-4
q-104 115 -259 115z" />
    <glyph glyph-name="Gbreve.sc" horiz-adv-x="1327" 
d="M438 1542h150q0 -92 82 -92q37 0 57 26t21 66h151q0 -104 -62 -166q-61 -62 -167 -63t-169 65t-63 164zM693 969q-155 0 -262 -114q-107 -113 -107 -275t106 -275t262 -112q117 -1 210 63t95 162h-317v190h577q0 -309 -148 -469q-149 -159 -407 -159t-433 175t-175 426
t172 427q176 176 430 176t424 -185l-164 -145h-4q-104 115 -259 115z" />
    <glyph glyph-name="Eogonek.sc" horiz-adv-x="1021" 
d="M168 0v1171h729v-204h-504v-287h443v-205h-443v-270h518v-203l-59 -154q-23 -53 25 -69q33 -15 54 17t13 59l133 6q2 -97 -49 -155t-129 -58t-130 52t-52 116t14 90l55 94h-618z" />
    <glyph glyph-name="Dcroat.sc" horiz-adv-x="1269" 
d="M412 958v-307h231v-153h-231v-285h229q139 0 219 102q80 103 80 269t-80 270t-219 104h-229zM641 0h-457v498h-157v153h157v520h457q246 0 385 -165q141 -162 141 -421t-139 -422t-387 -163z" />
    <glyph glyph-name="Gdotaccent.sc" horiz-adv-x="1327" 
d="M561 1461q0 52 38 87t91 35t90 -35t37 -87t-37 -87t-91 -35t-91 35t-37 87zM693 969q-155 0 -262 -114q-107 -113 -107 -275t106 -275t262 -112q117 -1 210 63t95 162h-317v190h577q0 -309 -148 -469q-149 -159 -407 -159t-433 175t-175 426t172 427q176 176 430 176
t424 -185l-164 -145h-4q-104 115 -259 115z" />
    <glyph glyph-name="Hcircumflex.sc" horiz-adv-x="1243" 
d="M920 1294h-170l-129 146l-127 -146h-172l192 287h213zM846 1171h229v-1171h-229v479h-453v-479h-225v1171h225v-485h453v485z" />
    <glyph glyph-name="Hbar.sc" horiz-adv-x="1265" 
d="M406 866v-180h452v180h-452zM1087 1171v-180h121v-125h-121v-866h-229v479h-452v-479h-228v866h-119v125h119v180h228v-180h452v180h229z" />
    <glyph glyph-name="Itilde.sc" horiz-adv-x="561" 
d="M168 0v1171h225v-1171h-225zM210 1397q-16 1 -28 -19t-12 -53h-131q6 109 53 165t115 56q35 0 80 -34t63 -34q39 1 43 68h131q-6 -109 -54 -164t-116 -55q-33 0 -80 35t-64 35z" />
    <glyph glyph-name="Imacron.sc" horiz-adv-x="561" 
d="M49 1360v151h465v-151h-465zM168 0v1171h225v-1171h-225z" />
    <glyph glyph-name="Iogonek.sc" horiz-adv-x="561" 
d="M168 1171h225v-1171h-108l-56 -158q-14 -55 21 -68q34 -12 56 16t16 58l133 7q1 -95 -51 -155t-129 -60t-130 52t-53 112t17 96l59 108v1163z" />
    <glyph glyph-name="IJ.sc" horiz-adv-x="1124" 
d="M570 -188q158 0 159 176v1183h227v-1183q0 -182 -95 -288t-283 -106q-74 0 -162 27l20 209q50 -18 134 -18zM168 0v1171h225v-1171h-225z" />
    <glyph glyph-name="Jcircumflex.sc" horiz-adv-x="563" 
d="M9 -188q159 0 159 176v1183h227v-1183q0 -182 -95 -288t-284 -106q-69 0 -161 27l20 209q51 -18 134 -18zM578 1294h-172l-130 146l-126 -146h-173l193 287h213z" />
    <glyph glyph-name="Lacute.sc" horiz-adv-x="876" 
d="M395 1171v-966h447v-205h-674v1171h227zM350 1571h234l-242 -287h-174z" />
    <glyph glyph-name="Lcaron.sc" horiz-adv-x="888" 
d="M168 0v1171h227v-966h447v-205h-674zM610 1169h191q-6 -137 -52 -243t-112 -160l-139 41q112 157 112 362z" />
    <glyph glyph-name="Ldot.sc" horiz-adv-x="876" 
d="M518 496q0 48 35 80t83 32t83 -33t35 -79t-34 -80q-34 -33 -83 -33t-84 33t-35 80zM168 0v1171h227v-966h447v-205h-674z" />
    <glyph glyph-name="Nacute.sc" horiz-adv-x="1206" 
d="M393 0h-225v1171h209l432 -733v733h229v-1171h-207l-438 745v-745zM668 1577h231l-244 -285h-174z" />
    <glyph glyph-name="Ncaron.sc" horiz-adv-x="1206" 
d="M393 0h-225v1171h209l432 -733v733h229v-1171h-207l-438 745v-745zM465 1575l129 -143l127 143h172l-193 -285h-215l-190 285h170z" />
    <glyph glyph-name="Omacron.sc" horiz-adv-x="1380" 
d="M1059 581q0 155 -109 267q-110 112 -262 110q-152 0 -258 -110t-106 -267t104 -268q110 -109 262 -109t260 112q108 110 109 265zM96 582q0 250 172 426t422 176t423 -175t173 -427t-175 -427t-423 -175t-420 176t-172 426zM457 1360v151h465v-151h-465z" />
    <glyph glyph-name="Obreve.sc" horiz-adv-x="1380" 
d="M1059 581q0 155 -109 267q-110 112 -262 110q-152 0 -258 -110t-106 -267t104 -268q110 -109 262 -109t260 112q108 110 109 265zM96 582q0 250 172 426t422 176t423 -175t173 -427t-175 -427t-423 -175t-420 176t-172 426zM459 1542h149q0 -92 80 -92t80 92h152
q0 -104 -64 -166t-168 -63q-106 0 -168 64q-61 65 -61 165z" />
    <glyph glyph-name="Ohungarumlaut.sc" horiz-adv-x="1380" 
d="M1059 581q0 155 -109 267q-110 112 -262 110q-152 0 -258 -110t-106 -267t104 -268q110 -109 262 -109t260 112q108 110 109 265zM96 582q0 250 172 426t422 176t423 -175t173 -427t-175 -427t-423 -175t-420 176t-172 426zM911 1575h195l-213 -285h-178zM651 1575h193
l-195 -285h-174z" />
    <glyph glyph-name="Racute.sc" horiz-adv-x="1124" 
d="M395 967v-351h226q98 -4 139 85t2 179t-133 87h-234zM395 414v-414h-227v1171h471q182 0 281 -112q98 -113 98 -259t-77 -248t-216 -130l299 -422h-276l-275 414h-78zM578 1577h231l-244 -285h-174z" />
    <glyph glyph-name="Rcaron.sc" horiz-adv-x="1124" 
d="M395 967v-351h226q98 -4 139 85t2 179t-133 87h-234zM395 414v-414h-227v1171h471q182 0 281 -112q98 -113 98 -259t-77 -248t-216 -130l299 -422h-276l-275 414h-78zM428 1575l127 -143l129 143h172l-192 -285h-215l-195 285h174z" />
    <glyph glyph-name="Sacute.sc" horiz-adv-x="1030" 
d="M520 186q82 0 133 37t55 94q9 114 -155 154l-143 41q-297 80 -297 328q1 152 117 248t285 96t278 -98t108 -263h-225q0 68 -46 110t-119 42t-122 -38t-49 -93q0 -90 135 -127l141 -41q168 -45 248 -142t74 -221q-10 -157 -130 -245t-296 -88t-295 106q-117 106 -117 262
h230q2 -70 55 -116t135 -46zM575 1577h232l-242 -285h-176z" />
    <glyph glyph-name="Scircumflex.sc" horiz-adv-x="1030" 
d="M100 348h230q2 -70 55 -116t135 -46t133 37t55 94q9 114 -155 154l-143 41q-297 80 -297 328q1 152 117 248t285 96t278 -98t108 -263h-225q0 68 -46 110t-119 42t-122 -38t-49 -93q0 -90 135 -127l141 -41q168 -45 248 -142t74 -221q-10 -157 -130 -245t-296 -88
t-295 106q-117 106 -117 262zM813 1294h-170l-129 146l-129 -146h-172l193 287h215z" />
    <glyph glyph-name="Scedilla.sc" horiz-adv-x="1028" 
d="M491 -360q-77 0 -129 59q-51 59 -49 156l133 -7q-8 -32 15 -60t53 -15q43 14 27 69l-56 142q-166 8 -276 112q-106 104 -107 254h228q2 -68 55 -116t137 -48t133 36t55 94q11 111 -155 155l-143 39q-297 80 -297 330q1 152 115 248t282 96t279 -98t110 -263h-225
q0 68 -45 109t-119 41t-123 -37t-49 -92q0 -94 135 -127l141 -43q312 -93 320 -347q4 -126 -90 -220t-236 -117l24 -47q20 -39 30 -63q12 -24 12 -78q0 -56 -54 -109t-131 -53z" />
    <glyph glyph-name="Utilde.sc" horiz-adv-x="1204" 
d="M676 1327q-34 0 -82 35t-64 35q-16 1 -27 -19t-11 -53h-132q6 109 54 165t114 56q33 0 78 -34t70 -33q33 0 39 67h129q-4 -109 -52 -164t-116 -55zM387 412q-1 -90 63 -152t153 -63q89 0 154 61t64 154v759h228v-759q0 -193 -132 -313q-133 -119 -315 -119t-314 120
t-132 312v759h231v-759z" />
    <glyph glyph-name="Umacron.sc" horiz-adv-x="1204" 
d="M821 412v759h228v-759q0 -193 -132 -313q-133 -119 -315 -119t-314 120t-132 312v759h231v-759q-1 -92 63 -154t153 -61q89 0 154 61q64 62 64 154zM369 1360v151h467v-151h-467z" />
    <glyph glyph-name="Ubreve.sc" horiz-adv-x="1204" 
d="M821 412v759h228v-759q0 -193 -132 -313q-133 -119 -315 -119t-314 120t-132 312v759h231v-759q-1 -92 63 -154t153 -61q89 0 154 61q64 62 64 154zM373 1542h147q0 -92 80 -92q36 0 58 27t22 65h154q0 -104 -65 -166t-170 -63q-105 0 -166 64q-60 65 -60 165z" />
    <glyph glyph-name="Uring.sc" horiz-adv-x="1204" 
d="M821 412v759h228v-759q0 -193 -132 -313q-133 -119 -315 -119t-314 120t-132 312v759h231v-759q-1 -92 63 -154t153 -61q89 0 154 61q64 62 64 154zM602 1571q-34 0 -60 -27q-26 -28 -26 -62t24 -58t61 -25q36 1 62 25t25 59q0 35 -26 61t-60 27zM401 1484q-1 85 57 143
q58 59 143 59t143 -58t58 -144q0 -84 -58 -142t-143 -58t-143 58t-57 142z" />
    <glyph glyph-name="Uhungarumlaut.sc" horiz-adv-x="1204" 
d="M793 1575h194l-213 -285h-178zM532 1575h193l-195 -285h-174zM821 412v759h228v-759q0 -193 -132 -313q-133 -119 -315 -119t-314 120t-132 312v759h231v-759q-1 -92 63 -154t153 -61q89 0 154 61q64 62 64 154z" />
    <glyph glyph-name="Uogonek.sc" horiz-adv-x="1208" 
d="M471 -196q0 60 31 126l30 60q-158 20 -266 136t-108 288v757h231v-757q-1 -90 63 -152t153 -61q89 0 154 61t64 152v757h228v-757q0 -178 -114 -294t-278 -134q-33 -82 -51 -140t19 -71q37 -15 59 13t14 60l134 7q2 -95 -50 -155t-130 -60q-77 0 -130 52t-53 112z" />
    <glyph glyph-name="Wcircumflex.sc" horiz-adv-x="1576" 
d="M1051 397l245 774h246l-399 -1171h-182l-173 631l-172 -631h-182l-397 1171h246l243 -776l172 617h183zM1090 1294h-172l-130 146l-129 -146h-170l193 287h213z" />
    <glyph glyph-name="Ycircumflex.sc" horiz-adv-x="1171" 
d="M700 0h-231v532l-451 639h271l295 -440l297 440h276l-457 -639v-532zM885 1294h-172l-127 146l-129 -146h-170l192 287h213z" />
    <glyph glyph-name="Tcaron.sc" horiz-adv-x="976" 
d="M930 1171v-206h-326v-965h-231v965h-326v206h883zM371 1575l129 -143l129 143h172l-195 -285h-215l-190 285h170z" />
    <glyph glyph-name="Tbar.sc" horiz-adv-x="976" 
d="M373 0v504h-195v137h195v324h-326v206h883v-206h-326v-324h201v-137h-201v-504h-231z" />
    <glyph glyph-name="Zacute.sc" horiz-adv-x="1052" 
d="M96 0v178l555 789h-530v204h825v-176l-557 -788h557v-207h-850zM584 1577h233l-246 -285h-174z" />
    <glyph glyph-name="Zdotaccent.sc" horiz-adv-x="1052" 
d="M96 0v178l555 789h-530v204h825v-176l-557 -788h557v-207h-850zM414 1461q0 52 37 87t91 35t91 -35t37 -87t-37 -87t-91 -35t-91 35t-37 87z" />
    <glyph glyph-name="Wgrave.sc" horiz-adv-x="1576" 
d="M1051 397l245 774h246l-399 -1171h-182l-173 631l-172 -631h-182l-397 1171h246l243 -776l172 617h183zM899 1292h-176l-242 285h232z" />
    <glyph glyph-name="Wacute.sc" horiz-adv-x="1576" 
d="M1542 1171l-399 -1171h-182l-173 631l-172 -631h-182l-397 1171h246l243 -776l172 617h183l170 -615l245 774h246zM864 1577h232l-244 -285h-174z" />
    <glyph glyph-name="Wdieresis.sc" horiz-adv-x="1576" 
d="M1542 1171l-399 -1171h-182l-173 631l-172 -631h-182l-397 1171h246l243 -776l172 617h183l170 -615l245 774h246zM813 1449q0 50 36 83t87 33t87 -33t36 -82t-36 -83t-87 -34t-87 33t-36 83zM642 1565q50 0 86 -33t36 -82t-36 -83t-86 -34t-86 34t-36 83t36 82t86 33z
" />
    <glyph glyph-name="Aringacute.sc" horiz-adv-x="1167" 
d="M797 281h-424l-107 -281h-241l438 1171h242l438 -1171h-242zM721 481l-139 418l-136 -418h275zM666 1474q0 36 -26 62t-63 25q-37 1 -60 -25t-23 -62t24 -62t60 -26t62 26t26 62zM780 1473q0 -85 -59 -143t-143 -58t-143 58q-58 58 -58 134t40 128q40 54 101 75l133 205
h230l-193 -230q92 -57 92 -169z" />
    <glyph glyph-name="AEacute.sc" horiz-adv-x="1642" 
d="M788 496v354l-204 -354h204zM1518 1171v-206h-502v-285h438v-207h-438v-264h518v-209h-746v274h-335l-177 -274h-272l741 1171h773zM975 1577h231l-243 -285h-175z" />
    <glyph glyph-name="Oslashacute.sc" horiz-adv-x="1378" 
d="M686 205q154 1 262 111t109 248q0 138 -68 235l-512 -529q90 -65 209 -65zM322 594q0 -144 69 -238l514 531q-100 72 -219 71q-154 0 -259 -110t-105 -254zM94 598q0 234 172 410t404 176t393 -135l135 137l86 -86l-135 -137q135 -172 135 -383q0 -250 -175 -425
t-423 -175q-197 0 -367 126l-135 -139l-86 88l133 140q-137 169 -137 403zM780 1577h234l-246 -285h-172z" />
    <glyph glyph-name="Ibreve.sc" horiz-adv-x="561" 
d="M51 1542h150q0 -92 82 -92q37 0 57 26t20 66h152q0 -104 -62 -166t-168 -63t-168 65q-63 66 -63 164zM393 1171v-1171h-225v1171h225z" />
    <glyph glyph-name="Eng.sc" horiz-adv-x="1206" 
d="M395 0h-227v1171h211l428 -755v755h231v-1148q0 -193 -93 -304t-283 -110q-59 0 -164 26l22 222l101 -19q59 -4 73 4q53 10 83 56t32 110l-414 733v-741z" />
    <glyph glyph-name="Ygrave.sc" horiz-adv-x="1171" 
d="M700 0h-231v532l-451 639h271l295 -440l297 440h276l-457 -639v-532zM709 1292h-177l-241 285h231z" />
    <glyph glyph-name="Gcommaaccent.sc" horiz-adv-x="1327" 
d="M631 -508l-115 49q90 121 74 377h198q2 -133 -46 -253t-111 -173zM693 969q-155 0 -262 -114q-107 -113 -107 -275t106 -275t262 -112q117 -1 210 63t95 162h-317v190h577q0 -309 -148 -469q-149 -159 -407 -159t-433 175t-175 426t172 427q176 176 430 176t424 -185
l-164 -145h-4q-104 115 -259 115z" />
    <glyph glyph-name="Kcommaaccent.sc" horiz-adv-x="1069" 
d="M545 -508l-115 49q90 121 74 377h198q2 -133 -46 -253t-111 -173zM397 0h-229v1171h229v-407l303 407h269l-447 -581l551 -590h-297l-379 420v-420z" />
    <glyph glyph-name="Lcommaaccent.sc" horiz-adv-x="876" 
d="M438 -508l-114 49q90 121 73 377h199q2 -133 -46 -253t-112 -173zM168 0v1171h227v-966h447v-205h-674z" />
    <glyph glyph-name="Ncommaaccent.sc" horiz-adv-x="1206" 
d="M545 -508l-115 49q90 121 74 377h198q2 -133 -46 -253t-111 -173zM1038 1171v-1171h-207l-438 737v-737h-225v1171h209l432 -727v727h229z" />
    <glyph glyph-name="Rcommaaccent.sc" horiz-adv-x="1124" 
d="M545 -508l-115 49q90 121 74 377h198q2 -133 -46 -253t-111 -173zM395 967v-351h226q98 -4 139 85t2 179t-133 87h-234zM395 414v-414h-227v1171h471q182 0 281 -112q98 -113 98 -259t-77 -248t-216 -130l299 -422h-276l-275 414h-78z" />
    <glyph glyph-name="Tcommaaccent.sc" horiz-adv-x="976" 
d="M428 -508l-115 49q90 121 74 377h199q2 -133 -46 -253t-112 -173zM47 965v206h883v-206h-326v-965h-231v965h-326z" />
    <glyph glyph-name="Scommaaccent.sc" horiz-adv-x="1030" 
d="M473 -508l-115 49q90 121 74 377h199q1 -133 -47 -253t-111 -173zM100 348h230q2 -70 55 -116t135 -46t133 38t55 94t-34 94q-39 38 -121 59l-143 41q-297 80 -297 328q1 152 117 248t285 96t278 -98t108 -263h-225q0 68 -46 110t-119 42t-122 -38t-49 -93
q0 -90 135 -127l141 -41q332 -96 322 -363q-10 -157 -130 -245t-296 -88t-295 106q-117 106 -117 262z" />
    <glyph glyph-name="Idotaccent.sc" horiz-adv-x="561" 
d="M154 1461q0 52 37 87t91 35t91 -35t37 -87t-37 -87t-91 -35t-92 35q-36 35 -36 87zM393 1171v-1171h-225v1171h225z" />
    <glyph glyph-name="zero.numr" horiz-adv-x="729" 
d="M223 946q-1 -260 141 -260t142 260t-142 260t-141 -260zM365 1354q291 0 291 -406t-292 -407q-290 1 -290 407t291 406z" />
    <glyph glyph-name="one.numr" horiz-adv-x="436" 
d="M330 553h-150v582l-135 -62v135l285 142v-797z" />
    <glyph glyph-name="two.numr" horiz-adv-x="651" 
d="M66 553v76l321 385q45 51 45 97t-31 73q-31 26 -79 26t-81 -32q-34 -32 -42 -86l-138 28q19 109 91 171q72 63 177 63t179 -68t74 -172t-84 -201l-191 -217h262v-143h-503z" />
    <glyph glyph-name="three.numr" horiz-adv-x="649" 
d="M551 1128q0 -93 -98 -149q61 -23 99 -85t32 -128q-10 -102 -100 -167t-186 -57q-95 8 -162 52q-67 45 -99 115l127 65q45 -88 129 -88q51 -2 90 28t42 74t-28 82q-31 37 -94 35h-86v129h86q47 0 72 34t18 69q-1 33 -27 57t-63 23q-67 3 -104 -56l-113 78q84 124 250 114
q86 -5 150 -69t65 -156z" />
    <glyph glyph-name="four.numr" horiz-adv-x="708" 
d="M406 852v266l-168 -266h168zM659 723h-104v-170h-149v170h-390l396 616h143v-487h104v-129z" />
    <glyph glyph-name="five.numr" horiz-adv-x="694" 
d="M489 824q0 58 -40 94q-41 35 -107 34q-109 0 -190 -78l-72 48l65 417h441v-139h-320l-26 -151q52 35 152 35t172 -72q72 -70 73 -193q0 -123 -84 -201t-225 -77q-84 -1 -159 43t-118 118l125 82q52 -96 166 -96q58 0 102 39t45 97z" />
    <glyph glyph-name="six.numr" horiz-adv-x="692" 
d="M252 804q0 -50 34 -84t82 -35t83 33t36 83q0 49 -33 84q-34 35 -83 36t-84 -33t-35 -84zM395 1061q98 0 173 -74q75 -75 72 -191t-82 -188t-194 -70q-114 2 -190 76t-86 197q-23 168 38 359q26 81 95 133q70 51 174 49q175 -11 238 -156l-137 -57q-33 73 -108 73
t-115 -68t-35 -173q18 37 61 63t96 27z" />
    <glyph glyph-name="seven.numr" horiz-adv-x="643" 
d="M53 1339h580l-381 -786h-170l311 647h-340v139z" />
    <glyph glyph-name="eight.numr" horiz-adv-x="706" 
d="M268 1134q0 -34 24 -58t70 -24t67 42q22 41 0 82q-22 42 -67 40q-46 -2 -70 -25t-24 -57zM494 809q0 49 -39 90t-95 39h-18q-53 0 -91 -39t-38 -90q-4 -82 88 -117t152 27q41 41 41 90zM121 1146q0 83 68 145q69 63 165 63t164 -62t68 -149q0 -86 -58 -137
q115 -72 115 -191t-84 -197t-204 -78t-208 78q-84 78 -84 197t115 191q-57 57 -57 140z" />
    <glyph glyph-name="nine.numr" horiz-adv-x="692" 
d="M457 1087q0 49 -34 84t-83 37t-84 -32t-36 -85q-1 -50 33 -84t83 -35q49 -2 84 32t37 83zM320 680q74 0 113 69q40 69 38 173q-20 -37 -63 -64t-97 -27q-98 0 -172 75q-75 75 -71 191q4 117 82 187t194 68t191 -76q76 -74 86 -197q12 -199 -39 -354q-31 -88 -100 -138
t-169 -46q-169 10 -239 155l139 58q33 -74 107 -74z" />
    <glyph glyph-name="zero.dnom" horiz-adv-x="729" 
d="M365 653q-141 0 -141 -260t140 -260q142 0 142 260t-141 260zM74 394q0 407 291 407t291 -407t-291 -406q-291 -1 -291 406z" />
    <glyph glyph-name="one.dnom" horiz-adv-x="436" 
d="M332 0h-150v582l-135 -62v135l285 142v-797z" />
    <glyph glyph-name="two.dnom" horiz-adv-x="651" 
d="M66 0v78l321 383q45 53 45 98t-31 72t-79 27t-81 -32q-34 -32 -42 -85l-138 26q19 109 91 171t177 62t179 -67q74 -68 74 -171t-84 -200l-191 -219h262v-143h-503z" />
    <glyph glyph-name="three.dnom" horiz-adv-x="653" 
d="M555 575q0 -93 -98 -149q61 -23 99 -85t32 -128q-10 -102 -100 -167q-90 -66 -186 -58q-95 8 -162 53t-99 115l127 65q45 -88 129 -88q51 -2 90 28q39 31 42 75t-28 81t-94 35h-86v129h86q47 0 72 34t18 69q-1 32 -27 56t-63 24q-67 3 -104 -56l-113 78q84 124 250 114
q86 -4 150 -68t65 -157z" />
    <glyph glyph-name="four.dnom" horiz-adv-x="710" 
d="M408 301v266l-168 -266h168zM662 170h-105v-170h-149v170h-390l396 618h143v-487h105v-131z" />
    <glyph glyph-name="five.dnom" horiz-adv-x="694" 
d="M340 135q58 0 102 39t45 98q0 58 -42 94t-105 35q-111 0 -190 -79l-72 47l65 417h441v-139h-320l-26 -151q52 34 152 34t172 -70t73 -192q0 -124 -85 -202t-224 -78q-84 0 -159 44t-118 118l125 81q52 -96 166 -96z" />
    <glyph glyph-name="six.dnom" horiz-adv-x="692" 
d="M371 369q-49 0 -84 -34t-35 -83t34 -84t82 -36t83 33t35 84t-32 85q-34 35 -83 35zM395 508q98 0 173 -74t72 -190t-82 -187t-195 -69q-117 2 -191 76t-84 196q-24 165 38 357q26 81 95 133q70 51 174 49q170 -11 238 -154l-137 -59q-33 74 -108 74t-115 -68t-35 -174
q14 38 59 64t98 26z" />
    <glyph glyph-name="seven.dnom" horiz-adv-x="649" 
d="M55 788h580l-381 -788h-170l311 647h-340v141z" />
    <glyph glyph-name="eight.dnom" horiz-adv-x="706" 
d="M354 662q-38 0 -62 -22t-24 -57q0 -34 24 -59q24 -26 62 -24t63 26q23 24 23 56t-24 56t-62 24zM213 257q0 -52 41 -90t99 -38t100 38q41 38 41 89t-39 90t-95 39h-18q-53 0 -91 -38t-38 -90zM121 593q0 83 68 145q69 62 165 62t164 -62t68 -148t-58 -137
q115 -72 115 -191q0 -118 -84 -196t-204 -78t-208 78q-84 78 -84 196t115 191q-57 57 -57 140z" />
    <glyph glyph-name="nine.dnom" horiz-adv-x="694" 
d="M422 452q35 34 36 84t-33 85t-83 35t-84 -34t-36 -83t33 -84t83 -36t84 33zM322 127q74 0 113 68q40 68 38 176q-18 -39 -62 -66t-98 -26q-98 0 -172 73q-75 78 -71 193t82 185t194 69q116 -2 191 -76q76 -74 86 -197q12 -199 -39 -354q-31 -88 -100 -138t-169 -46
q-169 10 -239 155l139 60q33 -76 107 -76z" />
    <glyph glyph-name="l.alt1" horiz-adv-x="624" 
d="M524 229h97v-229h-134q-356 0 -356 414v1063h252v-1067q-2 -181 141 -181z" />
    <glyph glyph-name="a.alt1" horiz-adv-x="1105" 
d="M539 977q209 -1 323 -107t115 -303v-567h-246v98q-47 -57 -128 -88t-159 -30q-172 0 -271 84t-99 226q0 144 102 224t311 80q51 0 125 -19q72 -14 119 -45v37q0 83 -56 137t-151 54q-164 0 -256 -119l-147 141q137 197 418 197zM461 199q61 1 144 29t124 83v45
q-41 29 -118 44t-119 16q-170 0 -170 -107q0 -47 38 -79q40 -31 101 -31z" />
    <glyph glyph-name="y.alt1" horiz-adv-x="1042" 
d="M162 -246q61 0 95 37t75 135l57 137l-369 893h265l237 -587l238 587h266l-469 -1124q-78 -170 -160 -239t-231 -68q-61 0 -141 20v219q76 -10 137 -10z" />
    <glyph glyph-name="lslash.alt1" horiz-adv-x="667" 
d="M563 229h96v-229h-133q-356 0 -356 414v186l-154 -96v172l154 96v705h252v-547l178 112v-172l-178 -112v-348q-2 -181 141 -181z" />
    <glyph glyph-name="lacute.alt1" horiz-adv-x="624" 
d="M621 0h-134q-356 0 -356 414v1063h252v-1067q-2 -180 141 -181h97v-229zM143 1569l215 334h263l-283 -334h-195z" />
    <glyph glyph-name="lcommaaccent.alt1" horiz-adv-x="624" 
d="M350 -561l-131 59q67 96 91 175t20 212h219q-17 -299 -199 -446zM524 229h97v-229h-134q-356 0 -356 414v1063h252v-1067q-2 -181 141 -181z" />
    <glyph glyph-name="lcaron.alt1" horiz-adv-x="624" 
d="M621 0h-134q-356 0 -356 414v1063h252v-1067q-2 -180 141 -181h97v-229zM606 991l-153 51q141 199 133 435h219q-7 -164 -63 -292t-136 -194z" />
    <glyph glyph-name="aacute.alt1" horiz-adv-x="1105" 
d="M457 1114l215 334h262l-283 -334h-194zM539 977q209 -1 323 -107t115 -303v-567h-246v98q-47 -57 -128 -88t-159 -30q-172 0 -271 84t-99 226q0 144 102 224t311 80q51 0 125 -19q72 -14 119 -45v37q0 83 -56 137t-151 54q-164 0 -256 -119l-147 141q137 197 418 197z
M461 199q61 1 144 29t124 83v45q-41 29 -118 44t-119 16q-170 0 -170 -107q0 -47 38 -79q40 -31 101 -31z" />
    <glyph glyph-name="agrave.alt1" horiz-adv-x="1105" 
d="M479 1114l-282 334h262l215 -334h-195zM539 977q209 -1 323 -107t115 -303v-567h-246v98q-47 -57 -128 -88t-159 -30q-172 0 -271 84t-99 226q0 144 102 224t311 80q51 0 125 -19q72 -14 119 -45v37q0 83 -56 137t-151 54q-164 0 -256 -119l-147 141q137 197 418 197z
M461 199q61 1 144 29t124 83v45q-41 29 -118 44t-119 16q-170 0 -170 -107q0 -47 38 -79q40 -31 101 -31z" />
    <glyph glyph-name="acircumflex.alt1" horiz-adv-x="1105" 
d="M197 1120l223 334h252l225 -334h-192l-160 180l-156 -180h-192zM539 977q209 -1 323 -107t115 -303v-567h-246v98q-47 -57 -128 -88t-159 -30q-172 0 -271 84t-99 226q0 144 102 224t311 80q51 0 125 -19q72 -14 119 -45v37q0 83 -56 137t-151 54q-164 0 -256 -119
l-147 141q137 197 418 197zM461 199q61 1 144 29t124 83v45q-41 29 -118 44t-119 16q-170 0 -170 -107q0 -47 38 -79q40 -31 101 -31z" />
    <glyph glyph-name="adieresis.alt1" horiz-adv-x="1105" 
d="M586 1294q0 58 41 96t100 38t99 -38t40 -96t-40 -95q-40 -38 -99 -38t-100 38t-41 95zM370 1427q58 -1 99 -39t41 -94t-41 -94q-41 -39 -99 -39t-100 38q-41 38 -41 95t41 96q42 37 100 37zM539 977q209 -1 323 -107t115 -303v-567h-246v98q-47 -57 -128 -88t-159 -30
q-172 0 -271 84t-99 226q0 144 102 224t311 80q51 0 125 -19q72 -14 119 -45v37q0 83 -56 137t-151 54q-164 0 -256 -119l-147 141q137 197 418 197zM461 199q61 1 144 29t124 83v45q-41 29 -118 44t-119 16q-170 0 -170 -107q0 -47 38 -79q40 -31 101 -31z" />
    <glyph glyph-name="atilde.alt1" horiz-adv-x="1105" 
d="M653 1159q-45 0 -105 42t-76 42q-17 0 -34 -23q-16 -24 -18 -65h-144q6 127 62 192t135 64q49 0 105 -42t75 -42q18 0 36 23q17 23 20 61h143q-6 -123 -64 -187t-135 -65zM539 977q209 -1 323 -107t115 -303v-567h-246v98q-47 -57 -128 -88t-159 -30q-172 0 -271 84
t-99 226q0 144 102 224t311 80q51 0 125 -19q72 -14 119 -45v37q0 83 -56 137t-151 54q-164 0 -256 -119l-147 141q137 197 418 197zM461 199q61 1 144 29t124 83v45q-41 29 -118 44t-119 16q-170 0 -170 -107q0 -47 38 -79q40 -31 101 -31z" />
    <glyph glyph-name="aring.alt1" horiz-adv-x="1105" 
d="M428 1340q0 -50 35 -84t84 -34t84 34t35 84t-35 85t-84 35t-84 -35t-35 -85zM311 1339q0 98 68 170q70 70 169 70t168 -69q68 -69 68 -169q0 -99 -70 -167t-166 -68q-97 0 -167 68t-70 165zM539 977q209 -1 323 -107t115 -303v-567h-246v98q-47 -57 -128 -88t-159 -30
q-172 0 -271 84t-99 226q0 144 102 224t311 80q51 0 125 -19q72 -14 119 -45v37q0 83 -56 137t-151 54q-164 0 -256 -119l-147 141q137 197 418 197zM461 199q61 1 144 29t124 83v45q-41 29 -118 44t-119 16q-170 0 -170 -107q0 -47 38 -79q40 -31 101 -31z" />
    <glyph glyph-name="amacron.alt1" horiz-adv-x="1105" 
d="M825 1198h-551v170h551v-170zM539 977q209 -1 323 -107t115 -303v-567h-246v98q-47 -57 -128 -88t-159 -30q-172 0 -271 84t-99 226q0 144 102 224t311 80q51 0 125 -19q72 -14 119 -45v37q0 83 -56 137t-151 54q-164 0 -256 -119l-147 141q137 197 418 197zM461 199
q61 1 144 29t124 83v45q-41 29 -118 44t-119 16q-170 0 -170 -107q0 -47 38 -79q40 -31 101 -31z" />
    <glyph glyph-name="abreve.alt1" horiz-adv-x="1105" 
d="M285 1407h168q0 -113 104 -113q49 0 77 32t28 81h169q1 -121 -75 -194t-202 -73t-198 76t-71 191zM539 977q209 -1 323 -107t115 -303v-567h-246v98q-47 -57 -128 -88t-159 -30q-172 0 -271 84t-99 226q0 144 102 224t311 80q51 0 125 -19q72 -14 119 -45v37
q0 83 -56 137t-151 54q-164 0 -256 -119l-147 141q137 197 418 197zM461 199q61 1 144 29t124 83v45q-41 29 -118 44t-119 16q-170 0 -170 -107q0 -47 38 -79q40 -31 101 -31z" />
    <glyph glyph-name="aogonek.alt1" horiz-adv-x="1105" 
d="M461 199q61 1 144 29t124 83v45q-41 29 -118 44t-119 16q-170 0 -170 -107q0 -47 38 -79q40 -31 101 -31zM539 977q209 -1 323 -107t115 -303v-567h-115l-71 -197q-23 -74 34 -94q63 -16 88 41l11 51l141 9q2 -109 -59 -178q-60 -68 -150 -68t-153 61q-62 61 -62 134
t18 108l72 133v98q-47 -57 -128 -88t-159 -30q-172 0 -271 84t-99 226q0 144 102 224t311 80q51 0 125 -19q72 -14 119 -45v37q0 83 -56 137t-151 54q-164 0 -256 -119l-147 141q137 197 418 197z" />
    <glyph glyph-name="yacute.alt1" horiz-adv-x="1042" 
d="M162 -246q61 0 95 37t75 135l57 137l-369 893h265l237 -587l238 587h266l-469 -1124q-78 -170 -160 -239t-231 -68q-61 0 -141 20v219q76 -10 137 -10zM360 1114l215 334h263l-283 -334h-195z" />
    <glyph glyph-name="ydieresis.alt1" horiz-adv-x="1042" 
d="M162 -246q61 0 95 37t75 135l57 137l-369 893h265l237 -587l238 587h266l-469 -1124q-78 -170 -160 -239t-231 -68q-61 0 -141 20v219q76 -10 137 -10zM553 1294q0 58 41 96t100 38q60 0 100 -38t40 -96t-40 -95q-40 -38 -100 -38t-100 38q-41 38 -41 95zM197 1294
q0 57 41 95t99 38q58 -1 99 -39t41 -94t-41 -94q-41 -39 -99 -39t-99 38t-41 95z" />
    <glyph glyph-name="ae.alt1" horiz-adv-x="1783" 
d="M451 199q61 1 149 29t129 83v37q-41 29 -118 44t-119 16q-170 0 -170 -115q0 -41 33 -68q35 -26 96 -26zM1227 768q-98 0 -167 -56t-83 -147h491q-14 94 -78 149q-65 54 -163 54zM977 0h-246v98q-47 -57 -128 -88t-159 -30q-172 0 -271 84t-99 226q0 144 102 224t311 80
q49 0 127 -16t117 -43v32q0 83 -56 137t-151 54q-162 0 -256 -121l-147 143q137 197 418 197q231 0 344 -129q141 129 347 129t344 -138t138 -358q0 -25 -4 -86h-729q12 -92 85 -148q73 -57 165 -57q91 0 157 33t97 90l190 -102q-59 -113 -179 -172t-262 -59t-255 63v-43z
" />
    <glyph glyph-name="aeacute.alt1" horiz-adv-x="1783" 
d="M451 199q61 1 149 29t129 83v37q-41 29 -118 44t-119 16q-170 0 -170 -115q0 -41 33 -68q35 -26 96 -26zM1227 768q-98 0 -167 -56t-83 -147h491q-14 94 -78 149q-65 54 -163 54zM977 0h-246v98q-47 -57 -128 -88t-159 -30q-172 0 -271 84t-99 226q0 144 102 224t311 80
q49 0 127 -16t117 -43v32q0 83 -56 137t-151 54q-162 0 -256 -121l-147 143q137 197 418 197q231 0 344 -129q141 129 347 129t344 -138t138 -358q0 -25 -4 -86h-729q12 -92 85 -148q73 -57 165 -57q91 0 157 33t97 90l190 -102q-59 -113 -179 -172t-262 -59t-255 63v-43z
M803 1114l215 334h262l-283 -334h-194z" />
    <glyph glyph-name="ycircumflex.alt1" horiz-adv-x="1042" 
d="M174 1120l223 334h252l225 -334h-192l-160 180l-155 -180h-193zM162 -246q61 0 95 37t75 135l57 137l-369 893h265l237 -587l238 587h266l-469 -1124q-78 -170 -160 -239t-231 -68q-61 0 -141 20v219q76 -10 137 -10z" />
    <glyph glyph-name="ldot.alt1" horiz-adv-x="827" 
d="M500 641q0 66 46 111t114 45q67 0 115 -44t48 -112t-48 -112t-115 -44q-68 0 -114 45t-46 111zM524 229h97v-229h-134q-356 0 -356 414v1063h252v-1067q-2 -181 141 -181z" />
    <glyph glyph-name="t.alt1" horiz-adv-x="784" 
d="M616 229h93v-229h-129q-188 0 -273 93q-84 93 -84 292v371h-174v200h174v199l252 80v-279h199v-200h-199v-375q-3 -76 29 -114t112 -38z" />
    <glyph glyph-name="tcaron.alt1" horiz-adv-x="784" 
d="M709 0h-129q-188 0 -273 93q-84 93 -84 292v371h-174v200h174v199l252 80v-279h199v-200h-199v-375q-2 -76 30 -114t111 -38h93v-229zM688 1073l-133 60q67 96 91 175t20 212h219q-15 -295 -197 -447z" />
    <glyph glyph-name="tbar.alt1" horiz-adv-x="788" 
d="M621 229h92v-229h-129q-188 0 -273 93q-84 93 -84 292v21h-121v145h121v205h-174v200h174v199l252 80v-279h199v-200h-199v-205h144v-145h-144v-25q-2 -76 30 -114t112 -38z" />
    <glyph glyph-name="tcommaaccent.alt1" horiz-adv-x="784" 
d="M420 -561l-131 59q67 96 91 175t19 212h219q-16 -299 -198 -446zM616 229h93v-229h-129q-188 0 -273 93q-84 93 -84 292v371h-174v200h174v199l252 80v-279h199v-200h-199v-375q-3 -76 29 -114t112 -38z" />
    <glyph glyph-name="T.sc.alt1" horiz-adv-x="976" 
d="M47 965v206h883v-206h-326v-965h-231v965h-326z" />
    <glyph glyph-name="Tcaron.sc.alt1" horiz-adv-x="976" 
d="M930 1171v-206h-326v-965h-231v965h-326v206h883zM371 1575l129 -143l129 143h172l-195 -285h-215l-190 285h170z" />
    <glyph glyph-name="Tbar.sc.alt1" horiz-adv-x="976" 
d="M373 0v504h-195v137h195v324h-326v206h883v-206h-326v-324h201v-137h-201v-504h-231z" />
    <glyph glyph-name="Tcommaaccent.sc.alt1" horiz-adv-x="976" 
d="M428 -508l-115 49q90 121 74 377h199q2 -133 -46 -253t-112 -173zM47 965v206h883v-206h-326v-965h-231v965h-326z" />
    <glyph glyph-name="aringacute.alt1" horiz-adv-x="1105" 
d="M539 977q209 -1 323 -107t115 -303v-567h-246v98q-47 -57 -128 -88t-159 -30q-172 0 -271 84t-99 226q0 144 102 224t311 80q51 0 125 -19q72 -14 119 -45v37q0 83 -56 137t-151 54q-164 0 -256 -119l-147 141q137 197 418 197zM461 199q61 1 144 29t124 83v45
q-41 29 -118 44t-119 16q-170 0 -170 -107q0 -47 38 -79q40 -31 101 -31zM438 1328q0 -50 35 -84t84 -34t84 34t35 84t-35 85t-84 35t-84 -35t-35 -85zM795 1327q0 -98 -70 -166q-70 -67 -168 -67t-168 67q-67 68 -67 157t44 151t119 87l162 250h262l-231 -272
q117 -72 117 -207z" />
    </font>
</defs>
</svg>
